G75*
%MOIN*%
%OFA0B0*%
%FSLAX24Y24*%
%IPPOS*%
%LPD*%
%AMOC8*
5,1,8,0,0,1.08239X$1,22.5*
%
%ADD10C,0.0051*%
%ADD11C,0.0060*%
%ADD12C,0.0279*%
%ADD13R,0.0335X0.0110*%
%ADD14R,0.0110X0.0335*%
%ADD15R,0.0807X0.1201*%
%ADD16R,0.0157X0.0177*%
%ADD17R,0.0110X0.0443*%
%ADD18R,0.0512X0.0591*%
%ADD19R,0.0984X0.1280*%
%ADD20C,0.0520*%
%ADD21C,0.0885*%
%ADD22R,0.0630X0.0710*%
%ADD23R,0.0591X0.0512*%
%ADD24C,0.0840*%
%ADD25C,0.0560*%
%ADD26R,0.0433X0.0394*%
%ADD27R,0.0394X0.0433*%
%ADD28R,0.1378X0.0984*%
%ADD29R,0.0984X0.1378*%
%ADD30C,0.0520*%
%ADD31R,0.0315X0.0315*%
%ADD32R,0.0551X0.0394*%
%ADD33R,0.0906X0.0630*%
%ADD34R,0.0472X0.0315*%
%ADD35R,0.0315X0.0472*%
%ADD36C,0.0236*%
%ADD37R,0.0118X0.0630*%
%ADD38R,0.0630X0.0118*%
%ADD39R,0.0330X0.0110*%
%ADD40R,0.0110X0.0330*%
%ADD41R,0.0670X0.0670*%
%ADD42C,0.0300*%
%ADD43OC8,0.0630*%
%ADD44R,0.0394X0.0551*%
%ADD45C,0.0050*%
%ADD46R,0.1000X0.0500*%
%ADD47R,0.0810X0.0170*%
%ADD48C,0.0440*%
%ADD49R,0.0472X0.0709*%
%ADD50R,0.1339X0.0748*%
%ADD51R,0.0709X0.0472*%
%ADD52C,0.0089*%
%ADD53C,0.0560*%
%ADD54OC8,0.0560*%
%ADD55C,0.0740*%
%ADD56R,0.0591X0.0315*%
%ADD57R,0.0748X0.0551*%
%ADD58R,0.0551X0.0709*%
%ADD59R,0.0600X0.0300*%
%ADD60C,0.0100*%
%ADD61C,0.0540*%
%ADD62C,0.0200*%
D10*
X000492Y000126D02*
X006760Y000126D01*
X001385Y001149D02*
X001260Y000126D01*
X001362Y001149D01*
X001385Y001149D02*
X001134Y001149D01*
X001260Y000126D01*
X001157Y001149D01*
X001208Y001149D02*
X001260Y000126D01*
X001311Y001149D01*
X001260Y000126D02*
X001260Y039496D01*
X001362Y038472D01*
X001385Y038472D02*
X001260Y039496D01*
X001157Y038472D01*
X001134Y038472D02*
X001385Y038472D01*
X001311Y038472D02*
X001260Y039496D01*
X001208Y038472D01*
X001134Y038472D02*
X001260Y039496D01*
X000492Y039496D02*
X006760Y039496D01*
X069752Y039496D02*
X074019Y039497D01*
X073252Y039496D02*
X073149Y038473D01*
X073126Y038473D02*
X073252Y039496D01*
X073354Y038473D01*
X073378Y038473D02*
X073126Y038473D01*
X073201Y038473D02*
X073252Y039496D01*
X073303Y038473D01*
X073378Y038473D02*
X073252Y039496D01*
X073260Y000126D01*
X073157Y001150D01*
X073134Y001150D02*
X073260Y000126D01*
X073362Y001150D01*
X073385Y001150D02*
X073134Y001150D01*
X073208Y001150D02*
X073260Y000126D01*
X073310Y001150D01*
X073385Y001150D02*
X073260Y000126D01*
X074027Y000126D02*
X069760Y000126D01*
D11*
X073725Y018746D02*
X073511Y018959D01*
X074152Y018959D01*
X074152Y018746D02*
X074152Y019173D01*
X074045Y019390D02*
X073618Y019817D01*
X074045Y019817D01*
X074152Y019711D01*
X074152Y019497D01*
X074045Y019390D01*
X073618Y019390D01*
X073511Y019497D01*
X073511Y019711D01*
X073618Y019817D01*
X073618Y020035D02*
X073511Y020142D01*
X073511Y020355D01*
X073618Y020462D01*
X074045Y020035D01*
X074152Y020142D01*
X074152Y020355D01*
X074045Y020462D01*
X073618Y020462D01*
X073618Y020035D02*
X074045Y020035D01*
X001003Y019967D02*
X001003Y019754D01*
X000897Y019647D01*
X000470Y020074D01*
X000897Y020074D01*
X001003Y019967D01*
X000897Y019647D02*
X000470Y019647D01*
X000363Y019754D01*
X000363Y019967D01*
X000470Y020074D01*
X000470Y020292D02*
X000363Y020398D01*
X000363Y020612D01*
X000470Y020719D01*
X000897Y020292D01*
X001003Y020398D01*
X001003Y020612D01*
X000897Y020719D01*
X000470Y020719D01*
X000470Y020292D02*
X000897Y020292D01*
X001003Y019430D02*
X001003Y019003D01*
X001003Y019216D02*
X000363Y019216D01*
X000576Y019003D01*
D12*
X020563Y023732D03*
X020956Y023732D03*
X020956Y024126D03*
X020956Y024519D03*
X020563Y024519D03*
X020563Y024126D03*
D13*
X020080Y024224D03*
X020080Y024027D03*
X020080Y023830D03*
X020080Y023633D03*
X020080Y023437D03*
X020080Y024421D03*
X020080Y024618D03*
X020080Y024815D03*
X021439Y024815D03*
X021439Y024618D03*
X021439Y024421D03*
X021439Y024224D03*
X021439Y024027D03*
X021439Y023830D03*
X021439Y023633D03*
X021439Y023437D03*
D14*
X021055Y023250D03*
X020464Y023250D03*
X020464Y025002D03*
X021055Y025002D03*
D15*
X020760Y024126D03*
D16*
X020760Y023437D03*
X020760Y024815D03*
D17*
X020878Y024943D03*
X020641Y024943D03*
X020641Y023309D03*
X020878Y023309D03*
D18*
X023425Y022126D03*
X024094Y022126D03*
X024094Y020626D03*
X023425Y020626D03*
X021094Y020126D03*
X020425Y020126D03*
X020425Y021626D03*
X021094Y021626D03*
X026925Y020626D03*
X027594Y020626D03*
X021094Y018126D03*
X020425Y018126D03*
X010094Y021626D03*
X009425Y021626D03*
X021425Y030126D03*
X022094Y030126D03*
X023425Y030126D03*
X024094Y030126D03*
X025925Y030126D03*
X026594Y030126D03*
X026594Y031626D03*
X025925Y031626D03*
X024094Y031626D03*
X023425Y031626D03*
X022094Y031626D03*
X021425Y031626D03*
X019094Y032126D03*
X018425Y032126D03*
X016094Y033626D03*
X015425Y033626D03*
X013594Y033626D03*
X012925Y033626D03*
X011094Y033626D03*
X010425Y033626D03*
X010425Y035126D03*
X011094Y035126D03*
X012925Y035126D03*
X013594Y035126D03*
X015425Y035126D03*
X016094Y035126D03*
X015925Y036626D03*
X016594Y036626D03*
X016594Y038126D03*
X015925Y038126D03*
X014094Y038126D03*
X013425Y038126D03*
X013425Y036626D03*
X014094Y036626D03*
X021425Y034626D03*
X022094Y034626D03*
X022094Y033126D03*
X021425Y033126D03*
X019094Y030626D03*
X018425Y030626D03*
X028004Y025937D03*
X028673Y025937D03*
X062425Y016626D03*
X063094Y016626D03*
X062594Y008626D03*
X061925Y008626D03*
X066925Y006126D03*
X067594Y006126D03*
D19*
X025823Y026944D03*
X023460Y026944D03*
D20*
X018760Y021886D02*
X018760Y021366D01*
X017760Y021366D02*
X017760Y021886D01*
X015760Y021886D02*
X015760Y021366D01*
X014760Y021366D02*
X014760Y021886D01*
X013260Y021886D02*
X013260Y021366D01*
X012260Y021366D02*
X012260Y021886D01*
X013000Y019126D02*
X013520Y019126D01*
X013520Y018126D02*
X013000Y018126D01*
X013000Y017126D02*
X013520Y017126D01*
X013520Y016126D02*
X013000Y016126D01*
X013000Y015126D02*
X013520Y015126D01*
X016000Y015126D02*
X016520Y015126D01*
X016520Y016126D02*
X016000Y016126D01*
X016000Y017126D02*
X016520Y017126D01*
X016520Y018126D02*
X016000Y018126D01*
X016000Y019126D02*
X016520Y019126D01*
X022500Y016126D02*
X023020Y016126D01*
X023020Y015126D02*
X022500Y015126D01*
X022500Y014126D02*
X023020Y014126D01*
X023020Y013126D02*
X022500Y013126D01*
X022500Y012126D02*
X023020Y012126D01*
X025500Y012126D02*
X026020Y012126D01*
X026020Y013126D02*
X025500Y013126D01*
X025500Y014126D02*
X026020Y014126D01*
X026020Y015126D02*
X025500Y015126D01*
X025500Y016126D02*
X026020Y016126D01*
X024520Y006126D02*
X024000Y006126D01*
X024000Y005126D02*
X024520Y005126D01*
X024520Y004126D02*
X024000Y004126D01*
X024000Y003126D02*
X024520Y003126D01*
X024520Y002126D02*
X024000Y002126D01*
X068500Y017126D02*
X069020Y017126D01*
X069020Y018126D02*
X068500Y018126D01*
X068500Y019126D02*
X069020Y019126D01*
X069020Y020126D02*
X068500Y020126D01*
X068500Y021126D02*
X069020Y021126D01*
X054260Y037866D02*
X054260Y038386D01*
X053260Y038386D02*
X053260Y037866D01*
X052260Y037866D02*
X052260Y038386D01*
X051260Y038386D02*
X051260Y037866D01*
X050260Y037866D02*
X050260Y038386D01*
X049260Y038386D02*
X049260Y037866D01*
X046760Y037866D02*
X046760Y038386D01*
X045760Y038386D02*
X045760Y037866D01*
X044760Y037866D02*
X044760Y038386D01*
X043760Y038386D02*
X043760Y037866D01*
X042760Y037866D02*
X042760Y038386D01*
X041760Y038386D02*
X041760Y037866D01*
X038760Y037866D02*
X038760Y038386D01*
X037760Y038386D02*
X037760Y037866D01*
X036760Y037866D02*
X036760Y038386D01*
X035760Y038386D02*
X035760Y037866D01*
X034760Y037866D02*
X034760Y038386D01*
D21*
X021859Y028047D02*
X020974Y028047D01*
X015859Y028047D02*
X014974Y028047D01*
D22*
X027818Y027441D03*
X028937Y027441D03*
D23*
X024760Y023960D03*
X024760Y023291D03*
X023260Y023291D03*
X023260Y023960D03*
X017260Y024291D03*
X017260Y024960D03*
X015260Y024960D03*
X015260Y024291D03*
X013760Y024291D03*
X013760Y024960D03*
X015760Y030291D03*
X015760Y030960D03*
X023760Y037291D03*
X023760Y037960D03*
X025760Y037960D03*
X025760Y037291D03*
X025760Y018960D03*
X025760Y018291D03*
X027260Y018291D03*
X027260Y018960D03*
X064760Y011460D03*
X064760Y010791D03*
D24*
X029948Y029139D02*
X029948Y029979D01*
X028571Y029979D02*
X028571Y029139D01*
X008613Y028937D02*
X007773Y028937D01*
X007773Y030315D02*
X008613Y030315D01*
X008613Y036937D02*
X007773Y036937D01*
X007773Y038315D02*
X008613Y038315D01*
D25*
X013480Y030626D02*
X014040Y030626D01*
X014040Y029626D02*
X013480Y029626D01*
X026480Y033126D02*
X027040Y033126D01*
X027040Y034126D02*
X026480Y034126D01*
X032113Y029582D02*
X032673Y029582D01*
X032673Y028582D02*
X032113Y028582D01*
X029540Y017626D02*
X028980Y017626D01*
X028980Y016626D02*
X029540Y016626D01*
X019040Y008126D02*
X018480Y008126D01*
X018480Y007126D02*
X019040Y007126D01*
D26*
X011594Y006626D03*
X010925Y006626D03*
X010925Y008126D03*
X011594Y008126D03*
X011594Y009626D03*
X010925Y009626D03*
X010925Y011126D03*
X011594Y011126D03*
X021260Y014291D03*
X021260Y014960D03*
X028760Y014960D03*
X028760Y014291D03*
X032760Y015791D03*
X032760Y016460D03*
X029594Y020126D03*
X028925Y020126D03*
X033260Y020791D03*
X033260Y021460D03*
X037760Y012960D03*
X037760Y012291D03*
X035094Y009126D03*
X034425Y009126D03*
X032594Y009126D03*
X031925Y009126D03*
X038260Y008460D03*
X038260Y007791D03*
X039925Y006126D03*
X040594Y006126D03*
X042925Y006126D03*
X043594Y006126D03*
X054925Y006126D03*
X055594Y006126D03*
X056925Y006126D03*
X057594Y006126D03*
X062425Y005626D03*
X063094Y005626D03*
X067925Y003626D03*
X068594Y003626D03*
X063094Y012626D03*
X062425Y012626D03*
X062425Y014126D03*
X063094Y014126D03*
X067925Y013626D03*
X068594Y013626D03*
X057094Y027126D03*
X056425Y027126D03*
X039594Y030126D03*
X038925Y030126D03*
X038594Y034126D03*
X037925Y034126D03*
X012094Y026626D03*
X011425Y026626D03*
X011425Y024626D03*
X012094Y024626D03*
X011594Y005126D03*
X010925Y005126D03*
X010925Y003626D03*
X011594Y003626D03*
X011594Y002126D03*
X010925Y002126D03*
X016925Y001126D03*
X017594Y001126D03*
X029925Y001126D03*
X030594Y001126D03*
D27*
X033260Y003791D03*
X033260Y004460D03*
X025594Y009626D03*
X024925Y009626D03*
X023260Y010291D03*
X023260Y010960D03*
X018260Y014291D03*
X018260Y014960D03*
X010760Y014791D03*
X010760Y015460D03*
X039760Y012960D03*
X039760Y012291D03*
X041260Y012291D03*
X041260Y012960D03*
X042760Y012960D03*
X042760Y012291D03*
X044260Y012291D03*
X044260Y012960D03*
X042094Y014126D03*
X041425Y014126D03*
X055260Y015291D03*
X055260Y015960D03*
X056425Y020126D03*
X057094Y020126D03*
X064760Y013460D03*
X064760Y012791D03*
X062760Y011460D03*
X062760Y010791D03*
X055260Y009960D03*
X055260Y009291D03*
X055260Y030291D03*
X055260Y030960D03*
X056760Y030960D03*
X056760Y030291D03*
X058260Y030291D03*
X058260Y030960D03*
X059760Y030960D03*
X059760Y030291D03*
X053760Y030291D03*
X053760Y030960D03*
X052260Y030960D03*
X052260Y030291D03*
X050760Y030291D03*
X050760Y030960D03*
X038594Y035626D03*
X037925Y035626D03*
D28*
X029039Y023126D03*
X026480Y023126D03*
D29*
X019760Y012905D03*
X019760Y010346D03*
D30*
X040810Y009626D03*
X042710Y009626D03*
D31*
X034760Y015830D03*
X034760Y016421D03*
X054964Y007626D03*
X055555Y007626D03*
X056464Y007626D03*
X057055Y007626D03*
D32*
X032326Y022752D03*
X033193Y023126D03*
X032326Y023500D03*
D33*
X041019Y035126D03*
X043500Y035126D03*
X047019Y035126D03*
X049500Y035126D03*
D34*
X048161Y011433D03*
X048161Y010960D03*
X048161Y010488D03*
X048161Y010015D03*
X048161Y009543D03*
X048161Y009070D03*
X048161Y008598D03*
X048161Y008126D03*
X048161Y007653D03*
X048161Y007181D03*
X048161Y006708D03*
X048161Y006236D03*
X048161Y005763D03*
X048161Y005291D03*
X048161Y004819D03*
X048161Y004346D03*
X048161Y003874D03*
X053358Y003874D03*
X053358Y004346D03*
X053358Y004819D03*
X053358Y005291D03*
X053358Y005763D03*
X053358Y006236D03*
X053358Y006708D03*
X053358Y007181D03*
X053358Y007653D03*
X053358Y008126D03*
X053358Y008598D03*
X053358Y009070D03*
X053358Y009543D03*
X053358Y010015D03*
X053358Y010488D03*
X053358Y010960D03*
X053358Y011433D03*
D35*
X053082Y012141D03*
X052413Y012141D03*
X051941Y012141D03*
X051468Y012141D03*
X050996Y012141D03*
X050523Y012141D03*
X050051Y012141D03*
X049578Y012141D03*
X049106Y012141D03*
X048437Y012137D03*
D36*
X049343Y004188D02*
X049343Y003952D01*
X049343Y004188D02*
X049421Y004188D01*
X049421Y003952D01*
X049343Y003952D01*
X049343Y004187D02*
X049421Y004187D01*
X049894Y004188D02*
X049894Y003952D01*
X049894Y004188D02*
X049972Y004188D01*
X049972Y003952D01*
X049894Y003952D01*
X049894Y004187D02*
X049972Y004187D01*
X050445Y004188D02*
X050445Y003952D01*
X050445Y004188D02*
X050523Y004188D01*
X050523Y003952D01*
X050445Y003952D01*
X050445Y004187D02*
X050523Y004187D01*
X050996Y004188D02*
X050996Y003952D01*
X050996Y004188D02*
X051074Y004188D01*
X051074Y003952D01*
X050996Y003952D01*
X050996Y004187D02*
X051074Y004187D01*
X051547Y004188D02*
X051547Y003952D01*
X051547Y004188D02*
X051625Y004188D01*
X051625Y003952D01*
X051547Y003952D01*
X051547Y004187D02*
X051625Y004187D01*
X052098Y004188D02*
X052098Y003952D01*
X052098Y004188D02*
X052176Y004188D01*
X052176Y003952D01*
X052098Y003952D01*
X052098Y004187D02*
X052176Y004187D01*
D37*
X045704Y017452D03*
X045508Y017452D03*
X045311Y017452D03*
X045114Y017452D03*
X044917Y017452D03*
X044720Y017452D03*
X044523Y017452D03*
X044326Y017452D03*
X044130Y017452D03*
X043933Y017452D03*
X043736Y017452D03*
X043539Y017452D03*
X043342Y017452D03*
X043145Y017452D03*
X042948Y017452D03*
X042752Y017452D03*
X042555Y017452D03*
X042358Y017452D03*
X042161Y017452D03*
X041964Y017452D03*
X041767Y017452D03*
X041571Y017452D03*
X041374Y017452D03*
X041177Y017452D03*
X040980Y017452D03*
X040783Y017452D03*
X040586Y017452D03*
X040389Y017452D03*
X040193Y017452D03*
X039996Y017452D03*
X039799Y017452D03*
X039602Y017452D03*
X039405Y017452D03*
X039208Y017452D03*
X039011Y017452D03*
X038815Y017452D03*
X038815Y025799D03*
X039011Y025799D03*
X039208Y025799D03*
X039405Y025799D03*
X039602Y025799D03*
X039799Y025799D03*
X039996Y025799D03*
X040193Y025799D03*
X040389Y025799D03*
X040586Y025799D03*
X040783Y025799D03*
X040980Y025799D03*
X041177Y025799D03*
X041374Y025799D03*
X041571Y025799D03*
X041767Y025799D03*
X041964Y025799D03*
X042161Y025799D03*
X042358Y025799D03*
X042555Y025799D03*
X042752Y025799D03*
X042948Y025799D03*
X043145Y025799D03*
X043342Y025799D03*
X043539Y025799D03*
X043736Y025799D03*
X043933Y025799D03*
X044130Y025799D03*
X044326Y025799D03*
X044523Y025799D03*
X044720Y025799D03*
X044917Y025799D03*
X045114Y025799D03*
X045311Y025799D03*
X045508Y025799D03*
X045704Y025799D03*
D38*
X046433Y025070D03*
X046433Y024874D03*
X046433Y024677D03*
X046433Y024480D03*
X046433Y024283D03*
X046433Y024086D03*
X046433Y023889D03*
X046433Y023693D03*
X046433Y023496D03*
X046433Y023299D03*
X046433Y023102D03*
X046433Y022905D03*
X046433Y022708D03*
X046433Y022511D03*
X046433Y022315D03*
X046433Y022118D03*
X046433Y021921D03*
X046433Y021724D03*
X046433Y021527D03*
X046433Y021330D03*
X046433Y021133D03*
X046433Y020937D03*
X046433Y020740D03*
X046433Y020543D03*
X046433Y020346D03*
X046433Y020149D03*
X046433Y019952D03*
X046433Y019756D03*
X046433Y019559D03*
X046433Y019362D03*
X046433Y019165D03*
X046433Y018968D03*
X046433Y018771D03*
X046433Y018574D03*
X046433Y018378D03*
X046433Y018181D03*
X038086Y018181D03*
X038086Y018378D03*
X038086Y018574D03*
X038086Y018771D03*
X038086Y018968D03*
X038086Y019165D03*
X038086Y019362D03*
X038086Y019559D03*
X038086Y019756D03*
X038086Y019952D03*
X038086Y020149D03*
X038086Y020346D03*
X038086Y020543D03*
X038086Y020740D03*
X038086Y020937D03*
X038086Y021133D03*
X038086Y021330D03*
X038086Y021527D03*
X038086Y021724D03*
X038086Y021921D03*
X038086Y022118D03*
X038086Y022315D03*
X038086Y022511D03*
X038086Y022708D03*
X038086Y022905D03*
X038086Y023102D03*
X038086Y023299D03*
X038086Y023496D03*
X038086Y023693D03*
X038086Y023889D03*
X038086Y024086D03*
X038086Y024283D03*
X038086Y024480D03*
X038086Y024677D03*
X038086Y024874D03*
X038086Y025070D03*
D39*
X019340Y034330D03*
X019340Y034527D03*
X019340Y034724D03*
X019340Y034921D03*
X018179Y034921D03*
X018179Y034724D03*
X018179Y034527D03*
X018179Y034330D03*
D40*
X018464Y034045D03*
X018661Y034045D03*
X018858Y034045D03*
X019055Y034045D03*
X019055Y035206D03*
X018858Y035206D03*
X018661Y035206D03*
X018464Y035206D03*
D41*
X018760Y034626D03*
D42*
X018920Y034786D03*
X018920Y034466D03*
X018600Y034466D03*
X018600Y034786D03*
D43*
X034760Y030626D03*
X036760Y030626D03*
D44*
X036134Y006059D03*
X035385Y006059D03*
X035760Y005193D03*
D45*
X033335Y014451D02*
X032885Y014451D01*
X033335Y014451D02*
X033335Y013801D01*
X032885Y013801D01*
X032885Y014451D01*
X032885Y013850D02*
X033335Y013850D01*
X033335Y013899D02*
X032885Y013899D01*
X032885Y013948D02*
X033335Y013948D01*
X033335Y013997D02*
X032885Y013997D01*
X032885Y014046D02*
X033335Y014046D01*
X033335Y014095D02*
X032885Y014095D01*
X032885Y014144D02*
X033335Y014144D01*
X033335Y014193D02*
X032885Y014193D01*
X032885Y014242D02*
X033335Y014242D01*
X033335Y014291D02*
X032885Y014291D01*
X032885Y014340D02*
X033335Y014340D01*
X033335Y014389D02*
X032885Y014389D01*
X032885Y014438D02*
X033335Y014438D01*
X032635Y014451D02*
X032185Y014451D01*
X032635Y014451D02*
X032635Y013801D01*
X032185Y013801D01*
X032185Y014451D01*
X032185Y013850D02*
X032635Y013850D01*
X032635Y013899D02*
X032185Y013899D01*
X032185Y013948D02*
X032635Y013948D01*
X032635Y013997D02*
X032185Y013997D01*
X032185Y014046D02*
X032635Y014046D01*
X032635Y014095D02*
X032185Y014095D01*
X032185Y014144D02*
X032635Y014144D01*
X032635Y014193D02*
X032185Y014193D01*
X032185Y014242D02*
X032635Y014242D01*
X032635Y014291D02*
X032185Y014291D01*
X032185Y014340D02*
X032635Y014340D01*
X032635Y014389D02*
X032185Y014389D01*
X032185Y014438D02*
X032635Y014438D01*
D46*
X032760Y011026D03*
D47*
X057318Y011356D03*
X057314Y011852D03*
X057314Y012356D03*
X057310Y012852D03*
X057310Y013356D03*
X057306Y013852D03*
X057283Y014356D03*
X057279Y014852D03*
X057279Y015356D03*
X057275Y015852D03*
X060110Y015852D03*
X060113Y015356D03*
X060113Y014852D03*
X060117Y014356D03*
X060141Y013852D03*
X060145Y013356D03*
X060145Y012852D03*
X060149Y012356D03*
X060149Y011852D03*
X060153Y011356D03*
X060176Y010852D03*
X060180Y010356D03*
X060180Y009852D03*
X060184Y009356D03*
X057350Y009356D03*
X057346Y009852D03*
X057346Y010356D03*
X057342Y010852D03*
D48*
X067040Y010626D02*
X067480Y010626D01*
X067480Y008626D02*
X067040Y008626D01*
D49*
X028909Y011626D03*
X027610Y011626D03*
X021409Y037626D03*
X020110Y037626D03*
D50*
X024260Y035393D03*
X024260Y033858D03*
D51*
X008760Y017775D03*
X008760Y016476D03*
D52*
X027949Y005400D02*
X027949Y005154D01*
X027949Y005400D02*
X027979Y005400D01*
X027979Y005154D01*
X027949Y005154D01*
X027949Y005242D02*
X027979Y005242D01*
X027979Y005330D02*
X027949Y005330D01*
X028146Y005400D02*
X028146Y005154D01*
X028146Y005400D02*
X028176Y005400D01*
X028176Y005154D01*
X028146Y005154D01*
X028146Y005242D02*
X028176Y005242D01*
X028176Y005330D02*
X028146Y005330D01*
X028343Y005400D02*
X028343Y005154D01*
X028343Y005400D02*
X028373Y005400D01*
X028373Y005154D01*
X028343Y005154D01*
X028343Y005242D02*
X028373Y005242D01*
X028373Y005330D02*
X028343Y005330D01*
X028540Y005400D02*
X028540Y005154D01*
X028540Y005400D02*
X028570Y005400D01*
X028570Y005154D01*
X028540Y005154D01*
X028540Y005242D02*
X028570Y005242D01*
X028570Y005330D02*
X028540Y005330D01*
X028788Y004936D02*
X029034Y004936D01*
X029034Y004906D01*
X028788Y004906D01*
X028788Y004936D01*
X028788Y004739D02*
X029034Y004739D01*
X029034Y004709D01*
X028788Y004709D01*
X028788Y004739D01*
X028788Y004542D02*
X029034Y004542D01*
X029034Y004512D01*
X028788Y004512D01*
X028788Y004542D01*
X028788Y004345D02*
X029034Y004345D01*
X029034Y004315D01*
X028788Y004315D01*
X028788Y004345D01*
X028570Y004097D02*
X028570Y003851D01*
X028540Y003851D01*
X028540Y004097D01*
X028570Y004097D01*
X028570Y003939D02*
X028540Y003939D01*
X028540Y004027D02*
X028570Y004027D01*
X028373Y004097D02*
X028373Y003851D01*
X028343Y003851D01*
X028343Y004097D01*
X028373Y004097D01*
X028373Y003939D02*
X028343Y003939D01*
X028343Y004027D02*
X028373Y004027D01*
X028176Y004097D02*
X028176Y003851D01*
X028146Y003851D01*
X028146Y004097D01*
X028176Y004097D01*
X028176Y003939D02*
X028146Y003939D01*
X028146Y004027D02*
X028176Y004027D01*
X027979Y004097D02*
X027979Y003851D01*
X027949Y003851D01*
X027949Y004097D01*
X027979Y004097D01*
X027979Y003939D02*
X027949Y003939D01*
X027949Y004027D02*
X027979Y004027D01*
X027731Y004315D02*
X027485Y004315D01*
X027485Y004345D01*
X027731Y004345D01*
X027731Y004315D01*
X027731Y004512D02*
X027485Y004512D01*
X027485Y004542D01*
X027731Y004542D01*
X027731Y004512D01*
X027731Y004709D02*
X027485Y004709D01*
X027485Y004739D01*
X027731Y004739D01*
X027731Y004709D01*
X027731Y004906D02*
X027485Y004906D01*
X027485Y004936D01*
X027731Y004936D01*
X027731Y004906D01*
D53*
X067760Y023126D03*
D54*
X068760Y023126D03*
X068760Y024126D03*
X067760Y024126D03*
X067760Y025126D03*
X068760Y025126D03*
X068760Y026126D03*
X067760Y026126D03*
X067760Y027126D03*
X068760Y027126D03*
X068760Y028126D03*
X067760Y028126D03*
X067760Y029126D03*
X068760Y029126D03*
X068760Y030126D03*
X068760Y031126D03*
X067760Y031126D03*
X067760Y030126D03*
D55*
X058760Y032626D03*
X058760Y033626D03*
X058760Y034626D03*
X058760Y035626D03*
X058760Y036626D03*
X058760Y037626D03*
X058760Y038626D03*
X043760Y002126D03*
X042760Y002126D03*
X041760Y002126D03*
D56*
X065472Y034114D03*
X065472Y034547D03*
X065551Y034980D03*
X065472Y035413D03*
X065551Y035846D03*
X065472Y036279D03*
X065315Y036712D03*
X065472Y037145D03*
D57*
X066988Y038980D03*
X066594Y033803D03*
D58*
X061417Y034433D03*
X061417Y036677D03*
D59*
X015260Y010876D03*
X013260Y010876D03*
X013260Y009376D03*
X013260Y008376D03*
X015260Y008376D03*
X015260Y009376D03*
X015260Y006876D03*
X015260Y005876D03*
X015260Y004376D03*
X015260Y003376D03*
X013260Y003376D03*
X013260Y004376D03*
X013260Y005876D03*
X013260Y006876D03*
X009760Y006876D03*
X009760Y005876D03*
X009760Y004376D03*
X009760Y003376D03*
X007760Y003376D03*
X007760Y004376D03*
X007760Y005876D03*
X007760Y006876D03*
X007760Y008376D03*
X007760Y009376D03*
X009760Y009376D03*
X009760Y008376D03*
X009760Y010876D03*
X007760Y010876D03*
X007760Y001876D03*
X009760Y001876D03*
X013260Y001876D03*
X015260Y001876D03*
D60*
X015263Y001897D01*
X015263Y002724D01*
X015697Y003157D01*
X015697Y003905D01*
X015263Y004338D01*
X015260Y004376D01*
X015263Y004417D01*
X015263Y005244D01*
X015697Y005677D01*
X015697Y006897D01*
X015263Y006897D01*
X015260Y006876D01*
X015697Y006897D02*
X015815Y006897D01*
X015815Y009063D01*
X015539Y009338D01*
X015263Y009338D01*
X015260Y009376D01*
X014830Y009141D02*
X014830Y010480D01*
X015047Y010696D01*
X015067Y010677D01*
X018334Y010677D01*
X019760Y010346D02*
X019791Y010322D01*
X023256Y010322D01*
X023260Y010291D01*
X023295Y010283D01*
X023649Y010283D01*
X024673Y009259D01*
X025263Y009259D01*
X025578Y009574D01*
X025594Y009626D01*
X025618Y009653D01*
X027586Y011622D01*
X027610Y011626D01*
X027389Y011464D01*
X025775Y013078D01*
X025760Y013126D01*
X025775Y013157D01*
X027547Y014929D01*
X028728Y014929D01*
X028760Y014960D01*
X029043Y015283D02*
X025933Y015283D01*
X025775Y015126D01*
X025760Y015126D01*
X025760Y014126D02*
X025775Y014102D01*
X023295Y011622D01*
X023256Y011622D01*
X022783Y012094D01*
X022760Y012126D01*
X022744Y012173D01*
X020027Y012173D01*
X019752Y012448D01*
X019752Y012881D01*
X019760Y012905D01*
X019752Y012921D01*
X019752Y013433D01*
X019279Y013905D01*
X019122Y013905D01*
X018256Y013708D02*
X018256Y014259D01*
X018260Y014291D01*
X018260Y014960D02*
X018256Y014968D01*
X016445Y014968D01*
X016287Y015126D01*
X016260Y015126D01*
X016287Y015165D01*
X016287Y016110D01*
X016260Y016126D01*
X016287Y016149D01*
X016287Y017094D01*
X016260Y017126D01*
X016248Y018118D02*
X014279Y018118D01*
X013295Y017133D01*
X013260Y017126D01*
X013256Y017094D01*
X011956Y017094D01*
X010775Y015913D01*
X010775Y015480D01*
X010760Y015460D01*
X010775Y015441D01*
X010775Y015244D01*
X011130Y015244D01*
X011366Y015007D01*
X011366Y011110D01*
X011563Y011110D01*
X011594Y011126D01*
X011602Y011110D01*
X012035Y011110D01*
X012193Y010952D01*
X012193Y009693D01*
X012114Y009614D01*
X011641Y009614D01*
X011594Y009626D01*
X011563Y009614D01*
X011366Y009614D01*
X011366Y008118D01*
X011563Y008118D01*
X011594Y008126D01*
X011602Y008118D01*
X012035Y008118D01*
X012074Y008078D01*
X012074Y006661D01*
X012035Y006622D01*
X011602Y006622D01*
X011594Y006626D01*
X011563Y006622D01*
X011366Y006622D01*
X011366Y006267D01*
X011169Y006070D01*
X011169Y005126D01*
X010925Y005126D01*
X010539Y005126D01*
X010539Y003630D01*
X010460Y003630D01*
X010421Y003590D01*
X010421Y002173D01*
X010460Y002133D01*
X010893Y002133D01*
X010925Y002126D01*
X010972Y002133D01*
X011169Y002133D01*
X011169Y001740D01*
X012311Y000598D01*
X017271Y000598D01*
X017291Y000618D01*
X017153Y000756D01*
X017153Y001110D01*
X016956Y001110D01*
X016925Y001126D01*
X017074Y001582D02*
X014909Y001582D01*
X014830Y001661D01*
X014830Y002960D01*
X015224Y003354D01*
X015260Y003376D01*
X014830Y004299D02*
X014830Y005480D01*
X014889Y005539D01*
X014870Y005559D01*
X014870Y006385D01*
X014476Y006464D02*
X014476Y007606D01*
X015224Y008354D01*
X015260Y008376D01*
X015303Y008393D01*
X015421Y008511D01*
X015421Y008866D01*
X014830Y009141D02*
X011602Y005913D01*
X011602Y005126D01*
X011594Y005126D01*
X010893Y005756D02*
X010185Y005047D01*
X010185Y003787D01*
X009791Y003393D01*
X009760Y003376D01*
X009319Y003196D02*
X009319Y003905D01*
X009319Y006070D01*
X009752Y006504D01*
X009752Y006858D01*
X009760Y006876D01*
X009791Y006897D01*
X010303Y006897D01*
X010539Y007133D01*
X010933Y006661D02*
X011681Y007409D01*
X011681Y007527D01*
X010925Y008126D02*
X010893Y008118D01*
X010736Y008118D01*
X010382Y007763D01*
X009752Y006897D02*
X009319Y007330D01*
X009319Y008590D01*
X009752Y009023D01*
X009752Y009338D01*
X009760Y009376D01*
X009791Y008393D02*
X010893Y009496D01*
X010893Y009614D01*
X010925Y009626D01*
X010972Y009614D01*
X011523Y010165D01*
X009988Y011110D02*
X009791Y010913D01*
X009760Y010876D01*
X009988Y011110D02*
X010893Y011110D01*
X010925Y011126D01*
X010972Y011110D01*
X010972Y011700D01*
X010775Y014220D02*
X010775Y014771D01*
X010760Y014791D01*
X009476Y016464D02*
X008767Y016464D01*
X008760Y016476D01*
X008760Y017775D02*
X008767Y017803D01*
X012941Y017803D01*
X013256Y018118D01*
X013260Y018126D01*
X013260Y019126D02*
X013649Y019181D01*
X013649Y022055D01*
X012114Y023590D01*
X012114Y024614D01*
X012094Y024626D01*
X012114Y024653D01*
X012114Y026622D01*
X012094Y026626D01*
X011425Y026626D02*
X011405Y026622D01*
X010972Y026622D01*
X010972Y027606D01*
X010972Y026622D02*
X010933Y026582D01*
X010933Y024653D01*
X010972Y024614D01*
X011405Y024614D01*
X011425Y024626D01*
X011445Y024614D01*
X011602Y024614D01*
X011602Y023944D01*
X009948Y022291D01*
X009634Y022291D01*
X009437Y022094D01*
X009437Y021661D01*
X009425Y021626D01*
X009712Y021189D02*
X009122Y021189D01*
X009043Y021267D01*
X009043Y026267D01*
X012389Y029614D01*
X013728Y029614D01*
X013760Y029626D01*
X013728Y029574D01*
X013728Y024968D01*
X013760Y024960D01*
X013767Y024968D01*
X015224Y024968D01*
X015260Y024960D01*
X015303Y024968D01*
X017232Y024968D01*
X017260Y024960D01*
X017271Y024929D01*
X017744Y024929D01*
X017744Y024181D01*
X018216Y023708D01*
X019476Y023708D01*
X019476Y021070D01*
X020421Y020126D01*
X020425Y020126D01*
X020421Y020086D01*
X020421Y018157D01*
X020425Y018126D01*
X021094Y018126D02*
X021130Y018157D01*
X021956Y018984D01*
X021094Y020126D02*
X024043Y020126D01*
X024082Y020165D01*
X024082Y020598D01*
X024094Y020626D01*
X024082Y020637D01*
X024082Y022094D01*
X024094Y022126D01*
X024082Y022173D01*
X024082Y022567D01*
X024319Y022803D01*
X025224Y022803D01*
X025224Y022763D01*
X026326Y021661D01*
X027074Y021661D01*
X027567Y021169D01*
X027665Y021267D01*
X027567Y021169D02*
X027586Y021149D01*
X027586Y020677D01*
X027594Y020626D01*
X027586Y020598D01*
X027586Y020086D01*
X027823Y019850D01*
X027823Y018393D01*
X027704Y018275D01*
X027271Y018275D01*
X027260Y018291D01*
X027232Y018275D01*
X026720Y018275D01*
X026130Y017685D01*
X025697Y017685D01*
X025760Y018291D02*
X025775Y018315D01*
X026484Y018315D01*
X027114Y018944D01*
X027232Y018944D01*
X027260Y018960D01*
X027114Y018984D01*
X027114Y020441D01*
X026956Y020598D01*
X026925Y020626D01*
X026917Y020637D01*
X025382Y022173D01*
X025224Y022173D01*
X025224Y022803D02*
X025263Y022842D01*
X025263Y023905D01*
X025224Y023944D01*
X024791Y023944D01*
X024760Y023960D01*
X024752Y023944D01*
X023295Y023944D01*
X023260Y023960D01*
X023256Y023944D01*
X022744Y023944D01*
X022704Y023905D01*
X022586Y023905D01*
X022114Y024023D02*
X023905Y025815D01*
X025618Y024102D01*
X024752Y023315D02*
X024760Y023291D01*
X024752Y023315D02*
X024712Y023354D01*
X024122Y023354D01*
X022823Y023078D02*
X022823Y022488D01*
X023019Y022094D02*
X022350Y022094D01*
X021208Y023236D01*
X021090Y023236D01*
X021055Y023250D01*
X021445Y023275D02*
X021799Y022921D01*
X022389Y022921D01*
X022823Y023078D02*
X022074Y023826D01*
X021445Y023826D01*
X021439Y023830D01*
X021445Y024023D02*
X021439Y024027D01*
X021445Y024023D02*
X022114Y024023D01*
X021956Y024220D02*
X021445Y024220D01*
X021439Y024224D01*
X021445Y024417D02*
X021439Y024421D01*
X021445Y024417D02*
X021917Y024417D01*
X021917Y024574D01*
X021878Y024614D01*
X021445Y024614D01*
X021439Y024618D01*
X021439Y024815D02*
X021445Y024850D01*
X021996Y024850D01*
X022193Y025047D01*
X021720Y025204D02*
X023460Y026944D01*
X023905Y025815D02*
X025027Y026937D01*
X025815Y026937D01*
X025823Y026944D01*
X025854Y026937D01*
X027980Y026937D01*
X027980Y025952D01*
X028004Y025937D01*
X028673Y025937D02*
X028689Y025952D01*
X028689Y026228D01*
X028374Y026543D01*
X028374Y029535D01*
X028571Y029559D01*
X028571Y029574D01*
X025972Y029574D01*
X025933Y029614D01*
X025933Y030126D01*
X025925Y030126D01*
X025933Y030165D01*
X025933Y030519D01*
X026602Y031189D01*
X026602Y031622D01*
X026594Y031626D01*
X026602Y031661D01*
X026602Y032094D01*
X024830Y033866D01*
X024279Y033866D01*
X024260Y033858D01*
X023767Y033826D01*
X022547Y032606D01*
X021956Y032606D01*
X021445Y032094D01*
X021445Y031661D01*
X021425Y031626D01*
X021445Y031622D01*
X021445Y031267D01*
X022114Y030598D01*
X022114Y030126D01*
X022094Y030126D01*
X022114Y030086D01*
X022114Y028748D01*
X021445Y028078D01*
X021417Y028047D01*
X020775Y027448D02*
X022074Y027448D01*
X023039Y028413D01*
X023019Y028433D01*
X023019Y029968D01*
X022114Y030874D01*
X022114Y031622D01*
X022094Y031626D01*
X022901Y030677D02*
X023098Y030519D01*
X024082Y031504D01*
X024082Y031622D01*
X024094Y031626D01*
X024476Y031976D02*
X024476Y029574D01*
X022153Y027252D01*
X020697Y027252D01*
X018452Y029496D01*
X018452Y030598D01*
X018425Y030626D01*
X018413Y030637D01*
X018413Y032094D01*
X018425Y032126D01*
X018452Y032133D01*
X018452Y032685D01*
X018846Y033078D01*
X018846Y034023D01*
X018858Y034045D01*
X019055Y034045D02*
X019082Y034023D01*
X020263Y032842D01*
X020421Y033236D02*
X020460Y033236D01*
X020657Y033039D01*
X020657Y032173D01*
X019122Y030637D01*
X019094Y030626D01*
X021405Y030126D02*
X021425Y030126D01*
X021405Y030126D02*
X021405Y029299D01*
X020382Y028275D01*
X020382Y027842D01*
X020775Y027448D01*
X023039Y028413D02*
X024082Y029456D01*
X024082Y030126D01*
X024094Y030126D01*
X023452Y030126D02*
X023425Y030126D01*
X023452Y030126D02*
X022901Y030677D01*
X023425Y031626D02*
X023452Y031661D01*
X023452Y031740D01*
X023767Y032055D01*
X024397Y032055D01*
X024476Y031976D01*
X025106Y032448D02*
X023846Y032448D01*
X025106Y032448D02*
X025893Y031661D01*
X025925Y031626D01*
X026799Y030795D02*
X026602Y030598D01*
X026602Y030126D01*
X026594Y030126D01*
X028964Y028551D02*
X029948Y029535D01*
X029948Y029559D01*
X029988Y029574D01*
X032389Y029574D01*
X032393Y029582D01*
X034319Y028944D02*
X034319Y038511D01*
X034594Y038787D01*
X035106Y038787D01*
X035736Y038157D01*
X035760Y038126D01*
X034791Y038118D02*
X034760Y038126D01*
X034791Y038118D02*
X037271Y035637D01*
X037271Y035598D01*
X036287Y034614D01*
X036287Y030480D01*
X038807Y027960D01*
X038807Y025834D01*
X038815Y025799D01*
X039004Y025795D02*
X039011Y025799D01*
X039004Y025795D02*
X039004Y025086D01*
X039437Y024653D01*
X039634Y024653D01*
X039634Y024417D01*
X039634Y024653D02*
X040775Y024653D01*
X041563Y025441D01*
X041563Y025795D01*
X041571Y025799D01*
X041956Y025795D02*
X041956Y025441D01*
X040539Y024023D01*
X038925Y024023D01*
X038846Y024102D01*
X038086Y024283D02*
X038059Y024299D01*
X037704Y024299D01*
X037350Y024653D01*
X037350Y025047D01*
X038059Y025086D02*
X038086Y025070D01*
X038059Y025086D02*
X038059Y025204D01*
X034319Y028944D01*
X037508Y030716D02*
X037508Y031110D01*
X037468Y031110D01*
X037508Y031110D02*
X037508Y034141D01*
X037901Y034141D01*
X037925Y034126D01*
X037941Y034141D01*
X038177Y034141D01*
X038177Y034496D01*
X038295Y034614D01*
X038295Y034693D01*
X038610Y034417D02*
X038689Y034496D01*
X043531Y034496D01*
X043531Y028039D01*
X044161Y027409D01*
X044161Y027330D01*
X044319Y026582D02*
X041996Y028905D01*
X040342Y029338D02*
X040185Y029181D01*
X040185Y025834D01*
X040193Y025799D01*
X040382Y025795D02*
X040389Y025799D01*
X040382Y025795D02*
X040382Y025126D01*
X039996Y025799D02*
X039988Y025834D01*
X039988Y026267D01*
X039791Y026464D01*
X039397Y025834D02*
X039405Y025799D01*
X039397Y025834D02*
X039397Y029220D01*
X039594Y029417D01*
X039200Y029614D02*
X039594Y030007D01*
X039594Y030126D01*
X039791Y030519D02*
X038413Y030519D01*
X038098Y030126D02*
X037508Y030716D01*
X038098Y030126D02*
X038925Y030126D01*
X039791Y030519D02*
X044122Y026189D01*
X044122Y025834D01*
X044130Y025799D01*
X044319Y025834D02*
X044326Y025799D01*
X044319Y025834D02*
X044319Y026582D01*
X045303Y026543D02*
X045618Y026858D01*
X046011Y026858D01*
X046445Y026425D01*
X045815Y026464D02*
X045500Y026149D01*
X045500Y025834D01*
X045508Y025799D01*
X045704Y025799D02*
X045736Y025795D01*
X046878Y025795D01*
X047035Y025362D02*
X049319Y027645D01*
X049319Y031976D01*
X048925Y032094D02*
X048925Y035519D01*
X050854Y037448D01*
X051563Y037448D01*
X052232Y038118D01*
X052260Y038126D01*
X049260Y038126D02*
X049240Y038157D01*
X048649Y038748D01*
X047350Y038748D01*
X046760Y038157D01*
X046760Y038126D01*
X046720Y038118D01*
X044279Y035677D01*
X042114Y035677D01*
X041563Y035126D01*
X041019Y035126D01*
X040224Y035126D01*
X038689Y035519D02*
X038689Y034496D01*
X038610Y034417D02*
X038610Y034141D01*
X038594Y034126D01*
X038689Y035519D02*
X038610Y035598D01*
X038594Y035626D01*
X038610Y035637D01*
X038610Y038000D01*
X038728Y038118D01*
X038760Y038126D01*
X037901Y035637D02*
X037925Y035626D01*
X037901Y035637D02*
X037271Y035637D01*
X043500Y035126D02*
X043531Y035126D01*
X043531Y034496D01*
X046996Y035126D02*
X046996Y033315D01*
X048925Y032094D02*
X044712Y027881D01*
X044712Y025834D01*
X044720Y025799D01*
X044909Y025795D02*
X044917Y025799D01*
X044909Y025795D02*
X044909Y025441D01*
X044988Y025362D01*
X047035Y025362D01*
X046433Y025070D02*
X046405Y025086D01*
X046090Y025086D01*
X045972Y024968D01*
X045972Y024732D01*
X044515Y024732D01*
X044515Y024141D01*
X042389Y022015D01*
X040736Y022015D01*
X040736Y020204D01*
X040716Y020185D01*
X040145Y020756D01*
X038767Y020756D01*
X038767Y020165D01*
X038086Y020149D02*
X038059Y020165D01*
X037547Y020165D01*
X037429Y020047D01*
X038059Y019378D02*
X036523Y019378D01*
X034358Y021543D01*
X033295Y021543D01*
X033260Y021460D01*
X033256Y021464D01*
X033256Y023078D01*
X033216Y023118D01*
X033193Y023126D01*
X033295Y023078D01*
X034200Y023078D01*
X032350Y022724D02*
X032326Y022752D01*
X032350Y022724D02*
X032350Y021228D01*
X032744Y020795D02*
X033216Y020795D01*
X033260Y020791D01*
X033295Y020795D01*
X033807Y020795D01*
X034161Y021149D01*
X033260Y020791D02*
X033256Y020756D01*
X033256Y015834D01*
X033216Y015795D01*
X032783Y015795D01*
X032760Y015791D01*
X032744Y015795D01*
X032232Y015795D01*
X031956Y015519D01*
X031956Y011385D01*
X032311Y011031D01*
X032744Y011031D01*
X032760Y011026D01*
X032783Y011031D01*
X033216Y011031D01*
X033256Y010992D01*
X033256Y009141D01*
X032626Y009141D01*
X032594Y009126D01*
X032547Y009141D01*
X032350Y009141D01*
X032350Y004968D01*
X033216Y004968D01*
X033256Y004929D01*
X033256Y004496D01*
X033260Y004460D01*
X032350Y004968D02*
X029476Y004968D01*
X029437Y004929D01*
X028925Y004929D01*
X028911Y004921D01*
X028885Y004929D01*
X028571Y004929D01*
X028571Y004771D01*
X028610Y004732D01*
X028885Y004732D01*
X028911Y004724D01*
X028925Y004732D01*
X029397Y004732D01*
X029437Y004693D01*
X029437Y001149D01*
X028885Y000598D01*
X025775Y000598D01*
X024279Y002094D01*
X024260Y002126D01*
X024240Y002094D01*
X022744Y000598D01*
X017311Y000598D01*
X017291Y000618D01*
X017508Y001149D02*
X017074Y001582D01*
X017389Y001307D02*
X017594Y001126D01*
X017586Y001149D01*
X017508Y001149D01*
X017389Y001307D02*
X018177Y001307D01*
X014830Y004299D02*
X012665Y002133D01*
X011602Y002133D01*
X011594Y002126D01*
X009760Y001876D02*
X009752Y001897D01*
X009752Y002763D01*
X009319Y003196D01*
X009319Y003905D02*
X009752Y004338D01*
X009760Y004376D01*
X010539Y003630D02*
X010893Y003630D01*
X010925Y003626D01*
X011594Y003626D02*
X011602Y003630D01*
X013571Y005598D01*
X013610Y005598D01*
X014476Y006464D01*
X015224Y005874D02*
X015260Y005876D01*
X015224Y005874D02*
X014889Y005539D01*
X015815Y006897D02*
X018531Y006897D01*
X018760Y007126D01*
X018807Y007133D01*
X019791Y006149D01*
X024240Y006149D01*
X024260Y006126D01*
X024279Y006110D01*
X027508Y006110D01*
X028177Y005441D01*
X028177Y005283D01*
X028161Y005277D01*
X028555Y005277D02*
X028571Y005244D01*
X028571Y004929D01*
X028256Y004496D02*
X028374Y004378D01*
X028374Y003984D01*
X028358Y003974D01*
X028177Y003944D02*
X028161Y003974D01*
X028177Y003944D02*
X028177Y003511D01*
X028137Y003472D01*
X027823Y003472D01*
X027626Y003078D02*
X028295Y003078D01*
X028728Y002685D02*
X027744Y002685D01*
X027232Y003196D01*
X027232Y004338D01*
X027429Y004535D01*
X027586Y004535D01*
X027608Y004527D01*
X027608Y004724D02*
X027586Y004732D01*
X026641Y004732D01*
X027114Y005126D02*
X027311Y004929D01*
X027586Y004929D01*
X027608Y004921D01*
X027964Y003974D02*
X027941Y003944D01*
X027704Y003944D01*
X027429Y003669D01*
X027429Y003275D01*
X027626Y003078D01*
X028728Y002685D02*
X029004Y002960D01*
X029043Y003905D02*
X029004Y003944D01*
X028571Y003944D01*
X028555Y003974D01*
X032704Y003905D02*
X033177Y003905D01*
X033256Y003826D01*
X033260Y003791D01*
X032389Y001149D02*
X036130Y004889D01*
X036169Y004889D01*
X038925Y002133D01*
X041760Y002133D01*
X041760Y002126D01*
X042744Y002133D02*
X042760Y002126D01*
X042744Y002133D02*
X042744Y003866D01*
X048137Y003866D01*
X048161Y003874D01*
X048177Y003866D01*
X049397Y003866D01*
X049397Y003630D01*
X049437Y003590D01*
X049909Y003590D01*
X049948Y003630D01*
X049948Y004063D01*
X049933Y004070D01*
X049948Y004102D01*
X049948Y004535D01*
X049988Y004574D01*
X050460Y004574D01*
X050500Y004535D01*
X050500Y004102D01*
X050484Y004070D01*
X050500Y004063D01*
X050500Y003630D01*
X050539Y003590D01*
X051011Y003590D01*
X051051Y003630D01*
X051051Y004063D01*
X051035Y004070D01*
X051051Y004102D01*
X051051Y004535D01*
X051090Y004574D01*
X051563Y004574D01*
X051602Y004535D01*
X051602Y004102D01*
X051586Y004070D01*
X051602Y004063D01*
X051602Y003630D01*
X051641Y003590D01*
X052114Y003590D01*
X052153Y003630D01*
X052153Y004063D01*
X052137Y004070D01*
X052193Y003866D01*
X053334Y003866D01*
X053358Y003874D01*
X055263Y005795D02*
X057271Y005795D01*
X057586Y006110D01*
X057594Y006126D01*
X057586Y006149D01*
X057586Y008944D01*
X057626Y008944D01*
X058137Y009456D01*
X057586Y008944D02*
X057271Y009259D01*
X057271Y009299D01*
X057311Y009338D01*
X057350Y009356D01*
X057271Y009299D02*
X055263Y009299D01*
X055260Y009291D01*
X055382Y008708D02*
X056464Y007626D01*
X057035Y007606D02*
X057055Y007626D01*
X057035Y007606D02*
X057035Y006228D01*
X056956Y006149D01*
X056925Y006126D01*
X055594Y006126D02*
X055578Y006149D01*
X055578Y007606D01*
X055555Y007626D01*
X054964Y007626D02*
X054948Y007645D01*
X053964Y007645D01*
X054925Y006126D02*
X054948Y006110D01*
X055263Y005795D01*
X049712Y007645D02*
X048295Y009063D01*
X048177Y009063D01*
X048161Y009070D01*
X048295Y009535D02*
X049122Y008708D01*
X049240Y008708D01*
X048295Y009535D02*
X048177Y009535D01*
X048161Y009543D01*
X048807Y011661D02*
X052783Y011661D01*
X053059Y011937D01*
X053082Y012141D01*
X053098Y012094D01*
X053098Y011858D01*
X053137Y011819D01*
X053846Y011819D01*
X055067Y010598D01*
X055106Y010598D01*
X055224Y010480D01*
X055263Y010480D01*
X055382Y010598D01*
X056051Y010598D01*
X056799Y009850D01*
X057311Y009850D01*
X057346Y009852D01*
X057389Y009850D01*
X059122Y009850D01*
X059634Y009338D01*
X060145Y009338D01*
X060184Y009356D01*
X060185Y009338D01*
X061720Y009338D01*
X061917Y009141D01*
X061917Y008669D01*
X061925Y008626D01*
X061917Y008590D01*
X061917Y008078D01*
X062862Y007133D01*
X062862Y005637D01*
X063059Y005637D01*
X063094Y005626D01*
X062823Y005283D02*
X063452Y005283D01*
X063452Y011385D01*
X063019Y011819D01*
X062508Y011819D01*
X061326Y010637D01*
X059712Y010637D01*
X059634Y010716D01*
X059634Y010992D01*
X059988Y011346D01*
X060145Y011346D01*
X060153Y011356D01*
X060185Y011819D02*
X060149Y011852D01*
X060185Y011819D02*
X061563Y011819D01*
X061956Y012015D02*
X061760Y012212D01*
X061248Y012212D01*
X061130Y012330D01*
X060185Y012330D01*
X060149Y012356D01*
X060185Y012842D02*
X060145Y012852D01*
X060106Y012842D01*
X059673Y012842D01*
X059515Y013000D01*
X059515Y014259D01*
X059594Y014338D01*
X059594Y014378D01*
X059319Y014653D01*
X058925Y014653D01*
X058216Y015362D01*
X057311Y015362D01*
X057279Y015356D01*
X057271Y015362D01*
X056760Y015362D01*
X056681Y015441D01*
X055303Y015441D01*
X055263Y015401D01*
X055263Y015322D01*
X055260Y015291D01*
X055263Y015244D01*
X055263Y014850D01*
X053098Y012685D01*
X053098Y012173D01*
X053082Y012141D01*
X054476Y013315D02*
X056917Y010874D01*
X057311Y010874D01*
X057342Y010852D01*
X057318Y011356D02*
X057311Y011385D01*
X057114Y011385D01*
X056681Y011819D01*
X056563Y011819D01*
X057114Y011858D02*
X057311Y011858D01*
X057314Y011852D01*
X057114Y011858D02*
X056248Y012724D01*
X056641Y013393D02*
X057271Y013393D01*
X057310Y013356D01*
X057306Y013852D02*
X057271Y013866D01*
X057074Y014063D01*
X056563Y014063D01*
X057074Y014378D02*
X057271Y014378D01*
X057283Y014356D01*
X057074Y014378D02*
X056445Y015007D01*
X056326Y015007D01*
X055539Y014496D02*
X056641Y013393D01*
X057310Y012852D02*
X057311Y012842D01*
X057311Y012488D01*
X057350Y012488D01*
X057862Y011976D01*
X057862Y011700D01*
X059122Y010441D01*
X059043Y010362D01*
X059122Y010441D02*
X059673Y009889D01*
X060145Y009889D01*
X060180Y009852D01*
X060578Y010126D02*
X059712Y010126D01*
X059437Y010401D01*
X059437Y011307D01*
X059574Y011444D01*
X059437Y011582D01*
X059574Y011444D02*
X059712Y011582D01*
X060618Y011582D01*
X060697Y011504D01*
X060697Y011228D01*
X060342Y010874D01*
X060185Y010874D01*
X060176Y010852D01*
X060185Y010362D02*
X060180Y010356D01*
X060185Y010362D02*
X061641Y010362D01*
X061838Y009968D02*
X060736Y009968D01*
X060578Y010126D01*
X061838Y009968D02*
X062035Y010165D01*
X062035Y010716D01*
X062744Y011425D01*
X062760Y011460D01*
X062760Y010791D02*
X062744Y010756D01*
X062744Y009771D01*
X062232Y009771D01*
X062744Y009771D02*
X062744Y008748D01*
X062626Y008630D01*
X062594Y008626D01*
X064830Y011464D02*
X065657Y010637D01*
X067232Y010637D01*
X067260Y010626D01*
X067901Y009259D02*
X067271Y008630D01*
X067260Y008626D01*
X067232Y008669D01*
X065145Y010756D01*
X064791Y010756D01*
X064760Y010791D01*
X064760Y011460D02*
X064830Y011464D01*
X064791Y011464D02*
X064760Y011460D01*
X064791Y011464D02*
X064791Y012015D01*
X061956Y012015D01*
X062035Y012212D02*
X061799Y012448D01*
X061287Y012448D01*
X060854Y012881D01*
X060697Y012881D01*
X060657Y012842D01*
X060185Y012842D01*
X060145Y013356D02*
X060145Y013393D01*
X060145Y013630D01*
X060893Y013630D01*
X062429Y013630D01*
X062429Y012645D01*
X062425Y012626D01*
X062862Y012606D02*
X062862Y012252D01*
X062823Y012212D01*
X062035Y012212D01*
X062862Y012606D02*
X062901Y012645D01*
X063059Y012645D01*
X063094Y012626D01*
X063098Y012645D01*
X063807Y012645D01*
X064397Y013236D01*
X064752Y013236D01*
X064752Y013433D01*
X064760Y013460D01*
X064752Y013511D01*
X064752Y013984D01*
X064732Y014004D01*
X064752Y014023D01*
X068334Y014023D01*
X068374Y013984D01*
X068374Y013630D01*
X068571Y013630D01*
X068594Y013626D01*
X068610Y013630D01*
X068964Y013630D01*
X068964Y014141D01*
X068964Y013630D02*
X069122Y013630D01*
X069279Y013472D01*
X069279Y003787D01*
X069122Y003630D01*
X068610Y003630D01*
X068594Y003626D01*
X067925Y003626D02*
X067901Y003630D01*
X067901Y005834D01*
X067626Y006110D01*
X067594Y006126D01*
X066925Y006126D02*
X066917Y006110D01*
X066090Y005283D01*
X063452Y005283D01*
X062823Y005283D02*
X062508Y005598D01*
X062429Y005598D01*
X062425Y005626D01*
X067901Y009259D02*
X067901Y013590D01*
X067925Y013626D01*
X064732Y014004D02*
X064594Y014141D01*
X063098Y014141D01*
X063094Y014126D01*
X062429Y014141D02*
X062425Y014126D01*
X062429Y014102D01*
X062429Y013630D01*
X062429Y014141D02*
X062429Y016622D01*
X062425Y016626D01*
X063059Y016622D02*
X063094Y016626D01*
X063059Y016622D02*
X063059Y015204D01*
X060736Y015283D02*
X060736Y014496D01*
X060578Y014338D01*
X060145Y014338D01*
X060117Y014356D01*
X060106Y014338D01*
X059594Y014338D01*
X060113Y014852D02*
X060106Y014889D01*
X058964Y014889D01*
X056248Y017606D01*
X054476Y017606D01*
X055421Y017015D02*
X045382Y017015D01*
X045303Y017094D01*
X045303Y017448D01*
X045311Y017452D01*
X045500Y017488D02*
X045508Y017452D01*
X045500Y017488D02*
X045500Y017803D01*
X045697Y018000D01*
X048413Y018000D01*
X048807Y018472D02*
X048807Y019102D01*
X048256Y019653D01*
X046878Y019653D01*
X046799Y019574D01*
X046445Y019574D01*
X046433Y019559D01*
X046405Y019378D02*
X046051Y019378D01*
X045578Y019850D01*
X044437Y019850D01*
X044240Y020244D02*
X045578Y020244D01*
X046051Y019771D01*
X046405Y019771D01*
X046433Y019756D01*
X046405Y019378D02*
X046433Y019362D01*
X046445Y019181D02*
X046433Y019165D01*
X046445Y019181D02*
X047311Y019181D01*
X047389Y019259D01*
X048059Y019259D01*
X047586Y018866D02*
X046917Y018866D01*
X046799Y018984D01*
X046445Y018984D01*
X046433Y018968D01*
X046405Y018787D02*
X046433Y018771D01*
X046405Y018787D02*
X045775Y018787D01*
X046090Y018393D02*
X046405Y018393D01*
X046433Y018378D01*
X046433Y018574D02*
X046445Y018590D01*
X046996Y018590D01*
X047114Y018472D01*
X046090Y018393D02*
X045972Y018275D01*
X045145Y018275D01*
X045008Y018137D01*
X044988Y018157D01*
X045008Y018137D02*
X044830Y017960D01*
X044830Y017921D01*
X044712Y017803D01*
X044712Y017488D01*
X044720Y017452D01*
X044909Y017448D02*
X044917Y017452D01*
X044909Y017448D02*
X044909Y016070D01*
X043925Y015086D01*
X044122Y014693D02*
X042941Y014693D01*
X042547Y015086D01*
X042153Y015086D01*
X041445Y014378D01*
X041445Y014141D01*
X041425Y014126D01*
X041405Y014102D01*
X041405Y013118D01*
X041287Y013000D01*
X041260Y012960D01*
X039760Y012960D01*
X037760Y012960D01*
X037389Y012685D02*
X037744Y012330D01*
X037760Y012291D01*
X037744Y012291D01*
X037744Y008590D01*
X036169Y007015D01*
X036169Y006070D01*
X036134Y006059D01*
X036130Y006031D01*
X036130Y004889D01*
X035775Y005204D02*
X035760Y005193D01*
X035775Y005204D02*
X035775Y006661D01*
X037508Y007763D02*
X038256Y007763D01*
X038260Y007791D01*
X038260Y008460D02*
X038295Y008472D01*
X038531Y008472D01*
X038807Y008748D01*
X039948Y008787D02*
X040775Y009614D01*
X040810Y009626D01*
X040578Y009141D02*
X041248Y009141D01*
X041287Y009181D01*
X041287Y011700D01*
X041208Y011779D01*
X041248Y011819D01*
X041248Y012291D01*
X041260Y012291D01*
X041248Y012330D01*
X041248Y012527D01*
X042193Y012527D01*
X042389Y012724D01*
X042744Y012724D01*
X042744Y012921D01*
X042760Y012960D01*
X042744Y012960D01*
X042744Y013433D01*
X042783Y013472D01*
X042704Y013551D01*
X042704Y014338D01*
X042350Y014693D01*
X042941Y015283D02*
X043137Y015086D01*
X042941Y015283D02*
X042941Y017448D01*
X042948Y017452D01*
X043137Y017488D02*
X043145Y017452D01*
X043137Y017488D02*
X043137Y017881D01*
X042901Y018118D01*
X042527Y018374D02*
X041956Y017803D01*
X041956Y017488D01*
X041964Y017452D01*
X042153Y017448D02*
X042161Y017452D01*
X042153Y017448D02*
X042153Y015874D01*
X041641Y015362D01*
X037862Y015362D01*
X037626Y015716D02*
X037389Y015480D01*
X037389Y012685D01*
X035933Y012173D02*
X035067Y012173D01*
X033137Y014102D01*
X033110Y014126D01*
X032429Y014102D02*
X032410Y014126D01*
X032429Y014102D02*
X032429Y014023D01*
X033767Y012685D01*
X033767Y012055D01*
X035067Y012173D02*
X035067Y009141D01*
X035094Y009126D01*
X034425Y009126D02*
X034397Y009141D01*
X033256Y009141D01*
X031956Y009141D02*
X031956Y010244D01*
X031956Y009141D02*
X031925Y009126D01*
X028909Y011626D02*
X028925Y011661D01*
X028925Y013866D01*
X029122Y014063D01*
X029122Y015204D01*
X029043Y015283D01*
X028760Y014291D02*
X028728Y014259D01*
X027901Y014259D01*
X032193Y016425D02*
X032744Y016425D01*
X032760Y016460D01*
X033649Y016425D02*
X034752Y016425D01*
X034760Y016421D01*
X034791Y015834D02*
X034760Y015830D01*
X034791Y015834D02*
X037153Y015834D01*
X037626Y015716D02*
X037626Y018196D01*
X038059Y018196D01*
X038086Y018181D01*
X037626Y018196D02*
X036641Y019181D01*
X034397Y019181D01*
X032744Y020795D02*
X032074Y020126D01*
X029594Y020126D01*
X029712Y020165D01*
X029712Y021267D01*
X028807Y021267D01*
X029712Y021267D02*
X029712Y022881D01*
X029476Y023118D01*
X029082Y023118D01*
X029039Y023126D01*
X029004Y023118D01*
X028728Y023118D01*
X028689Y023157D01*
X028689Y025913D01*
X028673Y025937D01*
X027980Y026937D02*
X027980Y027252D01*
X027823Y027409D01*
X027818Y027441D01*
X028937Y027441D02*
X028964Y027448D01*
X028964Y028551D01*
X021720Y025204D02*
X021090Y025204D01*
X021090Y025007D01*
X021055Y025002D01*
X021090Y025204D02*
X020972Y025322D01*
X020539Y025322D01*
X020460Y025244D01*
X020421Y025244D01*
X017626Y028039D01*
X015421Y028039D01*
X015417Y028047D01*
X015421Y029889D02*
X015342Y029968D01*
X015342Y030519D01*
X015303Y030519D01*
X012232Y033590D01*
X011130Y033590D01*
X011094Y033626D01*
X010460Y033630D02*
X010425Y033626D01*
X010460Y033630D02*
X010460Y034063D01*
X010736Y034338D01*
X011090Y034574D02*
X011090Y035086D01*
X011094Y035126D01*
X011090Y035126D01*
X011090Y035795D01*
X010460Y035795D02*
X010460Y035126D01*
X010425Y035126D01*
X011090Y034574D02*
X011130Y034535D01*
X012980Y034535D01*
X013452Y034063D01*
X013610Y034063D01*
X013728Y034181D01*
X016051Y034181D01*
X016090Y034181D01*
X017291Y035381D01*
X017744Y034929D01*
X018177Y034929D01*
X018179Y034921D01*
X018059Y034968D01*
X018059Y035322D01*
X018452Y035244D02*
X018464Y035206D01*
X018452Y035244D02*
X018452Y035992D01*
X018295Y036149D01*
X018295Y036976D01*
X019437Y038118D01*
X020933Y038118D01*
X021405Y037645D01*
X021409Y037626D01*
X020110Y037626D02*
X020106Y037606D01*
X019515Y037606D01*
X019988Y037133D02*
X022665Y037133D01*
X023492Y037960D01*
X023760Y037960D01*
X025760Y037960D01*
X025760Y037291D02*
X023760Y037291D01*
X023413Y037291D01*
X023374Y037252D01*
X023374Y036464D01*
X022783Y036464D01*
X022586Y036661D01*
X020067Y036661D01*
X019200Y035795D01*
X019200Y035677D01*
X019358Y035637D01*
X019043Y035637D01*
X019043Y035244D01*
X019055Y035206D01*
X019082Y035204D01*
X019240Y035204D01*
X019319Y035126D01*
X019319Y034929D01*
X019340Y034921D01*
X019358Y034535D02*
X019340Y034527D01*
X019358Y034535D02*
X021326Y034535D01*
X021405Y034614D01*
X021425Y034626D01*
X021445Y034614D01*
X021445Y033157D01*
X021425Y033126D01*
X022094Y033126D02*
X022114Y033157D01*
X022626Y033669D01*
X022074Y033984D02*
X022074Y034614D01*
X022094Y034626D01*
X021051Y033984D02*
X020362Y033295D01*
X019358Y034299D01*
X019340Y034330D01*
X018661Y034045D02*
X018649Y034023D01*
X018649Y033511D01*
X018452Y033315D01*
X018452Y033905D02*
X016523Y031976D01*
X016523Y030322D01*
X016090Y029889D01*
X015421Y029889D01*
X015760Y030291D02*
X015775Y030283D01*
X016208Y030283D01*
X016326Y030401D01*
X016326Y032842D01*
X016090Y033078D01*
X016090Y033590D01*
X016094Y033626D01*
X016090Y033669D01*
X016090Y034141D01*
X016051Y034181D01*
X015657Y034614D02*
X014791Y034614D01*
X014161Y034574D02*
X013610Y035126D01*
X013594Y035126D01*
X013571Y035165D01*
X014082Y035677D01*
X014082Y036622D01*
X014094Y036626D01*
X013425Y036626D02*
X013413Y036622D01*
X013334Y036543D01*
X013334Y035952D01*
X012941Y035126D02*
X012925Y035126D01*
X012941Y035126D02*
X012941Y037645D01*
X008885Y037645D01*
X008216Y038315D01*
X008193Y038315D01*
X012941Y037645D02*
X013000Y037704D01*
X013019Y037685D01*
X014397Y037685D01*
X014830Y038118D01*
X015893Y038118D01*
X015925Y038126D01*
X016594Y038126D02*
X016602Y038078D01*
X016602Y036661D01*
X016594Y036626D01*
X016602Y036622D01*
X016602Y036070D01*
X017291Y035381D01*
X017350Y034732D02*
X018177Y034732D01*
X018179Y034724D01*
X018177Y034535D02*
X018179Y034527D01*
X018177Y034535D02*
X017744Y034535D01*
X017193Y033984D01*
X017823Y033944D02*
X018177Y034299D01*
X018179Y034330D01*
X018464Y034045D02*
X018452Y034023D01*
X018452Y033905D01*
X018661Y035206D02*
X018649Y035244D01*
X018649Y035795D01*
X018945Y036090D01*
X018689Y036346D01*
X018945Y036090D02*
X019988Y037133D01*
X019988Y036858D02*
X022980Y036858D01*
X023374Y036464D02*
X023374Y034220D01*
X023728Y033866D01*
X024240Y033866D01*
X024260Y033858D01*
X025539Y035362D02*
X026760Y034141D01*
X026760Y034126D01*
X025539Y035362D02*
X024279Y035362D01*
X024260Y035393D01*
X020421Y033236D02*
X020362Y033295D01*
X019122Y032763D02*
X019122Y032133D01*
X019094Y032126D01*
X015760Y030960D02*
X015736Y030992D01*
X015342Y030598D01*
X015342Y030519D01*
X015027Y033196D02*
X013767Y033196D01*
X013767Y032960D01*
X013767Y033196D02*
X013295Y033196D01*
X013216Y033275D01*
X013216Y033315D01*
X012941Y033590D01*
X012925Y033626D01*
X013594Y033626D02*
X013610Y033630D01*
X013610Y034063D01*
X015027Y033196D02*
X015421Y033590D01*
X015425Y033626D01*
X015657Y034614D02*
X016090Y035047D01*
X016090Y035126D01*
X016094Y035126D01*
X015460Y035126D02*
X015425Y035126D01*
X015460Y035126D02*
X015460Y035795D01*
X016208Y035952D02*
X016208Y036346D01*
X015933Y036622D01*
X015925Y036626D01*
X016594Y038126D02*
X016602Y038157D01*
X016602Y038669D01*
X016248Y039023D01*
X014437Y039023D01*
X014082Y038669D01*
X014082Y038157D01*
X014094Y038126D01*
X013425Y038126D02*
X013413Y038118D01*
X013000Y037704D01*
X018846Y035716D02*
X018846Y035244D01*
X018858Y035206D01*
X018846Y035716D02*
X019988Y036858D01*
X039200Y029614D02*
X039200Y025834D01*
X039208Y025799D01*
X038374Y025480D02*
X038374Y025362D01*
X038531Y025204D01*
X038531Y024968D01*
X038452Y024889D01*
X038098Y024889D01*
X038086Y024874D01*
X038059Y023905D02*
X037744Y023905D01*
X037350Y023511D01*
X032350Y023511D01*
X032326Y023500D01*
X036641Y022606D02*
X037311Y021937D01*
X038059Y021937D01*
X038086Y021921D01*
X038098Y021740D02*
X038086Y021724D01*
X038098Y021740D02*
X040342Y021740D01*
X040736Y022015D02*
X039830Y022921D01*
X039437Y022921D01*
X039240Y022724D01*
X038098Y022724D01*
X038086Y022708D01*
X038098Y022527D02*
X038086Y022511D01*
X038098Y022527D02*
X039634Y022527D01*
X038767Y022133D02*
X038571Y022330D01*
X038098Y022330D01*
X038086Y022315D01*
X038059Y022133D02*
X037704Y022133D01*
X037429Y022409D01*
X037547Y022921D02*
X038059Y022921D01*
X038086Y022905D01*
X037547Y022921D02*
X037429Y023039D01*
X038086Y023496D02*
X038098Y023511D01*
X043295Y023511D01*
X044122Y024338D01*
X044515Y024732D02*
X043728Y024732D01*
X043531Y024929D01*
X043531Y025795D01*
X043539Y025799D01*
X043728Y025795D02*
X043736Y025799D01*
X043728Y025795D02*
X043728Y025322D01*
X043925Y025126D01*
X042744Y025322D02*
X042547Y025126D01*
X042744Y025322D02*
X042744Y025795D01*
X042752Y025799D01*
X042941Y025795D02*
X042948Y025799D01*
X042941Y025795D02*
X042941Y024338D01*
X041011Y023905D02*
X040815Y023708D01*
X038098Y023708D01*
X038086Y023693D01*
X038086Y023889D02*
X038059Y023905D01*
X038059Y022133D02*
X038086Y022118D01*
X037429Y021228D02*
X037704Y020952D01*
X038059Y020952D01*
X038086Y020937D01*
X038098Y020756D02*
X038086Y020740D01*
X038098Y020756D02*
X038767Y020756D01*
X040716Y020185D02*
X042527Y018374D01*
X042665Y018511D01*
X043846Y018511D01*
X044515Y017842D01*
X044515Y017488D01*
X044523Y017452D01*
X045106Y017448D02*
X045114Y017452D01*
X045106Y017448D02*
X045106Y015677D01*
X044122Y014693D01*
X044240Y013472D02*
X042783Y013472D01*
X042114Y013236D02*
X042114Y014102D01*
X042094Y014126D01*
X040854Y014299D02*
X042350Y015795D01*
X042350Y017448D01*
X042358Y017452D01*
X041767Y017452D02*
X041760Y017448D01*
X041760Y016070D01*
X040697Y016779D02*
X040382Y017094D01*
X040382Y017448D01*
X040389Y017452D01*
X040193Y017452D02*
X040185Y017448D01*
X040185Y016425D01*
X040224Y015795D02*
X039397Y016622D01*
X039397Y017448D01*
X039405Y017452D01*
X039594Y017488D02*
X039594Y017842D01*
X039200Y018236D01*
X039200Y018630D01*
X039555Y018984D01*
X040500Y018984D01*
X040933Y019378D02*
X039673Y019378D01*
X039004Y018708D01*
X039004Y017488D01*
X039011Y017452D01*
X039200Y017448D02*
X039208Y017452D01*
X039200Y017448D02*
X039200Y017094D01*
X039122Y017015D01*
X038689Y017015D01*
X038413Y017291D01*
X039594Y017488D02*
X039602Y017452D01*
X039791Y017488D02*
X039799Y017452D01*
X039791Y017488D02*
X039791Y017921D01*
X039594Y018118D01*
X039594Y018433D01*
X040145Y018118D02*
X040145Y017960D01*
X039988Y017803D01*
X039988Y017488D01*
X039996Y017452D01*
X041917Y018393D02*
X040933Y019378D01*
X040027Y019771D02*
X039791Y019771D01*
X039200Y019181D01*
X038098Y019181D01*
X038086Y019165D01*
X038059Y018984D02*
X037429Y018984D01*
X038059Y018984D02*
X038086Y018968D01*
X038086Y019362D02*
X038059Y019378D01*
X043098Y019102D02*
X044240Y020244D01*
X045854Y021149D02*
X045854Y022921D01*
X045224Y022921D01*
X045027Y023118D01*
X044122Y023118D01*
X043925Y022921D01*
X045854Y022921D02*
X046405Y022921D01*
X046433Y022905D01*
X046433Y023102D02*
X046405Y023118D01*
X046051Y023118D01*
X045972Y023196D01*
X045972Y024732D01*
X046433Y024677D02*
X046445Y024693D01*
X052468Y024693D01*
X056760Y020401D01*
X056760Y017763D01*
X056720Y017724D01*
X057114Y017842D02*
X058098Y016858D01*
X058098Y016031D01*
X058807Y015322D01*
X059555Y015322D01*
X059594Y015362D01*
X060067Y015362D01*
X060113Y015356D01*
X060145Y015362D01*
X060657Y015362D01*
X060736Y015283D01*
X060110Y015852D02*
X060106Y015874D01*
X057508Y018472D01*
X057114Y017842D02*
X057114Y020086D01*
X057094Y020126D01*
X057114Y020126D01*
X057114Y027094D01*
X057094Y027126D01*
X057114Y027133D01*
X057547Y027133D01*
X057586Y027173D01*
X057586Y029811D01*
X056799Y029811D01*
X056760Y029850D01*
X056760Y030291D01*
X056760Y030480D01*
X056720Y030519D01*
X055303Y030519D01*
X055263Y030480D01*
X055263Y030322D01*
X055260Y030291D01*
X055263Y030283D01*
X055263Y029850D01*
X055224Y029811D01*
X053807Y029811D01*
X053767Y029850D01*
X053767Y030283D01*
X053760Y030291D01*
X053767Y030322D01*
X053767Y030480D01*
X053728Y030519D01*
X052311Y030519D01*
X052271Y030480D01*
X052271Y030322D01*
X052260Y030291D01*
X052271Y030283D01*
X052271Y029850D01*
X052232Y029811D01*
X050815Y029811D01*
X050775Y029850D01*
X050775Y030283D01*
X050760Y030291D01*
X050775Y030913D02*
X050760Y030960D01*
X050854Y031031D01*
X049515Y032370D01*
X049515Y035126D01*
X049500Y035126D01*
X047019Y035126D02*
X046996Y035126D01*
X050775Y030992D02*
X050760Y030960D01*
X050775Y030992D02*
X052232Y030992D01*
X052260Y030960D01*
X052271Y030992D01*
X053728Y030992D01*
X053760Y030960D01*
X053767Y030992D01*
X055224Y030992D01*
X055260Y030960D01*
X055303Y030952D01*
X056760Y030952D01*
X056760Y030960D01*
X056799Y030952D01*
X058216Y030952D01*
X058260Y030960D01*
X058295Y030992D01*
X059752Y030992D01*
X059760Y030960D01*
X060145Y031346D01*
X067074Y031346D01*
X067271Y031149D01*
X067744Y031149D01*
X067760Y031126D01*
X067508Y030637D02*
X066996Y031149D01*
X061484Y031149D01*
X060854Y030519D01*
X059791Y030519D01*
X059752Y030480D01*
X059752Y030322D01*
X059760Y030291D01*
X059752Y030283D01*
X059752Y029889D01*
X059712Y029850D01*
X058256Y029850D01*
X058256Y030283D01*
X058260Y030291D01*
X058256Y029850D02*
X058216Y029811D01*
X057586Y029811D01*
X056425Y027126D02*
X056405Y027094D01*
X049043Y027094D01*
X046838Y024889D01*
X046445Y024889D01*
X046433Y024874D01*
X046445Y024496D02*
X046433Y024480D01*
X046445Y024496D02*
X046838Y024496D01*
X047114Y024220D01*
X046799Y023118D02*
X046878Y023039D01*
X046878Y021110D01*
X046858Y021090D01*
X047114Y020834D01*
X046858Y021090D02*
X046799Y021149D01*
X046445Y021149D01*
X046433Y021133D01*
X046405Y020952D02*
X046051Y020952D01*
X045854Y021149D01*
X046405Y020952D02*
X046433Y020937D01*
X046445Y020362D02*
X046433Y020346D01*
X046445Y020362D02*
X046799Y020362D01*
X047035Y020126D01*
X056425Y020126D01*
X057941Y020126D02*
X065736Y020126D01*
X068728Y023118D01*
X068760Y023126D01*
X067744Y027094D02*
X061996Y021346D01*
X057193Y015952D02*
X056523Y015952D01*
X056523Y015874D01*
X056523Y015952D02*
X055263Y015952D01*
X055260Y015960D01*
X055224Y015952D01*
X054712Y015952D01*
X051011Y012252D01*
X051011Y012173D01*
X050996Y012141D01*
X050539Y012173D02*
X050539Y012370D01*
X050893Y012724D01*
X050657Y013315D02*
X049594Y012252D01*
X049594Y012173D01*
X049578Y012141D01*
X049122Y012173D02*
X049106Y012141D01*
X049122Y012173D02*
X049122Y012724D01*
X048452Y012606D02*
X048334Y012724D01*
X044279Y012724D01*
X044279Y012921D01*
X044260Y012960D01*
X044279Y012960D01*
X044279Y013433D01*
X044240Y013472D01*
X044260Y012291D02*
X043334Y012291D01*
X043334Y012330D01*
X043334Y012291D02*
X042760Y012291D01*
X041208Y011779D02*
X039791Y011779D01*
X039752Y011819D01*
X039752Y012291D01*
X039760Y012291D01*
X042710Y009626D02*
X042744Y009614D01*
X043571Y008787D01*
X043571Y006149D01*
X043594Y006126D01*
X042925Y006126D02*
X042744Y006070D01*
X042744Y003866D01*
X042901Y006110D02*
X040618Y006110D01*
X040594Y006126D01*
X040578Y006110D01*
X040342Y006110D01*
X040342Y008905D01*
X040578Y009141D01*
X039948Y008787D02*
X039948Y006149D01*
X039925Y006126D01*
X042901Y006110D02*
X042925Y006126D01*
X048161Y006236D02*
X048177Y006228D01*
X048610Y006228D01*
X049358Y005480D01*
X049358Y004653D01*
X049397Y004614D01*
X049397Y004102D01*
X049382Y004070D01*
X049397Y004063D01*
X049397Y003866D01*
X055260Y009960D02*
X055263Y009968D01*
X055263Y010480D01*
X057314Y012356D02*
X057311Y012370D01*
X057311Y012488D01*
X060145Y013630D02*
X060145Y013826D01*
X060141Y013852D01*
X058059Y014929D02*
X057350Y014929D01*
X057311Y014889D01*
X057279Y014852D01*
X057275Y015852D02*
X057271Y015874D01*
X057193Y015952D01*
X050539Y012173D02*
X050523Y012141D01*
X048807Y011661D02*
X048649Y011819D01*
X048492Y011819D01*
X048452Y011858D01*
X048452Y012094D01*
X048437Y012137D01*
X048452Y012173D01*
X048452Y012606D01*
X043334Y016149D02*
X043334Y017448D01*
X043342Y017452D01*
X043531Y017488D02*
X043539Y017452D01*
X043531Y017488D02*
X043531Y018118D01*
X043925Y017448D02*
X043933Y017452D01*
X043925Y017448D02*
X043925Y017094D01*
X044515Y016504D01*
X045704Y017452D02*
X045736Y017448D01*
X046130Y017448D01*
X046433Y023102D02*
X046445Y023118D01*
X046799Y023118D01*
X045311Y025799D02*
X045303Y025834D01*
X045303Y026543D01*
X043137Y026464D02*
X043059Y026385D01*
X041405Y026385D01*
X041169Y026149D01*
X041169Y025834D01*
X041177Y025799D01*
X040783Y025799D02*
X040775Y025834D01*
X040775Y026464D01*
X041956Y025795D02*
X041964Y025799D01*
X049909Y028157D02*
X049909Y030047D01*
X050775Y030913D01*
X058760Y032626D02*
X058767Y032645D01*
X060539Y034417D01*
X061405Y034417D01*
X061417Y034433D01*
X061760Y034929D02*
X062114Y034574D01*
X065460Y034574D01*
X065472Y034547D01*
X065578Y034968D02*
X065551Y034980D01*
X065775Y035126D01*
X060027Y035126D01*
X059555Y034653D01*
X058767Y034653D01*
X058760Y034626D01*
X058925Y035441D02*
X058767Y035598D01*
X058760Y035626D01*
X058925Y035441D02*
X065460Y035441D01*
X065472Y035413D01*
X065551Y035846D02*
X065539Y035874D01*
X059515Y035874D01*
X058767Y036622D01*
X058760Y036626D01*
X058767Y037606D02*
X058760Y037626D01*
X058767Y037606D02*
X060185Y036189D01*
X061760Y036189D01*
X061838Y036267D01*
X065460Y036267D01*
X065472Y036279D01*
X065315Y036712D02*
X065303Y036740D01*
X062193Y036740D01*
X060342Y038590D01*
X058767Y038590D01*
X058760Y038626D01*
X060106Y034929D02*
X058767Y033590D01*
X058760Y033626D01*
X060106Y034929D02*
X061760Y034929D01*
X065551Y034980D02*
X065697Y035007D01*
X066956Y036267D01*
X066956Y038944D01*
X066988Y038980D01*
X065697Y034968D02*
X066563Y034102D01*
X066563Y033826D01*
X066594Y033803D01*
X065697Y034968D02*
X065578Y034968D01*
X068728Y031110D02*
X068760Y031126D01*
X068728Y031110D02*
X068256Y030637D01*
X067508Y030637D01*
X067760Y027126D02*
X067744Y027094D01*
X064760Y012791D02*
X064791Y012763D01*
X064791Y012015D01*
X032389Y001149D02*
X030618Y001149D01*
X030594Y001126D01*
X030578Y001149D01*
X030027Y001700D01*
X029925Y001126D02*
X029909Y001110D01*
X029476Y001110D01*
X029437Y001149D01*
X018760Y008126D02*
X018728Y008157D01*
X018728Y016661D01*
X016287Y019102D01*
X016260Y019126D01*
X016248Y019141D01*
X013295Y019141D01*
X013260Y019126D01*
X016248Y018118D02*
X016260Y018126D01*
X021090Y020126D02*
X021094Y020126D01*
X021090Y020126D02*
X021090Y021582D01*
X021094Y021626D01*
X021090Y021661D01*
X021090Y022173D01*
X020460Y022803D01*
X020460Y023236D01*
X020464Y023250D01*
X020080Y023437D02*
X020067Y023433D01*
X020067Y023039D01*
X019673Y023630D02*
X019673Y022409D01*
X020421Y021661D01*
X020425Y021626D01*
X023019Y022055D02*
X023019Y022094D01*
X023413Y022094D01*
X023425Y022126D01*
X023019Y022055D02*
X023689Y021385D01*
X023413Y020992D02*
X023059Y021346D01*
X023413Y020992D02*
X023413Y020637D01*
X023425Y020626D01*
X024634Y020086D02*
X025760Y018960D01*
X021956Y023354D02*
X021681Y023630D01*
X021445Y023630D01*
X021439Y023633D01*
X021439Y023437D02*
X021445Y023433D01*
X021445Y023275D01*
X020080Y023830D02*
X020067Y023826D01*
X019870Y023826D01*
X019673Y023630D01*
X019476Y023708D02*
X019791Y024023D01*
X020067Y024023D01*
X020080Y024027D01*
X020067Y024220D02*
X020080Y024224D01*
X020067Y024220D02*
X019397Y024220D01*
X020080Y024421D02*
X020106Y024456D01*
X020106Y024614D01*
X020080Y024618D01*
X020067Y024614D01*
X018492Y024614D01*
X018177Y024929D01*
X017744Y024929D01*
X017260Y024291D02*
X017271Y024259D01*
X017271Y022133D01*
X017744Y021661D01*
X017760Y021626D01*
X015224Y022094D02*
X014791Y021661D01*
X014760Y021626D01*
X015224Y022094D02*
X015224Y024259D01*
X015260Y024291D01*
X013760Y024291D02*
X013728Y024259D01*
X013728Y023118D01*
X010094Y021626D02*
X010067Y021622D01*
X010067Y021543D01*
X009712Y021189D01*
X019476Y025441D02*
X020067Y024850D01*
X020080Y024815D01*
X020460Y025007D02*
X020464Y025002D01*
X020460Y025007D02*
X020460Y025244D01*
X021917Y024417D02*
X021956Y024417D01*
X021956Y024456D01*
X021956Y024417D02*
X021996Y024378D01*
X021996Y024259D01*
X021956Y024220D01*
X021260Y014291D02*
X021287Y014259D01*
X021641Y014259D01*
X022744Y013157D01*
X022760Y013126D01*
X023256Y011622D02*
X023256Y010992D01*
X023260Y010960D01*
X023256Y010913D01*
X023256Y010716D01*
X024279Y010716D01*
X024909Y010086D01*
X024909Y009653D01*
X024925Y009626D01*
X015260Y010876D02*
X015224Y010874D01*
X015047Y010696D01*
X009791Y008393D02*
X009760Y008376D01*
X009752Y006897D02*
X009760Y006876D01*
X010145Y006385D02*
X010145Y006267D01*
X009791Y005913D01*
X009760Y005876D01*
X010893Y005756D02*
X010893Y006622D01*
X010925Y006626D01*
X010933Y006661D01*
D61*
X010145Y006385D03*
X010539Y007133D03*
X010382Y007763D03*
X011681Y007527D03*
X014870Y006385D03*
X015421Y008866D03*
X018334Y010677D03*
X018256Y013708D03*
X019122Y013905D03*
X025697Y017685D03*
X028413Y019693D03*
X028807Y021267D03*
X027665Y021267D03*
X025224Y022173D03*
X023689Y021385D03*
X023059Y021346D03*
X022823Y022488D03*
X022389Y022921D03*
X021956Y023354D03*
X022586Y023905D03*
X021956Y024456D03*
X022193Y025047D03*
X019476Y025441D03*
X019397Y024220D03*
X020067Y023039D03*
X024122Y023354D03*
X025618Y024102D03*
X032350Y021228D03*
X034161Y021149D03*
X036641Y022606D03*
X037429Y022409D03*
X037429Y023039D03*
X038846Y024102D03*
X039634Y024417D03*
X040382Y025126D03*
X041011Y023905D03*
X042941Y024338D03*
X042547Y025126D03*
X043925Y025126D03*
X044122Y024338D03*
X043925Y022921D03*
X040342Y021740D03*
X039634Y022527D03*
X038767Y022133D03*
X037429Y021228D03*
X037429Y020047D03*
X038767Y020165D03*
X040027Y019771D03*
X040500Y018984D03*
X039594Y018433D03*
X040145Y018118D03*
X038413Y017291D03*
X040185Y016425D03*
X040697Y016779D03*
X041760Y016070D03*
X043334Y016149D03*
X044515Y016504D03*
X043925Y015086D03*
X043137Y015086D03*
X042350Y014693D03*
X040854Y014299D03*
X040224Y015795D03*
X037862Y015362D03*
X037153Y015834D03*
X033649Y016425D03*
X032193Y016425D03*
X027901Y014259D03*
X033767Y012055D03*
X035933Y012173D03*
X031956Y010244D03*
X037508Y007763D03*
X038807Y008748D03*
X035775Y006661D03*
X032704Y003905D03*
X030027Y001700D03*
X029004Y002960D03*
X028295Y003078D03*
X027823Y003472D03*
X029043Y003905D03*
X028256Y004496D03*
X027114Y005126D03*
X026641Y004732D03*
X018177Y001307D03*
X011523Y010165D03*
X010972Y011700D03*
X010775Y014220D03*
X009476Y016464D03*
X013728Y023118D03*
X010972Y027606D03*
X019122Y032763D03*
X018452Y033315D03*
X017823Y033944D03*
X017193Y033984D03*
X017350Y034732D03*
X018059Y035322D03*
X019358Y035637D03*
X018689Y036346D03*
X019515Y037606D03*
X022980Y036858D03*
X022074Y033984D03*
X022626Y033669D03*
X021051Y033984D03*
X020263Y032842D03*
X022901Y030677D03*
X023846Y032448D03*
X026799Y030795D03*
X037193Y027252D03*
X038374Y025480D03*
X037350Y025047D03*
X039791Y026464D03*
X040775Y026464D03*
X043137Y026464D03*
X044161Y027330D03*
X045815Y026464D03*
X046445Y026425D03*
X046878Y025795D03*
X048452Y025204D03*
X047114Y024220D03*
X048807Y027724D03*
X049909Y028157D03*
X044791Y028551D03*
X041996Y028905D03*
X040342Y029338D03*
X039594Y029417D03*
X038413Y030519D03*
X037468Y031110D03*
X038295Y034693D03*
X040224Y035126D03*
X046996Y033315D03*
X047901Y033590D03*
X049319Y031976D03*
X054437Y030559D03*
X060893Y029299D03*
X059515Y025716D03*
X057586Y024850D03*
X061996Y021346D03*
X057941Y020126D03*
X057508Y018472D03*
X056720Y017724D03*
X055421Y017015D03*
X054476Y017606D03*
X056523Y015874D03*
X056326Y015007D03*
X055539Y014496D03*
X056563Y014063D03*
X058059Y014929D03*
X060893Y013630D03*
X063059Y015204D03*
X068964Y014141D03*
X061563Y011819D03*
X061641Y010362D03*
X062232Y009771D03*
X059043Y010362D03*
X058137Y009456D03*
X055382Y008708D03*
X053964Y007645D03*
X049712Y007645D03*
X049240Y008708D03*
X056563Y011819D03*
X056248Y012724D03*
X054476Y013315D03*
X050893Y012724D03*
X050657Y013315D03*
X049122Y012724D03*
X043334Y012330D03*
X042114Y013236D03*
X046130Y017448D03*
X044988Y018157D03*
X045775Y018787D03*
X047114Y018472D03*
X047586Y018866D03*
X048059Y019259D03*
X048807Y018472D03*
X048413Y018000D03*
X051051Y019693D03*
X047114Y020834D03*
X044437Y019850D03*
X043098Y019102D03*
X041917Y018393D03*
X042901Y018118D03*
X043531Y018118D03*
X037429Y018984D03*
X034397Y019181D03*
X034200Y023078D03*
X033334Y024102D03*
X024634Y020086D03*
X021956Y018984D03*
X013767Y032960D03*
X014161Y034574D03*
X014791Y034614D03*
X015460Y035795D03*
X016208Y035952D03*
X013334Y035952D03*
X011090Y035795D03*
X010460Y035795D03*
X010736Y034338D03*
X059437Y011582D03*
D62*
X029260Y016626D02*
X029240Y016661D01*
X028492Y017409D01*
X028413Y017370D01*
X026090Y017370D01*
X023885Y015165D01*
X022823Y015165D01*
X022760Y015126D01*
X022744Y015126D01*
X022586Y014968D01*
X021287Y014968D01*
X021260Y014960D01*
X028492Y017409D02*
X028492Y017803D01*
X028925Y018236D01*
X028925Y020126D01*
X028885Y020204D01*
X028334Y020756D01*
X028334Y021267D01*
X026484Y023118D01*
X026480Y023126D01*
X013760Y030626D02*
X013728Y030598D01*
X008492Y030598D01*
X008216Y030322D01*
X008193Y030315D01*
M02*
