G75*
%MOIN*%
%OFA0B0*%
%FSLAX24Y24*%
%IPPOS*%
%LPD*%
%AMOC8*
5,1,8,0,0,1.08239X$1,22.5*
%
%ADD10C,0.0600*%
%ADD11C,0.0965*%
%ADD12C,0.0920*%
%ADD13C,0.0640*%
%ADD14C,0.0600*%
%ADD15C,0.0380*%
%ADD16OC8,0.0710*%
%ADD17C,0.0520*%
%ADD18C,0.0640*%
%ADD19OC8,0.0640*%
%ADD20C,0.0820*%
%ADD21C,0.0620*%
D10*
X022500Y012126D02*
X023020Y012126D01*
X023020Y013126D02*
X022500Y013126D01*
X022500Y014126D02*
X023020Y014126D01*
X023020Y015126D02*
X022500Y015126D01*
X022500Y016126D02*
X023020Y016126D01*
X025500Y016126D02*
X026020Y016126D01*
X026020Y015126D02*
X025500Y015126D01*
X025500Y014126D02*
X026020Y014126D01*
X026020Y013126D02*
X025500Y013126D01*
X025500Y012126D02*
X026020Y012126D01*
X016520Y015126D02*
X016000Y015126D01*
X016000Y016126D02*
X016520Y016126D01*
X016520Y017126D02*
X016000Y017126D01*
X016000Y018126D02*
X016520Y018126D01*
X016520Y019126D02*
X016000Y019126D01*
X013520Y019126D02*
X013000Y019126D01*
X013000Y018126D02*
X013520Y018126D01*
X013520Y017126D02*
X013000Y017126D01*
X013000Y016126D02*
X013520Y016126D01*
X013520Y015126D02*
X013000Y015126D01*
X013260Y021366D02*
X013260Y021886D01*
X012260Y021886D02*
X012260Y021366D01*
X014760Y021366D02*
X014760Y021886D01*
X015760Y021886D02*
X015760Y021366D01*
X017760Y021366D02*
X017760Y021886D01*
X018760Y021886D02*
X018760Y021366D01*
X024000Y006126D02*
X024520Y006126D01*
X024520Y005126D02*
X024000Y005126D01*
X024000Y004126D02*
X024520Y004126D01*
X024520Y003126D02*
X024000Y003126D01*
X024000Y002126D02*
X024520Y002126D01*
X068500Y017126D02*
X069020Y017126D01*
X069020Y018126D02*
X068500Y018126D01*
X068500Y019126D02*
X069020Y019126D01*
X069020Y020126D02*
X068500Y020126D01*
X068500Y021126D02*
X069020Y021126D01*
X054260Y037866D02*
X054260Y038386D01*
X053260Y038386D02*
X053260Y037866D01*
X052260Y037866D02*
X052260Y038386D01*
X051260Y038386D02*
X051260Y037866D01*
X050260Y037866D02*
X050260Y038386D01*
X049260Y038386D02*
X049260Y037866D01*
X046760Y037866D02*
X046760Y038386D01*
X045760Y038386D02*
X045760Y037866D01*
X044760Y037866D02*
X044760Y038386D01*
X043760Y038386D02*
X043760Y037866D01*
X042760Y037866D02*
X042760Y038386D01*
X041760Y038386D02*
X041760Y037866D01*
X038760Y037866D02*
X038760Y038386D01*
X037760Y038386D02*
X037760Y037866D01*
X036760Y037866D02*
X036760Y038386D01*
X035760Y038386D02*
X035760Y037866D01*
X034760Y037866D02*
X034760Y038386D01*
D11*
X021859Y028047D02*
X020974Y028047D01*
X015859Y028047D02*
X014974Y028047D01*
D12*
X008613Y028937D02*
X007773Y028937D01*
X007773Y030315D02*
X008613Y030315D01*
X008613Y036937D02*
X007773Y036937D01*
X007773Y038315D02*
X008613Y038315D01*
X028571Y029979D02*
X028571Y029139D01*
X029948Y029139D02*
X029948Y029979D01*
D13*
X032113Y029582D02*
X032673Y029582D01*
X032673Y028582D02*
X032113Y028582D01*
X027040Y033126D02*
X026480Y033126D01*
X026480Y034126D02*
X027040Y034126D01*
X014040Y030626D02*
X013480Y030626D01*
X013480Y029626D02*
X014040Y029626D01*
X028980Y017626D02*
X029540Y017626D01*
X029540Y016626D02*
X028980Y016626D01*
X019040Y008126D02*
X018480Y008126D01*
X018480Y007126D02*
X019040Y007126D01*
D14*
X040810Y009626D03*
X042710Y009626D03*
D15*
X018920Y034466D03*
X018920Y034786D03*
X018600Y034786D03*
X018600Y034466D03*
D16*
X034760Y030626D03*
X036760Y030626D03*
D17*
X067040Y010626D02*
X067480Y010626D01*
X067480Y008626D02*
X067040Y008626D01*
D18*
X067760Y023126D03*
D19*
X068760Y023126D03*
X068760Y024126D03*
X067760Y024126D03*
X067760Y025126D03*
X068760Y025126D03*
X068760Y026126D03*
X067760Y026126D03*
X067760Y027126D03*
X068760Y027126D03*
X068760Y028126D03*
X067760Y028126D03*
X067760Y029126D03*
X068760Y029126D03*
X068760Y030126D03*
X068760Y031126D03*
X067760Y031126D03*
X067760Y030126D03*
D20*
X058760Y032626D03*
X058760Y033626D03*
X058760Y034626D03*
X058760Y035626D03*
X058760Y036626D03*
X058760Y037626D03*
X058760Y038626D03*
X043760Y002126D03*
X042760Y002126D03*
X041760Y002126D03*
D21*
X010145Y006385D03*
X010539Y007133D03*
X010382Y007763D03*
X011681Y007527D03*
X014870Y006385D03*
X015421Y008866D03*
X018334Y010677D03*
X018256Y013708D03*
X019122Y013905D03*
X025697Y017685D03*
X028413Y019693D03*
X028807Y021267D03*
X027665Y021267D03*
X025224Y022173D03*
X023689Y021385D03*
X023059Y021346D03*
X022823Y022488D03*
X022389Y022921D03*
X021956Y023354D03*
X022586Y023905D03*
X021956Y024456D03*
X022193Y025047D03*
X019476Y025441D03*
X019397Y024220D03*
X020067Y023039D03*
X024122Y023354D03*
X025618Y024102D03*
X032350Y021228D03*
X034161Y021149D03*
X036641Y022606D03*
X037429Y022409D03*
X037429Y023039D03*
X038846Y024102D03*
X039634Y024417D03*
X040382Y025126D03*
X041011Y023905D03*
X042941Y024338D03*
X042547Y025126D03*
X043925Y025126D03*
X044122Y024338D03*
X043925Y022921D03*
X040342Y021740D03*
X039634Y022527D03*
X038767Y022133D03*
X037429Y021228D03*
X037429Y020047D03*
X038767Y020165D03*
X040027Y019771D03*
X040500Y018984D03*
X039594Y018433D03*
X040145Y018118D03*
X038413Y017291D03*
X040185Y016425D03*
X040697Y016779D03*
X041760Y016070D03*
X043334Y016149D03*
X044515Y016504D03*
X043925Y015086D03*
X043137Y015086D03*
X042350Y014693D03*
X040854Y014299D03*
X040224Y015795D03*
X037862Y015362D03*
X037153Y015834D03*
X033649Y016425D03*
X032193Y016425D03*
X027901Y014259D03*
X033767Y012055D03*
X035933Y012173D03*
X031956Y010244D03*
X037508Y007763D03*
X038807Y008748D03*
X035775Y006661D03*
X032704Y003905D03*
X030027Y001700D03*
X029004Y002960D03*
X028295Y003078D03*
X027823Y003472D03*
X029043Y003905D03*
X028256Y004496D03*
X027114Y005126D03*
X026641Y004732D03*
X018177Y001307D03*
X011523Y010165D03*
X010972Y011700D03*
X010775Y014220D03*
X009476Y016464D03*
X013728Y023118D03*
X010972Y027606D03*
X019122Y032763D03*
X018452Y033315D03*
X017823Y033944D03*
X017193Y033984D03*
X017350Y034732D03*
X018059Y035322D03*
X019358Y035637D03*
X018689Y036346D03*
X019515Y037606D03*
X022980Y036858D03*
X022074Y033984D03*
X022626Y033669D03*
X021051Y033984D03*
X020263Y032842D03*
X022901Y030677D03*
X023846Y032448D03*
X026799Y030795D03*
X037193Y027252D03*
X038374Y025480D03*
X037350Y025047D03*
X039791Y026464D03*
X040775Y026464D03*
X043137Y026464D03*
X044161Y027330D03*
X045815Y026464D03*
X046445Y026425D03*
X046878Y025795D03*
X048452Y025204D03*
X047114Y024220D03*
X048807Y027724D03*
X049909Y028157D03*
X044791Y028551D03*
X041996Y028905D03*
X040342Y029338D03*
X039594Y029417D03*
X038413Y030519D03*
X037468Y031110D03*
X038295Y034693D03*
X040224Y035126D03*
X046996Y033315D03*
X047901Y033590D03*
X049319Y031976D03*
X054437Y030559D03*
X060893Y029299D03*
X059515Y025716D03*
X057586Y024850D03*
X061996Y021346D03*
X057941Y020126D03*
X057508Y018472D03*
X056720Y017724D03*
X055421Y017015D03*
X054476Y017606D03*
X056523Y015874D03*
X056326Y015007D03*
X055539Y014496D03*
X056563Y014063D03*
X058059Y014929D03*
X060893Y013630D03*
X063059Y015204D03*
X068964Y014141D03*
X061563Y011819D03*
X061641Y010362D03*
X062232Y009771D03*
X059043Y010362D03*
X058137Y009456D03*
X055382Y008708D03*
X053964Y007645D03*
X049712Y007645D03*
X049240Y008708D03*
X056563Y011819D03*
X056248Y012724D03*
X054476Y013315D03*
X050893Y012724D03*
X050657Y013315D03*
X049122Y012724D03*
X043334Y012330D03*
X042114Y013236D03*
X046130Y017448D03*
X044988Y018157D03*
X045775Y018787D03*
X047114Y018472D03*
X047586Y018866D03*
X048059Y019259D03*
X048807Y018472D03*
X048413Y018000D03*
X051051Y019693D03*
X047114Y020834D03*
X044437Y019850D03*
X043098Y019102D03*
X041917Y018393D03*
X042901Y018118D03*
X043531Y018118D03*
X037429Y018984D03*
X034397Y019181D03*
X034200Y023078D03*
X033334Y024102D03*
X024634Y020086D03*
X021956Y018984D03*
X013767Y032960D03*
X014161Y034574D03*
X014791Y034614D03*
X015460Y035795D03*
X016208Y035952D03*
X013334Y035952D03*
X011090Y035795D03*
X010460Y035795D03*
X010736Y034338D03*
X059437Y011582D03*
M02*
