M48
METRIC,TZ
T1C0.400
T2C0.500
T3C0.550
T4C0.800
T5C0.813
T6C1.016
T7C2.200
T8C2.390
T9C3.200
T10C3.302
T11C3.450
%
G90
G05
T1
X40357Y-145136
X40856Y-76443
X40875Y-73698
X40960Y-115426
X40964Y-114199
X40969Y-111025
X41251Y-45915
X42400Y-150150
X42650Y-121846
X43709Y-103468
X43984Y-85601
X44250Y-146400
X44363Y-44306
X45300Y-165149
X46400Y-122000
X46750Y-103750
X46865Y-101065
X47250Y-152350
X47850Y-126824
X47861Y-85786
X47905Y-97491
X49244Y-86095
X49637Y-100758
X51000Y-73828
X51023Y-69110
X52500Y-123000
X52951Y-73661
X53250Y-84012
X54250Y-77975
X54250Y-84014
X54534Y-103159
X54615Y-72425
X54898Y-77337
X54916Y-64252
X55014Y-75509
X55485Y-60690
X55625Y-105105
X55655Y-76189
X55700Y-67250
X56115Y-118300
X56202Y-77978
X57028Y-82515
X57592Y-78530
X58641Y-70026
X59170Y-70652
X59945Y-75851
X60232Y-68067
X60533Y-72796
X60536Y-57719
X60673Y-64991
X60675Y-67264
X60688Y-71397
X60699Y-61048
X61336Y-57588
X61421Y-70771
X62261Y-70859
X62296Y-59034
X63708Y-72328
X65000Y-90500
X65900Y-75300
X66229Y-72707
X66476Y-57081
X66531Y-76793
X66958Y-83595
X67162Y-73821
X67333Y-57677
X67750Y-78921
X68051Y-57131
X68399Y-77751
X68725Y-57689
X70275Y-78525
X70294Y-72436
X72114Y-82559
X72580Y-72847
X72695Y-90865
X72750Y-78950
X73500Y-169500
X73701Y-59290
X74163Y-70727
X74391Y-73358
X74837Y-78951
X75300Y-128000
X75306Y-60382
X75326Y-61264
X75328Y-62290
X75363Y-86121
X75442Y-68155
X75449Y-88074
X75449Y-103200
X75545Y-66787
X75602Y-70886
X75849Y-58305
X76279Y-62105
X76350Y-87087
X77501Y-89501
X77702Y-88407
X78238Y-61370
X80245Y-72570
X80870Y-70548
X81469Y-71505
X81865Y-131903
X83181Y-53762
X83993Y-66223
X83994Y-60361
X84354Y-97917
X84662Y-70013
X84975Y-50480
X85205Y-94481
X86340Y-124270
X86340Y-132134
X87400Y-157600
X87693Y-103312
X87694Y-106299
X88100Y-93000
X88319Y-71475
X89000Y-93693
X89481Y-92374
X90593Y-91487
X91772Y-91495
X92358Y-86209
X92746Y-70864
X92838Y-88302
X92866Y-91488
X93611Y-111058
X96194Y-50470
X97767Y-70941
X98014Y-58313
X98014Y-54004
X98026Y-65640
X98032Y-56561
X98032Y-66985
X98032Y-59436
X98037Y-55264
X98042Y-64454
X99401Y-79909
X100019Y-83451
X100650Y-109900
X101000Y-55869
X101000Y-149365
X101000Y-158078
X101000Y-170091
X101295Y-53123
X101717Y-74100
X102151Y-162260
X102184Y-147178
X102200Y-87900
X104000Y-79923
X104200Y-108587
X104710Y-67819
X106846Y-88582
X106941Y-85491
X109700Y-104928
X110200Y-91460
X110200Y-108553
T4
X45000Y-99000
X45000Y-101500
X47850Y-157350
X48100Y-144000
X49000Y-164500
X49000Y-167000
X50350Y-157350
X50600Y-144000
X56500Y-66000
X56500Y-68500
X57000Y-169000
X57000Y-171500
X62000Y-53500
X62500Y-76500
X64500Y-53500
X65000Y-76500
X71500Y-77000
X74000Y-77000
X79500Y-58000
X79500Y-60500
T5
X40190Y-131460
X40190Y-136540
X47810Y-131460
X47810Y-136540
X50190Y-131460
X50190Y-136540
X57810Y-131460
X57810Y-136540
X92460Y-144190
X92460Y-151810
X92460Y-154690
X92460Y-162310
X92460Y-165190
X92460Y-172810
X97540Y-144190
X97540Y-151810
X97540Y-154690
X97540Y-162310
X97540Y-165190
X97540Y-172810
X99460Y-81990
X99460Y-89610
X104460Y-144190
X104460Y-151810
X104460Y-154690
X104460Y-162310
X104460Y-165190
X104460Y-172810
X104540Y-81990
X104540Y-89610
X109540Y-144190
X109540Y-151810
X109540Y-154690
X109540Y-162310
X109540Y-165190
X109540Y-172810
T6
X39370Y-52070
X41910Y-52070
X45720Y-52070
X45720Y-54610
X45720Y-57150
X45720Y-59690
X45720Y-63500
X45720Y-66040
X45720Y-68580
X45720Y-71120
X45720Y-73660
X45720Y-76200
X45720Y-80010
X45720Y-82550
X53800Y-148600
X53900Y-51200
X55000Y-157300
X55000Y-159840
X56340Y-148600
X56440Y-51200
X81000Y-123000
X81000Y-125540
X81000Y-128080
X81000Y-130620
X81000Y-133160
X83000Y-145000
X85540Y-145000
X86150Y-77200
X86150Y-79740
X86150Y-82280
X86150Y-84820
X88080Y-145000
X88690Y-77200
X88690Y-79740
X88690Y-82280
X88690Y-84820
X91230Y-77200
X91230Y-79740
X91230Y-82280
X91230Y-84820
T7
X40300Y-172000
X108500Y-75000
T8
X61000Y-165660
T9
X107000Y-45000
T10
X51775Y-45000
X96225Y-45000
T11
X61000Y-102130
X77000Y-157330
T2
X40638Y-160999G85X41288Y-160999
G05
X40638Y-167999G85X41288Y-167999
G05
T3
X43663Y-161849G85X43663Y-162149
G05
X43663Y-166849G85X43663Y-167149
G05
T0
M30
