G04 #@! TF.FileFunction,Soldermask,Top*
%FSLAX46Y46*%
G04 Gerber Fmt 4.6, Leading zero omitted, Abs format (unit mm)*
G04 Created by KiCad (PCBNEW 4.0.2-stable) date Sat 27 Feb 2016 06:16:26 AM EST*
%MOMM*%
G01*
G04 APERTURE LIST*
%ADD10C,0.100000*%
%ADD11C,2.600000*%
%ADD12R,2.127200X2.432000*%
%ADD13O,2.127200X2.432000*%
%ADD14R,2.432000X2.127200*%
%ADD15O,2.432000X2.127200*%
%ADD16O,3.850000X3.850000*%
%ADD17R,6.750000X7.740000*%
%ADD18O,2.790000X2.790000*%
%ADD19R,3.450000X1.670000*%
%ADD20R,1.700000X1.700000*%
%ADD21C,1.700000*%
%ADD22R,1.500000X1.100000*%
%ADD23R,3.200000X1.260000*%
%ADD24R,2.230000X1.540000*%
%ADD25R,3.730000X1.100000*%
%ADD26R,1.330000X1.300000*%
%ADD27R,1.180000X1.450000*%
%ADD28R,1.200000X2.000000*%
%ADD29R,2.000000X1.200000*%
%ADD30O,1.400000X1.200000*%
%ADD31R,1.900000X1.650000*%
%ADD32R,1.650000X1.900000*%
%ADD33R,1.421080X2.940000*%
%ADD34R,1.750000X0.800000*%
%ADD35O,1.350000X1.650000*%
%ADD36O,1.950000X1.400000*%
%ADD37C,1.797000*%
%ADD38R,1.050000X1.460000*%
%ADD39R,1.460000X1.050000*%
%ADD40R,1.400000X0.650000*%
%ADD41R,0.650000X1.400000*%
%ADD42O,1.150000X0.700000*%
%ADD43O,0.700000X1.150000*%
%ADD44R,1.300000X1.300000*%
%ADD45R,2.400000X1.000000*%
%ADD46R,1.197560X1.197560*%
%ADD47R,1.900000X1.700000*%
%ADD48R,1.700000X1.900000*%
%ADD49R,2.500580X6.000700*%
%ADD50R,2.432000X2.432000*%
%ADD51O,2.432000X2.432000*%
%ADD52O,3.702000X3.702000*%
%ADD53C,3.600000*%
G04 APERTURE END LIST*
D10*
D11*
X40300000Y-172000000D03*
D12*
X83000000Y-145000000D03*
D13*
X85540000Y-145000000D03*
X88080000Y-145000000D03*
D14*
X86150000Y-84820000D03*
D15*
X86150000Y-82280000D03*
X86150000Y-79740000D03*
X86150000Y-77200000D03*
D16*
X61000000Y-102130000D03*
D17*
X69000000Y-169330000D03*
X69000000Y-90670000D03*
D18*
X61000000Y-165660000D03*
D16*
X77000000Y-157330000D03*
D14*
X81000000Y-123000000D03*
D15*
X81000000Y-125540000D03*
X81000000Y-128080000D03*
X81000000Y-130620000D03*
X81000000Y-133160000D03*
D19*
X84490000Y-123000000D03*
X84490000Y-125540000D03*
X84490000Y-128080000D03*
X84490000Y-130620000D03*
X84490000Y-133160000D03*
D20*
X50350000Y-157350000D03*
D21*
X47850000Y-157350000D03*
D22*
X42650000Y-114250000D03*
X42650000Y-110950000D03*
D23*
X43150000Y-107670000D03*
D22*
X42650000Y-108750000D03*
X42650000Y-109850000D03*
X42650000Y-112050000D03*
X42650000Y-113150000D03*
X42650000Y-115350000D03*
X42650000Y-116450000D03*
D24*
X42665000Y-120330000D03*
D25*
X53915000Y-120550000D03*
D26*
X55115000Y-118240000D03*
D27*
X55190000Y-115290000D03*
D25*
X53915000Y-107590000D03*
D28*
X91000000Y-107250000D03*
D29*
X89000000Y-106400000D03*
X89000000Y-96300000D03*
D28*
X110200000Y-93750000D03*
X109000000Y-93750000D03*
X107800000Y-93750000D03*
X106600000Y-93750000D03*
X105400000Y-93750000D03*
X104200000Y-93750000D03*
X103000000Y-93750000D03*
X101800000Y-93750000D03*
X100600000Y-93750000D03*
X99400000Y-93750000D03*
X98200000Y-93750000D03*
X97000000Y-93750000D03*
X95800000Y-93750000D03*
X94600000Y-93750000D03*
X93400000Y-93750000D03*
X92200000Y-93750000D03*
X91000000Y-93750000D03*
D29*
X89000000Y-94600000D03*
X89000000Y-97500000D03*
X89000000Y-98700000D03*
X89000000Y-99900000D03*
X89000000Y-101100000D03*
X89000000Y-102300000D03*
X89000000Y-103500000D03*
X89000000Y-104700000D03*
D28*
X92200000Y-107250000D03*
X93400000Y-107250000D03*
X94600000Y-107250000D03*
X95800000Y-107250000D03*
X97000000Y-107250000D03*
X98200000Y-107250000D03*
X99400000Y-107250000D03*
X100600000Y-107250000D03*
X101800000Y-107250000D03*
X103000000Y-107250000D03*
X104200000Y-107250000D03*
X105400000Y-107250000D03*
X106600000Y-107250000D03*
X107800000Y-107250000D03*
X109000000Y-107250000D03*
X110200000Y-107250000D03*
D30*
X109700000Y-104000000D03*
X109700000Y-102600000D03*
X109700000Y-101200000D03*
X109700000Y-99800000D03*
X109700000Y-98400000D03*
X109700000Y-97000000D03*
D20*
X49000000Y-167000000D03*
D21*
X49000000Y-164500000D03*
D31*
X56750000Y-60500000D03*
X59250000Y-60500000D03*
D20*
X56500000Y-66000000D03*
D21*
X56500000Y-68500000D03*
D32*
X39200000Y-148150000D03*
X39200000Y-145650000D03*
D20*
X57000000Y-169000000D03*
D21*
X57000000Y-171500000D03*
D20*
X62500000Y-76500000D03*
D21*
X65000000Y-76500000D03*
D20*
X64500000Y-53500000D03*
D21*
X62000000Y-53500000D03*
D33*
X41254460Y-156800000D03*
X43545540Y-156800000D03*
X50455540Y-148580000D03*
X48164460Y-148580000D03*
D34*
X43662540Y-163199100D03*
X43662540Y-163849100D03*
X43662540Y-164499100D03*
X43662540Y-165149100D03*
X43662540Y-165799100D03*
D35*
X43662540Y-161999100D03*
X43662540Y-166999100D03*
D36*
X40962540Y-160999100D03*
X40962540Y-167999100D03*
D37*
X47810000Y-131460000D03*
X47810000Y-136540000D03*
X40190000Y-131460000D03*
X40190000Y-136540000D03*
X109540000Y-172810000D03*
X104460000Y-172810000D03*
X109540000Y-165190000D03*
X104460000Y-165190000D03*
X92460000Y-165190000D03*
X97540000Y-165190000D03*
X92460000Y-172810000D03*
X97540000Y-172810000D03*
X109540000Y-151810000D03*
X104460000Y-151810000D03*
X109540000Y-144190000D03*
X104460000Y-144190000D03*
X109540000Y-162310000D03*
X104460000Y-162310000D03*
X109540000Y-154690000D03*
X104460000Y-154690000D03*
X57810000Y-131460000D03*
X57810000Y-136540000D03*
X50190000Y-131460000D03*
X50190000Y-136540000D03*
X92460000Y-154690000D03*
X97540000Y-154690000D03*
X92460000Y-162310000D03*
X97540000Y-162310000D03*
X92460000Y-144190000D03*
X97540000Y-144190000D03*
X92460000Y-151810000D03*
X97540000Y-151810000D03*
D38*
X43350000Y-151200000D03*
X42400000Y-151200000D03*
X41450000Y-151200000D03*
X41450000Y-153400000D03*
X43350000Y-153400000D03*
D39*
X53100000Y-170950000D03*
X53100000Y-170000000D03*
X53100000Y-169050000D03*
X50900000Y-169050000D03*
X50900000Y-170950000D03*
D40*
X62300000Y-61250000D03*
X62300000Y-61750000D03*
X62300000Y-62250000D03*
X62300000Y-62750000D03*
X62300000Y-63250000D03*
X62300000Y-63750000D03*
X62300000Y-64250000D03*
X62300000Y-64750000D03*
X62300000Y-65250000D03*
X62300000Y-65750000D03*
X62300000Y-66250000D03*
X62300000Y-66750000D03*
X62300000Y-67250000D03*
X62300000Y-67750000D03*
X62300000Y-68250000D03*
X62300000Y-68750000D03*
D41*
X64250000Y-70700000D03*
X64750000Y-70700000D03*
X65250000Y-70700000D03*
X65750000Y-70700000D03*
X66250000Y-70700000D03*
X66750000Y-70700000D03*
X67250000Y-70700000D03*
X67750000Y-70700000D03*
X68250000Y-70700000D03*
X68750000Y-70700000D03*
X69250000Y-70700000D03*
X69750000Y-70700000D03*
X70250000Y-70700000D03*
X70750000Y-70700000D03*
X71250000Y-70700000D03*
X71750000Y-70700000D03*
D40*
X73700000Y-68750000D03*
X73700000Y-68250000D03*
X73700000Y-67750000D03*
X73700000Y-67250000D03*
X73700000Y-66750000D03*
X73700000Y-66250000D03*
X73700000Y-65750000D03*
X73700000Y-65250000D03*
X73700000Y-64750000D03*
X73700000Y-64250000D03*
X73700000Y-63750000D03*
X73700000Y-63250000D03*
X73700000Y-62750000D03*
X73700000Y-62250000D03*
X73700000Y-61750000D03*
X73700000Y-61250000D03*
D41*
X71750000Y-59300000D03*
X71250000Y-59300000D03*
X70750000Y-59300000D03*
X70250000Y-59300000D03*
X69750000Y-59300000D03*
X69250000Y-59300000D03*
X68750000Y-59300000D03*
X68250000Y-59300000D03*
X67750000Y-59300000D03*
X67250000Y-59300000D03*
X66750000Y-59300000D03*
X66250000Y-59300000D03*
X65750000Y-59300000D03*
X65250000Y-59300000D03*
X64750000Y-59300000D03*
X64250000Y-59300000D03*
D14*
X45720000Y-59690000D03*
D15*
X45720000Y-57150000D03*
X45720000Y-54610000D03*
X45720000Y-52070000D03*
D42*
X55475000Y-81750000D03*
X55475000Y-81250000D03*
X55475000Y-80750000D03*
X55475000Y-80250000D03*
D43*
X54750000Y-79525000D03*
X54250000Y-79525000D03*
X53750000Y-79525000D03*
X53250000Y-79525000D03*
D42*
X52525000Y-80250000D03*
X52525000Y-80750000D03*
X52525000Y-81250000D03*
X52525000Y-81750000D03*
D43*
X53250000Y-82475000D03*
X53750000Y-82475000D03*
X54250000Y-82475000D03*
X54750000Y-82475000D03*
D44*
X53550000Y-80550000D03*
X53550000Y-81450000D03*
X54450000Y-80550000D03*
X54450000Y-81450000D03*
D45*
X86300000Y-51745000D03*
X86300000Y-53015000D03*
X86300000Y-54285000D03*
X86300000Y-55555000D03*
X86300000Y-56825000D03*
X86300000Y-58095000D03*
X86300000Y-59365000D03*
X86300000Y-60635000D03*
X86300000Y-61905000D03*
X86300000Y-63175000D03*
X86300000Y-64445000D03*
X86300000Y-65715000D03*
X86300000Y-66985000D03*
X86300000Y-68255000D03*
X95700000Y-68255000D03*
X95700000Y-66985000D03*
X95700000Y-65715000D03*
X95700000Y-64445000D03*
X95700000Y-63175000D03*
X95700000Y-61905000D03*
X95700000Y-60635000D03*
X95700000Y-59365000D03*
X95700000Y-58095000D03*
X95700000Y-56825000D03*
X95700000Y-55555000D03*
X95700000Y-54285000D03*
X95700000Y-53015000D03*
X95700000Y-51745000D03*
D32*
X48000000Y-101250000D03*
X48000000Y-98750000D03*
D31*
X53500000Y-75350000D03*
X51000000Y-75350000D03*
X50750000Y-86000000D03*
X53250000Y-86000000D03*
D32*
X83500000Y-52500000D03*
X83500000Y-50000000D03*
X83500000Y-67500000D03*
X83500000Y-70000000D03*
D31*
X94000000Y-70750000D03*
X96500000Y-70750000D03*
D32*
X100000000Y-75750000D03*
X100000000Y-78250000D03*
X104000000Y-75750000D03*
X104000000Y-78250000D03*
X103000000Y-65750000D03*
X103000000Y-68250000D03*
X103000000Y-56250000D03*
X103000000Y-53750000D03*
D46*
X42749300Y-45000000D03*
X41250700Y-45000000D03*
X98000000Y-111749300D03*
X98000000Y-110250700D03*
X95000000Y-111749300D03*
X95000000Y-110250700D03*
D14*
X91230000Y-84820000D03*
D15*
X91230000Y-82280000D03*
X91230000Y-79740000D03*
X91230000Y-77200000D03*
D14*
X88690000Y-84820000D03*
D15*
X88690000Y-82280000D03*
X88690000Y-79740000D03*
X88690000Y-77200000D03*
D47*
X47850000Y-128000000D03*
X45150000Y-128000000D03*
D48*
X101000000Y-171350000D03*
X101000000Y-168650000D03*
D47*
X85850000Y-157750000D03*
X83150000Y-157750000D03*
D48*
X101000000Y-150650000D03*
X101000000Y-153350000D03*
X101000000Y-162650000D03*
X101000000Y-165350000D03*
D47*
X51150000Y-128000000D03*
X53850000Y-128000000D03*
D48*
X101000000Y-159350000D03*
X101000000Y-156650000D03*
X101000000Y-147350000D03*
X101000000Y-144650000D03*
D47*
X42650000Y-123000000D03*
X45350000Y-123000000D03*
X48650000Y-123000000D03*
X51350000Y-123000000D03*
X51650000Y-102000000D03*
X54350000Y-102000000D03*
X54350000Y-105000000D03*
X51650000Y-105000000D03*
X45350000Y-105000000D03*
X42650000Y-105000000D03*
X100650000Y-72500000D03*
X103350000Y-72500000D03*
D48*
X103000000Y-59650000D03*
X103000000Y-62350000D03*
D47*
X92350000Y-111000000D03*
X89650000Y-111000000D03*
X100650000Y-111000000D03*
X103350000Y-111000000D03*
D49*
X108000000Y-65848860D03*
X108000000Y-56151140D03*
D31*
X41750000Y-148100000D03*
X44250000Y-148100000D03*
D20*
X48100000Y-144000000D03*
D21*
X50600000Y-144000000D03*
D20*
X71500000Y-77000000D03*
D21*
X74000000Y-77000000D03*
D20*
X79500000Y-60500000D03*
D21*
X79500000Y-58000000D03*
D20*
X45000000Y-99000000D03*
D21*
X45000000Y-101500000D03*
D39*
X48250000Y-151400000D03*
X48250000Y-152350000D03*
X48250000Y-153300000D03*
X50450000Y-153300000D03*
X50450000Y-151400000D03*
D50*
X53900000Y-51200000D03*
D51*
X56440000Y-51200000D03*
D37*
X99460000Y-81990000D03*
X104540000Y-81990000D03*
X99460000Y-89610000D03*
X104540000Y-89610000D03*
D50*
X45720000Y-82550000D03*
D51*
X45720000Y-80010000D03*
D14*
X45720000Y-63500000D03*
D15*
X45720000Y-66040000D03*
X45720000Y-68580000D03*
X45720000Y-71120000D03*
X45720000Y-73660000D03*
X45720000Y-76200000D03*
D32*
X85500000Y-98250000D03*
X85500000Y-95750000D03*
X42000000Y-73750000D03*
X42000000Y-76250000D03*
D50*
X39370000Y-52070000D03*
D51*
X41910000Y-52070000D03*
D50*
X53800000Y-148600000D03*
D51*
X56340000Y-148600000D03*
D50*
X55000000Y-157300000D03*
D51*
X55000000Y-159840000D03*
D52*
X96225000Y-45000000D03*
X51775000Y-45000000D03*
D53*
X107000000Y-45000000D03*
D11*
X108500000Y-75000000D03*
M02*
