G04 #@! TF.FileFunction,Legend,Top*
%FSLAX46Y46*%
G04 Gerber Fmt 4.6, Leading zero omitted, Abs format (unit mm)*
G04 Created by KiCad (PCBNEW 4.0.2-stable) date Sat 27 Feb 2016 06:16:26 AM EST*
%MOMM*%
G01*
G04 APERTURE LIST*
%ADD10C,0.100000*%
%ADD11C,0.200000*%
%ADD12C,0.125000*%
%ADD13C,0.175000*%
%ADD14C,0.250000*%
%ADD15C,0.300000*%
%ADD16C,0.062500*%
%ADD17C,0.187500*%
%ADD18C,0.500000*%
%ADD19C,0.150000*%
G04 APERTURE END LIST*
D10*
D11*
X37750000Y-174500000D02*
X37750000Y-169500000D01*
X42750000Y-174500000D02*
X37750000Y-174500000D01*
X42750000Y-169500000D02*
X42750000Y-174500000D01*
X37750000Y-169500000D02*
X42750000Y-169500000D01*
X103000000Y-49000000D02*
X103000000Y-41100000D01*
X111000000Y-49000000D02*
X103100000Y-49000000D01*
X111000000Y-41000000D02*
X111000000Y-49000000D01*
X103000000Y-41000000D02*
X111000000Y-41000000D01*
D12*
X108738096Y-74452381D02*
X108261905Y-74452381D01*
X108214286Y-74928571D01*
X108261905Y-74880952D01*
X108357143Y-74833333D01*
X108595239Y-74833333D01*
X108690477Y-74880952D01*
X108738096Y-74928571D01*
X108785715Y-75023810D01*
X108785715Y-75261905D01*
X108738096Y-75357143D01*
X108690477Y-75404762D01*
X108595239Y-75452381D01*
X108357143Y-75452381D01*
X108261905Y-75404762D01*
X108214286Y-75357143D01*
X106952381Y-44940476D02*
X106904762Y-44916667D01*
X106880953Y-44892857D01*
X106857143Y-44845238D01*
X106857143Y-44821429D01*
X106880953Y-44773810D01*
X106904762Y-44750000D01*
X106952381Y-44726190D01*
X107047619Y-44726190D01*
X107095238Y-44750000D01*
X107119048Y-44773810D01*
X107142857Y-44821429D01*
X107142857Y-44845238D01*
X107119048Y-44892857D01*
X107095238Y-44916667D01*
X107047619Y-44940476D01*
X106952381Y-44940476D01*
X106904762Y-44964286D01*
X106880953Y-44988095D01*
X106857143Y-45035714D01*
X106857143Y-45130952D01*
X106880953Y-45178571D01*
X106904762Y-45202381D01*
X106952381Y-45226190D01*
X107047619Y-45226190D01*
X107095238Y-45202381D01*
X107119048Y-45178571D01*
X107142857Y-45130952D01*
X107142857Y-45035714D01*
X107119048Y-44988095D01*
X107095238Y-44964286D01*
X107047619Y-44940476D01*
X55095238Y-90892857D02*
X55095238Y-91226190D01*
X54976191Y-90702381D02*
X54857143Y-91059524D01*
X55166667Y-91059524D01*
D11*
X106000000Y-77500000D02*
X106000000Y-72500000D01*
X111000000Y-77500000D02*
X106000000Y-77500000D01*
X111000000Y-72500000D02*
X111000000Y-77500000D01*
X106000000Y-72500000D02*
X111000000Y-72500000D01*
X53000000Y-93000000D02*
X53000000Y-89000000D01*
X57000000Y-93000000D02*
X53000000Y-93000000D01*
X57000000Y-89000000D02*
X57000000Y-93000000D01*
X53000000Y-89000000D02*
X57000000Y-89000000D01*
X56000000Y-91000000D02*
G75*
G03X56000000Y-91000000I-1000000J0D01*
G01*
X53000000Y-97000000D02*
X53000000Y-88000000D01*
X57000000Y-93000000D02*
X53000000Y-97000000D01*
X57000000Y-86000000D02*
X57000000Y-93000000D01*
X55000000Y-86000000D02*
X57000000Y-86000000D01*
X55000000Y-88000000D02*
X55000000Y-86000000D01*
X53000000Y-88000000D02*
X55000000Y-88000000D01*
X89405125Y-151500000D02*
G75*
G03X89405125Y-151500000I-3905125J0D01*
G01*
X75414214Y-52000000D02*
G75*
G03X75414214Y-52000000I-1414214J0D01*
G01*
X67000000Y-54000000D02*
X67000000Y-50000000D01*
X81000000Y-54000000D02*
X67000000Y-54000000D01*
X81000000Y-50000000D02*
X81000000Y-54000000D01*
X67000000Y-50000000D02*
X81000000Y-50000000D01*
D12*
X44533334Y-52476190D02*
X44700001Y-52976190D01*
X44866667Y-52476190D01*
D11*
X57200000Y-151600000D02*
X57100000Y-151600000D01*
X57200000Y-150600000D02*
X57200000Y-151600000D01*
X57300000Y-150600000D02*
X57200000Y-150600000D01*
X57300000Y-151600000D02*
X57300000Y-150600000D01*
X57400000Y-151600000D02*
X57300000Y-151600000D01*
X57400000Y-150600000D02*
X57400000Y-151600000D01*
X57500000Y-150600000D02*
X57400000Y-150600000D01*
X57500000Y-151600000D02*
X57500000Y-150600000D01*
X57600000Y-151600000D02*
X57500000Y-151600000D01*
X57600000Y-150600000D02*
X57600000Y-151600000D01*
X57700000Y-150600000D02*
X57600000Y-150600000D01*
X57700000Y-151600000D02*
X57700000Y-150600000D01*
X57800000Y-151600000D02*
X57700000Y-151600000D01*
X57800000Y-150600000D02*
X57800000Y-151600000D01*
X57900000Y-150600000D02*
X57800000Y-150600000D01*
X57900000Y-151700000D02*
X57900000Y-150600000D01*
X55000000Y-150600000D02*
X55100000Y-150600000D01*
X55000000Y-151600000D02*
X55000000Y-150600000D01*
X54900000Y-151600000D02*
X55000000Y-151600000D01*
X54900000Y-150600000D02*
X54900000Y-151600000D01*
X54800000Y-150600000D02*
X54900000Y-150600000D01*
X54800000Y-151600000D02*
X54800000Y-150600000D01*
X54700000Y-151600000D02*
X54800000Y-151600000D01*
X54700000Y-150600000D02*
X54700000Y-151600000D01*
X54600000Y-150600000D02*
X54700000Y-150600000D01*
X54600000Y-151600000D02*
X54600000Y-150600000D01*
X54500000Y-151600000D02*
X54600000Y-151600000D01*
X54500000Y-150600000D02*
X54500000Y-151600000D01*
X54400000Y-150600000D02*
X54500000Y-150600000D01*
X54400000Y-151600000D02*
X54400000Y-150600000D01*
X52050000Y-153400000D02*
X58050000Y-153400000D01*
X58050000Y-153400000D02*
X58050000Y-152000000D01*
X52050000Y-152000000D02*
X52050000Y-153400000D01*
X58050000Y-151800000D02*
X58050000Y-150400000D01*
X58050000Y-150400000D02*
X52050000Y-150400000D01*
X52050000Y-150400000D02*
X52050000Y-151800000D01*
D13*
X52166667Y-150664881D02*
X52600000Y-150664881D01*
X52366667Y-151045833D01*
X52466667Y-151045833D01*
X52533334Y-151093452D01*
X52566667Y-151141071D01*
X52600000Y-151236310D01*
X52600000Y-151474405D01*
X52566667Y-151569643D01*
X52533334Y-151617262D01*
X52466667Y-151664881D01*
X52266667Y-151664881D01*
X52200000Y-151617262D01*
X52166667Y-151569643D01*
X52900001Y-151569643D02*
X52933334Y-151617262D01*
X52900001Y-151664881D01*
X52866667Y-151617262D01*
X52900001Y-151569643D01*
X52900001Y-151664881D01*
X53166667Y-150664881D02*
X53600000Y-150664881D01*
X53366667Y-151045833D01*
X53466667Y-151045833D01*
X53533334Y-151093452D01*
X53566667Y-151141071D01*
X53600000Y-151236310D01*
X53600000Y-151474405D01*
X53566667Y-151569643D01*
X53533334Y-151617262D01*
X53466667Y-151664881D01*
X53266667Y-151664881D01*
X53200000Y-151617262D01*
X53166667Y-151569643D01*
X53800001Y-150664881D02*
X54033334Y-151664881D01*
X54266667Y-150664881D01*
X52533333Y-153192262D02*
X52600000Y-153239881D01*
X52733333Y-153239881D01*
X52800000Y-153192262D01*
X52833333Y-153097024D01*
X52833333Y-153049405D01*
X52800000Y-152954167D01*
X52733333Y-152906548D01*
X52633333Y-152906548D01*
X52566667Y-152858929D01*
X52533333Y-152763690D01*
X52533333Y-152716071D01*
X52566667Y-152620833D01*
X52633333Y-152573214D01*
X52733333Y-152573214D01*
X52800000Y-152620833D01*
X53133334Y-153239881D02*
X53133334Y-152573214D01*
X53133334Y-152763690D02*
X53166667Y-152668452D01*
X53200000Y-152620833D01*
X53266667Y-152573214D01*
X53333334Y-152573214D01*
X53866667Y-153192262D02*
X53800000Y-153239881D01*
X53666667Y-153239881D01*
X53600000Y-153192262D01*
X53566667Y-153144643D01*
X53533333Y-153049405D01*
X53533333Y-152763690D01*
X53566667Y-152668452D01*
X53600000Y-152620833D01*
X53666667Y-152573214D01*
X53800000Y-152573214D01*
X53866667Y-152620833D01*
D11*
X54250000Y-150400000D02*
X54250000Y-153400000D01*
X55500000Y-153154762D02*
X55404762Y-153202381D01*
X55214285Y-153202381D01*
X55119047Y-153154762D01*
X55071428Y-153059524D01*
X55071428Y-152678571D01*
X55119047Y-152583333D01*
X55214285Y-152535714D01*
X55404762Y-152535714D01*
X55500000Y-152583333D01*
X55547619Y-152678571D01*
X55547619Y-152773810D01*
X55071428Y-152869048D01*
X55880952Y-153202381D02*
X56404762Y-152535714D01*
X55880952Y-152535714D02*
X56404762Y-153202381D01*
X56642857Y-152535714D02*
X57023809Y-152535714D01*
X56785714Y-152202381D02*
X56785714Y-153059524D01*
X56833333Y-153154762D01*
X56928571Y-153202381D01*
X57023809Y-153202381D01*
X58050000Y-151800000D02*
X54250000Y-151800000D01*
X54250000Y-152000000D02*
X58050000Y-152000000D01*
X55311905Y-151602381D02*
X55311905Y-150935714D01*
X55311905Y-150602381D02*
X55264286Y-150650000D01*
X55311905Y-150697619D01*
X55359524Y-150650000D01*
X55311905Y-150602381D01*
X55311905Y-150697619D01*
X55788095Y-150935714D02*
X55788095Y-151602381D01*
X55788095Y-151030952D02*
X55835714Y-150983333D01*
X55930952Y-150935714D01*
X56073810Y-150935714D01*
X56169048Y-150983333D01*
X56216667Y-151078571D01*
X56216667Y-151602381D01*
X56550000Y-150935714D02*
X56930952Y-150935714D01*
X56692857Y-150602381D02*
X56692857Y-151459524D01*
X56740476Y-151554762D01*
X56835714Y-151602381D01*
X56930952Y-151602381D01*
X42650000Y-50000000D02*
X42850000Y-50000000D01*
X42850000Y-50000000D02*
X42850000Y-49000000D01*
X42750000Y-48900000D02*
X42750000Y-48800000D01*
X40750000Y-48900000D02*
X42750000Y-48900000D01*
X43450000Y-49000000D02*
X43450000Y-50000000D01*
X43250000Y-49000000D02*
X43450000Y-49000000D01*
X43250000Y-50000000D02*
X43250000Y-49000000D01*
X43050000Y-50000000D02*
X43250000Y-50000000D01*
X43050000Y-49000000D02*
X43050000Y-50000000D01*
X42850000Y-49000000D02*
X43050000Y-49000000D01*
X40450000Y-50000000D02*
X40650000Y-50000000D01*
X40450000Y-49000000D02*
X40450000Y-50000000D01*
X40250000Y-49000000D02*
X40450000Y-49000000D01*
X40250000Y-50000000D02*
X40250000Y-49000000D01*
X40050000Y-50000000D02*
X40250000Y-50000000D01*
X40050000Y-49000000D02*
X40050000Y-50000000D01*
X40861905Y-50052381D02*
X40861905Y-49385714D01*
X40861905Y-49052381D02*
X40814286Y-49100000D01*
X40861905Y-49147619D01*
X40909524Y-49100000D01*
X40861905Y-49052381D01*
X40861905Y-49147619D01*
X41338095Y-49385714D02*
X41338095Y-50052381D01*
X41338095Y-49480952D02*
X41385714Y-49433333D01*
X41480952Y-49385714D01*
X41623810Y-49385714D01*
X41719048Y-49433333D01*
X41766667Y-49528571D01*
X41766667Y-50052381D01*
X42100000Y-49385714D02*
X42480952Y-49385714D01*
X42242857Y-49052381D02*
X42242857Y-49909524D01*
X42290476Y-50004762D01*
X42385714Y-50052381D01*
X42480952Y-50052381D01*
X39850000Y-48800000D02*
X43650000Y-48800000D01*
X43650000Y-48600000D02*
X39850000Y-48600000D01*
X41100000Y-48354762D02*
X41004762Y-48402381D01*
X40814285Y-48402381D01*
X40719047Y-48354762D01*
X40671428Y-48259524D01*
X40671428Y-47878571D01*
X40719047Y-47783333D01*
X40814285Y-47735714D01*
X41004762Y-47735714D01*
X41100000Y-47783333D01*
X41147619Y-47878571D01*
X41147619Y-47973810D01*
X40671428Y-48069048D01*
X41480952Y-48402381D02*
X42004762Y-47735714D01*
X41480952Y-47735714D02*
X42004762Y-48402381D01*
X42242857Y-47735714D02*
X42623809Y-47735714D01*
X42385714Y-47402381D02*
X42385714Y-48259524D01*
X42433333Y-48354762D01*
X42528571Y-48402381D01*
X42623809Y-48402381D01*
X39850000Y-47200000D02*
X39850000Y-50200000D01*
X38509524Y-47452381D02*
X38033333Y-47452381D01*
X37985714Y-47928571D01*
X38033333Y-47880952D01*
X38128571Y-47833333D01*
X38366667Y-47833333D01*
X38461905Y-47880952D01*
X38509524Y-47928571D01*
X38557143Y-48023810D01*
X38557143Y-48261905D01*
X38509524Y-48357143D01*
X38461905Y-48404762D01*
X38366667Y-48452381D01*
X38128571Y-48452381D01*
X38033333Y-48404762D01*
X37985714Y-48357143D01*
X38842857Y-47452381D02*
X39176190Y-48452381D01*
X39509524Y-47452381D01*
X37747619Y-50004762D02*
X37842857Y-50052381D01*
X38033333Y-50052381D01*
X38128572Y-50004762D01*
X38176191Y-49909524D01*
X38176191Y-49861905D01*
X38128572Y-49766667D01*
X38033333Y-49719048D01*
X37890476Y-49719048D01*
X37795238Y-49671429D01*
X37747619Y-49576190D01*
X37747619Y-49528571D01*
X37795238Y-49433333D01*
X37890476Y-49385714D01*
X38033333Y-49385714D01*
X38128572Y-49433333D01*
X38604762Y-50052381D02*
X38604762Y-49385714D01*
X38604762Y-49576190D02*
X38652381Y-49480952D01*
X38700000Y-49433333D01*
X38795238Y-49385714D01*
X38890477Y-49385714D01*
X39652382Y-50004762D02*
X39557144Y-50052381D01*
X39366667Y-50052381D01*
X39271429Y-50004762D01*
X39223810Y-49957143D01*
X39176191Y-49861905D01*
X39176191Y-49576190D01*
X39223810Y-49480952D01*
X39271429Y-49433333D01*
X39366667Y-49385714D01*
X39557144Y-49385714D01*
X39652382Y-49433333D01*
X37650000Y-47200000D02*
X37650000Y-48600000D01*
X43650000Y-47200000D02*
X37650000Y-47200000D01*
X43650000Y-48600000D02*
X43650000Y-47200000D01*
X37650000Y-48800000D02*
X37650000Y-50200000D01*
X43650000Y-50200000D02*
X43650000Y-48800000D01*
X37650000Y-50200000D02*
X43650000Y-50200000D01*
X84750000Y-99850000D02*
G75*
G03X84750000Y-99850000I-1000000J0D01*
G01*
X83750000Y-100600000D02*
X83750000Y-99100000D01*
D12*
X42126190Y-153969046D02*
X42626190Y-153635713D01*
X42126190Y-153635713D02*
X42626190Y-153969046D01*
X42578571Y-153159523D02*
X42602381Y-153183333D01*
X42626190Y-153254761D01*
X42626190Y-153302380D01*
X42602381Y-153373809D01*
X42554762Y-153421428D01*
X42507143Y-153445237D01*
X42411905Y-153469047D01*
X42340476Y-153469047D01*
X42245238Y-153445237D01*
X42197619Y-153421428D01*
X42150000Y-153373809D01*
X42126190Y-153302380D01*
X42126190Y-153254761D01*
X42150000Y-153183333D01*
X42173810Y-153159523D01*
X42626190Y-152921428D02*
X42626190Y-152826190D01*
X42602381Y-152778571D01*
X42578571Y-152754761D01*
X42507143Y-152707142D01*
X42411905Y-152683333D01*
X42221429Y-152683333D01*
X42173810Y-152707142D01*
X42150000Y-152730952D01*
X42126190Y-152778571D01*
X42126190Y-152873809D01*
X42150000Y-152921428D01*
X42173810Y-152945237D01*
X42221429Y-152969047D01*
X42340476Y-152969047D01*
X42388095Y-152945237D01*
X42411905Y-152921428D01*
X42435714Y-152873809D01*
X42435714Y-152778571D01*
X42411905Y-152730952D01*
X42388095Y-152707142D01*
X42340476Y-152683333D01*
X42626190Y-152207143D02*
X42626190Y-152492857D01*
X42626190Y-152350000D02*
X42126190Y-152350000D01*
X42197619Y-152397619D01*
X42245238Y-152445238D01*
X42269048Y-152492857D01*
X42292857Y-151778572D02*
X42626190Y-151778572D01*
X42102381Y-151897619D02*
X42459524Y-152016667D01*
X42459524Y-151707143D01*
X42126190Y-151421429D02*
X42126190Y-151373810D01*
X42150000Y-151326191D01*
X42173810Y-151302382D01*
X42221429Y-151278572D01*
X42316667Y-151254763D01*
X42435714Y-151254763D01*
X42530952Y-151278572D01*
X42578571Y-151302382D01*
X42602381Y-151326191D01*
X42626190Y-151373810D01*
X42626190Y-151421429D01*
X42602381Y-151469048D01*
X42578571Y-151492858D01*
X42530952Y-151516667D01*
X42435714Y-151540477D01*
X42316667Y-151540477D01*
X42221429Y-151516667D01*
X42173810Y-151492858D01*
X42150000Y-151469048D01*
X42126190Y-151421429D01*
X39926190Y-147135714D02*
X39926190Y-147421428D01*
X39926190Y-147278571D02*
X39426190Y-147278571D01*
X39497619Y-147326190D01*
X39545238Y-147373809D01*
X39569048Y-147421428D01*
X39426190Y-146826190D02*
X39426190Y-146778571D01*
X39450000Y-146730952D01*
X39473810Y-146707143D01*
X39521429Y-146683333D01*
X39616667Y-146659524D01*
X39735714Y-146659524D01*
X39830952Y-146683333D01*
X39878571Y-146707143D01*
X39902381Y-146730952D01*
X39926190Y-146778571D01*
X39926190Y-146826190D01*
X39902381Y-146873809D01*
X39878571Y-146897619D01*
X39830952Y-146921428D01*
X39735714Y-146945238D01*
X39616667Y-146945238D01*
X39521429Y-146921428D01*
X39473810Y-146897619D01*
X39450000Y-146873809D01*
X39426190Y-146826190D01*
X39592857Y-146230953D02*
X39926190Y-146230953D01*
X39592857Y-146445238D02*
X39854762Y-146445238D01*
X39902381Y-146421429D01*
X39926190Y-146373810D01*
X39926190Y-146302381D01*
X39902381Y-146254762D01*
X39878571Y-146230953D01*
X39664286Y-145826191D02*
X39664286Y-145992857D01*
X39926190Y-145992857D02*
X39426190Y-145992857D01*
X39426190Y-145754762D01*
X42697620Y-148492857D02*
X42697620Y-148826190D01*
X42578573Y-148302381D02*
X42459525Y-148659524D01*
X42769049Y-148659524D01*
X42959525Y-148778571D02*
X42983334Y-148802381D01*
X42959525Y-148826190D01*
X42935715Y-148802381D01*
X42959525Y-148778571D01*
X42959525Y-148826190D01*
X43150001Y-148326190D02*
X43483334Y-148326190D01*
X43269048Y-148826190D01*
X43888095Y-148492857D02*
X43888095Y-148826190D01*
X43673810Y-148492857D02*
X43673810Y-148754762D01*
X43697619Y-148802381D01*
X43745238Y-148826190D01*
X43816667Y-148826190D01*
X43864286Y-148802381D01*
X43888095Y-148778571D01*
X44292857Y-148564286D02*
X44126191Y-148564286D01*
X44126191Y-148826190D02*
X44126191Y-148326190D01*
X44364286Y-148326190D01*
D14*
X49252381Y-145571428D02*
X49252381Y-146142857D01*
X49252381Y-145857143D02*
X48252381Y-145857143D01*
X48395238Y-145952381D01*
X48490476Y-146047619D01*
X48538095Y-146142857D01*
X48252381Y-144952381D02*
X48252381Y-144857142D01*
X48300000Y-144761904D01*
X48347619Y-144714285D01*
X48442857Y-144666666D01*
X48633333Y-144619047D01*
X48871429Y-144619047D01*
X49061905Y-144666666D01*
X49157143Y-144714285D01*
X49204762Y-144761904D01*
X49252381Y-144857142D01*
X49252381Y-144952381D01*
X49204762Y-145047619D01*
X49157143Y-145095238D01*
X49061905Y-145142857D01*
X48871429Y-145190476D01*
X48633333Y-145190476D01*
X48442857Y-145142857D01*
X48347619Y-145095238D01*
X48300000Y-145047619D01*
X48252381Y-144952381D01*
X48585714Y-143761904D02*
X49252381Y-143761904D01*
X48585714Y-144190476D02*
X49109524Y-144190476D01*
X49204762Y-144142857D01*
X49252381Y-144047619D01*
X49252381Y-143904761D01*
X49204762Y-143809523D01*
X49157143Y-143761904D01*
X48728571Y-142952380D02*
X48728571Y-143285714D01*
X49252381Y-143285714D02*
X48252381Y-143285714D01*
X48252381Y-142809523D01*
X49147619Y-155728572D02*
X49147619Y-155157143D01*
X49147619Y-155442857D02*
X50147619Y-155442857D01*
X50004762Y-155347619D01*
X49909524Y-155252381D01*
X49861905Y-155157143D01*
X50147619Y-156347619D02*
X50147619Y-156442858D01*
X50100000Y-156538096D01*
X50052381Y-156585715D01*
X49957143Y-156633334D01*
X49766667Y-156680953D01*
X49528571Y-156680953D01*
X49338095Y-156633334D01*
X49242857Y-156585715D01*
X49195238Y-156538096D01*
X49147619Y-156442858D01*
X49147619Y-156347619D01*
X49195238Y-156252381D01*
X49242857Y-156204762D01*
X49338095Y-156157143D01*
X49528571Y-156109524D01*
X49766667Y-156109524D01*
X49957143Y-156157143D01*
X50052381Y-156204762D01*
X50100000Y-156252381D01*
X50147619Y-156347619D01*
X49814286Y-157538096D02*
X49147619Y-157538096D01*
X49814286Y-157109524D02*
X49290476Y-157109524D01*
X49195238Y-157157143D01*
X49147619Y-157252381D01*
X49147619Y-157395239D01*
X49195238Y-157490477D01*
X49242857Y-157538096D01*
X49671429Y-158347620D02*
X49671429Y-158014286D01*
X49147619Y-158014286D02*
X50147619Y-158014286D01*
X50147619Y-158490477D01*
X55404762Y-170152381D02*
X54833333Y-170152381D01*
X55119047Y-170152381D02*
X55119047Y-169152381D01*
X55023809Y-169295238D01*
X54928571Y-169390476D01*
X54833333Y-169438095D01*
X56261905Y-169485714D02*
X56261905Y-170152381D01*
X55833333Y-169485714D02*
X55833333Y-170009524D01*
X55880952Y-170104762D01*
X55976190Y-170152381D01*
X56119048Y-170152381D01*
X56214286Y-170104762D01*
X56261905Y-170057143D01*
X57071429Y-169628571D02*
X56738095Y-169628571D01*
X56738095Y-170152381D02*
X56738095Y-169152381D01*
X57214286Y-169152381D01*
X50595238Y-165847619D02*
X51166667Y-165847619D01*
X50880953Y-165847619D02*
X50880953Y-166847619D01*
X50976191Y-166704762D01*
X51071429Y-166609524D01*
X51166667Y-166561905D01*
X49738095Y-166514286D02*
X49738095Y-165847619D01*
X50166667Y-166514286D02*
X50166667Y-165990476D01*
X50119048Y-165895238D01*
X50023810Y-165847619D01*
X49880952Y-165847619D01*
X49785714Y-165895238D01*
X49738095Y-165942857D01*
X48928571Y-166371429D02*
X49261905Y-166371429D01*
X49261905Y-165847619D02*
X49261905Y-166847619D01*
X48785714Y-166847619D01*
D10*
X42930952Y-45690475D02*
X42930952Y-45442856D01*
X43083333Y-45576189D01*
X43083333Y-45519047D01*
X43102381Y-45480951D01*
X43121429Y-45461904D01*
X43159524Y-45442856D01*
X43254762Y-45442856D01*
X43292857Y-45461904D01*
X43311905Y-45480951D01*
X43330952Y-45519047D01*
X43330952Y-45633332D01*
X43311905Y-45671428D01*
X43292857Y-45690475D01*
X43292857Y-45271428D02*
X43311905Y-45252380D01*
X43330952Y-45271428D01*
X43311905Y-45290476D01*
X43292857Y-45271428D01*
X43330952Y-45271428D01*
X42930952Y-45119047D02*
X42930952Y-44871428D01*
X43083333Y-45004761D01*
X43083333Y-44947619D01*
X43102381Y-44909523D01*
X43121429Y-44890476D01*
X43159524Y-44871428D01*
X43254762Y-44871428D01*
X43292857Y-44890476D01*
X43311905Y-44909523D01*
X43330952Y-44947619D01*
X43330952Y-45061904D01*
X43311905Y-45100000D01*
X43292857Y-45119047D01*
X42930952Y-44757143D02*
X43330952Y-44623809D01*
X42930952Y-44490476D01*
D15*
X94307143Y-68885713D02*
X94378571Y-68671427D01*
X94378571Y-68314284D01*
X94307143Y-68171427D01*
X94235714Y-68099998D01*
X94092857Y-68028570D01*
X93950000Y-68028570D01*
X93807143Y-68099998D01*
X93735714Y-68171427D01*
X93664286Y-68314284D01*
X93592857Y-68599998D01*
X93521429Y-68742856D01*
X93450000Y-68814284D01*
X93307143Y-68885713D01*
X93164286Y-68885713D01*
X93021429Y-68814284D01*
X92950000Y-68742856D01*
X92878571Y-68599998D01*
X92878571Y-68242856D01*
X92950000Y-68028570D01*
X92878571Y-67599999D02*
X92878571Y-66742856D01*
X94378571Y-67171427D02*
X92878571Y-67171427D01*
X93950000Y-66314285D02*
X93950000Y-65599999D01*
X94378571Y-66457142D02*
X92878571Y-65957142D01*
X94378571Y-65457142D01*
X92878571Y-64671428D02*
X92878571Y-64528571D01*
X92950000Y-64385714D01*
X93021429Y-64314285D01*
X93164286Y-64242856D01*
X93450000Y-64171428D01*
X93807143Y-64171428D01*
X94092857Y-64242856D01*
X94235714Y-64314285D01*
X94307143Y-64385714D01*
X94378571Y-64528571D01*
X94378571Y-64671428D01*
X94307143Y-64814285D01*
X94235714Y-64885714D01*
X94092857Y-64957142D01*
X93807143Y-65028571D01*
X93450000Y-65028571D01*
X93164286Y-64957142D01*
X93021429Y-64885714D01*
X92950000Y-64814285D01*
X92878571Y-64671428D01*
X94378571Y-62742857D02*
X94378571Y-63600000D01*
X94378571Y-63171428D02*
X92878571Y-63171428D01*
X93092857Y-63314285D01*
X93235714Y-63457143D01*
X93307143Y-63600000D01*
X92878571Y-62242857D02*
X92878571Y-61314286D01*
X93450000Y-61814286D01*
X93450000Y-61600000D01*
X93521429Y-61457143D01*
X93592857Y-61385714D01*
X93735714Y-61314286D01*
X94092857Y-61314286D01*
X94235714Y-61385714D01*
X94307143Y-61457143D01*
X94378571Y-61600000D01*
X94378571Y-62028572D01*
X94307143Y-62171429D01*
X94235714Y-62242857D01*
D11*
X88900000Y-73300000D02*
X89000000Y-73300000D01*
X88900000Y-73200000D02*
X89000000Y-73200000D01*
X88900000Y-73100000D02*
X89000000Y-73100000D01*
X88900000Y-73000000D02*
X89000000Y-73000000D01*
D16*
X88309524Y-72185714D02*
X88309524Y-72852381D01*
X88071428Y-71804762D02*
X87833333Y-72519048D01*
X88452381Y-72519048D01*
X89119048Y-71852381D02*
X89119048Y-72566667D01*
X89071428Y-72709524D01*
X88976190Y-72804762D01*
X88833333Y-72852381D01*
X88738095Y-72852381D01*
D11*
X84900000Y-87900000D02*
X84900000Y-83500000D01*
X90000000Y-87900000D02*
X84900000Y-87900000D01*
X84500000Y-87900000D02*
X84600000Y-87900000D01*
X90000000Y-87800000D02*
X90000000Y-87900000D01*
X90000000Y-71300000D02*
X90000000Y-87800000D01*
X84900000Y-71300000D02*
X90000000Y-71300000D01*
X84900000Y-71400000D02*
X84900000Y-71300000D01*
X84900000Y-75900000D02*
X84900000Y-71400000D01*
D12*
X90619048Y-111492857D02*
X90619048Y-111826190D01*
X90500001Y-111302381D02*
X90380953Y-111659524D01*
X90690477Y-111659524D01*
X90833334Y-111326190D02*
X91166667Y-111326190D01*
X90952381Y-111826190D01*
X91452381Y-111326190D02*
X91500000Y-111326190D01*
X91547619Y-111350000D01*
X91571428Y-111373810D01*
X91595238Y-111421429D01*
X91619047Y-111516667D01*
X91619047Y-111635714D01*
X91595238Y-111730952D01*
X91571428Y-111778571D01*
X91547619Y-111802381D01*
X91500000Y-111826190D01*
X91452381Y-111826190D01*
X91404762Y-111802381D01*
X91380952Y-111778571D01*
X91357143Y-111730952D01*
X91333333Y-111635714D01*
X91333333Y-111516667D01*
X91357143Y-111421429D01*
X91380952Y-111373810D01*
X91404762Y-111350000D01*
X91452381Y-111326190D01*
X97321429Y-112326190D02*
X97321429Y-111826190D01*
X97321429Y-112016667D02*
X97369048Y-111992857D01*
X97464286Y-111992857D01*
X97511905Y-112016667D01*
X97535714Y-112040476D01*
X97559524Y-112088095D01*
X97559524Y-112230952D01*
X97535714Y-112278571D01*
X97511905Y-112302381D01*
X97464286Y-112326190D01*
X97369048Y-112326190D01*
X97321429Y-112302381D01*
X97845238Y-112326190D02*
X97797619Y-112302381D01*
X97773810Y-112254762D01*
X97773810Y-111826190D01*
X98250000Y-111992857D02*
X98250000Y-112326190D01*
X98035715Y-111992857D02*
X98035715Y-112254762D01*
X98059524Y-112302381D01*
X98107143Y-112326190D01*
X98178572Y-112326190D01*
X98226191Y-112302381D01*
X98250000Y-112278571D01*
X98678572Y-112302381D02*
X98630953Y-112326190D01*
X98535715Y-112326190D01*
X98488096Y-112302381D01*
X98464286Y-112254762D01*
X98464286Y-112064286D01*
X98488096Y-112016667D01*
X98535715Y-111992857D01*
X98630953Y-111992857D01*
X98678572Y-112016667D01*
X98702381Y-112064286D01*
X98702381Y-112111905D01*
X98464286Y-112159524D01*
X94523810Y-112326190D02*
X94523810Y-111992857D01*
X94523810Y-112088095D02*
X94547619Y-112040476D01*
X94571429Y-112016667D01*
X94619048Y-111992857D01*
X94666667Y-111992857D01*
X95023810Y-112302381D02*
X94976191Y-112326190D01*
X94880953Y-112326190D01*
X94833334Y-112302381D01*
X94809524Y-112254762D01*
X94809524Y-112064286D01*
X94833334Y-112016667D01*
X94880953Y-111992857D01*
X94976191Y-111992857D01*
X95023810Y-112016667D01*
X95047619Y-112064286D01*
X95047619Y-112111905D01*
X94809524Y-112159524D01*
X95476190Y-112326190D02*
X95476190Y-111826190D01*
X95476190Y-112302381D02*
X95428571Y-112326190D01*
X95333333Y-112326190D01*
X95285714Y-112302381D01*
X95261905Y-112278571D01*
X95238095Y-112230952D01*
X95238095Y-112088095D01*
X95261905Y-112040476D01*
X95285714Y-112016667D01*
X95333333Y-111992857D01*
X95428571Y-111992857D01*
X95476190Y-112016667D01*
D14*
X101614286Y-111035714D02*
X101614286Y-111702381D01*
X101376190Y-110654762D02*
X101138095Y-111369048D01*
X101757143Y-111369048D01*
X102042857Y-110702381D02*
X102709524Y-110702381D01*
X102280952Y-111702381D01*
D17*
X85202381Y-98292857D02*
X85202381Y-98197618D01*
X85250000Y-98102380D01*
X85297619Y-98054761D01*
X85392857Y-98007142D01*
X85583333Y-97959523D01*
X85821429Y-97959523D01*
X86011905Y-98007142D01*
X86107143Y-98054761D01*
X86154762Y-98102380D01*
X86202381Y-98197618D01*
X86202381Y-98292857D01*
X86154762Y-98388095D01*
X86107143Y-98435714D01*
X86011905Y-98483333D01*
X85821429Y-98530952D01*
X85583333Y-98530952D01*
X85392857Y-98483333D01*
X85297619Y-98435714D01*
X85250000Y-98388095D01*
X85202381Y-98292857D01*
X86107143Y-97530952D02*
X86154762Y-97483333D01*
X86202381Y-97530952D01*
X86154762Y-97578571D01*
X86107143Y-97530952D01*
X86202381Y-97530952D01*
X86202381Y-96530952D02*
X86202381Y-97102381D01*
X86202381Y-96816667D02*
X85202381Y-96816667D01*
X85345238Y-96911905D01*
X85440476Y-97007143D01*
X85488095Y-97102381D01*
X85535714Y-95673809D02*
X86202381Y-95673809D01*
X85535714Y-96102381D02*
X86059524Y-96102381D01*
X86154762Y-96054762D01*
X86202381Y-95959524D01*
X86202381Y-95816666D01*
X86154762Y-95721428D01*
X86107143Y-95673809D01*
X85678571Y-94864285D02*
X85678571Y-95197619D01*
X86202381Y-95197619D02*
X85202381Y-95197619D01*
X85202381Y-94721428D01*
D14*
X62935714Y-78304761D02*
X63602381Y-78304761D01*
X62554762Y-78542857D02*
X63269048Y-78780952D01*
X63269048Y-78161904D01*
X63507143Y-77780952D02*
X63554762Y-77733333D01*
X63602381Y-77780952D01*
X63554762Y-77828571D01*
X63507143Y-77780952D01*
X63602381Y-77780952D01*
X62602381Y-77400000D02*
X62602381Y-76733333D01*
X63602381Y-77161905D01*
X62935714Y-75923809D02*
X63602381Y-75923809D01*
X62935714Y-76352381D02*
X63459524Y-76352381D01*
X63554762Y-76304762D01*
X63602381Y-76209524D01*
X63602381Y-76066666D01*
X63554762Y-75971428D01*
X63507143Y-75923809D01*
X63078571Y-75114285D02*
X63078571Y-75447619D01*
X63602381Y-75447619D02*
X62602381Y-75447619D01*
X62602381Y-74971428D01*
X71985714Y-78804761D02*
X72652381Y-78804761D01*
X71604762Y-79042857D02*
X72319048Y-79280952D01*
X72319048Y-78661904D01*
X72557143Y-78280952D02*
X72604762Y-78233333D01*
X72652381Y-78280952D01*
X72604762Y-78328571D01*
X72557143Y-78280952D01*
X72652381Y-78280952D01*
X71652381Y-77900000D02*
X71652381Y-77233333D01*
X72652381Y-77661905D01*
X71985714Y-76423809D02*
X72652381Y-76423809D01*
X71985714Y-76852381D02*
X72509524Y-76852381D01*
X72604762Y-76804762D01*
X72652381Y-76709524D01*
X72652381Y-76566666D01*
X72604762Y-76471428D01*
X72557143Y-76423809D01*
X72128571Y-75614285D02*
X72128571Y-75947619D01*
X72652381Y-75947619D02*
X71652381Y-75947619D01*
X71652381Y-75471428D01*
X81304761Y-60014286D02*
X81304761Y-59347619D01*
X81542857Y-60395238D02*
X81780952Y-59680952D01*
X81161904Y-59680952D01*
X80780952Y-59442857D02*
X80733333Y-59395238D01*
X80780952Y-59347619D01*
X80828571Y-59395238D01*
X80780952Y-59442857D01*
X80780952Y-59347619D01*
X80400000Y-60347619D02*
X79733333Y-60347619D01*
X80161905Y-59347619D01*
X78923809Y-60014286D02*
X78923809Y-59347619D01*
X79352381Y-60014286D02*
X79352381Y-59490476D01*
X79304762Y-59395238D01*
X79209524Y-59347619D01*
X79066666Y-59347619D01*
X78971428Y-59395238D01*
X78923809Y-59442857D01*
X78114285Y-59871429D02*
X78447619Y-59871429D01*
X78447619Y-59347619D02*
X78447619Y-60347619D01*
X77971428Y-60347619D01*
X64014286Y-51695239D02*
X63347619Y-51695239D01*
X64395238Y-51457143D02*
X63680952Y-51219048D01*
X63680952Y-51838096D01*
X63442857Y-52219048D02*
X63395238Y-52266667D01*
X63347619Y-52219048D01*
X63395238Y-52171429D01*
X63442857Y-52219048D01*
X63347619Y-52219048D01*
X64347619Y-52600000D02*
X64347619Y-53266667D01*
X63347619Y-52838095D01*
X64014286Y-54076191D02*
X63347619Y-54076191D01*
X64014286Y-53647619D02*
X63490476Y-53647619D01*
X63395238Y-53695238D01*
X63347619Y-53790476D01*
X63347619Y-53933334D01*
X63395238Y-54028572D01*
X63442857Y-54076191D01*
X63871429Y-54885715D02*
X63871429Y-54552381D01*
X63347619Y-54552381D02*
X64347619Y-54552381D01*
X64347619Y-55028572D01*
X54595239Y-66485714D02*
X54595239Y-67152381D01*
X54357143Y-66104762D02*
X54119048Y-66819048D01*
X54738096Y-66819048D01*
X55119048Y-67057143D02*
X55166667Y-67104762D01*
X55119048Y-67152381D01*
X55071429Y-67104762D01*
X55119048Y-67057143D01*
X55119048Y-67152381D01*
X55500000Y-66152381D02*
X56166667Y-66152381D01*
X55738095Y-67152381D01*
X56976191Y-66485714D02*
X56976191Y-67152381D01*
X56547619Y-66485714D02*
X56547619Y-67009524D01*
X56595238Y-67104762D01*
X56690476Y-67152381D01*
X56833334Y-67152381D01*
X56928572Y-67104762D01*
X56976191Y-67057143D01*
X57785715Y-66628571D02*
X57452381Y-66628571D01*
X57452381Y-67152381D02*
X57452381Y-66152381D01*
X57928572Y-66152381D01*
D17*
X56657143Y-60352381D02*
X56752382Y-60352381D01*
X56847620Y-60400000D01*
X56895239Y-60447619D01*
X56942858Y-60542857D01*
X56990477Y-60733333D01*
X56990477Y-60971429D01*
X56942858Y-61161905D01*
X56895239Y-61257143D01*
X56847620Y-61304762D01*
X56752382Y-61352381D01*
X56657143Y-61352381D01*
X56561905Y-61304762D01*
X56514286Y-61257143D01*
X56466667Y-61161905D01*
X56419048Y-60971429D01*
X56419048Y-60733333D01*
X56466667Y-60542857D01*
X56514286Y-60447619D01*
X56561905Y-60400000D01*
X56657143Y-60352381D01*
X57419048Y-61257143D02*
X57466667Y-61304762D01*
X57419048Y-61352381D01*
X57371429Y-61304762D01*
X57419048Y-61257143D01*
X57419048Y-61352381D01*
X58419048Y-61352381D02*
X57847619Y-61352381D01*
X58133333Y-61352381D02*
X58133333Y-60352381D01*
X58038095Y-60495238D01*
X57942857Y-60590476D01*
X57847619Y-60638095D01*
X59276191Y-60685714D02*
X59276191Y-61352381D01*
X58847619Y-60685714D02*
X58847619Y-61209524D01*
X58895238Y-61304762D01*
X58990476Y-61352381D01*
X59133334Y-61352381D01*
X59228572Y-61304762D01*
X59276191Y-61257143D01*
X60085715Y-60828571D02*
X59752381Y-60828571D01*
X59752381Y-61352381D02*
X59752381Y-60352381D01*
X60228572Y-60352381D01*
X50157143Y-85702381D02*
X50252382Y-85702381D01*
X50347620Y-85750000D01*
X50395239Y-85797619D01*
X50442858Y-85892857D01*
X50490477Y-86083333D01*
X50490477Y-86321429D01*
X50442858Y-86511905D01*
X50395239Y-86607143D01*
X50347620Y-86654762D01*
X50252382Y-86702381D01*
X50157143Y-86702381D01*
X50061905Y-86654762D01*
X50014286Y-86607143D01*
X49966667Y-86511905D01*
X49919048Y-86321429D01*
X49919048Y-86083333D01*
X49966667Y-85892857D01*
X50014286Y-85797619D01*
X50061905Y-85750000D01*
X50157143Y-85702381D01*
X50919048Y-86607143D02*
X50966667Y-86654762D01*
X50919048Y-86702381D01*
X50871429Y-86654762D01*
X50919048Y-86607143D01*
X50919048Y-86702381D01*
X51919048Y-86702381D02*
X51347619Y-86702381D01*
X51633333Y-86702381D02*
X51633333Y-85702381D01*
X51538095Y-85845238D01*
X51442857Y-85940476D01*
X51347619Y-85988095D01*
X52776191Y-86035714D02*
X52776191Y-86702381D01*
X52347619Y-86035714D02*
X52347619Y-86559524D01*
X52395238Y-86654762D01*
X52490476Y-86702381D01*
X52633334Y-86702381D01*
X52728572Y-86654762D01*
X52776191Y-86607143D01*
X53585715Y-86178571D02*
X53252381Y-86178571D01*
X53252381Y-86702381D02*
X53252381Y-85702381D01*
X53728572Y-85702381D01*
D12*
X52202383Y-81176190D02*
X52202383Y-80676190D01*
X52369049Y-81033333D01*
X52535716Y-80676190D01*
X52535716Y-81176190D01*
X53011907Y-81176190D02*
X52773812Y-81176190D01*
X52773812Y-80676190D01*
X53130955Y-80676190D02*
X53464288Y-81176190D01*
X53464288Y-80676190D02*
X53130955Y-81176190D01*
X53678573Y-81176190D02*
X53773811Y-81176190D01*
X53821430Y-81152381D01*
X53845240Y-81128571D01*
X53892859Y-81057143D01*
X53916668Y-80961905D01*
X53916668Y-80771429D01*
X53892859Y-80723810D01*
X53869049Y-80700000D01*
X53821430Y-80676190D01*
X53726192Y-80676190D01*
X53678573Y-80700000D01*
X53654764Y-80723810D01*
X53630954Y-80771429D01*
X53630954Y-80890476D01*
X53654764Y-80938095D01*
X53678573Y-80961905D01*
X53726192Y-80985714D01*
X53821430Y-80985714D01*
X53869049Y-80961905D01*
X53892859Y-80938095D01*
X53916668Y-80890476D01*
X54226192Y-80676190D02*
X54273811Y-80676190D01*
X54321430Y-80700000D01*
X54345239Y-80723810D01*
X54369049Y-80771429D01*
X54392858Y-80866667D01*
X54392858Y-80985714D01*
X54369049Y-81080952D01*
X54345239Y-81128571D01*
X54321430Y-81152381D01*
X54273811Y-81176190D01*
X54226192Y-81176190D01*
X54178573Y-81152381D01*
X54154763Y-81128571D01*
X54130954Y-81080952D01*
X54107144Y-80985714D01*
X54107144Y-80866667D01*
X54130954Y-80771429D01*
X54154763Y-80723810D01*
X54178573Y-80700000D01*
X54226192Y-80676190D01*
X54559525Y-80676190D02*
X54869048Y-80676190D01*
X54702382Y-80866667D01*
X54773810Y-80866667D01*
X54821429Y-80890476D01*
X54845239Y-80914286D01*
X54869048Y-80961905D01*
X54869048Y-81080952D01*
X54845239Y-81128571D01*
X54821429Y-81152381D01*
X54773810Y-81176190D01*
X54630953Y-81176190D01*
X54583334Y-81152381D01*
X54559525Y-81128571D01*
X55107143Y-81176190D02*
X55202381Y-81176190D01*
X55250000Y-81152381D01*
X55273810Y-81128571D01*
X55321429Y-81057143D01*
X55345238Y-80961905D01*
X55345238Y-80771429D01*
X55321429Y-80723810D01*
X55297619Y-80700000D01*
X55250000Y-80676190D01*
X55154762Y-80676190D01*
X55107143Y-80700000D01*
X55083334Y-80723810D01*
X55059524Y-80771429D01*
X55059524Y-80890476D01*
X55083334Y-80938095D01*
X55107143Y-80961905D01*
X55154762Y-80985714D01*
X55250000Y-80985714D01*
X55297619Y-80961905D01*
X55321429Y-80938095D01*
X55345238Y-80890476D01*
X55511905Y-80676190D02*
X55821428Y-80676190D01*
X55654762Y-80866667D01*
X55726190Y-80866667D01*
X55773809Y-80890476D01*
X55797619Y-80914286D01*
X55821428Y-80961905D01*
X55821428Y-81080952D01*
X55797619Y-81128571D01*
X55773809Y-81152381D01*
X55726190Y-81176190D01*
X55583333Y-81176190D01*
X55535714Y-81152381D01*
X55511905Y-81128571D01*
D17*
X51057143Y-75152381D02*
X51152382Y-75152381D01*
X51247620Y-75200000D01*
X51295239Y-75247619D01*
X51342858Y-75342857D01*
X51390477Y-75533333D01*
X51390477Y-75771429D01*
X51342858Y-75961905D01*
X51295239Y-76057143D01*
X51247620Y-76104762D01*
X51152382Y-76152381D01*
X51057143Y-76152381D01*
X50961905Y-76104762D01*
X50914286Y-76057143D01*
X50866667Y-75961905D01*
X50819048Y-75771429D01*
X50819048Y-75533333D01*
X50866667Y-75342857D01*
X50914286Y-75247619D01*
X50961905Y-75200000D01*
X51057143Y-75152381D01*
X51819048Y-76057143D02*
X51866667Y-76104762D01*
X51819048Y-76152381D01*
X51771429Y-76104762D01*
X51819048Y-76057143D01*
X51819048Y-76152381D01*
X52819048Y-76152381D02*
X52247619Y-76152381D01*
X52533333Y-76152381D02*
X52533333Y-75152381D01*
X52438095Y-75295238D01*
X52342857Y-75390476D01*
X52247619Y-75438095D01*
X53676191Y-75485714D02*
X53676191Y-76152381D01*
X53247619Y-75485714D02*
X53247619Y-76009524D01*
X53295238Y-76104762D01*
X53390476Y-76152381D01*
X53533334Y-76152381D01*
X53628572Y-76104762D01*
X53676191Y-76057143D01*
X54485715Y-75628571D02*
X54152381Y-75628571D01*
X54152381Y-76152381D02*
X54152381Y-75152381D01*
X54628572Y-75152381D01*
D14*
X52261905Y-54102381D02*
X52261905Y-53102381D01*
X52642858Y-53102381D01*
X52738096Y-53150000D01*
X52785715Y-53197619D01*
X52833334Y-53292857D01*
X52833334Y-53435714D01*
X52785715Y-53530952D01*
X52738096Y-53578571D01*
X52642858Y-53626190D01*
X52261905Y-53626190D01*
X53595239Y-53578571D02*
X53738096Y-53626190D01*
X53785715Y-53673810D01*
X53833334Y-53769048D01*
X53833334Y-53911905D01*
X53785715Y-54007143D01*
X53738096Y-54054762D01*
X53642858Y-54102381D01*
X53261905Y-54102381D01*
X53261905Y-53102381D01*
X53595239Y-53102381D01*
X53690477Y-53150000D01*
X53738096Y-53197619D01*
X53785715Y-53292857D01*
X53785715Y-53388095D01*
X53738096Y-53483333D01*
X53690477Y-53530952D01*
X53595239Y-53578571D01*
X53261905Y-53578571D01*
X54690477Y-53102381D02*
X54500000Y-53102381D01*
X54404762Y-53150000D01*
X54357143Y-53197619D01*
X54261905Y-53340476D01*
X54214286Y-53530952D01*
X54214286Y-53911905D01*
X54261905Y-54007143D01*
X54309524Y-54054762D01*
X54404762Y-54102381D01*
X54595239Y-54102381D01*
X54690477Y-54054762D01*
X54738096Y-54007143D01*
X54785715Y-53911905D01*
X54785715Y-53673810D01*
X54738096Y-53578571D01*
X54690477Y-53530952D01*
X54595239Y-53483333D01*
X54404762Y-53483333D01*
X54309524Y-53530952D01*
X54261905Y-53578571D01*
X54214286Y-53673810D01*
X55511905Y-54152381D02*
X55511905Y-53152381D01*
X55892858Y-53152381D01*
X55988096Y-53200000D01*
X56035715Y-53247619D01*
X56083334Y-53342857D01*
X56083334Y-53485714D01*
X56035715Y-53580952D01*
X55988096Y-53628571D01*
X55892858Y-53676190D01*
X55511905Y-53676190D01*
X56845239Y-53628571D02*
X56988096Y-53676190D01*
X57035715Y-53723810D01*
X57083334Y-53819048D01*
X57083334Y-53961905D01*
X57035715Y-54057143D01*
X56988096Y-54104762D01*
X56892858Y-54152381D01*
X56511905Y-54152381D01*
X56511905Y-53152381D01*
X56845239Y-53152381D01*
X56940477Y-53200000D01*
X56988096Y-53247619D01*
X57035715Y-53342857D01*
X57035715Y-53438095D01*
X56988096Y-53533333D01*
X56940477Y-53580952D01*
X56845239Y-53628571D01*
X56511905Y-53628571D01*
X57940477Y-53485714D02*
X57940477Y-54152381D01*
X57702381Y-53104762D02*
X57464286Y-53819048D01*
X58083334Y-53819048D01*
D17*
X106350000Y-143453571D02*
X106921429Y-143453571D01*
X106635715Y-143739286D02*
X106635715Y-143167857D01*
X107278571Y-143453571D02*
X107850000Y-143453571D01*
X107564286Y-143739286D02*
X107564286Y-143167857D01*
X94450000Y-143453571D02*
X95021429Y-143453571D01*
X95378571Y-143453571D02*
X95950000Y-143453571D01*
X105950000Y-154339286D02*
X105950000Y-153839286D01*
X105950000Y-153910714D02*
X105985715Y-153875000D01*
X106057143Y-153839286D01*
X106164286Y-153839286D01*
X106235715Y-153875000D01*
X106271429Y-153946429D01*
X106271429Y-154339286D01*
X106271429Y-153946429D02*
X106307143Y-153875000D01*
X106378572Y-153839286D01*
X106485715Y-153839286D01*
X106557143Y-153875000D01*
X106592858Y-153946429D01*
X106592858Y-154339286D01*
X107271429Y-154339286D02*
X107271429Y-153946429D01*
X107235715Y-153875000D01*
X107164286Y-153839286D01*
X107021429Y-153839286D01*
X106950000Y-153875000D01*
X107271429Y-154303571D02*
X107200000Y-154339286D01*
X107021429Y-154339286D01*
X106950000Y-154303571D01*
X106914286Y-154232143D01*
X106914286Y-154160714D01*
X106950000Y-154089286D01*
X107021429Y-154053571D01*
X107200000Y-154053571D01*
X107271429Y-154017857D01*
X107557143Y-154339286D02*
X107950000Y-153839286D01*
X107557143Y-153839286D02*
X107950000Y-154339286D01*
X108771429Y-153553571D02*
X108128572Y-154517857D01*
X109021428Y-154339286D02*
X109021428Y-153839286D01*
X109021428Y-153982143D02*
X109057143Y-153910714D01*
X109092857Y-153875000D01*
X109164286Y-153839286D01*
X109235714Y-153839286D01*
X109771429Y-154303571D02*
X109700000Y-154339286D01*
X109557143Y-154339286D01*
X109485714Y-154303571D01*
X109450000Y-154232143D01*
X109450000Y-153946429D01*
X109485714Y-153875000D01*
X109557143Y-153839286D01*
X109700000Y-153839286D01*
X109771429Y-153875000D01*
X109807143Y-153946429D01*
X109807143Y-154017857D01*
X109450000Y-154089286D01*
X110128571Y-153839286D02*
X110128571Y-154589286D01*
X110128571Y-153875000D02*
X110200000Y-153839286D01*
X110342857Y-153839286D01*
X110414286Y-153875000D01*
X110450000Y-153910714D01*
X110485714Y-153982143D01*
X110485714Y-154196429D01*
X110450000Y-154267857D01*
X110414286Y-154303571D01*
X110342857Y-154339286D01*
X110200000Y-154339286D01*
X110128571Y-154303571D01*
X93971429Y-154339286D02*
X93971429Y-153839286D01*
X93971429Y-153910714D02*
X94007144Y-153875000D01*
X94078572Y-153839286D01*
X94185715Y-153839286D01*
X94257144Y-153875000D01*
X94292858Y-153946429D01*
X94292858Y-154339286D01*
X94292858Y-153946429D02*
X94328572Y-153875000D01*
X94400001Y-153839286D01*
X94507144Y-153839286D01*
X94578572Y-153875000D01*
X94614287Y-153946429D01*
X94614287Y-154339286D01*
X94971429Y-154339286D02*
X94971429Y-153839286D01*
X94971429Y-153589286D02*
X94935715Y-153625000D01*
X94971429Y-153660714D01*
X95007144Y-153625000D01*
X94971429Y-153589286D01*
X94971429Y-153660714D01*
X95328572Y-153839286D02*
X95328572Y-154339286D01*
X95328572Y-153910714D02*
X95364287Y-153875000D01*
X95435715Y-153839286D01*
X95542858Y-153839286D01*
X95614287Y-153875000D01*
X95650001Y-153946429D01*
X95650001Y-154339286D01*
X96542858Y-153553571D02*
X95900001Y-154517857D01*
X97114286Y-154339286D02*
X97114286Y-153589286D01*
X97114286Y-154303571D02*
X97042857Y-154339286D01*
X96900000Y-154339286D01*
X96828572Y-154303571D01*
X96792857Y-154267857D01*
X96757143Y-154196429D01*
X96757143Y-153982143D01*
X96792857Y-153910714D01*
X96828572Y-153875000D01*
X96900000Y-153839286D01*
X97042857Y-153839286D01*
X97114286Y-153875000D01*
X97400000Y-153589286D02*
X97864286Y-153589286D01*
X97614286Y-153875000D01*
X97721428Y-153875000D01*
X97792857Y-153910714D01*
X97828571Y-153946429D01*
X97864286Y-154017857D01*
X97864286Y-154196429D01*
X97828571Y-154267857D01*
X97792857Y-154303571D01*
X97721428Y-154339286D01*
X97507143Y-154339286D01*
X97435714Y-154303571D01*
X97400000Y-154267857D01*
X106275001Y-164839286D02*
X106275001Y-164089286D01*
X106275001Y-164803571D02*
X106203572Y-164839286D01*
X106060715Y-164839286D01*
X105989287Y-164803571D01*
X105953572Y-164767857D01*
X105917858Y-164696429D01*
X105917858Y-164482143D01*
X105953572Y-164410714D01*
X105989287Y-164375000D01*
X106060715Y-164339286D01*
X106203572Y-164339286D01*
X106275001Y-164375000D01*
X106632143Y-164839286D02*
X106632143Y-164339286D01*
X106632143Y-164089286D02*
X106596429Y-164125000D01*
X106632143Y-164160714D01*
X106667858Y-164125000D01*
X106632143Y-164089286D01*
X106632143Y-164160714D01*
X106953572Y-164803571D02*
X107025001Y-164839286D01*
X107167858Y-164839286D01*
X107239286Y-164803571D01*
X107275001Y-164732143D01*
X107275001Y-164696429D01*
X107239286Y-164625000D01*
X107167858Y-164589286D01*
X107060715Y-164589286D01*
X106989286Y-164553571D01*
X106953572Y-164482143D01*
X106953572Y-164446429D01*
X106989286Y-164375000D01*
X107060715Y-164339286D01*
X107167858Y-164339286D01*
X107239286Y-164375000D01*
X107489287Y-164339286D02*
X107775001Y-164339286D01*
X107596429Y-164089286D02*
X107596429Y-164732143D01*
X107632144Y-164803571D01*
X107703572Y-164839286D01*
X107775001Y-164839286D01*
X108560715Y-164053571D02*
X107917858Y-165017857D01*
X109132143Y-164839286D02*
X109132143Y-164089286D01*
X109132143Y-164803571D02*
X109060714Y-164839286D01*
X108917857Y-164839286D01*
X108846429Y-164803571D01*
X108810714Y-164767857D01*
X108775000Y-164696429D01*
X108775000Y-164482143D01*
X108810714Y-164410714D01*
X108846429Y-164375000D01*
X108917857Y-164339286D01*
X109060714Y-164339286D01*
X109132143Y-164375000D01*
X109453571Y-164160714D02*
X109489285Y-164125000D01*
X109560714Y-164089286D01*
X109739285Y-164089286D01*
X109810714Y-164125000D01*
X109846428Y-164160714D01*
X109882143Y-164232143D01*
X109882143Y-164303571D01*
X109846428Y-164410714D01*
X109417857Y-164839286D01*
X109882143Y-164839286D01*
X93896429Y-164339286D02*
X94075000Y-164839286D01*
X94253572Y-164339286D01*
X94646429Y-164839286D02*
X94575001Y-164803571D01*
X94539286Y-164767857D01*
X94503572Y-164696429D01*
X94503572Y-164482143D01*
X94539286Y-164410714D01*
X94575001Y-164375000D01*
X94646429Y-164339286D01*
X94753572Y-164339286D01*
X94825001Y-164375000D01*
X94860715Y-164410714D01*
X94896429Y-164482143D01*
X94896429Y-164696429D01*
X94860715Y-164767857D01*
X94825001Y-164803571D01*
X94753572Y-164839286D01*
X94646429Y-164839286D01*
X95325000Y-164839286D02*
X95253572Y-164803571D01*
X95217857Y-164732143D01*
X95217857Y-164089286D01*
X96146429Y-164053571D02*
X95503572Y-165017857D01*
X96717857Y-164839286D02*
X96717857Y-164089286D01*
X96717857Y-164803571D02*
X96646428Y-164839286D01*
X96503571Y-164839286D01*
X96432143Y-164803571D01*
X96396428Y-164767857D01*
X96360714Y-164696429D01*
X96360714Y-164482143D01*
X96396428Y-164410714D01*
X96432143Y-164375000D01*
X96503571Y-164339286D01*
X96646428Y-164339286D01*
X96717857Y-164375000D01*
X97467857Y-164839286D02*
X97039285Y-164839286D01*
X97253571Y-164839286D02*
X97253571Y-164089286D01*
X97182142Y-164196429D01*
X97110714Y-164267857D01*
X97039285Y-164303571D01*
D11*
X76900806Y-89200000D02*
G75*
G03X76900806Y-89200000I-1550806J0D01*
G01*
D15*
X86500000Y-161607143D02*
X87642857Y-161607143D01*
X87071428Y-162178571D02*
X87071428Y-161035714D01*
X88357143Y-161607143D02*
X89500000Y-161607143D01*
X88928571Y-162178571D02*
X88928571Y-161035714D01*
X81000000Y-161607143D02*
X82142857Y-161607143D01*
X82857143Y-161607143D02*
X84000000Y-161607143D01*
D11*
X106000000Y-84250000D02*
X106000000Y-82000000D01*
X109750000Y-84250000D02*
X106000000Y-84250000D01*
X109750000Y-82000000D02*
X109750000Y-84250000D01*
X106000000Y-82000000D02*
X109750000Y-82000000D01*
D15*
X106571429Y-82428571D02*
X106928572Y-83928571D01*
X107214286Y-82857143D01*
X107500000Y-83928571D01*
X107857143Y-82428571D01*
X108428572Y-82428571D02*
X108428572Y-83642857D01*
X108500000Y-83785714D01*
X108571429Y-83857143D01*
X108714286Y-83928571D01*
X109000000Y-83928571D01*
X109142858Y-83857143D01*
X109214286Y-83785714D01*
X109285715Y-83642857D01*
X109285715Y-82428571D01*
D14*
X86690477Y-171377381D02*
X86214286Y-171377381D01*
X86214286Y-170377381D01*
X87023810Y-171282143D02*
X87071429Y-171329762D01*
X87023810Y-171377381D01*
X86976191Y-171329762D01*
X87023810Y-171282143D01*
X87023810Y-171377381D01*
X87023810Y-170758333D02*
X87071429Y-170805952D01*
X87023810Y-170853571D01*
X86976191Y-170805952D01*
X87023810Y-170758333D01*
X87023810Y-170853571D01*
X87928572Y-171377381D02*
X87928572Y-170377381D01*
X87928572Y-171329762D02*
X87833334Y-171377381D01*
X87642857Y-171377381D01*
X87547619Y-171329762D01*
X87500000Y-171282143D01*
X87452381Y-171186905D01*
X87452381Y-170901190D01*
X87500000Y-170805952D01*
X87547619Y-170758333D01*
X87642857Y-170710714D01*
X87833334Y-170710714D01*
X87928572Y-170758333D01*
X88404762Y-171377381D02*
X88404762Y-170710714D01*
X88404762Y-170377381D02*
X88357143Y-170425000D01*
X88404762Y-170472619D01*
X88452381Y-170425000D01*
X88404762Y-170377381D01*
X88404762Y-170472619D01*
X88833333Y-171329762D02*
X88928571Y-171377381D01*
X89119047Y-171377381D01*
X89214286Y-171329762D01*
X89261905Y-171234524D01*
X89261905Y-171186905D01*
X89214286Y-171091667D01*
X89119047Y-171044048D01*
X88976190Y-171044048D01*
X88880952Y-170996429D01*
X88833333Y-170901190D01*
X88833333Y-170853571D01*
X88880952Y-170758333D01*
X88976190Y-170710714D01*
X89119047Y-170710714D01*
X89214286Y-170758333D01*
X89547619Y-170710714D02*
X89928571Y-170710714D01*
X89690476Y-170377381D02*
X89690476Y-171234524D01*
X89738095Y-171329762D01*
X89833333Y-171377381D01*
X89928571Y-171377381D01*
X86666667Y-172075000D02*
X86571429Y-172027381D01*
X86428572Y-172027381D01*
X86285714Y-172075000D01*
X86190476Y-172170238D01*
X86142857Y-172265476D01*
X86095238Y-172455952D01*
X86095238Y-172598810D01*
X86142857Y-172789286D01*
X86190476Y-172884524D01*
X86285714Y-172979762D01*
X86428572Y-173027381D01*
X86523810Y-173027381D01*
X86666667Y-172979762D01*
X86714286Y-172932143D01*
X86714286Y-172598810D01*
X86523810Y-172598810D01*
X87142857Y-172932143D02*
X87190476Y-172979762D01*
X87142857Y-173027381D01*
X87095238Y-172979762D01*
X87142857Y-172932143D01*
X87142857Y-173027381D01*
X87142857Y-172408333D02*
X87190476Y-172455952D01*
X87142857Y-172503571D01*
X87095238Y-172455952D01*
X87142857Y-172408333D01*
X87142857Y-172503571D01*
X88380952Y-173027381D02*
X88380952Y-172027381D01*
X88619047Y-172027381D01*
X88761905Y-172075000D01*
X88857143Y-172170238D01*
X88904762Y-172265476D01*
X88952381Y-172455952D01*
X88952381Y-172598810D01*
X88904762Y-172789286D01*
X88857143Y-172884524D01*
X88761905Y-172979762D01*
X88619047Y-173027381D01*
X88380952Y-173027381D01*
X89333333Y-172122619D02*
X89380952Y-172075000D01*
X89476190Y-172027381D01*
X89714286Y-172027381D01*
X89809524Y-172075000D01*
X89857143Y-172122619D01*
X89904762Y-172217857D01*
X89904762Y-172313095D01*
X89857143Y-172455952D01*
X89285714Y-173027381D01*
X89904762Y-173027381D01*
X81095238Y-171377381D02*
X80619047Y-171377381D01*
X80619047Y-170377381D01*
X81428571Y-171282143D02*
X81476190Y-171329762D01*
X81428571Y-171377381D01*
X81380952Y-171329762D01*
X81428571Y-171282143D01*
X81428571Y-171377381D01*
X81428571Y-170758333D02*
X81476190Y-170805952D01*
X81428571Y-170853571D01*
X81380952Y-170805952D01*
X81428571Y-170758333D01*
X81428571Y-170853571D01*
X82571428Y-170710714D02*
X82809523Y-171377381D01*
X83047619Y-170710714D01*
X83571428Y-171377381D02*
X83476190Y-171329762D01*
X83428571Y-171282143D01*
X83380952Y-171186905D01*
X83380952Y-170901190D01*
X83428571Y-170805952D01*
X83476190Y-170758333D01*
X83571428Y-170710714D01*
X83714286Y-170710714D01*
X83809524Y-170758333D01*
X83857143Y-170805952D01*
X83904762Y-170901190D01*
X83904762Y-171186905D01*
X83857143Y-171282143D01*
X83809524Y-171329762D01*
X83714286Y-171377381D01*
X83571428Y-171377381D01*
X84476190Y-171377381D02*
X84380952Y-171329762D01*
X84333333Y-171234524D01*
X84333333Y-170377381D01*
X81166667Y-172075000D02*
X81071429Y-172027381D01*
X80928572Y-172027381D01*
X80785714Y-172075000D01*
X80690476Y-172170238D01*
X80642857Y-172265476D01*
X80595238Y-172455952D01*
X80595238Y-172598810D01*
X80642857Y-172789286D01*
X80690476Y-172884524D01*
X80785714Y-172979762D01*
X80928572Y-173027381D01*
X81023810Y-173027381D01*
X81166667Y-172979762D01*
X81214286Y-172932143D01*
X81214286Y-172598810D01*
X81023810Y-172598810D01*
X81642857Y-172932143D02*
X81690476Y-172979762D01*
X81642857Y-173027381D01*
X81595238Y-172979762D01*
X81642857Y-172932143D01*
X81642857Y-173027381D01*
X81642857Y-172408333D02*
X81690476Y-172455952D01*
X81642857Y-172503571D01*
X81595238Y-172455952D01*
X81642857Y-172408333D01*
X81642857Y-172503571D01*
X82880952Y-173027381D02*
X82880952Y-172027381D01*
X83119047Y-172027381D01*
X83261905Y-172075000D01*
X83357143Y-172170238D01*
X83404762Y-172265476D01*
X83452381Y-172455952D01*
X83452381Y-172598810D01*
X83404762Y-172789286D01*
X83357143Y-172884524D01*
X83261905Y-172979762D01*
X83119047Y-173027381D01*
X82880952Y-173027381D01*
X84404762Y-173027381D02*
X83833333Y-173027381D01*
X84119047Y-173027381D02*
X84119047Y-172027381D01*
X84023809Y-172170238D01*
X83928571Y-172265476D01*
X83833333Y-172313095D01*
X86547620Y-166377381D02*
X86071429Y-166377381D01*
X86071429Y-165377381D01*
X86880953Y-166282143D02*
X86928572Y-166329762D01*
X86880953Y-166377381D01*
X86833334Y-166329762D01*
X86880953Y-166282143D01*
X86880953Y-166377381D01*
X86880953Y-165758333D02*
X86928572Y-165805952D01*
X86880953Y-165853571D01*
X86833334Y-165805952D01*
X86880953Y-165758333D01*
X86880953Y-165853571D01*
X87357143Y-166377381D02*
X87357143Y-165710714D01*
X87357143Y-165805952D02*
X87404762Y-165758333D01*
X87500000Y-165710714D01*
X87642858Y-165710714D01*
X87738096Y-165758333D01*
X87785715Y-165853571D01*
X87785715Y-166377381D01*
X87785715Y-165853571D02*
X87833334Y-165758333D01*
X87928572Y-165710714D01*
X88071429Y-165710714D01*
X88166667Y-165758333D01*
X88214286Y-165853571D01*
X88214286Y-166377381D01*
X89119048Y-166377381D02*
X89119048Y-165853571D01*
X89071429Y-165758333D01*
X88976191Y-165710714D01*
X88785714Y-165710714D01*
X88690476Y-165758333D01*
X89119048Y-166329762D02*
X89023810Y-166377381D01*
X88785714Y-166377381D01*
X88690476Y-166329762D01*
X88642857Y-166234524D01*
X88642857Y-166139286D01*
X88690476Y-166044048D01*
X88785714Y-165996429D01*
X89023810Y-165996429D01*
X89119048Y-165948810D01*
X89500000Y-166377381D02*
X90023810Y-165710714D01*
X89500000Y-165710714D02*
X90023810Y-166377381D01*
X87142858Y-167075000D02*
X87047620Y-167027381D01*
X86904763Y-167027381D01*
X86761905Y-167075000D01*
X86666667Y-167170238D01*
X86619048Y-167265476D01*
X86571429Y-167455952D01*
X86571429Y-167598810D01*
X86619048Y-167789286D01*
X86666667Y-167884524D01*
X86761905Y-167979762D01*
X86904763Y-168027381D01*
X87000001Y-168027381D01*
X87142858Y-167979762D01*
X87190477Y-167932143D01*
X87190477Y-167598810D01*
X87000001Y-167598810D01*
X87619048Y-167932143D02*
X87666667Y-167979762D01*
X87619048Y-168027381D01*
X87571429Y-167979762D01*
X87619048Y-167932143D01*
X87619048Y-168027381D01*
X87619048Y-167408333D02*
X87666667Y-167455952D01*
X87619048Y-167503571D01*
X87571429Y-167455952D01*
X87619048Y-167408333D01*
X87619048Y-167503571D01*
X89428572Y-168027381D02*
X89095238Y-167551190D01*
X88857143Y-168027381D02*
X88857143Y-167027381D01*
X89238096Y-167027381D01*
X89333334Y-167075000D01*
X89380953Y-167122619D01*
X89428572Y-167217857D01*
X89428572Y-167360714D01*
X89380953Y-167455952D01*
X89333334Y-167503571D01*
X89238096Y-167551190D01*
X88857143Y-167551190D01*
X80833334Y-166377381D02*
X80357143Y-166377381D01*
X80357143Y-165377381D01*
X81166667Y-166282143D02*
X81214286Y-166329762D01*
X81166667Y-166377381D01*
X81119048Y-166329762D01*
X81166667Y-166282143D01*
X81166667Y-166377381D01*
X81166667Y-165758333D02*
X81214286Y-165805952D01*
X81166667Y-165853571D01*
X81119048Y-165805952D01*
X81166667Y-165758333D01*
X81166667Y-165853571D01*
X82404762Y-166377381D02*
X82404762Y-165710714D01*
X82404762Y-165805952D02*
X82452381Y-165758333D01*
X82547619Y-165710714D01*
X82690477Y-165710714D01*
X82785715Y-165758333D01*
X82833334Y-165853571D01*
X82833334Y-166377381D01*
X82833334Y-165853571D02*
X82880953Y-165758333D01*
X82976191Y-165710714D01*
X83119048Y-165710714D01*
X83214286Y-165758333D01*
X83261905Y-165853571D01*
X83261905Y-166377381D01*
X83738095Y-166377381D02*
X83738095Y-165710714D01*
X83738095Y-165377381D02*
X83690476Y-165425000D01*
X83738095Y-165472619D01*
X83785714Y-165425000D01*
X83738095Y-165377381D01*
X83738095Y-165472619D01*
X84214285Y-165710714D02*
X84214285Y-166377381D01*
X84214285Y-165805952D02*
X84261904Y-165758333D01*
X84357142Y-165710714D01*
X84500000Y-165710714D01*
X84595238Y-165758333D01*
X84642857Y-165853571D01*
X84642857Y-166377381D01*
X81166667Y-167075000D02*
X81071429Y-167027381D01*
X80928572Y-167027381D01*
X80785714Y-167075000D01*
X80690476Y-167170238D01*
X80642857Y-167265476D01*
X80595238Y-167455952D01*
X80595238Y-167598810D01*
X80642857Y-167789286D01*
X80690476Y-167884524D01*
X80785714Y-167979762D01*
X80928572Y-168027381D01*
X81023810Y-168027381D01*
X81166667Y-167979762D01*
X81214286Y-167932143D01*
X81214286Y-167598810D01*
X81023810Y-167598810D01*
X81642857Y-167932143D02*
X81690476Y-167979762D01*
X81642857Y-168027381D01*
X81595238Y-167979762D01*
X81642857Y-167932143D01*
X81642857Y-168027381D01*
X81642857Y-167408333D02*
X81690476Y-167455952D01*
X81642857Y-167503571D01*
X81595238Y-167455952D01*
X81642857Y-167408333D01*
X81642857Y-167503571D01*
X82880952Y-168027381D02*
X82880952Y-167027381D01*
X83119047Y-167027381D01*
X83261905Y-167075000D01*
X83357143Y-167170238D01*
X83404762Y-167265476D01*
X83452381Y-167455952D01*
X83452381Y-167598810D01*
X83404762Y-167789286D01*
X83357143Y-167884524D01*
X83261905Y-167979762D01*
X83119047Y-168027381D01*
X82880952Y-168027381D01*
X83785714Y-167027381D02*
X84404762Y-167027381D01*
X84071428Y-167408333D01*
X84214286Y-167408333D01*
X84309524Y-167455952D01*
X84357143Y-167503571D01*
X84404762Y-167598810D01*
X84404762Y-167836905D01*
X84357143Y-167932143D01*
X84309524Y-167979762D01*
X84214286Y-168027381D01*
X83928571Y-168027381D01*
X83833333Y-167979762D01*
X83785714Y-167932143D01*
D15*
X42892858Y-140678571D02*
X42892858Y-139178571D01*
X43250001Y-139178571D01*
X43464286Y-139250000D01*
X43607144Y-139392857D01*
X43678572Y-139535714D01*
X43750001Y-139821429D01*
X43750001Y-140035714D01*
X43678572Y-140321429D01*
X43607144Y-140464286D01*
X43464286Y-140607143D01*
X43250001Y-140678571D01*
X42892858Y-140678571D01*
X44321429Y-140607143D02*
X44535715Y-140678571D01*
X44892858Y-140678571D01*
X45035715Y-140607143D01*
X45107144Y-140535714D01*
X45178572Y-140392857D01*
X45178572Y-140250000D01*
X45107144Y-140107143D01*
X45035715Y-140035714D01*
X44892858Y-139964286D01*
X44607144Y-139892857D01*
X44464286Y-139821429D01*
X44392858Y-139750000D01*
X44321429Y-139607143D01*
X44321429Y-139464286D01*
X44392858Y-139321429D01*
X44464286Y-139250000D01*
X44607144Y-139178571D01*
X44964286Y-139178571D01*
X45178572Y-139250000D01*
D14*
X51214286Y-140607143D02*
X51428572Y-140678571D01*
X51785715Y-140678571D01*
X51928572Y-140607143D01*
X52000001Y-140535714D01*
X52071429Y-140392857D01*
X52071429Y-140250000D01*
X52000001Y-140107143D01*
X51928572Y-140035714D01*
X51785715Y-139964286D01*
X51500001Y-139892857D01*
X51357143Y-139821429D01*
X51285715Y-139750000D01*
X51214286Y-139607143D01*
X51214286Y-139464286D01*
X51285715Y-139321429D01*
X51357143Y-139250000D01*
X51500001Y-139178571D01*
X51857143Y-139178571D01*
X52071429Y-139250000D01*
X52928572Y-140678571D02*
X52785714Y-140607143D01*
X52714286Y-140464286D01*
X52714286Y-139178571D01*
X54071428Y-140607143D02*
X53928571Y-140678571D01*
X53642857Y-140678571D01*
X53500000Y-140607143D01*
X53428571Y-140464286D01*
X53428571Y-139892857D01*
X53500000Y-139750000D01*
X53642857Y-139678571D01*
X53928571Y-139678571D01*
X54071428Y-139750000D01*
X54142857Y-139892857D01*
X54142857Y-140035714D01*
X53428571Y-140178571D01*
X55357142Y-140607143D02*
X55214285Y-140678571D01*
X54928571Y-140678571D01*
X54785714Y-140607143D01*
X54714285Y-140464286D01*
X54714285Y-139892857D01*
X54785714Y-139750000D01*
X54928571Y-139678571D01*
X55214285Y-139678571D01*
X55357142Y-139750000D01*
X55428571Y-139892857D01*
X55428571Y-140035714D01*
X54714285Y-140178571D01*
X56071428Y-139678571D02*
X56071428Y-141178571D01*
X56071428Y-139750000D02*
X56214285Y-139678571D01*
X56499999Y-139678571D01*
X56642856Y-139750000D01*
X56714285Y-139821429D01*
X56785714Y-139964286D01*
X56785714Y-140392857D01*
X56714285Y-140535714D01*
X56642856Y-140607143D01*
X56499999Y-140678571D01*
X56214285Y-140678571D01*
X56071428Y-140607143D01*
D11*
X110736068Y-75000000D02*
G75*
G03X110736068Y-75000000I-2236068J0D01*
G01*
X110605551Y-45000000D02*
G75*
G03X110605551Y-45000000I-3605551J0D01*
G01*
X84680776Y-109850000D02*
G75*
G03X84680776Y-109850000I-1030776J0D01*
G01*
X82900000Y-109850000D02*
X84400000Y-109850000D01*
X83650000Y-109100000D02*
X83650000Y-110600000D01*
D18*
X84745238Y-101947619D02*
X84745238Y-102328571D01*
X84650000Y-102519047D01*
X84459524Y-102709524D01*
X84078571Y-102804762D01*
X83411905Y-102804762D01*
X83030952Y-102709524D01*
X82840476Y-102519047D01*
X82745238Y-102328571D01*
X82745238Y-101947619D01*
X82840476Y-101757143D01*
X83030952Y-101566666D01*
X83411905Y-101471428D01*
X84078571Y-101471428D01*
X84459524Y-101566666D01*
X84650000Y-101757143D01*
X84745238Y-101947619D01*
X83792857Y-104328571D02*
X83697619Y-104614285D01*
X83602381Y-104709524D01*
X83411905Y-104804762D01*
X83126190Y-104804762D01*
X82935714Y-104709524D01*
X82840476Y-104614285D01*
X82745238Y-104423809D01*
X82745238Y-103661904D01*
X84745238Y-103661904D01*
X84745238Y-104328571D01*
X84650000Y-104519047D01*
X84554762Y-104614285D01*
X84364286Y-104709524D01*
X84173810Y-104709524D01*
X83983333Y-104614285D01*
X83888095Y-104519047D01*
X83792857Y-104328571D01*
X83792857Y-103661904D01*
X83792857Y-105661904D02*
X83792857Y-106328571D01*
X82745238Y-106614285D02*
X82745238Y-105661904D01*
X84745238Y-105661904D01*
X84745238Y-106614285D01*
X83697619Y-107852381D02*
X82745238Y-107852381D01*
X84745238Y-107185714D02*
X83697619Y-107852381D01*
X84745238Y-108519048D01*
X79445238Y-98566666D02*
X81445238Y-98566666D01*
X81445238Y-99328571D01*
X81350000Y-99519047D01*
X81254762Y-99614286D01*
X81064286Y-99709524D01*
X80778571Y-99709524D01*
X80588095Y-99614286D01*
X80492857Y-99519047D01*
X80397619Y-99328571D01*
X80397619Y-98566666D01*
X81445238Y-100947619D02*
X81445238Y-101328571D01*
X81350000Y-101519047D01*
X81159524Y-101709524D01*
X80778571Y-101804762D01*
X80111905Y-101804762D01*
X79730952Y-101709524D01*
X79540476Y-101519047D01*
X79445238Y-101328571D01*
X79445238Y-100947619D01*
X79540476Y-100757143D01*
X79730952Y-100566666D01*
X80111905Y-100471428D01*
X80778571Y-100471428D01*
X81159524Y-100566666D01*
X81350000Y-100757143D01*
X81445238Y-100947619D01*
X79445238Y-103614285D02*
X79445238Y-102661904D01*
X81445238Y-102661904D01*
X80016667Y-104185714D02*
X80016667Y-105138095D01*
X79445238Y-103995238D02*
X81445238Y-104661905D01*
X79445238Y-105328572D01*
X79445238Y-107138096D02*
X80397619Y-106471429D01*
X79445238Y-105995238D02*
X81445238Y-105995238D01*
X81445238Y-106757143D01*
X81350000Y-106947619D01*
X81254762Y-107042858D01*
X81064286Y-107138096D01*
X80778571Y-107138096D01*
X80588095Y-107042858D01*
X80492857Y-106947619D01*
X80397619Y-106757143D01*
X80397619Y-105995238D01*
X79445238Y-107995238D02*
X81445238Y-107995238D01*
X81445238Y-108661905D02*
X81445238Y-109804762D01*
X79445238Y-109233334D02*
X81445238Y-109233334D01*
X80397619Y-110852382D02*
X79445238Y-110852382D01*
X81445238Y-110185715D02*
X80397619Y-110852382D01*
X81445238Y-111519049D01*
D11*
X92500000Y-48500000D02*
X92500000Y-41500000D01*
X100000000Y-48500000D02*
X92500000Y-48500000D01*
X100000000Y-41500000D02*
X100000000Y-48500000D01*
X92500000Y-41500000D02*
X100000000Y-41500000D01*
X48000000Y-48500000D02*
X48000000Y-41500000D01*
X55500000Y-48500000D02*
X48000000Y-48500000D01*
X55500000Y-41500000D02*
X55500000Y-48500000D01*
X48000000Y-41500000D02*
X55500000Y-41500000D01*
X47750000Y-138000000D02*
X47750000Y-138500000D01*
X40250000Y-138000000D02*
X47750000Y-138000000D01*
X40250000Y-142000000D02*
X40250000Y-138000000D01*
X47750000Y-142000000D02*
X40250000Y-142000000D01*
X47750000Y-138000000D02*
X47750000Y-142000000D01*
X50500000Y-142000000D02*
X50500000Y-138000000D01*
X57500000Y-142000000D02*
X50500000Y-142000000D01*
X57500000Y-138000000D02*
X57500000Y-142000000D01*
X50500000Y-138000000D02*
X57500000Y-138000000D01*
X85500000Y-174000000D02*
X85500000Y-169500000D01*
X90500000Y-174000000D02*
X85500000Y-174000000D01*
X90500000Y-169500000D02*
X90500000Y-174000000D01*
X85500000Y-169500000D02*
X90500000Y-169500000D01*
X85500000Y-169000000D02*
X85500000Y-164500000D01*
X90500000Y-169000000D02*
X85500000Y-169000000D01*
X90500000Y-164500000D02*
X90500000Y-169000000D01*
X85500000Y-164500000D02*
X90500000Y-164500000D01*
X90500000Y-164000000D02*
X90500000Y-163500000D01*
X85500000Y-164000000D02*
X90500000Y-164000000D01*
X85500000Y-163500000D02*
X85500000Y-164000000D01*
X85000000Y-164000000D02*
X85000000Y-159500000D01*
X80000000Y-164000000D02*
X85000000Y-164000000D01*
X80000000Y-159500000D02*
X80000000Y-164000000D01*
X91000000Y-159500000D02*
X91000000Y-160500000D01*
X91000000Y-159000000D02*
X91000000Y-159500000D01*
X79500000Y-159000000D02*
X91000000Y-159000000D01*
X79500000Y-159500000D02*
X79500000Y-159000000D01*
X80000000Y-164500000D02*
X80000000Y-169000000D01*
X85000000Y-164500000D02*
X80000000Y-164500000D01*
X85000000Y-169000000D02*
X85000000Y-164500000D01*
X80000000Y-169000000D02*
X85000000Y-169000000D01*
X85000000Y-169500000D02*
X85000000Y-174000000D01*
X80000000Y-169500000D02*
X85000000Y-169500000D01*
X80000000Y-174000000D02*
X80000000Y-169500000D01*
X80000000Y-174000000D02*
X85000000Y-174000000D01*
X90500000Y-163500000D02*
X90500000Y-159500000D01*
X85500000Y-159500000D02*
X85500000Y-163500000D01*
X90500000Y-159500000D02*
X85500000Y-159500000D01*
X80000000Y-159500000D02*
X85000000Y-159500000D01*
X79500000Y-159000000D02*
X91000000Y-159000000D01*
X79500000Y-174500000D02*
X79500000Y-159500000D01*
X91000000Y-174500000D02*
X79500000Y-174500000D01*
X91000000Y-159500000D02*
X91000000Y-174500000D01*
X64160174Y-89175000D02*
G75*
G03X64160174Y-89175000I-1510174J0D01*
G01*
X64170691Y-170450000D02*
G75*
G03X64170691Y-170450000I-1520691J0D01*
G01*
X76915248Y-170450000D02*
G75*
G03X76915248Y-170450000I-1565248J0D01*
G01*
D15*
X50007143Y-163078571D02*
X50007143Y-161578571D01*
X50364286Y-161578571D01*
X50578571Y-161650000D01*
X50721429Y-161792857D01*
X50792857Y-161935714D01*
X50864286Y-162221429D01*
X50864286Y-162435714D01*
X50792857Y-162721429D01*
X50721429Y-162864286D01*
X50578571Y-163007143D01*
X50364286Y-163078571D01*
X50007143Y-163078571D01*
X52007143Y-162292857D02*
X52221429Y-162364286D01*
X52292857Y-162435714D01*
X52364286Y-162578571D01*
X52364286Y-162792857D01*
X52292857Y-162935714D01*
X52221429Y-163007143D01*
X52078571Y-163078571D01*
X51507143Y-163078571D01*
X51507143Y-161578571D01*
X52007143Y-161578571D01*
X52150000Y-161650000D01*
X52221429Y-161721429D01*
X52292857Y-161864286D01*
X52292857Y-162007143D01*
X52221429Y-162150000D01*
X52150000Y-162221429D01*
X52007143Y-162292857D01*
X51507143Y-162292857D01*
X53792857Y-161650000D02*
X53650000Y-161578571D01*
X53435714Y-161578571D01*
X53221429Y-161650000D01*
X53078571Y-161792857D01*
X53007143Y-161935714D01*
X52935714Y-162221429D01*
X52935714Y-162435714D01*
X53007143Y-162721429D01*
X53078571Y-162864286D01*
X53221429Y-163007143D01*
X53435714Y-163078571D01*
X53578571Y-163078571D01*
X53792857Y-163007143D01*
X53864286Y-162935714D01*
X53864286Y-162435714D01*
X53578571Y-162435714D01*
X51678571Y-156678571D02*
X51964285Y-156678571D01*
X52107143Y-156750000D01*
X52250000Y-156892857D01*
X52321428Y-157178571D01*
X52321428Y-157678571D01*
X52250000Y-157964286D01*
X52107143Y-158107143D01*
X51964285Y-158178571D01*
X51678571Y-158178571D01*
X51535714Y-158107143D01*
X51392857Y-157964286D01*
X51321428Y-157678571D01*
X51321428Y-157178571D01*
X51392857Y-156892857D01*
X51535714Y-156750000D01*
X51678571Y-156678571D01*
X52964286Y-157178571D02*
X52964286Y-158178571D01*
X52964286Y-157321429D02*
X53035714Y-157250000D01*
X53178572Y-157178571D01*
X53392857Y-157178571D01*
X53535714Y-157250000D01*
X53607143Y-157392857D01*
X53607143Y-158178571D01*
X57107143Y-159792857D02*
X57321429Y-159864286D01*
X57392857Y-159935714D01*
X57464286Y-160078571D01*
X57464286Y-160292857D01*
X57392857Y-160435714D01*
X57321429Y-160507143D01*
X57178571Y-160578571D01*
X56607143Y-160578571D01*
X56607143Y-159078571D01*
X57107143Y-159078571D01*
X57250000Y-159150000D01*
X57321429Y-159221429D01*
X57392857Y-159364286D01*
X57392857Y-159507143D01*
X57321429Y-159650000D01*
X57250000Y-159721429D01*
X57107143Y-159792857D01*
X56607143Y-159792857D01*
X86878571Y-75664285D02*
X85378571Y-75664285D01*
X86450000Y-75164285D01*
X85378571Y-74664285D01*
X86878571Y-74664285D01*
X86878571Y-73949999D02*
X85378571Y-73949999D01*
X85378571Y-73378571D01*
X85450000Y-73235713D01*
X85521429Y-73164285D01*
X85664286Y-73092856D01*
X85878571Y-73092856D01*
X86021429Y-73164285D01*
X86092857Y-73235713D01*
X86164286Y-73378571D01*
X86164286Y-73949999D01*
X85378571Y-72592856D02*
X85378571Y-71664285D01*
X85950000Y-72164285D01*
X85950000Y-71949999D01*
X86021429Y-71807142D01*
X86092857Y-71735713D01*
X86235714Y-71664285D01*
X86592857Y-71664285D01*
X86735714Y-71735713D01*
X86807143Y-71807142D01*
X86878571Y-71949999D01*
X86878571Y-72378571D01*
X86807143Y-72521428D01*
X86735714Y-72592856D01*
X91978571Y-75635714D02*
X90478571Y-75635714D01*
X91550000Y-75135714D01*
X90478571Y-74635714D01*
X91978571Y-74635714D01*
X91835714Y-73064285D02*
X91907143Y-73135714D01*
X91978571Y-73350000D01*
X91978571Y-73492857D01*
X91907143Y-73707142D01*
X91764286Y-73850000D01*
X91621429Y-73921428D01*
X91335714Y-73992857D01*
X91121429Y-73992857D01*
X90835714Y-73921428D01*
X90692857Y-73850000D01*
X90550000Y-73707142D01*
X90478571Y-73492857D01*
X90478571Y-73350000D01*
X90550000Y-73135714D01*
X90621429Y-73064285D01*
X90478571Y-72421428D02*
X91692857Y-72421428D01*
X91835714Y-72350000D01*
X91907143Y-72278571D01*
X91978571Y-72135714D01*
X91978571Y-71850000D01*
X91907143Y-71707142D01*
X91835714Y-71635714D01*
X91692857Y-71564285D01*
X90478571Y-71564285D01*
X88692857Y-75164285D02*
X88764286Y-74949999D01*
X88835714Y-74878571D01*
X88978571Y-74807142D01*
X89192857Y-74807142D01*
X89335714Y-74878571D01*
X89407143Y-74949999D01*
X89478571Y-75092857D01*
X89478571Y-75664285D01*
X87978571Y-75664285D01*
X87978571Y-75164285D01*
X88050000Y-75021428D01*
X88121429Y-74949999D01*
X88264286Y-74878571D01*
X88407143Y-74878571D01*
X88550000Y-74949999D01*
X88621429Y-75021428D01*
X88692857Y-75164285D01*
X88692857Y-75664285D01*
X87978571Y-74378571D02*
X87978571Y-73521428D01*
X89478571Y-73949999D02*
X87978571Y-73949999D01*
X37514287Y-83278571D02*
X37514287Y-81778571D01*
X38085715Y-81778571D01*
X38228573Y-81850000D01*
X38300001Y-81921429D01*
X38371430Y-82064286D01*
X38371430Y-82278571D01*
X38300001Y-82421429D01*
X38228573Y-82492857D01*
X38085715Y-82564286D01*
X37514287Y-82564286D01*
X38942858Y-82850000D02*
X39657144Y-82850000D01*
X38800001Y-83278571D02*
X39300001Y-81778571D01*
X39800001Y-83278571D01*
X40157144Y-81778571D02*
X41085715Y-81778571D01*
X40585715Y-82350000D01*
X40800001Y-82350000D01*
X40942858Y-82421429D01*
X41014287Y-82492857D01*
X41085715Y-82635714D01*
X41085715Y-82992857D01*
X41014287Y-83135714D01*
X40942858Y-83207143D01*
X40800001Y-83278571D01*
X40371429Y-83278571D01*
X40228572Y-83207143D01*
X40157144Y-83135714D01*
X43728572Y-83278571D02*
X43228572Y-82564286D01*
X42871429Y-83278571D02*
X42871429Y-81778571D01*
X43442857Y-81778571D01*
X43585715Y-81850000D01*
X43657143Y-81921429D01*
X43728572Y-82064286D01*
X43728572Y-82278571D01*
X43657143Y-82421429D01*
X43585715Y-82492857D01*
X43442857Y-82564286D01*
X42871429Y-82564286D01*
X44228572Y-81778571D02*
X45228572Y-83278571D01*
X45228572Y-81778571D02*
X44228572Y-83278571D01*
X37492858Y-80778571D02*
X37492858Y-79278571D01*
X38064286Y-79278571D01*
X38207144Y-79350000D01*
X38278572Y-79421429D01*
X38350001Y-79564286D01*
X38350001Y-79778571D01*
X38278572Y-79921429D01*
X38207144Y-79992857D01*
X38064286Y-80064286D01*
X37492858Y-80064286D01*
X38921429Y-80350000D02*
X39635715Y-80350000D01*
X38778572Y-80778571D02*
X39278572Y-79278571D01*
X39778572Y-80778571D01*
X40207143Y-79421429D02*
X40278572Y-79350000D01*
X40421429Y-79278571D01*
X40778572Y-79278571D01*
X40921429Y-79350000D01*
X40992858Y-79421429D01*
X41064286Y-79564286D01*
X41064286Y-79707143D01*
X40992858Y-79921429D01*
X40135715Y-80778571D01*
X41064286Y-80778571D01*
X42635714Y-79278571D02*
X43492857Y-79278571D01*
X43064286Y-80778571D02*
X43064286Y-79278571D01*
X43850000Y-79278571D02*
X44850000Y-80778571D01*
X44850000Y-79278571D02*
X43850000Y-80778571D01*
X38357143Y-75550000D02*
X38214286Y-75478571D01*
X38000000Y-75478571D01*
X37785715Y-75550000D01*
X37642857Y-75692857D01*
X37571429Y-75835714D01*
X37500000Y-76121429D01*
X37500000Y-76335714D01*
X37571429Y-76621429D01*
X37642857Y-76764286D01*
X37785715Y-76907143D01*
X38000000Y-76978571D01*
X38142857Y-76978571D01*
X38357143Y-76907143D01*
X38428572Y-76835714D01*
X38428572Y-76335714D01*
X38142857Y-76335714D01*
X39071429Y-76978571D02*
X39071429Y-75478571D01*
X39928572Y-76978571D01*
X39928572Y-75478571D01*
X40642858Y-76978571D02*
X40642858Y-75478571D01*
X41000001Y-75478571D01*
X41214286Y-75550000D01*
X41357144Y-75692857D01*
X41428572Y-75835714D01*
X41500001Y-76121429D01*
X41500001Y-76335714D01*
X41428572Y-76621429D01*
X41357144Y-76764286D01*
X41214286Y-76907143D01*
X41000001Y-76978571D01*
X40642858Y-76978571D01*
X37485715Y-72978571D02*
X38414286Y-72978571D01*
X37914286Y-73550000D01*
X38128572Y-73550000D01*
X38271429Y-73621429D01*
X38342858Y-73692857D01*
X38414286Y-73835714D01*
X38414286Y-74192857D01*
X38342858Y-74335714D01*
X38271429Y-74407143D01*
X38128572Y-74478571D01*
X37700000Y-74478571D01*
X37557143Y-74407143D01*
X37485715Y-74335714D01*
X39057143Y-74335714D02*
X39128571Y-74407143D01*
X39057143Y-74478571D01*
X38985714Y-74407143D01*
X39057143Y-74335714D01*
X39057143Y-74478571D01*
X39628572Y-72978571D02*
X40557143Y-72978571D01*
X40057143Y-73550000D01*
X40271429Y-73550000D01*
X40414286Y-73621429D01*
X40485715Y-73692857D01*
X40557143Y-73835714D01*
X40557143Y-74192857D01*
X40485715Y-74335714D01*
X40414286Y-74407143D01*
X40271429Y-74478571D01*
X39842857Y-74478571D01*
X39700000Y-74407143D01*
X39628572Y-74335714D01*
X40985714Y-72978571D02*
X41485714Y-74478571D01*
X41985714Y-72978571D01*
X37435715Y-71878571D02*
X37435715Y-70378571D01*
X38292858Y-71878571D01*
X38292858Y-70378571D01*
X39864287Y-71878571D02*
X39364287Y-71164286D01*
X39007144Y-71878571D02*
X39007144Y-70378571D01*
X39578572Y-70378571D01*
X39721430Y-70450000D01*
X39792858Y-70521429D01*
X39864287Y-70664286D01*
X39864287Y-70878571D01*
X39792858Y-71021429D01*
X39721430Y-71092857D01*
X39578572Y-71164286D01*
X39007144Y-71164286D01*
X40435715Y-71807143D02*
X40650001Y-71878571D01*
X41007144Y-71878571D01*
X41150001Y-71807143D01*
X41221430Y-71735714D01*
X41292858Y-71592857D01*
X41292858Y-71450000D01*
X41221430Y-71307143D01*
X41150001Y-71235714D01*
X41007144Y-71164286D01*
X40721430Y-71092857D01*
X40578572Y-71021429D01*
X40507144Y-70950000D01*
X40435715Y-70807143D01*
X40435715Y-70664286D01*
X40507144Y-70521429D01*
X40578572Y-70450000D01*
X40721430Y-70378571D01*
X41078572Y-70378571D01*
X41292858Y-70450000D01*
X41721429Y-70378571D02*
X42578572Y-70378571D01*
X42150001Y-71878571D02*
X42150001Y-70378571D01*
X37514286Y-69378571D02*
X37514286Y-67878571D01*
X38085714Y-67878571D01*
X38228572Y-67950000D01*
X38300000Y-68021429D01*
X38371429Y-68164286D01*
X38371429Y-68378571D01*
X38300000Y-68521429D01*
X38228572Y-68592857D01*
X38085714Y-68664286D01*
X37514286Y-68664286D01*
X39871429Y-69235714D02*
X39800000Y-69307143D01*
X39585714Y-69378571D01*
X39442857Y-69378571D01*
X39228572Y-69307143D01*
X39085714Y-69164286D01*
X39014286Y-69021429D01*
X38942857Y-68735714D01*
X38942857Y-68521429D01*
X39014286Y-68235714D01*
X39085714Y-68092857D01*
X39228572Y-67950000D01*
X39442857Y-67878571D01*
X39585714Y-67878571D01*
X39800000Y-67950000D01*
X39871429Y-68021429D01*
X41300000Y-69378571D02*
X40442857Y-69378571D01*
X40871429Y-69378571D02*
X40871429Y-67878571D01*
X40728572Y-68092857D01*
X40585714Y-68235714D01*
X40442857Y-68307143D01*
X41800000Y-67878571D02*
X42728571Y-67878571D01*
X42228571Y-68450000D01*
X42442857Y-68450000D01*
X42585714Y-68521429D01*
X42657143Y-68592857D01*
X42728571Y-68735714D01*
X42728571Y-69092857D01*
X42657143Y-69235714D01*
X42585714Y-69307143D01*
X42442857Y-69378571D01*
X42014285Y-69378571D01*
X41871428Y-69307143D01*
X41800000Y-69235714D01*
X44371428Y-67878571D02*
X44728571Y-69378571D01*
X45014285Y-68307143D01*
X45299999Y-69378571D01*
X45657142Y-67878571D01*
X46228571Y-67878571D02*
X46228571Y-69092857D01*
X46299999Y-69235714D01*
X46371428Y-69307143D01*
X46514285Y-69378571D01*
X46799999Y-69378571D01*
X46942857Y-69307143D01*
X47014285Y-69235714D01*
X47085714Y-69092857D01*
X47085714Y-67878571D01*
X37457144Y-66778571D02*
X37457144Y-65278571D01*
X38028572Y-65278571D01*
X38171430Y-65350000D01*
X38242858Y-65421429D01*
X38314287Y-65564286D01*
X38314287Y-65778571D01*
X38242858Y-65921429D01*
X38171430Y-65992857D01*
X38028572Y-66064286D01*
X37457144Y-66064286D01*
X38885715Y-66350000D02*
X39600001Y-66350000D01*
X38742858Y-66778571D02*
X39242858Y-65278571D01*
X39742858Y-66778571D01*
X41028572Y-66778571D02*
X40171429Y-66778571D01*
X40600001Y-66778571D02*
X40600001Y-65278571D01*
X40457144Y-65492857D01*
X40314286Y-65635714D01*
X40171429Y-65707143D01*
X41528572Y-65278571D02*
X42457143Y-65278571D01*
X41957143Y-65850000D01*
X42171429Y-65850000D01*
X42314286Y-65921429D01*
X42385715Y-65992857D01*
X42457143Y-66135714D01*
X42457143Y-66492857D01*
X42385715Y-66635714D01*
X42314286Y-66707143D01*
X42171429Y-66778571D01*
X41742857Y-66778571D01*
X41600000Y-66707143D01*
X41528572Y-66635714D01*
X44242857Y-66778571D02*
X44242857Y-65278571D01*
X44600000Y-65278571D01*
X44814285Y-65350000D01*
X44957143Y-65492857D01*
X45028571Y-65635714D01*
X45100000Y-65921429D01*
X45100000Y-66135714D01*
X45028571Y-66421429D01*
X44957143Y-66564286D01*
X44814285Y-66707143D01*
X44600000Y-66778571D01*
X44242857Y-66778571D01*
X45742857Y-66778571D02*
X45742857Y-65278571D01*
X37507144Y-64278571D02*
X37507144Y-62778571D01*
X38078572Y-62778571D01*
X38221430Y-62850000D01*
X38292858Y-62921429D01*
X38364287Y-63064286D01*
X38364287Y-63278571D01*
X38292858Y-63421429D01*
X38221430Y-63492857D01*
X38078572Y-63564286D01*
X37507144Y-63564286D01*
X38935715Y-63850000D02*
X39650001Y-63850000D01*
X38792858Y-64278571D02*
X39292858Y-62778571D01*
X39792858Y-64278571D01*
X41078572Y-64278571D02*
X40221429Y-64278571D01*
X40650001Y-64278571D02*
X40650001Y-62778571D01*
X40507144Y-62992857D01*
X40364286Y-63135714D01*
X40221429Y-63207143D01*
X42364286Y-63278571D02*
X42364286Y-64278571D01*
X42007143Y-62707143D02*
X41650000Y-63778571D01*
X42578572Y-63778571D01*
X45150000Y-64135714D02*
X45078571Y-64207143D01*
X44864285Y-64278571D01*
X44721428Y-64278571D01*
X44507143Y-64207143D01*
X44364285Y-64064286D01*
X44292857Y-63921429D01*
X44221428Y-63635714D01*
X44221428Y-63421429D01*
X44292857Y-63135714D01*
X44364285Y-62992857D01*
X44507143Y-62850000D01*
X44721428Y-62778571D01*
X44864285Y-62778571D01*
X45078571Y-62850000D01*
X45150000Y-62921429D01*
X46507143Y-64278571D02*
X45792857Y-64278571D01*
X45792857Y-62778571D01*
X37514287Y-60478571D02*
X37514287Y-58978571D01*
X38085715Y-58978571D01*
X38228573Y-59050000D01*
X38300001Y-59121429D01*
X38371430Y-59264286D01*
X38371430Y-59478571D01*
X38300001Y-59621429D01*
X38228573Y-59692857D01*
X38085715Y-59764286D01*
X37514287Y-59764286D01*
X38942858Y-60050000D02*
X39657144Y-60050000D01*
X38800001Y-60478571D02*
X39300001Y-58978571D01*
X39800001Y-60478571D01*
X41085715Y-60478571D02*
X40228572Y-60478571D01*
X40657144Y-60478571D02*
X40657144Y-58978571D01*
X40514287Y-59192857D01*
X40371429Y-59335714D01*
X40228572Y-59407143D01*
X43728572Y-60478571D02*
X43228572Y-59764286D01*
X42871429Y-60478571D02*
X42871429Y-58978571D01*
X43442857Y-58978571D01*
X43585715Y-59050000D01*
X43657143Y-59121429D01*
X43728572Y-59264286D01*
X43728572Y-59478571D01*
X43657143Y-59621429D01*
X43585715Y-59692857D01*
X43442857Y-59764286D01*
X42871429Y-59764286D01*
X44228572Y-58978571D02*
X45228572Y-60478571D01*
X45228572Y-58978571D02*
X44228572Y-60478571D01*
X37492858Y-57978571D02*
X37492858Y-56478571D01*
X38064286Y-56478571D01*
X38207144Y-56550000D01*
X38278572Y-56621429D01*
X38350001Y-56764286D01*
X38350001Y-56978571D01*
X38278572Y-57121429D01*
X38207144Y-57192857D01*
X38064286Y-57264286D01*
X37492858Y-57264286D01*
X38921429Y-57550000D02*
X39635715Y-57550000D01*
X38778572Y-57978571D02*
X39278572Y-56478571D01*
X39778572Y-57978571D01*
X40564286Y-56478571D02*
X40707143Y-56478571D01*
X40850000Y-56550000D01*
X40921429Y-56621429D01*
X40992858Y-56764286D01*
X41064286Y-57050000D01*
X41064286Y-57407143D01*
X40992858Y-57692857D01*
X40921429Y-57835714D01*
X40850000Y-57907143D01*
X40707143Y-57978571D01*
X40564286Y-57978571D01*
X40421429Y-57907143D01*
X40350000Y-57835714D01*
X40278572Y-57692857D01*
X40207143Y-57407143D01*
X40207143Y-57050000D01*
X40278572Y-56764286D01*
X40350000Y-56621429D01*
X40421429Y-56550000D01*
X40564286Y-56478571D01*
X42635714Y-56478571D02*
X43492857Y-56478571D01*
X43064286Y-57978571D02*
X43064286Y-56478571D01*
X43850000Y-56478571D02*
X44850000Y-57978571D01*
X44850000Y-56478571D02*
X43850000Y-57978571D01*
X38357143Y-53950000D02*
X38214286Y-53878571D01*
X38000000Y-53878571D01*
X37785715Y-53950000D01*
X37642857Y-54092857D01*
X37571429Y-54235714D01*
X37500000Y-54521429D01*
X37500000Y-54735714D01*
X37571429Y-55021429D01*
X37642857Y-55164286D01*
X37785715Y-55307143D01*
X38000000Y-55378571D01*
X38142857Y-55378571D01*
X38357143Y-55307143D01*
X38428572Y-55235714D01*
X38428572Y-54735714D01*
X38142857Y-54735714D01*
X39071429Y-55378571D02*
X39071429Y-53878571D01*
X39928572Y-55378571D01*
X39928572Y-53878571D01*
X40642858Y-55378571D02*
X40642858Y-53878571D01*
X41000001Y-53878571D01*
X41214286Y-53950000D01*
X41357144Y-54092857D01*
X41428572Y-54235714D01*
X41500001Y-54521429D01*
X41500001Y-54735714D01*
X41428572Y-55021429D01*
X41357144Y-55164286D01*
X41214286Y-55307143D01*
X41000001Y-55378571D01*
X40642858Y-55378571D01*
X44207144Y-51378571D02*
X43492858Y-51378571D01*
X43421429Y-52092857D01*
X43492858Y-52021429D01*
X43635715Y-51950000D01*
X43992858Y-51950000D01*
X44135715Y-52021429D01*
X44207144Y-52092857D01*
X44278572Y-52235714D01*
X44278572Y-52592857D01*
X44207144Y-52735714D01*
X44135715Y-52807143D01*
X43992858Y-52878571D01*
X43635715Y-52878571D01*
X43492858Y-52807143D01*
X43421429Y-52735714D01*
D19*
X38100000Y-174200000D02*
X38300000Y-174200000D01*
X38100000Y-174200000D02*
X38100000Y-169800000D01*
X38100000Y-169800000D02*
X42500000Y-169800000D01*
X42500000Y-169800000D02*
X42500000Y-174200000D01*
X42500000Y-174200000D02*
X38300000Y-174200000D01*
X80460000Y-143730000D02*
X90620000Y-143730000D01*
X90620000Y-143730000D02*
X90620000Y-156430000D01*
X90620000Y-156430000D02*
X80460000Y-156430000D01*
X80460000Y-156430000D02*
X80460000Y-143730000D01*
X84270000Y-146270000D02*
X89350000Y-146270000D01*
X89350000Y-146270000D02*
X89350000Y-143730000D01*
X89350000Y-143730000D02*
X84270000Y-143730000D01*
X81450000Y-143450000D02*
X83000000Y-143450000D01*
X84270000Y-143730000D02*
X84270000Y-146270000D01*
X83000000Y-146550000D02*
X81450000Y-146550000D01*
X81450000Y-146550000D02*
X81450000Y-143450000D01*
X87420000Y-83550000D02*
X87420000Y-75930000D01*
X84880000Y-83550000D02*
X84880000Y-75930000D01*
X84600000Y-86370000D02*
X84600000Y-84820000D01*
X87420000Y-75930000D02*
X84880000Y-75930000D01*
X84880000Y-83550000D02*
X87420000Y-83550000D01*
X87700000Y-84820000D02*
X87700000Y-86370000D01*
X87700000Y-86370000D02*
X84600000Y-86370000D01*
X63920000Y-170460000D02*
X61380000Y-170460000D01*
X62650000Y-169190000D02*
X62650000Y-171730000D01*
X76620000Y-170460000D02*
X74080000Y-170460000D01*
X75350000Y-169190000D02*
X75350000Y-171730000D01*
X62650000Y-87910000D02*
X62650000Y-90450000D01*
X75350000Y-90450000D02*
X75350000Y-87910000D01*
X79160000Y-94260000D02*
X79160000Y-91720000D01*
X79160000Y-91720000D02*
X58840000Y-91720000D01*
X58840000Y-91720000D02*
X58840000Y-94260000D01*
X58840000Y-165380000D02*
X58840000Y-166650000D01*
X58840000Y-166650000D02*
X58840000Y-167920000D01*
X58840000Y-167920000D02*
X79160000Y-167920000D01*
X79160000Y-167920000D02*
X79160000Y-165380000D01*
X79160000Y-165380000D02*
X58840000Y-165380000D01*
X58840000Y-165380000D02*
X58840000Y-94260000D01*
X58840000Y-94260000D02*
X79160000Y-94260000D01*
X79160000Y-94260000D02*
X79160000Y-165380000D01*
X108940000Y-123000000D02*
X97510000Y-123000000D01*
X97510000Y-123000000D02*
X97510000Y-115380000D01*
X97510000Y-115380000D02*
X108940000Y-115380000D01*
X108940000Y-115380000D02*
X108940000Y-123000000D01*
X82000000Y-123000000D02*
X82000000Y-112500000D01*
X82000000Y-112500000D02*
X112000000Y-112500000D01*
X112000000Y-112500000D02*
X112000000Y-142500000D01*
X112000000Y-142500000D02*
X82000000Y-142500000D01*
X82000000Y-142500000D02*
X82000000Y-121000000D01*
X82905000Y-122365000D02*
X85445000Y-122365000D01*
X85445000Y-122365000D02*
X86080000Y-122365000D01*
X86080000Y-122365000D02*
X86080000Y-123635000D01*
X86080000Y-123635000D02*
X82905000Y-123635000D01*
X82905000Y-123635000D02*
X82905000Y-122365000D01*
X82905000Y-124905000D02*
X86080000Y-124905000D01*
X86080000Y-124905000D02*
X86080000Y-126175000D01*
X86080000Y-126175000D02*
X82905000Y-126175000D01*
X82905000Y-126175000D02*
X82905000Y-124905000D01*
X82905000Y-127445000D02*
X86080000Y-127445000D01*
X86080000Y-127445000D02*
X86080000Y-128715000D01*
X86080000Y-128715000D02*
X82905000Y-128715000D01*
X82905000Y-128715000D02*
X82905000Y-127445000D01*
X82905000Y-131255000D02*
X82905000Y-129985000D01*
X82905000Y-129985000D02*
X86080000Y-129985000D01*
X86080000Y-129985000D02*
X86080000Y-131255000D01*
X86080000Y-131255000D02*
X82905000Y-131255000D01*
X82905000Y-133795000D02*
X86080000Y-133795000D01*
X86080000Y-133795000D02*
X86080000Y-132525000D01*
X86080000Y-132525000D02*
X82905000Y-132525000D01*
X82905000Y-132525000D02*
X82905000Y-133795000D01*
X79700000Y-121450000D02*
X79700000Y-123000000D01*
X81000000Y-121450000D02*
X79700000Y-121450000D01*
X85191000Y-122873000D02*
X91033000Y-122873000D01*
X91033000Y-122873000D02*
X91033000Y-123127000D01*
X91033000Y-123127000D02*
X85191000Y-123127000D01*
X85191000Y-123127000D02*
X85191000Y-123000000D01*
X85191000Y-123000000D02*
X91033000Y-123000000D01*
X82524000Y-122746000D02*
X82143000Y-122746000D01*
X82524000Y-123254000D02*
X82143000Y-123254000D01*
X82524000Y-125286000D02*
X82143000Y-125286000D01*
X82524000Y-125794000D02*
X82143000Y-125794000D01*
X82524000Y-127826000D02*
X82143000Y-127826000D01*
X82524000Y-128334000D02*
X82143000Y-128334000D01*
X82524000Y-130366000D02*
X82143000Y-130366000D01*
X82524000Y-130874000D02*
X82143000Y-130874000D01*
X82524000Y-133414000D02*
X82143000Y-133414000D01*
X82524000Y-132906000D02*
X82143000Y-132906000D01*
X85064000Y-124270000D02*
X85064000Y-121730000D01*
X91160000Y-123254000D02*
X85064000Y-123254000D01*
X91160000Y-122746000D02*
X91160000Y-123254000D01*
X85064000Y-122746000D02*
X91160000Y-122746000D01*
X82524000Y-124270000D02*
X85064000Y-124270000D01*
X82524000Y-121730000D02*
X82524000Y-124270000D01*
X82524000Y-121730000D02*
X85064000Y-121730000D01*
X82524000Y-126810000D02*
X85064000Y-126810000D01*
X82524000Y-126810000D02*
X82524000Y-129350000D01*
X82524000Y-129350000D02*
X85064000Y-129350000D01*
X85064000Y-127826000D02*
X91160000Y-127826000D01*
X91160000Y-127826000D02*
X91160000Y-128334000D01*
X91160000Y-128334000D02*
X85064000Y-128334000D01*
X85064000Y-129350000D02*
X85064000Y-126810000D01*
X85064000Y-126810000D02*
X85064000Y-124270000D01*
X91160000Y-125794000D02*
X85064000Y-125794000D01*
X91160000Y-125286000D02*
X91160000Y-125794000D01*
X85064000Y-125286000D02*
X91160000Y-125286000D01*
X82524000Y-126810000D02*
X85064000Y-126810000D01*
X82524000Y-124270000D02*
X82524000Y-126810000D01*
X82524000Y-124270000D02*
X85064000Y-124270000D01*
X82524000Y-131890000D02*
X85064000Y-131890000D01*
X82524000Y-131890000D02*
X82524000Y-134430000D01*
X82524000Y-134430000D02*
X85064000Y-134430000D01*
X85064000Y-132906000D02*
X91160000Y-132906000D01*
X91160000Y-132906000D02*
X91160000Y-133414000D01*
X91160000Y-133414000D02*
X85064000Y-133414000D01*
X85064000Y-134430000D02*
X85064000Y-131890000D01*
X85064000Y-131890000D02*
X85064000Y-129350000D01*
X91160000Y-130874000D02*
X85064000Y-130874000D01*
X91160000Y-130366000D02*
X91160000Y-130874000D01*
X85064000Y-130366000D02*
X91160000Y-130366000D01*
X82524000Y-131890000D02*
X85064000Y-131890000D01*
X82524000Y-129350000D02*
X82524000Y-131890000D01*
X82524000Y-129350000D02*
X85064000Y-129350000D01*
X49025000Y-159849000D02*
X49025000Y-154851000D01*
X48885000Y-159841000D02*
X48885000Y-154859000D01*
X48745000Y-159825000D02*
X48745000Y-157445000D01*
X48745000Y-157255000D02*
X48745000Y-154875000D01*
X48605000Y-159801000D02*
X48605000Y-157840000D01*
X48605000Y-156860000D02*
X48605000Y-154899000D01*
X48465000Y-159768000D02*
X48465000Y-158007000D01*
X48465000Y-156693000D02*
X48465000Y-154932000D01*
X48325000Y-159727000D02*
X48325000Y-158114000D01*
X48325000Y-156586000D02*
X48325000Y-154973000D01*
X48185000Y-159677000D02*
X48185000Y-158185000D01*
X48185000Y-156515000D02*
X48185000Y-155023000D01*
X48045000Y-159616000D02*
X48045000Y-158229000D01*
X48045000Y-156471000D02*
X48045000Y-155084000D01*
X47905000Y-159546000D02*
X47905000Y-158248000D01*
X47905000Y-156452000D02*
X47905000Y-155154000D01*
X47765000Y-159464000D02*
X47765000Y-158246000D01*
X47765000Y-156454000D02*
X47765000Y-155236000D01*
X47625000Y-159369000D02*
X47625000Y-158221000D01*
X47625000Y-156479000D02*
X47625000Y-155331000D01*
X47485000Y-159258000D02*
X47485000Y-158173000D01*
X47485000Y-156527000D02*
X47485000Y-155442000D01*
X47345000Y-159130000D02*
X47345000Y-158095000D01*
X47345000Y-156605000D02*
X47345000Y-155570000D01*
X47205000Y-158981000D02*
X47205000Y-157978000D01*
X47205000Y-156722000D02*
X47205000Y-155719000D01*
X47065000Y-158802000D02*
X47065000Y-157790000D01*
X47065000Y-156910000D02*
X47065000Y-155898000D01*
X46925000Y-158583000D02*
X46925000Y-156117000D01*
X46785000Y-158294000D02*
X46785000Y-156406000D01*
X46645000Y-157822000D02*
X46645000Y-156878000D01*
X48750000Y-157350000D02*
G75*
G03X48750000Y-157350000I-900000J0D01*
G01*
X51637500Y-157350000D02*
G75*
G03X51637500Y-157350000I-2537500J0D01*
G01*
X42150000Y-120050000D02*
X41150000Y-120050000D01*
X41150000Y-120050000D02*
X41150000Y-117550000D01*
X41150000Y-117550000D02*
X43650000Y-117050000D01*
X43650000Y-117050000D02*
X43650000Y-108050000D01*
X43650000Y-108050000D02*
X41150000Y-108050000D01*
X41150000Y-108050000D02*
X41150000Y-107550000D01*
X41150000Y-107550000D02*
X55150000Y-107550000D01*
X55150000Y-107550000D02*
X55150000Y-120550000D01*
X55150000Y-120550000D02*
X43150000Y-120550000D01*
X43150000Y-120550000D02*
X43150000Y-120050000D01*
X43150000Y-120050000D02*
X42150000Y-120050000D01*
X89000000Y-105350000D02*
X89000000Y-105750000D01*
X89000000Y-95250000D02*
X89000000Y-95650000D01*
X89000000Y-107250000D02*
X89000000Y-107050000D01*
X90200000Y-107250000D02*
X89000000Y-107250000D01*
X90200000Y-93750000D02*
X89000000Y-93750000D01*
X89000000Y-93750000D02*
X89000000Y-93950000D01*
X46501000Y-165675000D02*
X51499000Y-165675000D01*
X46509000Y-165535000D02*
X51491000Y-165535000D01*
X46525000Y-165395000D02*
X48905000Y-165395000D01*
X49095000Y-165395000D02*
X51475000Y-165395000D01*
X46549000Y-165255000D02*
X48510000Y-165255000D01*
X49490000Y-165255000D02*
X51451000Y-165255000D01*
X46582000Y-165115000D02*
X48343000Y-165115000D01*
X49657000Y-165115000D02*
X51418000Y-165115000D01*
X46623000Y-164975000D02*
X48236000Y-164975000D01*
X49764000Y-164975000D02*
X51377000Y-164975000D01*
X46673000Y-164835000D02*
X48165000Y-164835000D01*
X49835000Y-164835000D02*
X51327000Y-164835000D01*
X46734000Y-164695000D02*
X48121000Y-164695000D01*
X49879000Y-164695000D02*
X51266000Y-164695000D01*
X46804000Y-164555000D02*
X48102000Y-164555000D01*
X49898000Y-164555000D02*
X51196000Y-164555000D01*
X46886000Y-164415000D02*
X48104000Y-164415000D01*
X49896000Y-164415000D02*
X51114000Y-164415000D01*
X46981000Y-164275000D02*
X48129000Y-164275000D01*
X49871000Y-164275000D02*
X51019000Y-164275000D01*
X47092000Y-164135000D02*
X48177000Y-164135000D01*
X49823000Y-164135000D02*
X50908000Y-164135000D01*
X47220000Y-163995000D02*
X48255000Y-163995000D01*
X49745000Y-163995000D02*
X50780000Y-163995000D01*
X47369000Y-163855000D02*
X48372000Y-163855000D01*
X49628000Y-163855000D02*
X50631000Y-163855000D01*
X47548000Y-163715000D02*
X48560000Y-163715000D01*
X49440000Y-163715000D02*
X50452000Y-163715000D01*
X47767000Y-163575000D02*
X50233000Y-163575000D01*
X48056000Y-163435000D02*
X49944000Y-163435000D01*
X48528000Y-163295000D02*
X49472000Y-163295000D01*
X49900000Y-164500000D02*
G75*
G03X49900000Y-164500000I-900000J0D01*
G01*
X51537500Y-165750000D02*
G75*
G03X51537500Y-165750000I-2537500J0D01*
G01*
X58500000Y-59650000D02*
X57500000Y-59650000D01*
X57500000Y-61350000D02*
X58500000Y-61350000D01*
X58999000Y-67325000D02*
X54001000Y-67325000D01*
X58991000Y-67465000D02*
X54009000Y-67465000D01*
X58975000Y-67605000D02*
X56595000Y-67605000D01*
X56405000Y-67605000D02*
X54025000Y-67605000D01*
X58951000Y-67745000D02*
X56990000Y-67745000D01*
X56010000Y-67745000D02*
X54049000Y-67745000D01*
X58918000Y-67885000D02*
X57157000Y-67885000D01*
X55843000Y-67885000D02*
X54082000Y-67885000D01*
X58877000Y-68025000D02*
X57264000Y-68025000D01*
X55736000Y-68025000D02*
X54123000Y-68025000D01*
X58827000Y-68165000D02*
X57335000Y-68165000D01*
X55665000Y-68165000D02*
X54173000Y-68165000D01*
X58766000Y-68305000D02*
X57379000Y-68305000D01*
X55621000Y-68305000D02*
X54234000Y-68305000D01*
X58696000Y-68445000D02*
X57398000Y-68445000D01*
X55602000Y-68445000D02*
X54304000Y-68445000D01*
X58614000Y-68585000D02*
X57396000Y-68585000D01*
X55604000Y-68585000D02*
X54386000Y-68585000D01*
X58519000Y-68725000D02*
X57371000Y-68725000D01*
X55629000Y-68725000D02*
X54481000Y-68725000D01*
X58408000Y-68865000D02*
X57323000Y-68865000D01*
X55677000Y-68865000D02*
X54592000Y-68865000D01*
X58280000Y-69005000D02*
X57245000Y-69005000D01*
X55755000Y-69005000D02*
X54720000Y-69005000D01*
X58131000Y-69145000D02*
X57128000Y-69145000D01*
X55872000Y-69145000D02*
X54869000Y-69145000D01*
X57952000Y-69285000D02*
X56940000Y-69285000D01*
X56060000Y-69285000D02*
X55048000Y-69285000D01*
X57733000Y-69425000D02*
X55267000Y-69425000D01*
X57444000Y-69565000D02*
X55556000Y-69565000D01*
X56972000Y-69705000D02*
X56028000Y-69705000D01*
X57400000Y-68500000D02*
G75*
G03X57400000Y-68500000I-900000J0D01*
G01*
X59037500Y-67250000D02*
G75*
G03X59037500Y-67250000I-2537500J0D01*
G01*
X38350000Y-146400000D02*
X38350000Y-147400000D01*
X40050000Y-147400000D02*
X40050000Y-146400000D01*
X59499000Y-170325000D02*
X54501000Y-170325000D01*
X59491000Y-170465000D02*
X54509000Y-170465000D01*
X59475000Y-170605000D02*
X57095000Y-170605000D01*
X56905000Y-170605000D02*
X54525000Y-170605000D01*
X59451000Y-170745000D02*
X57490000Y-170745000D01*
X56510000Y-170745000D02*
X54549000Y-170745000D01*
X59418000Y-170885000D02*
X57657000Y-170885000D01*
X56343000Y-170885000D02*
X54582000Y-170885000D01*
X59377000Y-171025000D02*
X57764000Y-171025000D01*
X56236000Y-171025000D02*
X54623000Y-171025000D01*
X59327000Y-171165000D02*
X57835000Y-171165000D01*
X56165000Y-171165000D02*
X54673000Y-171165000D01*
X59266000Y-171305000D02*
X57879000Y-171305000D01*
X56121000Y-171305000D02*
X54734000Y-171305000D01*
X59196000Y-171445000D02*
X57898000Y-171445000D01*
X56102000Y-171445000D02*
X54804000Y-171445000D01*
X59114000Y-171585000D02*
X57896000Y-171585000D01*
X56104000Y-171585000D02*
X54886000Y-171585000D01*
X59019000Y-171725000D02*
X57871000Y-171725000D01*
X56129000Y-171725000D02*
X54981000Y-171725000D01*
X58908000Y-171865000D02*
X57823000Y-171865000D01*
X56177000Y-171865000D02*
X55092000Y-171865000D01*
X58780000Y-172005000D02*
X57745000Y-172005000D01*
X56255000Y-172005000D02*
X55220000Y-172005000D01*
X58631000Y-172145000D02*
X57628000Y-172145000D01*
X56372000Y-172145000D02*
X55369000Y-172145000D01*
X58452000Y-172285000D02*
X57440000Y-172285000D01*
X56560000Y-172285000D02*
X55548000Y-172285000D01*
X58233000Y-172425000D02*
X55767000Y-172425000D01*
X57944000Y-172565000D02*
X56056000Y-172565000D01*
X57472000Y-172705000D02*
X56528000Y-172705000D01*
X57900000Y-171500000D02*
G75*
G03X57900000Y-171500000I-900000J0D01*
G01*
X59537500Y-170250000D02*
G75*
G03X59537500Y-170250000I-2537500J0D01*
G01*
X63825000Y-74001000D02*
X63825000Y-78999000D01*
X63965000Y-74009000D02*
X63965000Y-78991000D01*
X64105000Y-74025000D02*
X64105000Y-76405000D01*
X64105000Y-76595000D02*
X64105000Y-78975000D01*
X64245000Y-74049000D02*
X64245000Y-76010000D01*
X64245000Y-76990000D02*
X64245000Y-78951000D01*
X64385000Y-74082000D02*
X64385000Y-75843000D01*
X64385000Y-77157000D02*
X64385000Y-78918000D01*
X64525000Y-74123000D02*
X64525000Y-75736000D01*
X64525000Y-77264000D02*
X64525000Y-78877000D01*
X64665000Y-74173000D02*
X64665000Y-75665000D01*
X64665000Y-77335000D02*
X64665000Y-78827000D01*
X64805000Y-74234000D02*
X64805000Y-75621000D01*
X64805000Y-77379000D02*
X64805000Y-78766000D01*
X64945000Y-74304000D02*
X64945000Y-75602000D01*
X64945000Y-77398000D02*
X64945000Y-78696000D01*
X65085000Y-74386000D02*
X65085000Y-75604000D01*
X65085000Y-77396000D02*
X65085000Y-78614000D01*
X65225000Y-74481000D02*
X65225000Y-75629000D01*
X65225000Y-77371000D02*
X65225000Y-78519000D01*
X65365000Y-74592000D02*
X65365000Y-75677000D01*
X65365000Y-77323000D02*
X65365000Y-78408000D01*
X65505000Y-74720000D02*
X65505000Y-75755000D01*
X65505000Y-77245000D02*
X65505000Y-78280000D01*
X65645000Y-74869000D02*
X65645000Y-75872000D01*
X65645000Y-77128000D02*
X65645000Y-78131000D01*
X65785000Y-75048000D02*
X65785000Y-76060000D01*
X65785000Y-76940000D02*
X65785000Y-77952000D01*
X65925000Y-75267000D02*
X65925000Y-77733000D01*
X66065000Y-75556000D02*
X66065000Y-77444000D01*
X66205000Y-76028000D02*
X66205000Y-76972000D01*
X65900000Y-76500000D02*
G75*
G03X65900000Y-76500000I-900000J0D01*
G01*
X66287500Y-76500000D02*
G75*
G03X66287500Y-76500000I-2537500J0D01*
G01*
X63175000Y-55999000D02*
X63175000Y-51001000D01*
X63035000Y-55991000D02*
X63035000Y-51009000D01*
X62895000Y-55975000D02*
X62895000Y-53595000D01*
X62895000Y-53405000D02*
X62895000Y-51025000D01*
X62755000Y-55951000D02*
X62755000Y-53990000D01*
X62755000Y-53010000D02*
X62755000Y-51049000D01*
X62615000Y-55918000D02*
X62615000Y-54157000D01*
X62615000Y-52843000D02*
X62615000Y-51082000D01*
X62475000Y-55877000D02*
X62475000Y-54264000D01*
X62475000Y-52736000D02*
X62475000Y-51123000D01*
X62335000Y-55827000D02*
X62335000Y-54335000D01*
X62335000Y-52665000D02*
X62335000Y-51173000D01*
X62195000Y-55766000D02*
X62195000Y-54379000D01*
X62195000Y-52621000D02*
X62195000Y-51234000D01*
X62055000Y-55696000D02*
X62055000Y-54398000D01*
X62055000Y-52602000D02*
X62055000Y-51304000D01*
X61915000Y-55614000D02*
X61915000Y-54396000D01*
X61915000Y-52604000D02*
X61915000Y-51386000D01*
X61775000Y-55519000D02*
X61775000Y-54371000D01*
X61775000Y-52629000D02*
X61775000Y-51481000D01*
X61635000Y-55408000D02*
X61635000Y-54323000D01*
X61635000Y-52677000D02*
X61635000Y-51592000D01*
X61495000Y-55280000D02*
X61495000Y-54245000D01*
X61495000Y-52755000D02*
X61495000Y-51720000D01*
X61355000Y-55131000D02*
X61355000Y-54128000D01*
X61355000Y-52872000D02*
X61355000Y-51869000D01*
X61215000Y-54952000D02*
X61215000Y-53940000D01*
X61215000Y-53060000D02*
X61215000Y-52048000D01*
X61075000Y-54733000D02*
X61075000Y-52267000D01*
X60935000Y-54444000D02*
X60935000Y-52556000D01*
X60795000Y-53972000D02*
X60795000Y-53028000D01*
X62900000Y-53500000D02*
G75*
G03X62900000Y-53500000I-900000J0D01*
G01*
X65787500Y-53500000D02*
G75*
G03X65787500Y-53500000I-2537500J0D01*
G01*
X38282540Y-160149100D02*
X38282540Y-168849100D01*
X44687540Y-160149100D02*
X44687540Y-168849100D01*
X44687540Y-168849100D02*
X38282540Y-168849100D01*
X39512540Y-168849100D02*
X39512540Y-160149100D01*
X38282540Y-160149100D02*
X44687540Y-160149100D01*
X46540000Y-134000000D02*
G75*
G03X46540000Y-134000000I-2540000J0D01*
G01*
X40190000Y-130190000D02*
X47810000Y-130190000D01*
X47810000Y-130190000D02*
X47810000Y-137810000D01*
X47810000Y-137810000D02*
X40190000Y-137810000D01*
X40190000Y-130190000D02*
X40190000Y-137810000D01*
X109540000Y-169000000D02*
G75*
G03X109540000Y-169000000I-2540000J0D01*
G01*
X110810000Y-165190000D02*
X110810000Y-172810000D01*
X110810000Y-172810000D02*
X103190000Y-172810000D01*
X103190000Y-172810000D02*
X103190000Y-165190000D01*
X110810000Y-165190000D02*
X103190000Y-165190000D01*
X97540000Y-169000000D02*
G75*
G03X97540000Y-169000000I-2540000J0D01*
G01*
X91190000Y-172810000D02*
X91190000Y-165190000D01*
X91190000Y-165190000D02*
X98810000Y-165190000D01*
X98810000Y-165190000D02*
X98810000Y-172810000D01*
X91190000Y-172810000D02*
X98810000Y-172810000D01*
X109540000Y-148000000D02*
G75*
G03X109540000Y-148000000I-2540000J0D01*
G01*
X110810000Y-144190000D02*
X110810000Y-151810000D01*
X110810000Y-151810000D02*
X103190000Y-151810000D01*
X103190000Y-151810000D02*
X103190000Y-144190000D01*
X110810000Y-144190000D02*
X103190000Y-144190000D01*
X109540000Y-158500000D02*
G75*
G03X109540000Y-158500000I-2540000J0D01*
G01*
X110810000Y-154690000D02*
X110810000Y-162310000D01*
X110810000Y-162310000D02*
X103190000Y-162310000D01*
X103190000Y-162310000D02*
X103190000Y-154690000D01*
X110810000Y-154690000D02*
X103190000Y-154690000D01*
X56540000Y-134000000D02*
G75*
G03X56540000Y-134000000I-2540000J0D01*
G01*
X50190000Y-130190000D02*
X57810000Y-130190000D01*
X57810000Y-130190000D02*
X57810000Y-137810000D01*
X57810000Y-137810000D02*
X50190000Y-137810000D01*
X50190000Y-130190000D02*
X50190000Y-137810000D01*
X97540000Y-158500000D02*
G75*
G03X97540000Y-158500000I-2540000J0D01*
G01*
X91190000Y-162310000D02*
X91190000Y-154690000D01*
X91190000Y-154690000D02*
X98810000Y-154690000D01*
X98810000Y-154690000D02*
X98810000Y-162310000D01*
X91190000Y-162310000D02*
X98810000Y-162310000D01*
X97540000Y-148000000D02*
G75*
G03X97540000Y-148000000I-2540000J0D01*
G01*
X91190000Y-151810000D02*
X91190000Y-144190000D01*
X91190000Y-144190000D02*
X98810000Y-144190000D01*
X98810000Y-144190000D02*
X98810000Y-151810000D01*
X91190000Y-151810000D02*
X98810000Y-151810000D01*
X44200000Y-152000000D02*
G75*
G03X44200000Y-152000000I-100000J0D01*
G01*
X43850000Y-152550000D02*
X43850000Y-152050000D01*
X40950000Y-152550000D02*
X43850000Y-152550000D01*
X40950000Y-152050000D02*
X40950000Y-152550000D01*
X43850000Y-152050000D02*
X40950000Y-152050000D01*
X52400000Y-171700000D02*
G75*
G03X52400000Y-171700000I-100000J0D01*
G01*
X51750000Y-171450000D02*
X52250000Y-171450000D01*
X51750000Y-168550000D02*
X51750000Y-171450000D01*
X52250000Y-168550000D02*
X51750000Y-168550000D01*
X52250000Y-171450000D02*
X52250000Y-168550000D01*
X62825000Y-59825000D02*
X62825000Y-60900000D01*
X73175000Y-59825000D02*
X73175000Y-60900000D01*
X73175000Y-70175000D02*
X73175000Y-69100000D01*
X62825000Y-70175000D02*
X62825000Y-69100000D01*
X62825000Y-59825000D02*
X63900000Y-59825000D01*
X62825000Y-70175000D02*
X63900000Y-70175000D01*
X73175000Y-70175000D02*
X72100000Y-70175000D01*
X73175000Y-59825000D02*
X72100000Y-59825000D01*
X62825000Y-60900000D02*
X61800000Y-60900000D01*
X44450000Y-58420000D02*
X44450000Y-50800000D01*
X46990000Y-58420000D02*
X46990000Y-50800000D01*
X47270000Y-61240000D02*
X47270000Y-59690000D01*
X44450000Y-50800000D02*
X46990000Y-50800000D01*
X46990000Y-58420000D02*
X44450000Y-58420000D01*
X44170000Y-59690000D02*
X44170000Y-61240000D01*
X44170000Y-61240000D02*
X47270000Y-61240000D01*
X52375000Y-82625000D02*
X52375000Y-82125000D01*
X55625000Y-79375000D02*
X55625000Y-79875000D01*
X52375000Y-79375000D02*
X52375000Y-79875000D01*
X55625000Y-82625000D02*
X55125000Y-82625000D01*
X55625000Y-79375000D02*
X55125000Y-79375000D01*
X52375000Y-79375000D02*
X52875000Y-79375000D01*
X52375000Y-82625000D02*
X52875000Y-82625000D01*
X87125000Y-50875000D02*
X87125000Y-51220000D01*
X94875000Y-50875000D02*
X94875000Y-51220000D01*
X94875000Y-69125000D02*
X94875000Y-68780000D01*
X87125000Y-69125000D02*
X87125000Y-68780000D01*
X87125000Y-50875000D02*
X94875000Y-50875000D01*
X87125000Y-69125000D02*
X94875000Y-69125000D01*
X87125000Y-51220000D02*
X85300000Y-51220000D01*
X47150000Y-99500000D02*
X47150000Y-100500000D01*
X48850000Y-100500000D02*
X48850000Y-99500000D01*
X51750000Y-76200000D02*
X52750000Y-76200000D01*
X52750000Y-74500000D02*
X51750000Y-74500000D01*
X52500000Y-85150000D02*
X51500000Y-85150000D01*
X51500000Y-86850000D02*
X52500000Y-86850000D01*
X82650000Y-50750000D02*
X82650000Y-51750000D01*
X84350000Y-51750000D02*
X84350000Y-50750000D01*
X84350000Y-69250000D02*
X84350000Y-68250000D01*
X82650000Y-68250000D02*
X82650000Y-69250000D01*
X95750000Y-69900000D02*
X94750000Y-69900000D01*
X94750000Y-71600000D02*
X95750000Y-71600000D01*
X100850000Y-77500000D02*
X100850000Y-76500000D01*
X99150000Y-76500000D02*
X99150000Y-77500000D01*
X104850000Y-77500000D02*
X104850000Y-76500000D01*
X103150000Y-76500000D02*
X103150000Y-77500000D01*
X103850000Y-67500000D02*
X103850000Y-66500000D01*
X102150000Y-66500000D02*
X102150000Y-67500000D01*
X102150000Y-54500000D02*
X102150000Y-55500000D01*
X103850000Y-55500000D02*
X103850000Y-54500000D01*
X40900000Y-45550000D02*
X42800000Y-45550000D01*
X40900000Y-44450000D02*
X42800000Y-44450000D01*
X41800000Y-45000000D02*
X42250000Y-45000000D01*
X41750000Y-44750000D02*
X41750000Y-45250000D01*
X41750000Y-45000000D02*
X42000000Y-44750000D01*
X42000000Y-44750000D02*
X42000000Y-45250000D01*
X42000000Y-45250000D02*
X41750000Y-45000000D01*
X97450000Y-109900000D02*
X97450000Y-111800000D01*
X98550000Y-109900000D02*
X98550000Y-111800000D01*
X98000000Y-110800000D02*
X98000000Y-111250000D01*
X98250000Y-110750000D02*
X97750000Y-110750000D01*
X98000000Y-110750000D02*
X98250000Y-111000000D01*
X98250000Y-111000000D02*
X97750000Y-111000000D01*
X97750000Y-111000000D02*
X98000000Y-110750000D01*
X94450000Y-109900000D02*
X94450000Y-111800000D01*
X95550000Y-109900000D02*
X95550000Y-111800000D01*
X95000000Y-110800000D02*
X95000000Y-111250000D01*
X95250000Y-110750000D02*
X94750000Y-110750000D01*
X95000000Y-110750000D02*
X95250000Y-111000000D01*
X95250000Y-111000000D02*
X94750000Y-111000000D01*
X94750000Y-111000000D02*
X95000000Y-110750000D01*
X92500000Y-83550000D02*
X92500000Y-75930000D01*
X89960000Y-83550000D02*
X89960000Y-75930000D01*
X89680000Y-86370000D02*
X89680000Y-84820000D01*
X92500000Y-75930000D02*
X89960000Y-75930000D01*
X89960000Y-83550000D02*
X92500000Y-83550000D01*
X92780000Y-84820000D02*
X92780000Y-86370000D01*
X92780000Y-86370000D02*
X89680000Y-86370000D01*
X89960000Y-83550000D02*
X89960000Y-75930000D01*
X87420000Y-83550000D02*
X87420000Y-75930000D01*
X87140000Y-86370000D02*
X87140000Y-84820000D01*
X89960000Y-75930000D02*
X87420000Y-75930000D01*
X87420000Y-83550000D02*
X89960000Y-83550000D01*
X90240000Y-84820000D02*
X90240000Y-86370000D01*
X90240000Y-86370000D02*
X87140000Y-86370000D01*
X45900000Y-127125000D02*
X47100000Y-127125000D01*
X47100000Y-128875000D02*
X45900000Y-128875000D01*
X101875000Y-169400000D02*
X101875000Y-170600000D01*
X100125000Y-170600000D02*
X100125000Y-169400000D01*
X83900000Y-156875000D02*
X85100000Y-156875000D01*
X85100000Y-158625000D02*
X83900000Y-158625000D01*
X100125000Y-152600000D02*
X100125000Y-151400000D01*
X101875000Y-151400000D02*
X101875000Y-152600000D01*
X100125000Y-164600000D02*
X100125000Y-163400000D01*
X101875000Y-163400000D02*
X101875000Y-164600000D01*
X53100000Y-128875000D02*
X51900000Y-128875000D01*
X51900000Y-127125000D02*
X53100000Y-127125000D01*
X101875000Y-157400000D02*
X101875000Y-158600000D01*
X100125000Y-158600000D02*
X100125000Y-157400000D01*
X101875000Y-145400000D02*
X101875000Y-146600000D01*
X100125000Y-146600000D02*
X100125000Y-145400000D01*
X44600000Y-123875000D02*
X43400000Y-123875000D01*
X43400000Y-122125000D02*
X44600000Y-122125000D01*
X50600000Y-123875000D02*
X49400000Y-123875000D01*
X49400000Y-122125000D02*
X50600000Y-122125000D01*
X53600000Y-102875000D02*
X52400000Y-102875000D01*
X52400000Y-101125000D02*
X53600000Y-101125000D01*
X52400000Y-104125000D02*
X53600000Y-104125000D01*
X53600000Y-105875000D02*
X52400000Y-105875000D01*
X43400000Y-104125000D02*
X44600000Y-104125000D01*
X44600000Y-105875000D02*
X43400000Y-105875000D01*
X102600000Y-73375000D02*
X101400000Y-73375000D01*
X101400000Y-71625000D02*
X102600000Y-71625000D01*
X102125000Y-61600000D02*
X102125000Y-60400000D01*
X103875000Y-60400000D02*
X103875000Y-61600000D01*
X90400000Y-110125000D02*
X91600000Y-110125000D01*
X91600000Y-111875000D02*
X90400000Y-111875000D01*
X102600000Y-111875000D02*
X101400000Y-111875000D01*
X101400000Y-110125000D02*
X102600000Y-110125000D01*
X110499360Y-66849620D02*
X110499360Y-55150380D01*
X105500640Y-55150380D02*
X105500640Y-66849620D01*
X110499360Y-55150380D02*
X109651000Y-55150380D01*
X105500640Y-55150380D02*
X106349000Y-55150380D01*
X110499360Y-66849620D02*
X109651000Y-66849620D01*
X105500640Y-66849620D02*
X106349000Y-66849620D01*
X43500000Y-147250000D02*
X42500000Y-147250000D01*
X42500000Y-148950000D02*
X43500000Y-148950000D01*
X49425000Y-141501000D02*
X49425000Y-146499000D01*
X49565000Y-141509000D02*
X49565000Y-146491000D01*
X49705000Y-141525000D02*
X49705000Y-143905000D01*
X49705000Y-144095000D02*
X49705000Y-146475000D01*
X49845000Y-141549000D02*
X49845000Y-143510000D01*
X49845000Y-144490000D02*
X49845000Y-146451000D01*
X49985000Y-141582000D02*
X49985000Y-143343000D01*
X49985000Y-144657000D02*
X49985000Y-146418000D01*
X50125000Y-141623000D02*
X50125000Y-143236000D01*
X50125000Y-144764000D02*
X50125000Y-146377000D01*
X50265000Y-141673000D02*
X50265000Y-143165000D01*
X50265000Y-144835000D02*
X50265000Y-146327000D01*
X50405000Y-141734000D02*
X50405000Y-143121000D01*
X50405000Y-144879000D02*
X50405000Y-146266000D01*
X50545000Y-141804000D02*
X50545000Y-143102000D01*
X50545000Y-144898000D02*
X50545000Y-146196000D01*
X50685000Y-141886000D02*
X50685000Y-143104000D01*
X50685000Y-144896000D02*
X50685000Y-146114000D01*
X50825000Y-141981000D02*
X50825000Y-143129000D01*
X50825000Y-144871000D02*
X50825000Y-146019000D01*
X50965000Y-142092000D02*
X50965000Y-143177000D01*
X50965000Y-144823000D02*
X50965000Y-145908000D01*
X51105000Y-142220000D02*
X51105000Y-143255000D01*
X51105000Y-144745000D02*
X51105000Y-145780000D01*
X51245000Y-142369000D02*
X51245000Y-143372000D01*
X51245000Y-144628000D02*
X51245000Y-145631000D01*
X51385000Y-142548000D02*
X51385000Y-143560000D01*
X51385000Y-144440000D02*
X51385000Y-145452000D01*
X51525000Y-142767000D02*
X51525000Y-145233000D01*
X51665000Y-143056000D02*
X51665000Y-144944000D01*
X51805000Y-143528000D02*
X51805000Y-144472000D01*
X51500000Y-144000000D02*
G75*
G03X51500000Y-144000000I-900000J0D01*
G01*
X51887500Y-144000000D02*
G75*
G03X51887500Y-144000000I-2537500J0D01*
G01*
X72825000Y-74501000D02*
X72825000Y-79499000D01*
X72965000Y-74509000D02*
X72965000Y-79491000D01*
X73105000Y-74525000D02*
X73105000Y-76905000D01*
X73105000Y-77095000D02*
X73105000Y-79475000D01*
X73245000Y-74549000D02*
X73245000Y-76510000D01*
X73245000Y-77490000D02*
X73245000Y-79451000D01*
X73385000Y-74582000D02*
X73385000Y-76343000D01*
X73385000Y-77657000D02*
X73385000Y-79418000D01*
X73525000Y-74623000D02*
X73525000Y-76236000D01*
X73525000Y-77764000D02*
X73525000Y-79377000D01*
X73665000Y-74673000D02*
X73665000Y-76165000D01*
X73665000Y-77835000D02*
X73665000Y-79327000D01*
X73805000Y-74734000D02*
X73805000Y-76121000D01*
X73805000Y-77879000D02*
X73805000Y-79266000D01*
X73945000Y-74804000D02*
X73945000Y-76102000D01*
X73945000Y-77898000D02*
X73945000Y-79196000D01*
X74085000Y-74886000D02*
X74085000Y-76104000D01*
X74085000Y-77896000D02*
X74085000Y-79114000D01*
X74225000Y-74981000D02*
X74225000Y-76129000D01*
X74225000Y-77871000D02*
X74225000Y-79019000D01*
X74365000Y-75092000D02*
X74365000Y-76177000D01*
X74365000Y-77823000D02*
X74365000Y-78908000D01*
X74505000Y-75220000D02*
X74505000Y-76255000D01*
X74505000Y-77745000D02*
X74505000Y-78780000D01*
X74645000Y-75369000D02*
X74645000Y-76372000D01*
X74645000Y-77628000D02*
X74645000Y-78631000D01*
X74785000Y-75548000D02*
X74785000Y-76560000D01*
X74785000Y-77440000D02*
X74785000Y-78452000D01*
X74925000Y-75767000D02*
X74925000Y-78233000D01*
X75065000Y-76056000D02*
X75065000Y-77944000D01*
X75205000Y-76528000D02*
X75205000Y-77472000D01*
X74900000Y-77000000D02*
G75*
G03X74900000Y-77000000I-900000J0D01*
G01*
X75287500Y-77000000D02*
G75*
G03X75287500Y-77000000I-2537500J0D01*
G01*
X77001000Y-59175000D02*
X81999000Y-59175000D01*
X77009000Y-59035000D02*
X81991000Y-59035000D01*
X77025000Y-58895000D02*
X79405000Y-58895000D01*
X79595000Y-58895000D02*
X81975000Y-58895000D01*
X77049000Y-58755000D02*
X79010000Y-58755000D01*
X79990000Y-58755000D02*
X81951000Y-58755000D01*
X77082000Y-58615000D02*
X78843000Y-58615000D01*
X80157000Y-58615000D02*
X81918000Y-58615000D01*
X77123000Y-58475000D02*
X78736000Y-58475000D01*
X80264000Y-58475000D02*
X81877000Y-58475000D01*
X77173000Y-58335000D02*
X78665000Y-58335000D01*
X80335000Y-58335000D02*
X81827000Y-58335000D01*
X77234000Y-58195000D02*
X78621000Y-58195000D01*
X80379000Y-58195000D02*
X81766000Y-58195000D01*
X77304000Y-58055000D02*
X78602000Y-58055000D01*
X80398000Y-58055000D02*
X81696000Y-58055000D01*
X77386000Y-57915000D02*
X78604000Y-57915000D01*
X80396000Y-57915000D02*
X81614000Y-57915000D01*
X77481000Y-57775000D02*
X78629000Y-57775000D01*
X80371000Y-57775000D02*
X81519000Y-57775000D01*
X77592000Y-57635000D02*
X78677000Y-57635000D01*
X80323000Y-57635000D02*
X81408000Y-57635000D01*
X77720000Y-57495000D02*
X78755000Y-57495000D01*
X80245000Y-57495000D02*
X81280000Y-57495000D01*
X77869000Y-57355000D02*
X78872000Y-57355000D01*
X80128000Y-57355000D02*
X81131000Y-57355000D01*
X78048000Y-57215000D02*
X79060000Y-57215000D01*
X79940000Y-57215000D02*
X80952000Y-57215000D01*
X78267000Y-57075000D02*
X80733000Y-57075000D01*
X78556000Y-56935000D02*
X80444000Y-56935000D01*
X79028000Y-56795000D02*
X79972000Y-56795000D01*
X80400000Y-58000000D02*
G75*
G03X80400000Y-58000000I-900000J0D01*
G01*
X82037500Y-59250000D02*
G75*
G03X82037500Y-59250000I-2537500J0D01*
G01*
X47499000Y-100325000D02*
X42501000Y-100325000D01*
X47491000Y-100465000D02*
X42509000Y-100465000D01*
X47475000Y-100605000D02*
X45095000Y-100605000D01*
X44905000Y-100605000D02*
X42525000Y-100605000D01*
X47451000Y-100745000D02*
X45490000Y-100745000D01*
X44510000Y-100745000D02*
X42549000Y-100745000D01*
X47418000Y-100885000D02*
X45657000Y-100885000D01*
X44343000Y-100885000D02*
X42582000Y-100885000D01*
X47377000Y-101025000D02*
X45764000Y-101025000D01*
X44236000Y-101025000D02*
X42623000Y-101025000D01*
X47327000Y-101165000D02*
X45835000Y-101165000D01*
X44165000Y-101165000D02*
X42673000Y-101165000D01*
X47266000Y-101305000D02*
X45879000Y-101305000D01*
X44121000Y-101305000D02*
X42734000Y-101305000D01*
X47196000Y-101445000D02*
X45898000Y-101445000D01*
X44102000Y-101445000D02*
X42804000Y-101445000D01*
X47114000Y-101585000D02*
X45896000Y-101585000D01*
X44104000Y-101585000D02*
X42886000Y-101585000D01*
X47019000Y-101725000D02*
X45871000Y-101725000D01*
X44129000Y-101725000D02*
X42981000Y-101725000D01*
X46908000Y-101865000D02*
X45823000Y-101865000D01*
X44177000Y-101865000D02*
X43092000Y-101865000D01*
X46780000Y-102005000D02*
X45745000Y-102005000D01*
X44255000Y-102005000D02*
X43220000Y-102005000D01*
X46631000Y-102145000D02*
X45628000Y-102145000D01*
X44372000Y-102145000D02*
X43369000Y-102145000D01*
X46452000Y-102285000D02*
X45440000Y-102285000D01*
X44560000Y-102285000D02*
X43548000Y-102285000D01*
X46233000Y-102425000D02*
X43767000Y-102425000D01*
X45944000Y-102565000D02*
X44056000Y-102565000D01*
X45472000Y-102705000D02*
X44528000Y-102705000D01*
X45900000Y-101500000D02*
G75*
G03X45900000Y-101500000I-900000J0D01*
G01*
X47537500Y-100250000D02*
G75*
G03X47537500Y-100250000I-2537500J0D01*
G01*
X49150000Y-150650000D02*
G75*
G03X49150000Y-150650000I-100000J0D01*
G01*
X49600000Y-150900000D02*
X49100000Y-150900000D01*
X49600000Y-153800000D02*
X49600000Y-150900000D01*
X49100000Y-153800000D02*
X49600000Y-153800000D01*
X49100000Y-150900000D02*
X49100000Y-153800000D01*
X52350000Y-52750000D02*
X53900000Y-52750000D01*
X57710000Y-52470000D02*
X55170000Y-52470000D01*
X55170000Y-52470000D02*
X55170000Y-49930000D01*
X53900000Y-49650000D02*
X52350000Y-49650000D01*
X52350000Y-49650000D02*
X52350000Y-52750000D01*
X55170000Y-49930000D02*
X57710000Y-49930000D01*
X57710000Y-49930000D02*
X57710000Y-52470000D01*
X104540000Y-85800000D02*
G75*
G03X104540000Y-85800000I-2540000J0D01*
G01*
X98190000Y-89610000D02*
X98190000Y-81990000D01*
X98190000Y-81990000D02*
X105810000Y-81990000D01*
X105810000Y-81990000D02*
X105810000Y-89610000D01*
X98190000Y-89610000D02*
X105810000Y-89610000D01*
X47270000Y-84100000D02*
X47270000Y-82550000D01*
X46990000Y-78740000D02*
X46990000Y-81280000D01*
X46990000Y-81280000D02*
X44450000Y-81280000D01*
X44170000Y-82550000D02*
X44170000Y-84100000D01*
X44170000Y-84100000D02*
X47270000Y-84100000D01*
X44450000Y-81280000D02*
X44450000Y-78740000D01*
X44450000Y-78740000D02*
X46990000Y-78740000D01*
X44450000Y-64770000D02*
X44450000Y-77470000D01*
X44450000Y-77470000D02*
X46990000Y-77470000D01*
X46990000Y-77470000D02*
X46990000Y-64770000D01*
X44170000Y-61950000D02*
X44170000Y-63500000D01*
X44450000Y-64770000D02*
X46990000Y-64770000D01*
X47270000Y-63500000D02*
X47270000Y-61950000D01*
X47270000Y-61950000D02*
X44170000Y-61950000D01*
X84650000Y-96500000D02*
X84650000Y-97500000D01*
X86350000Y-97500000D02*
X86350000Y-96500000D01*
X42850000Y-75500000D02*
X42850000Y-74500000D01*
X41150000Y-74500000D02*
X41150000Y-75500000D01*
X40640000Y-50800000D02*
X43180000Y-50800000D01*
X37820000Y-50520000D02*
X39370000Y-50520000D01*
X40640000Y-50800000D02*
X40640000Y-53340000D01*
X39370000Y-53620000D02*
X37820000Y-53620000D01*
X37820000Y-53620000D02*
X37820000Y-50520000D01*
X40640000Y-53340000D02*
X43180000Y-53340000D01*
X43180000Y-53340000D02*
X43180000Y-50800000D01*
X55070000Y-147330000D02*
X57610000Y-147330000D01*
X52250000Y-147050000D02*
X53800000Y-147050000D01*
X55070000Y-147330000D02*
X55070000Y-149870000D01*
X53800000Y-150150000D02*
X52250000Y-150150000D01*
X52250000Y-150150000D02*
X52250000Y-147050000D01*
X55070000Y-149870000D02*
X57610000Y-149870000D01*
X57610000Y-149870000D02*
X57610000Y-147330000D01*
X56270000Y-158570000D02*
X56270000Y-161110000D01*
X56550000Y-155750000D02*
X56550000Y-157300000D01*
X56270000Y-158570000D02*
X53730000Y-158570000D01*
X53450000Y-157300000D02*
X53450000Y-155750000D01*
X53450000Y-155750000D02*
X56550000Y-155750000D01*
X53730000Y-158570000D02*
X53730000Y-161110000D01*
X53730000Y-161110000D02*
X56270000Y-161110000D01*
X101940000Y-42079000D02*
X101940000Y-92117000D01*
X101940000Y-92117000D02*
X47076000Y-92117000D01*
X47076000Y-42079000D02*
X47076000Y-92117000D01*
X101940000Y-47857500D02*
X74000000Y-47857500D01*
X101940000Y-42079000D02*
X47076000Y-42079000D01*
X47076000Y-42079000D02*
X47076000Y-47857500D01*
X47076000Y-47857500D02*
X51775000Y-47857500D01*
X101940000Y-47857500D02*
X101940000Y-42079000D01*
X74000000Y-47857500D02*
X51775000Y-47857500D01*
X103800000Y-45000000D02*
X103800000Y-41800000D01*
X103800000Y-41800000D02*
X110200000Y-41800000D01*
X110200000Y-41800000D02*
X110200000Y-48200000D01*
X110200000Y-48200000D02*
X103800000Y-48200000D01*
X103800000Y-48200000D02*
X103800000Y-45000000D01*
X106300000Y-77200000D02*
X106500000Y-77200000D01*
X106300000Y-77200000D02*
X106300000Y-72800000D01*
X106300000Y-72800000D02*
X110700000Y-72800000D01*
X110700000Y-72800000D02*
X110700000Y-77200000D01*
X110700000Y-77200000D02*
X106500000Y-77200000D01*
X38252381Y-169652381D02*
X38252381Y-168652381D01*
X38252381Y-169128571D02*
X38823810Y-169128571D01*
X38823810Y-169652381D02*
X38823810Y-168652381D01*
X39442857Y-168652381D02*
X39442857Y-168890476D01*
X39204762Y-168795238D02*
X39442857Y-168890476D01*
X39680953Y-168795238D01*
X39300000Y-169080952D02*
X39442857Y-168890476D01*
X39585715Y-169080952D01*
X40204762Y-168652381D02*
X40204762Y-168890476D01*
X39966667Y-168795238D02*
X40204762Y-168890476D01*
X40442858Y-168795238D01*
X40061905Y-169080952D02*
X40204762Y-168890476D01*
X40347620Y-169080952D01*
X80461905Y-142552381D02*
X80461905Y-143361905D01*
X80509524Y-143457143D01*
X80557143Y-143504762D01*
X80652381Y-143552381D01*
X80842858Y-143552381D01*
X80938096Y-143504762D01*
X80985715Y-143457143D01*
X81033334Y-143361905D01*
X81033334Y-142552381D01*
X82033334Y-143552381D02*
X81461905Y-143552381D01*
X81747619Y-143552381D02*
X81747619Y-142552381D01*
X81652381Y-142695238D01*
X81557143Y-142790476D01*
X81461905Y-142838095D01*
X82652381Y-142552381D02*
X82747620Y-142552381D01*
X82842858Y-142600000D01*
X82890477Y-142647619D01*
X82938096Y-142742857D01*
X82985715Y-142933333D01*
X82985715Y-143171429D01*
X82938096Y-143361905D01*
X82890477Y-143457143D01*
X82842858Y-143504762D01*
X82747620Y-143552381D01*
X82652381Y-143552381D01*
X82557143Y-143504762D01*
X82509524Y-143457143D01*
X82461905Y-143361905D01*
X82414286Y-143171429D01*
X82414286Y-142933333D01*
X82461905Y-142742857D01*
X82509524Y-142647619D01*
X82557143Y-142600000D01*
X82652381Y-142552381D01*
X85261905Y-87652381D02*
X85261905Y-86652381D01*
X85642858Y-86652381D01*
X85738096Y-86700000D01*
X85785715Y-86747619D01*
X85833334Y-86842857D01*
X85833334Y-86985714D01*
X85785715Y-87080952D01*
X85738096Y-87128571D01*
X85642858Y-87176190D01*
X85261905Y-87176190D01*
X86690477Y-86985714D02*
X86690477Y-87652381D01*
X86452381Y-86604762D02*
X86214286Y-87319048D01*
X86833334Y-87319048D01*
X59114286Y-91028571D02*
X59257143Y-91076190D01*
X59304762Y-91123810D01*
X59352381Y-91219048D01*
X59352381Y-91361905D01*
X59304762Y-91457143D01*
X59257143Y-91504762D01*
X59161905Y-91552381D01*
X58780952Y-91552381D01*
X58780952Y-90552381D01*
X59114286Y-90552381D01*
X59209524Y-90600000D01*
X59257143Y-90647619D01*
X59304762Y-90742857D01*
X59304762Y-90838095D01*
X59257143Y-90933333D01*
X59209524Y-90980952D01*
X59114286Y-91028571D01*
X58780952Y-91028571D01*
X59638095Y-90552381D02*
X60209524Y-90552381D01*
X59923809Y-91552381D02*
X59923809Y-90552381D01*
X61066667Y-91552381D02*
X60495238Y-91552381D01*
X60780952Y-91552381D02*
X60780952Y-90552381D01*
X60685714Y-90695238D01*
X60590476Y-90790476D01*
X60495238Y-90838095D01*
X82038095Y-111352381D02*
X82038095Y-112161905D01*
X82085714Y-112257143D01*
X82133333Y-112304762D01*
X82228571Y-112352381D01*
X82419048Y-112352381D01*
X82514286Y-112304762D01*
X82561905Y-112257143D01*
X82609524Y-112161905D01*
X82609524Y-111352381D01*
X83133333Y-112352381D02*
X83323809Y-112352381D01*
X83419048Y-112304762D01*
X83466667Y-112257143D01*
X83561905Y-112114286D01*
X83609524Y-111923810D01*
X83609524Y-111542857D01*
X83561905Y-111447619D01*
X83514286Y-111400000D01*
X83419048Y-111352381D01*
X83228571Y-111352381D01*
X83133333Y-111400000D01*
X83085714Y-111447619D01*
X83038095Y-111542857D01*
X83038095Y-111780952D01*
X83085714Y-111876190D01*
X83133333Y-111923810D01*
X83228571Y-111971429D01*
X83419048Y-111971429D01*
X83514286Y-111923810D01*
X83561905Y-111876190D01*
X83609524Y-111780952D01*
X48933334Y-154657143D02*
X48885715Y-154704762D01*
X48742858Y-154752381D01*
X48647620Y-154752381D01*
X48504762Y-154704762D01*
X48409524Y-154609524D01*
X48361905Y-154514286D01*
X48314286Y-154323810D01*
X48314286Y-154180952D01*
X48361905Y-153990476D01*
X48409524Y-153895238D01*
X48504762Y-153800000D01*
X48647620Y-153752381D01*
X48742858Y-153752381D01*
X48885715Y-153800000D01*
X48933334Y-153847619D01*
X49885715Y-154752381D02*
X49314286Y-154752381D01*
X49600000Y-154752381D02*
X49600000Y-153752381D01*
X49504762Y-153895238D01*
X49409524Y-153990476D01*
X49314286Y-154038095D01*
X42085715Y-106857143D02*
X42038096Y-106904762D01*
X41895239Y-106952381D01*
X41800001Y-106952381D01*
X41657143Y-106904762D01*
X41561905Y-106809524D01*
X41514286Y-106714286D01*
X41466667Y-106523810D01*
X41466667Y-106380952D01*
X41514286Y-106190476D01*
X41561905Y-106095238D01*
X41657143Y-106000000D01*
X41800001Y-105952381D01*
X41895239Y-105952381D01*
X42038096Y-106000000D01*
X42085715Y-106047619D01*
X42704762Y-105952381D02*
X42895239Y-105952381D01*
X42990477Y-106000000D01*
X43085715Y-106095238D01*
X43133334Y-106285714D01*
X43133334Y-106619048D01*
X43085715Y-106809524D01*
X42990477Y-106904762D01*
X42895239Y-106952381D01*
X42704762Y-106952381D01*
X42609524Y-106904762D01*
X42514286Y-106809524D01*
X42466667Y-106619048D01*
X42466667Y-106285714D01*
X42514286Y-106095238D01*
X42609524Y-106000000D01*
X42704762Y-105952381D01*
X43561905Y-106952381D02*
X43561905Y-105952381D01*
X44133334Y-106952381D01*
X44133334Y-105952381D01*
X45133334Y-106952381D02*
X44561905Y-106952381D01*
X44847619Y-106952381D02*
X44847619Y-105952381D01*
X44752381Y-106095238D01*
X44657143Y-106190476D01*
X44561905Y-106238095D01*
X87961905Y-91552381D02*
X87961905Y-92361905D01*
X88009524Y-92457143D01*
X88057143Y-92504762D01*
X88152381Y-92552381D01*
X88342858Y-92552381D01*
X88438096Y-92504762D01*
X88485715Y-92457143D01*
X88533334Y-92361905D01*
X88533334Y-91552381D01*
X89533334Y-92552381D02*
X88961905Y-92552381D01*
X89247619Y-92552381D02*
X89247619Y-91552381D01*
X89152381Y-91695238D01*
X89057143Y-91790476D01*
X88961905Y-91838095D01*
X90485715Y-92552381D02*
X89914286Y-92552381D01*
X90200000Y-92552381D02*
X90200000Y-91552381D01*
X90104762Y-91695238D01*
X90009524Y-91790476D01*
X89914286Y-91838095D01*
X48833334Y-162757143D02*
X48785715Y-162804762D01*
X48642858Y-162852381D01*
X48547620Y-162852381D01*
X48404762Y-162804762D01*
X48309524Y-162709524D01*
X48261905Y-162614286D01*
X48214286Y-162423810D01*
X48214286Y-162280952D01*
X48261905Y-162090476D01*
X48309524Y-161995238D01*
X48404762Y-161900000D01*
X48547620Y-161852381D01*
X48642858Y-161852381D01*
X48785715Y-161900000D01*
X48833334Y-161947619D01*
X49166667Y-161852381D02*
X49785715Y-161852381D01*
X49452381Y-162233333D01*
X49595239Y-162233333D01*
X49690477Y-162280952D01*
X49738096Y-162328571D01*
X49785715Y-162423810D01*
X49785715Y-162661905D01*
X49738096Y-162757143D01*
X49690477Y-162804762D01*
X49595239Y-162852381D01*
X49309524Y-162852381D01*
X49214286Y-162804762D01*
X49166667Y-162757143D01*
X56383334Y-59307143D02*
X56335715Y-59354762D01*
X56192858Y-59402381D01*
X56097620Y-59402381D01*
X55954762Y-59354762D01*
X55859524Y-59259524D01*
X55811905Y-59164286D01*
X55764286Y-58973810D01*
X55764286Y-58830952D01*
X55811905Y-58640476D01*
X55859524Y-58545238D01*
X55954762Y-58450000D01*
X56097620Y-58402381D01*
X56192858Y-58402381D01*
X56335715Y-58450000D01*
X56383334Y-58497619D01*
X57240477Y-58735714D02*
X57240477Y-59402381D01*
X57002381Y-58354762D02*
X56764286Y-59069048D01*
X57383334Y-59069048D01*
X56333334Y-64557143D02*
X56285715Y-64604762D01*
X56142858Y-64652381D01*
X56047620Y-64652381D01*
X55904762Y-64604762D01*
X55809524Y-64509524D01*
X55761905Y-64414286D01*
X55714286Y-64223810D01*
X55714286Y-64080952D01*
X55761905Y-63890476D01*
X55809524Y-63795238D01*
X55904762Y-63700000D01*
X56047620Y-63652381D01*
X56142858Y-63652381D01*
X56285715Y-63700000D01*
X56333334Y-63747619D01*
X57190477Y-63652381D02*
X57000000Y-63652381D01*
X56904762Y-63700000D01*
X56857143Y-63747619D01*
X56761905Y-63890476D01*
X56714286Y-64080952D01*
X56714286Y-64461905D01*
X56761905Y-64557143D01*
X56809524Y-64604762D01*
X56904762Y-64652381D01*
X57095239Y-64652381D01*
X57190477Y-64604762D01*
X57238096Y-64557143D01*
X57285715Y-64461905D01*
X57285715Y-64223810D01*
X57238096Y-64128571D01*
X57190477Y-64080952D01*
X57095239Y-64033333D01*
X56904762Y-64033333D01*
X56809524Y-64080952D01*
X56761905Y-64128571D01*
X56714286Y-64223810D01*
X38833334Y-144357143D02*
X38785715Y-144404762D01*
X38642858Y-144452381D01*
X38547620Y-144452381D01*
X38404762Y-144404762D01*
X38309524Y-144309524D01*
X38261905Y-144214286D01*
X38214286Y-144023810D01*
X38214286Y-143880952D01*
X38261905Y-143690476D01*
X38309524Y-143595238D01*
X38404762Y-143500000D01*
X38547620Y-143452381D01*
X38642858Y-143452381D01*
X38785715Y-143500000D01*
X38833334Y-143547619D01*
X39166667Y-143452381D02*
X39833334Y-143452381D01*
X39404762Y-144452381D01*
X56733334Y-167457143D02*
X56685715Y-167504762D01*
X56542858Y-167552381D01*
X56447620Y-167552381D01*
X56304762Y-167504762D01*
X56209524Y-167409524D01*
X56161905Y-167314286D01*
X56114286Y-167123810D01*
X56114286Y-166980952D01*
X56161905Y-166790476D01*
X56209524Y-166695238D01*
X56304762Y-166600000D01*
X56447620Y-166552381D01*
X56542858Y-166552381D01*
X56685715Y-166600000D01*
X56733334Y-166647619D01*
X57304762Y-166980952D02*
X57209524Y-166933333D01*
X57161905Y-166885714D01*
X57114286Y-166790476D01*
X57114286Y-166742857D01*
X57161905Y-166647619D01*
X57209524Y-166600000D01*
X57304762Y-166552381D01*
X57495239Y-166552381D01*
X57590477Y-166600000D01*
X57638096Y-166647619D01*
X57685715Y-166742857D01*
X57685715Y-166790476D01*
X57638096Y-166885714D01*
X57590477Y-166933333D01*
X57495239Y-166980952D01*
X57304762Y-166980952D01*
X57209524Y-167028571D01*
X57161905Y-167076190D01*
X57114286Y-167171429D01*
X57114286Y-167361905D01*
X57161905Y-167457143D01*
X57209524Y-167504762D01*
X57304762Y-167552381D01*
X57495239Y-167552381D01*
X57590477Y-167504762D01*
X57638096Y-167457143D01*
X57685715Y-167361905D01*
X57685715Y-167171429D01*
X57638096Y-167076190D01*
X57590477Y-167028571D01*
X57495239Y-166980952D01*
X63057143Y-73557143D02*
X63009524Y-73604762D01*
X62866667Y-73652381D01*
X62771429Y-73652381D01*
X62628571Y-73604762D01*
X62533333Y-73509524D01*
X62485714Y-73414286D01*
X62438095Y-73223810D01*
X62438095Y-73080952D01*
X62485714Y-72890476D01*
X62533333Y-72795238D01*
X62628571Y-72700000D01*
X62771429Y-72652381D01*
X62866667Y-72652381D01*
X63009524Y-72700000D01*
X63057143Y-72747619D01*
X64009524Y-73652381D02*
X63438095Y-73652381D01*
X63723809Y-73652381D02*
X63723809Y-72652381D01*
X63628571Y-72795238D01*
X63533333Y-72890476D01*
X63438095Y-72938095D01*
X64628571Y-72652381D02*
X64723810Y-72652381D01*
X64819048Y-72700000D01*
X64866667Y-72747619D01*
X64914286Y-72842857D01*
X64961905Y-73033333D01*
X64961905Y-73271429D01*
X64914286Y-73461905D01*
X64866667Y-73557143D01*
X64819048Y-73604762D01*
X64723810Y-73652381D01*
X64628571Y-73652381D01*
X64533333Y-73604762D01*
X64485714Y-73557143D01*
X64438095Y-73461905D01*
X64390476Y-73271429D01*
X64390476Y-73033333D01*
X64438095Y-72842857D01*
X64485714Y-72747619D01*
X64533333Y-72700000D01*
X64628571Y-72652381D01*
X62557143Y-50557143D02*
X62509524Y-50604762D01*
X62366667Y-50652381D01*
X62271429Y-50652381D01*
X62128571Y-50604762D01*
X62033333Y-50509524D01*
X61985714Y-50414286D01*
X61938095Y-50223810D01*
X61938095Y-50080952D01*
X61985714Y-49890476D01*
X62033333Y-49795238D01*
X62128571Y-49700000D01*
X62271429Y-49652381D01*
X62366667Y-49652381D01*
X62509524Y-49700000D01*
X62557143Y-49747619D01*
X63509524Y-50652381D02*
X62938095Y-50652381D01*
X63223809Y-50652381D02*
X63223809Y-49652381D01*
X63128571Y-49795238D01*
X63033333Y-49890476D01*
X62938095Y-49938095D01*
X63842857Y-49652381D02*
X64509524Y-49652381D01*
X64080952Y-50652381D01*
X41133334Y-155252381D02*
X40657143Y-155252381D01*
X40657143Y-154252381D01*
X41990477Y-155252381D02*
X41419048Y-155252381D01*
X41704762Y-155252381D02*
X41704762Y-154252381D01*
X41609524Y-154395238D01*
X41514286Y-154490476D01*
X41419048Y-154538095D01*
X48033334Y-147052381D02*
X47557143Y-147052381D01*
X47557143Y-146052381D01*
X48319048Y-146147619D02*
X48366667Y-146100000D01*
X48461905Y-146052381D01*
X48700001Y-146052381D01*
X48795239Y-146100000D01*
X48842858Y-146147619D01*
X48890477Y-146242857D01*
X48890477Y-146338095D01*
X48842858Y-146480952D01*
X48271429Y-147052381D01*
X48890477Y-147052381D01*
X38361905Y-159952381D02*
X38361905Y-158952381D01*
X38742858Y-158952381D01*
X38838096Y-159000000D01*
X38885715Y-159047619D01*
X38933334Y-159142857D01*
X38933334Y-159285714D01*
X38885715Y-159380952D01*
X38838096Y-159428571D01*
X38742858Y-159476190D01*
X38361905Y-159476190D01*
X39885715Y-159952381D02*
X39314286Y-159952381D01*
X39600000Y-159952381D02*
X39600000Y-158952381D01*
X39504762Y-159095238D01*
X39409524Y-159190476D01*
X39314286Y-159238095D01*
X40166667Y-130004762D02*
X40309524Y-130052381D01*
X40547620Y-130052381D01*
X40642858Y-130004762D01*
X40690477Y-129957143D01*
X40738096Y-129861905D01*
X40738096Y-129766667D01*
X40690477Y-129671429D01*
X40642858Y-129623810D01*
X40547620Y-129576190D01*
X40357143Y-129528571D01*
X40261905Y-129480952D01*
X40214286Y-129433333D01*
X40166667Y-129338095D01*
X40166667Y-129242857D01*
X40214286Y-129147619D01*
X40261905Y-129100000D01*
X40357143Y-129052381D01*
X40595239Y-129052381D01*
X40738096Y-129100000D01*
X41071429Y-129052381D02*
X41309524Y-130052381D01*
X41500001Y-129338095D01*
X41690477Y-130052381D01*
X41928572Y-129052381D01*
X42833334Y-130052381D02*
X42261905Y-130052381D01*
X42547619Y-130052381D02*
X42547619Y-129052381D01*
X42452381Y-129195238D01*
X42357143Y-129290476D01*
X42261905Y-129338095D01*
X103166667Y-165004762D02*
X103309524Y-165052381D01*
X103547620Y-165052381D01*
X103642858Y-165004762D01*
X103690477Y-164957143D01*
X103738096Y-164861905D01*
X103738096Y-164766667D01*
X103690477Y-164671429D01*
X103642858Y-164623810D01*
X103547620Y-164576190D01*
X103357143Y-164528571D01*
X103261905Y-164480952D01*
X103214286Y-164433333D01*
X103166667Y-164338095D01*
X103166667Y-164242857D01*
X103214286Y-164147619D01*
X103261905Y-164100000D01*
X103357143Y-164052381D01*
X103595239Y-164052381D01*
X103738096Y-164100000D01*
X104071429Y-164052381D02*
X104309524Y-165052381D01*
X104500001Y-164338095D01*
X104690477Y-165052381D01*
X104928572Y-164052381D01*
X105261905Y-164147619D02*
X105309524Y-164100000D01*
X105404762Y-164052381D01*
X105642858Y-164052381D01*
X105738096Y-164100000D01*
X105785715Y-164147619D01*
X105833334Y-164242857D01*
X105833334Y-164338095D01*
X105785715Y-164480952D01*
X105214286Y-165052381D01*
X105833334Y-165052381D01*
X91166667Y-165004762D02*
X91309524Y-165052381D01*
X91547620Y-165052381D01*
X91642858Y-165004762D01*
X91690477Y-164957143D01*
X91738096Y-164861905D01*
X91738096Y-164766667D01*
X91690477Y-164671429D01*
X91642858Y-164623810D01*
X91547620Y-164576190D01*
X91357143Y-164528571D01*
X91261905Y-164480952D01*
X91214286Y-164433333D01*
X91166667Y-164338095D01*
X91166667Y-164242857D01*
X91214286Y-164147619D01*
X91261905Y-164100000D01*
X91357143Y-164052381D01*
X91595239Y-164052381D01*
X91738096Y-164100000D01*
X92071429Y-164052381D02*
X92309524Y-165052381D01*
X92500001Y-164338095D01*
X92690477Y-165052381D01*
X92928572Y-164052381D01*
X93214286Y-164052381D02*
X93833334Y-164052381D01*
X93500000Y-164433333D01*
X93642858Y-164433333D01*
X93738096Y-164480952D01*
X93785715Y-164528571D01*
X93833334Y-164623810D01*
X93833334Y-164861905D01*
X93785715Y-164957143D01*
X93738096Y-165004762D01*
X93642858Y-165052381D01*
X93357143Y-165052381D01*
X93261905Y-165004762D01*
X93214286Y-164957143D01*
X103166667Y-144004762D02*
X103309524Y-144052381D01*
X103547620Y-144052381D01*
X103642858Y-144004762D01*
X103690477Y-143957143D01*
X103738096Y-143861905D01*
X103738096Y-143766667D01*
X103690477Y-143671429D01*
X103642858Y-143623810D01*
X103547620Y-143576190D01*
X103357143Y-143528571D01*
X103261905Y-143480952D01*
X103214286Y-143433333D01*
X103166667Y-143338095D01*
X103166667Y-143242857D01*
X103214286Y-143147619D01*
X103261905Y-143100000D01*
X103357143Y-143052381D01*
X103595239Y-143052381D01*
X103738096Y-143100000D01*
X104071429Y-143052381D02*
X104309524Y-144052381D01*
X104500001Y-143338095D01*
X104690477Y-144052381D01*
X104928572Y-143052381D01*
X105738096Y-143385714D02*
X105738096Y-144052381D01*
X105500000Y-143004762D02*
X105261905Y-143719048D01*
X105880953Y-143719048D01*
X103166667Y-154504762D02*
X103309524Y-154552381D01*
X103547620Y-154552381D01*
X103642858Y-154504762D01*
X103690477Y-154457143D01*
X103738096Y-154361905D01*
X103738096Y-154266667D01*
X103690477Y-154171429D01*
X103642858Y-154123810D01*
X103547620Y-154076190D01*
X103357143Y-154028571D01*
X103261905Y-153980952D01*
X103214286Y-153933333D01*
X103166667Y-153838095D01*
X103166667Y-153742857D01*
X103214286Y-153647619D01*
X103261905Y-153600000D01*
X103357143Y-153552381D01*
X103595239Y-153552381D01*
X103738096Y-153600000D01*
X104071429Y-153552381D02*
X104309524Y-154552381D01*
X104500001Y-153838095D01*
X104690477Y-154552381D01*
X104928572Y-153552381D01*
X105738096Y-153552381D02*
X105547619Y-153552381D01*
X105452381Y-153600000D01*
X105404762Y-153647619D01*
X105309524Y-153790476D01*
X105261905Y-153980952D01*
X105261905Y-154361905D01*
X105309524Y-154457143D01*
X105357143Y-154504762D01*
X105452381Y-154552381D01*
X105642858Y-154552381D01*
X105738096Y-154504762D01*
X105785715Y-154457143D01*
X105833334Y-154361905D01*
X105833334Y-154123810D01*
X105785715Y-154028571D01*
X105738096Y-153980952D01*
X105642858Y-153933333D01*
X105452381Y-153933333D01*
X105357143Y-153980952D01*
X105309524Y-154028571D01*
X105261905Y-154123810D01*
X50166667Y-130004762D02*
X50309524Y-130052381D01*
X50547620Y-130052381D01*
X50642858Y-130004762D01*
X50690477Y-129957143D01*
X50738096Y-129861905D01*
X50738096Y-129766667D01*
X50690477Y-129671429D01*
X50642858Y-129623810D01*
X50547620Y-129576190D01*
X50357143Y-129528571D01*
X50261905Y-129480952D01*
X50214286Y-129433333D01*
X50166667Y-129338095D01*
X50166667Y-129242857D01*
X50214286Y-129147619D01*
X50261905Y-129100000D01*
X50357143Y-129052381D01*
X50595239Y-129052381D01*
X50738096Y-129100000D01*
X51071429Y-129052381D02*
X51309524Y-130052381D01*
X51500001Y-129338095D01*
X51690477Y-130052381D01*
X51928572Y-129052381D01*
X52214286Y-129052381D02*
X52880953Y-129052381D01*
X52452381Y-130052381D01*
X91166667Y-154504762D02*
X91309524Y-154552381D01*
X91547620Y-154552381D01*
X91642858Y-154504762D01*
X91690477Y-154457143D01*
X91738096Y-154361905D01*
X91738096Y-154266667D01*
X91690477Y-154171429D01*
X91642858Y-154123810D01*
X91547620Y-154076190D01*
X91357143Y-154028571D01*
X91261905Y-153980952D01*
X91214286Y-153933333D01*
X91166667Y-153838095D01*
X91166667Y-153742857D01*
X91214286Y-153647619D01*
X91261905Y-153600000D01*
X91357143Y-153552381D01*
X91595239Y-153552381D01*
X91738096Y-153600000D01*
X92071429Y-153552381D02*
X92309524Y-154552381D01*
X92500001Y-153838095D01*
X92690477Y-154552381D01*
X92928572Y-153552381D01*
X93452381Y-153980952D02*
X93357143Y-153933333D01*
X93309524Y-153885714D01*
X93261905Y-153790476D01*
X93261905Y-153742857D01*
X93309524Y-153647619D01*
X93357143Y-153600000D01*
X93452381Y-153552381D01*
X93642858Y-153552381D01*
X93738096Y-153600000D01*
X93785715Y-153647619D01*
X93833334Y-153742857D01*
X93833334Y-153790476D01*
X93785715Y-153885714D01*
X93738096Y-153933333D01*
X93642858Y-153980952D01*
X93452381Y-153980952D01*
X93357143Y-154028571D01*
X93309524Y-154076190D01*
X93261905Y-154171429D01*
X93261905Y-154361905D01*
X93309524Y-154457143D01*
X93357143Y-154504762D01*
X93452381Y-154552381D01*
X93642858Y-154552381D01*
X93738096Y-154504762D01*
X93785715Y-154457143D01*
X93833334Y-154361905D01*
X93833334Y-154171429D01*
X93785715Y-154076190D01*
X93738096Y-154028571D01*
X93642858Y-153980952D01*
X91166667Y-144004762D02*
X91309524Y-144052381D01*
X91547620Y-144052381D01*
X91642858Y-144004762D01*
X91690477Y-143957143D01*
X91738096Y-143861905D01*
X91738096Y-143766667D01*
X91690477Y-143671429D01*
X91642858Y-143623810D01*
X91547620Y-143576190D01*
X91357143Y-143528571D01*
X91261905Y-143480952D01*
X91214286Y-143433333D01*
X91166667Y-143338095D01*
X91166667Y-143242857D01*
X91214286Y-143147619D01*
X91261905Y-143100000D01*
X91357143Y-143052381D01*
X91595239Y-143052381D01*
X91738096Y-143100000D01*
X92071429Y-143052381D02*
X92309524Y-144052381D01*
X92500001Y-143338095D01*
X92690477Y-144052381D01*
X92928572Y-143052381D01*
X93357143Y-144052381D02*
X93547619Y-144052381D01*
X93642858Y-144004762D01*
X93690477Y-143957143D01*
X93785715Y-143814286D01*
X93833334Y-143623810D01*
X93833334Y-143242857D01*
X93785715Y-143147619D01*
X93738096Y-143100000D01*
X93642858Y-143052381D01*
X93452381Y-143052381D01*
X93357143Y-143100000D01*
X93309524Y-143147619D01*
X93261905Y-143242857D01*
X93261905Y-143480952D01*
X93309524Y-143576190D01*
X93357143Y-143623810D01*
X93452381Y-143671429D01*
X93642858Y-143671429D01*
X93738096Y-143623810D01*
X93785715Y-143576190D01*
X93833334Y-143480952D01*
X40638095Y-149252381D02*
X40638095Y-150061905D01*
X40685714Y-150157143D01*
X40733333Y-150204762D01*
X40828571Y-150252381D01*
X41019048Y-150252381D01*
X41114286Y-150204762D01*
X41161905Y-150157143D01*
X41209524Y-150061905D01*
X41209524Y-149252381D01*
X41638095Y-149347619D02*
X41685714Y-149300000D01*
X41780952Y-149252381D01*
X42019048Y-149252381D01*
X42114286Y-149300000D01*
X42161905Y-149347619D01*
X42209524Y-149442857D01*
X42209524Y-149538095D01*
X42161905Y-149680952D01*
X41590476Y-150252381D01*
X42209524Y-150252381D01*
X50238095Y-167452381D02*
X50238095Y-168261905D01*
X50285714Y-168357143D01*
X50333333Y-168404762D01*
X50428571Y-168452381D01*
X50619048Y-168452381D01*
X50714286Y-168404762D01*
X50761905Y-168357143D01*
X50809524Y-168261905D01*
X50809524Y-167452381D01*
X51190476Y-167452381D02*
X51809524Y-167452381D01*
X51476190Y-167833333D01*
X51619048Y-167833333D01*
X51714286Y-167880952D01*
X51761905Y-167928571D01*
X51809524Y-168023810D01*
X51809524Y-168261905D01*
X51761905Y-168357143D01*
X51714286Y-168404762D01*
X51619048Y-168452381D01*
X51333333Y-168452381D01*
X51238095Y-168404762D01*
X51190476Y-168357143D01*
X61638095Y-57452381D02*
X61638095Y-58261905D01*
X61685714Y-58357143D01*
X61733333Y-58404762D01*
X61828571Y-58452381D01*
X62019048Y-58452381D01*
X62114286Y-58404762D01*
X62161905Y-58357143D01*
X62209524Y-58261905D01*
X62209524Y-57452381D01*
X63114286Y-57785714D02*
X63114286Y-58452381D01*
X62876190Y-57404762D02*
X62638095Y-58119048D01*
X63257143Y-58119048D01*
X44438095Y-49652381D02*
X44438095Y-50461905D01*
X44485714Y-50557143D01*
X44533333Y-50604762D01*
X44628571Y-50652381D01*
X44819048Y-50652381D01*
X44914286Y-50604762D01*
X44961905Y-50557143D01*
X45009524Y-50461905D01*
X45009524Y-49652381D01*
X45961905Y-49652381D02*
X45485714Y-49652381D01*
X45438095Y-50128571D01*
X45485714Y-50080952D01*
X45580952Y-50033333D01*
X45819048Y-50033333D01*
X45914286Y-50080952D01*
X45961905Y-50128571D01*
X46009524Y-50223810D01*
X46009524Y-50461905D01*
X45961905Y-50557143D01*
X45914286Y-50604762D01*
X45819048Y-50652381D01*
X45580952Y-50652381D01*
X45485714Y-50604762D01*
X45438095Y-50557143D01*
X51938095Y-77752381D02*
X51938095Y-78561905D01*
X51985714Y-78657143D01*
X52033333Y-78704762D01*
X52128571Y-78752381D01*
X52319048Y-78752381D01*
X52414286Y-78704762D01*
X52461905Y-78657143D01*
X52509524Y-78561905D01*
X52509524Y-77752381D01*
X53128571Y-78180952D02*
X53033333Y-78133333D01*
X52985714Y-78085714D01*
X52938095Y-77990476D01*
X52938095Y-77942857D01*
X52985714Y-77847619D01*
X53033333Y-77800000D01*
X53128571Y-77752381D01*
X53319048Y-77752381D01*
X53414286Y-77800000D01*
X53461905Y-77847619D01*
X53509524Y-77942857D01*
X53509524Y-77990476D01*
X53461905Y-78085714D01*
X53414286Y-78133333D01*
X53319048Y-78180952D01*
X53128571Y-78180952D01*
X53033333Y-78228571D01*
X52985714Y-78276190D01*
X52938095Y-78371429D01*
X52938095Y-78561905D01*
X52985714Y-78657143D01*
X53033333Y-78704762D01*
X53128571Y-78752381D01*
X53319048Y-78752381D01*
X53414286Y-78704762D01*
X53461905Y-78657143D01*
X53509524Y-78561905D01*
X53509524Y-78371429D01*
X53461905Y-78276190D01*
X53414286Y-78228571D01*
X53319048Y-78180952D01*
X85061905Y-49652381D02*
X85061905Y-50461905D01*
X85109524Y-50557143D01*
X85157143Y-50604762D01*
X85252381Y-50652381D01*
X85442858Y-50652381D01*
X85538096Y-50604762D01*
X85585715Y-50557143D01*
X85633334Y-50461905D01*
X85633334Y-49652381D01*
X86633334Y-50652381D02*
X86061905Y-50652381D01*
X86347619Y-50652381D02*
X86347619Y-49652381D01*
X86252381Y-49795238D01*
X86157143Y-49890476D01*
X86061905Y-49938095D01*
X87014286Y-49747619D02*
X87061905Y-49700000D01*
X87157143Y-49652381D01*
X87395239Y-49652381D01*
X87490477Y-49700000D01*
X87538096Y-49747619D01*
X87585715Y-49842857D01*
X87585715Y-49938095D01*
X87538096Y-50080952D01*
X86966667Y-50652381D01*
X87585715Y-50652381D01*
X44357143Y-97557143D02*
X44309524Y-97604762D01*
X44166667Y-97652381D01*
X44071429Y-97652381D01*
X43928571Y-97604762D01*
X43833333Y-97509524D01*
X43785714Y-97414286D01*
X43738095Y-97223810D01*
X43738095Y-97080952D01*
X43785714Y-96890476D01*
X43833333Y-96795238D01*
X43928571Y-96700000D01*
X44071429Y-96652381D01*
X44166667Y-96652381D01*
X44309524Y-96700000D01*
X44357143Y-96747619D01*
X45309524Y-97652381D02*
X44738095Y-97652381D01*
X45023809Y-97652381D02*
X45023809Y-96652381D01*
X44928571Y-96795238D01*
X44833333Y-96890476D01*
X44738095Y-96938095D01*
X45785714Y-97652381D02*
X45976190Y-97652381D01*
X46071429Y-97604762D01*
X46119048Y-97557143D01*
X46214286Y-97414286D01*
X46261905Y-97223810D01*
X46261905Y-96842857D01*
X46214286Y-96747619D01*
X46166667Y-96700000D01*
X46071429Y-96652381D01*
X45880952Y-96652381D01*
X45785714Y-96700000D01*
X45738095Y-96747619D01*
X45690476Y-96842857D01*
X45690476Y-97080952D01*
X45738095Y-97176190D01*
X45785714Y-97223810D01*
X45880952Y-97271429D01*
X46071429Y-97271429D01*
X46166667Y-97223810D01*
X46214286Y-97176190D01*
X46261905Y-97080952D01*
X50657143Y-74157143D02*
X50609524Y-74204762D01*
X50466667Y-74252381D01*
X50371429Y-74252381D01*
X50228571Y-74204762D01*
X50133333Y-74109524D01*
X50085714Y-74014286D01*
X50038095Y-73823810D01*
X50038095Y-73680952D01*
X50085714Y-73490476D01*
X50133333Y-73395238D01*
X50228571Y-73300000D01*
X50371429Y-73252381D01*
X50466667Y-73252381D01*
X50609524Y-73300000D01*
X50657143Y-73347619D01*
X51038095Y-73347619D02*
X51085714Y-73300000D01*
X51180952Y-73252381D01*
X51419048Y-73252381D01*
X51514286Y-73300000D01*
X51561905Y-73347619D01*
X51609524Y-73442857D01*
X51609524Y-73538095D01*
X51561905Y-73680952D01*
X50990476Y-74252381D01*
X51609524Y-74252381D01*
X52228571Y-73252381D02*
X52323810Y-73252381D01*
X52419048Y-73300000D01*
X52466667Y-73347619D01*
X52514286Y-73442857D01*
X52561905Y-73633333D01*
X52561905Y-73871429D01*
X52514286Y-74061905D01*
X52466667Y-74157143D01*
X52419048Y-74204762D01*
X52323810Y-74252381D01*
X52228571Y-74252381D01*
X52133333Y-74204762D01*
X52085714Y-74157143D01*
X52038095Y-74061905D01*
X51990476Y-73871429D01*
X51990476Y-73633333D01*
X52038095Y-73442857D01*
X52085714Y-73347619D01*
X52133333Y-73300000D01*
X52228571Y-73252381D01*
X50257143Y-84757143D02*
X50209524Y-84804762D01*
X50066667Y-84852381D01*
X49971429Y-84852381D01*
X49828571Y-84804762D01*
X49733333Y-84709524D01*
X49685714Y-84614286D01*
X49638095Y-84423810D01*
X49638095Y-84280952D01*
X49685714Y-84090476D01*
X49733333Y-83995238D01*
X49828571Y-83900000D01*
X49971429Y-83852381D01*
X50066667Y-83852381D01*
X50209524Y-83900000D01*
X50257143Y-83947619D01*
X50638095Y-83947619D02*
X50685714Y-83900000D01*
X50780952Y-83852381D01*
X51019048Y-83852381D01*
X51114286Y-83900000D01*
X51161905Y-83947619D01*
X51209524Y-84042857D01*
X51209524Y-84138095D01*
X51161905Y-84280952D01*
X50590476Y-84852381D01*
X51209524Y-84852381D01*
X52161905Y-84852381D02*
X51590476Y-84852381D01*
X51876190Y-84852381D02*
X51876190Y-83852381D01*
X51780952Y-83995238D01*
X51685714Y-84090476D01*
X51590476Y-84138095D01*
X83057143Y-48857143D02*
X83009524Y-48904762D01*
X82866667Y-48952381D01*
X82771429Y-48952381D01*
X82628571Y-48904762D01*
X82533333Y-48809524D01*
X82485714Y-48714286D01*
X82438095Y-48523810D01*
X82438095Y-48380952D01*
X82485714Y-48190476D01*
X82533333Y-48095238D01*
X82628571Y-48000000D01*
X82771429Y-47952381D01*
X82866667Y-47952381D01*
X83009524Y-48000000D01*
X83057143Y-48047619D01*
X83438095Y-48047619D02*
X83485714Y-48000000D01*
X83580952Y-47952381D01*
X83819048Y-47952381D01*
X83914286Y-48000000D01*
X83961905Y-48047619D01*
X84009524Y-48142857D01*
X84009524Y-48238095D01*
X83961905Y-48380952D01*
X83390476Y-48952381D01*
X84009524Y-48952381D01*
X84390476Y-48047619D02*
X84438095Y-48000000D01*
X84533333Y-47952381D01*
X84771429Y-47952381D01*
X84866667Y-48000000D01*
X84914286Y-48047619D01*
X84961905Y-48142857D01*
X84961905Y-48238095D01*
X84914286Y-48380952D01*
X84342857Y-48952381D01*
X84961905Y-48952381D01*
X85957143Y-69392857D02*
X86004762Y-69440476D01*
X86052381Y-69583333D01*
X86052381Y-69678571D01*
X86004762Y-69821429D01*
X85909524Y-69916667D01*
X85814286Y-69964286D01*
X85623810Y-70011905D01*
X85480952Y-70011905D01*
X85290476Y-69964286D01*
X85195238Y-69916667D01*
X85100000Y-69821429D01*
X85052381Y-69678571D01*
X85052381Y-69583333D01*
X85100000Y-69440476D01*
X85147619Y-69392857D01*
X85147619Y-69011905D02*
X85100000Y-68964286D01*
X85052381Y-68869048D01*
X85052381Y-68630952D01*
X85100000Y-68535714D01*
X85147619Y-68488095D01*
X85242857Y-68440476D01*
X85338095Y-68440476D01*
X85480952Y-68488095D01*
X86052381Y-69059524D01*
X86052381Y-68440476D01*
X85052381Y-68107143D02*
X85052381Y-67488095D01*
X85433333Y-67821429D01*
X85433333Y-67678571D01*
X85480952Y-67583333D01*
X85528571Y-67535714D01*
X85623810Y-67488095D01*
X85861905Y-67488095D01*
X85957143Y-67535714D01*
X86004762Y-67583333D01*
X86052381Y-67678571D01*
X86052381Y-67964286D01*
X86004762Y-68059524D01*
X85957143Y-68107143D01*
X94607143Y-69007143D02*
X94559524Y-69054762D01*
X94416667Y-69102381D01*
X94321429Y-69102381D01*
X94178571Y-69054762D01*
X94083333Y-68959524D01*
X94035714Y-68864286D01*
X93988095Y-68673810D01*
X93988095Y-68530952D01*
X94035714Y-68340476D01*
X94083333Y-68245238D01*
X94178571Y-68150000D01*
X94321429Y-68102381D01*
X94416667Y-68102381D01*
X94559524Y-68150000D01*
X94607143Y-68197619D01*
X94988095Y-68197619D02*
X95035714Y-68150000D01*
X95130952Y-68102381D01*
X95369048Y-68102381D01*
X95464286Y-68150000D01*
X95511905Y-68197619D01*
X95559524Y-68292857D01*
X95559524Y-68388095D01*
X95511905Y-68530952D01*
X94940476Y-69102381D01*
X95559524Y-69102381D01*
X96416667Y-68435714D02*
X96416667Y-69102381D01*
X96178571Y-68054762D02*
X95940476Y-68769048D01*
X96559524Y-68769048D01*
X99657143Y-74557143D02*
X99609524Y-74604762D01*
X99466667Y-74652381D01*
X99371429Y-74652381D01*
X99228571Y-74604762D01*
X99133333Y-74509524D01*
X99085714Y-74414286D01*
X99038095Y-74223810D01*
X99038095Y-74080952D01*
X99085714Y-73890476D01*
X99133333Y-73795238D01*
X99228571Y-73700000D01*
X99371429Y-73652381D01*
X99466667Y-73652381D01*
X99609524Y-73700000D01*
X99657143Y-73747619D01*
X100038095Y-73747619D02*
X100085714Y-73700000D01*
X100180952Y-73652381D01*
X100419048Y-73652381D01*
X100514286Y-73700000D01*
X100561905Y-73747619D01*
X100609524Y-73842857D01*
X100609524Y-73938095D01*
X100561905Y-74080952D01*
X99990476Y-74652381D01*
X100609524Y-74652381D01*
X100942857Y-73652381D02*
X101609524Y-73652381D01*
X101180952Y-74652381D01*
X103657143Y-74557143D02*
X103609524Y-74604762D01*
X103466667Y-74652381D01*
X103371429Y-74652381D01*
X103228571Y-74604762D01*
X103133333Y-74509524D01*
X103085714Y-74414286D01*
X103038095Y-74223810D01*
X103038095Y-74080952D01*
X103085714Y-73890476D01*
X103133333Y-73795238D01*
X103228571Y-73700000D01*
X103371429Y-73652381D01*
X103466667Y-73652381D01*
X103609524Y-73700000D01*
X103657143Y-73747619D01*
X104038095Y-73747619D02*
X104085714Y-73700000D01*
X104180952Y-73652381D01*
X104419048Y-73652381D01*
X104514286Y-73700000D01*
X104561905Y-73747619D01*
X104609524Y-73842857D01*
X104609524Y-73938095D01*
X104561905Y-74080952D01*
X103990476Y-74652381D01*
X104609524Y-74652381D01*
X105180952Y-74080952D02*
X105085714Y-74033333D01*
X105038095Y-73985714D01*
X104990476Y-73890476D01*
X104990476Y-73842857D01*
X105038095Y-73747619D01*
X105085714Y-73700000D01*
X105180952Y-73652381D01*
X105371429Y-73652381D01*
X105466667Y-73700000D01*
X105514286Y-73747619D01*
X105561905Y-73842857D01*
X105561905Y-73890476D01*
X105514286Y-73985714D01*
X105466667Y-74033333D01*
X105371429Y-74080952D01*
X105180952Y-74080952D01*
X105085714Y-74128571D01*
X105038095Y-74176190D01*
X104990476Y-74271429D01*
X104990476Y-74461905D01*
X105038095Y-74557143D01*
X105085714Y-74604762D01*
X105180952Y-74652381D01*
X105371429Y-74652381D01*
X105466667Y-74604762D01*
X105514286Y-74557143D01*
X105561905Y-74461905D01*
X105561905Y-74271429D01*
X105514286Y-74176190D01*
X105466667Y-74128571D01*
X105371429Y-74080952D01*
X102657143Y-64557143D02*
X102609524Y-64604762D01*
X102466667Y-64652381D01*
X102371429Y-64652381D01*
X102228571Y-64604762D01*
X102133333Y-64509524D01*
X102085714Y-64414286D01*
X102038095Y-64223810D01*
X102038095Y-64080952D01*
X102085714Y-63890476D01*
X102133333Y-63795238D01*
X102228571Y-63700000D01*
X102371429Y-63652381D01*
X102466667Y-63652381D01*
X102609524Y-63700000D01*
X102657143Y-63747619D01*
X103038095Y-63747619D02*
X103085714Y-63700000D01*
X103180952Y-63652381D01*
X103419048Y-63652381D01*
X103514286Y-63700000D01*
X103561905Y-63747619D01*
X103609524Y-63842857D01*
X103609524Y-63938095D01*
X103561905Y-64080952D01*
X102990476Y-64652381D01*
X103609524Y-64652381D01*
X104085714Y-64652381D02*
X104276190Y-64652381D01*
X104371429Y-64604762D01*
X104419048Y-64557143D01*
X104514286Y-64414286D01*
X104561905Y-64223810D01*
X104561905Y-63842857D01*
X104514286Y-63747619D01*
X104466667Y-63700000D01*
X104371429Y-63652381D01*
X104180952Y-63652381D01*
X104085714Y-63700000D01*
X104038095Y-63747619D01*
X103990476Y-63842857D01*
X103990476Y-64080952D01*
X104038095Y-64176190D01*
X104085714Y-64223810D01*
X104180952Y-64271429D01*
X104371429Y-64271429D01*
X104466667Y-64223810D01*
X104514286Y-64176190D01*
X104561905Y-64080952D01*
X102657143Y-52557143D02*
X102609524Y-52604762D01*
X102466667Y-52652381D01*
X102371429Y-52652381D01*
X102228571Y-52604762D01*
X102133333Y-52509524D01*
X102085714Y-52414286D01*
X102038095Y-52223810D01*
X102038095Y-52080952D01*
X102085714Y-51890476D01*
X102133333Y-51795238D01*
X102228571Y-51700000D01*
X102371429Y-51652381D01*
X102466667Y-51652381D01*
X102609524Y-51700000D01*
X102657143Y-51747619D01*
X102990476Y-51652381D02*
X103609524Y-51652381D01*
X103276190Y-52033333D01*
X103419048Y-52033333D01*
X103514286Y-52080952D01*
X103561905Y-52128571D01*
X103609524Y-52223810D01*
X103609524Y-52461905D01*
X103561905Y-52557143D01*
X103514286Y-52604762D01*
X103419048Y-52652381D01*
X103133333Y-52652381D01*
X103038095Y-52604762D01*
X102990476Y-52557143D01*
X104228571Y-51652381D02*
X104323810Y-51652381D01*
X104419048Y-51700000D01*
X104466667Y-51747619D01*
X104514286Y-51842857D01*
X104561905Y-52033333D01*
X104561905Y-52271429D01*
X104514286Y-52461905D01*
X104466667Y-52557143D01*
X104419048Y-52604762D01*
X104323810Y-52652381D01*
X104228571Y-52652381D01*
X104133333Y-52604762D01*
X104085714Y-52557143D01*
X104038095Y-52461905D01*
X103990476Y-52271429D01*
X103990476Y-52033333D01*
X104038095Y-51842857D01*
X104085714Y-51747619D01*
X104133333Y-51700000D01*
X104228571Y-51652381D01*
X40661905Y-44152381D02*
X40661905Y-43152381D01*
X40900000Y-43152381D01*
X41042858Y-43200000D01*
X41138096Y-43295238D01*
X41185715Y-43390476D01*
X41233334Y-43580952D01*
X41233334Y-43723810D01*
X41185715Y-43914286D01*
X41138096Y-44009524D01*
X41042858Y-44104762D01*
X40900000Y-44152381D01*
X40661905Y-44152381D01*
X42185715Y-44152381D02*
X41614286Y-44152381D01*
X41900000Y-44152381D02*
X41900000Y-43152381D01*
X41804762Y-43295238D01*
X41709524Y-43390476D01*
X41614286Y-43438095D01*
X97261905Y-109652381D02*
X97261905Y-108652381D01*
X97500000Y-108652381D01*
X97642858Y-108700000D01*
X97738096Y-108795238D01*
X97785715Y-108890476D01*
X97833334Y-109080952D01*
X97833334Y-109223810D01*
X97785715Y-109414286D01*
X97738096Y-109509524D01*
X97642858Y-109604762D01*
X97500000Y-109652381D01*
X97261905Y-109652381D01*
X98214286Y-108747619D02*
X98261905Y-108700000D01*
X98357143Y-108652381D01*
X98595239Y-108652381D01*
X98690477Y-108700000D01*
X98738096Y-108747619D01*
X98785715Y-108842857D01*
X98785715Y-108938095D01*
X98738096Y-109080952D01*
X98166667Y-109652381D01*
X98785715Y-109652381D01*
X94261905Y-109652381D02*
X94261905Y-108652381D01*
X94500000Y-108652381D01*
X94642858Y-108700000D01*
X94738096Y-108795238D01*
X94785715Y-108890476D01*
X94833334Y-109080952D01*
X94833334Y-109223810D01*
X94785715Y-109414286D01*
X94738096Y-109509524D01*
X94642858Y-109604762D01*
X94500000Y-109652381D01*
X94261905Y-109652381D01*
X95166667Y-108652381D02*
X95785715Y-108652381D01*
X95452381Y-109033333D01*
X95595239Y-109033333D01*
X95690477Y-109080952D01*
X95738096Y-109128571D01*
X95785715Y-109223810D01*
X95785715Y-109461905D01*
X95738096Y-109557143D01*
X95690477Y-109604762D01*
X95595239Y-109652381D01*
X95309524Y-109652381D01*
X95214286Y-109604762D01*
X95166667Y-109557143D01*
X90561905Y-87652381D02*
X90561905Y-86652381D01*
X90942858Y-86652381D01*
X91038096Y-86700000D01*
X91085715Y-86747619D01*
X91133334Y-86842857D01*
X91133334Y-86985714D01*
X91085715Y-87080952D01*
X91038096Y-87128571D01*
X90942858Y-87176190D01*
X90561905Y-87176190D01*
X91514286Y-86747619D02*
X91561905Y-86700000D01*
X91657143Y-86652381D01*
X91895239Y-86652381D01*
X91990477Y-86700000D01*
X92038096Y-86747619D01*
X92085715Y-86842857D01*
X92085715Y-86938095D01*
X92038096Y-87080952D01*
X91466667Y-87652381D01*
X92085715Y-87652381D01*
X88061905Y-87652381D02*
X88061905Y-86652381D01*
X88442858Y-86652381D01*
X88538096Y-86700000D01*
X88585715Y-86747619D01*
X88633334Y-86842857D01*
X88633334Y-86985714D01*
X88585715Y-87080952D01*
X88538096Y-87128571D01*
X88442858Y-87176190D01*
X88061905Y-87176190D01*
X88966667Y-86652381D02*
X89585715Y-86652381D01*
X89252381Y-87033333D01*
X89395239Y-87033333D01*
X89490477Y-87080952D01*
X89538096Y-87128571D01*
X89585715Y-87223810D01*
X89585715Y-87461905D01*
X89538096Y-87557143D01*
X89490477Y-87604762D01*
X89395239Y-87652381D01*
X89109524Y-87652381D01*
X89014286Y-87604762D01*
X88966667Y-87557143D01*
X44733334Y-126952381D02*
X44400000Y-126476190D01*
X44161905Y-126952381D02*
X44161905Y-125952381D01*
X44542858Y-125952381D01*
X44638096Y-126000000D01*
X44685715Y-126047619D01*
X44733334Y-126142857D01*
X44733334Y-126285714D01*
X44685715Y-126380952D01*
X44638096Y-126428571D01*
X44542858Y-126476190D01*
X44161905Y-126476190D01*
X45685715Y-126952381D02*
X45114286Y-126952381D01*
X45400000Y-126952381D02*
X45400000Y-125952381D01*
X45304762Y-126095238D01*
X45209524Y-126190476D01*
X45114286Y-126238095D01*
X100633334Y-167452381D02*
X100300000Y-166976190D01*
X100061905Y-167452381D02*
X100061905Y-166452381D01*
X100442858Y-166452381D01*
X100538096Y-166500000D01*
X100585715Y-166547619D01*
X100633334Y-166642857D01*
X100633334Y-166785714D01*
X100585715Y-166880952D01*
X100538096Y-166928571D01*
X100442858Y-166976190D01*
X100061905Y-166976190D01*
X101014286Y-166547619D02*
X101061905Y-166500000D01*
X101157143Y-166452381D01*
X101395239Y-166452381D01*
X101490477Y-166500000D01*
X101538096Y-166547619D01*
X101585715Y-166642857D01*
X101585715Y-166738095D01*
X101538096Y-166880952D01*
X100966667Y-167452381D01*
X101585715Y-167452381D01*
X82833334Y-156702381D02*
X82500000Y-156226190D01*
X82261905Y-156702381D02*
X82261905Y-155702381D01*
X82642858Y-155702381D01*
X82738096Y-155750000D01*
X82785715Y-155797619D01*
X82833334Y-155892857D01*
X82833334Y-156035714D01*
X82785715Y-156130952D01*
X82738096Y-156178571D01*
X82642858Y-156226190D01*
X82261905Y-156226190D01*
X83166667Y-155702381D02*
X83785715Y-155702381D01*
X83452381Y-156083333D01*
X83595239Y-156083333D01*
X83690477Y-156130952D01*
X83738096Y-156178571D01*
X83785715Y-156273810D01*
X83785715Y-156511905D01*
X83738096Y-156607143D01*
X83690477Y-156654762D01*
X83595239Y-156702381D01*
X83309524Y-156702381D01*
X83214286Y-156654762D01*
X83166667Y-156607143D01*
X100633334Y-149552381D02*
X100300000Y-149076190D01*
X100061905Y-149552381D02*
X100061905Y-148552381D01*
X100442858Y-148552381D01*
X100538096Y-148600000D01*
X100585715Y-148647619D01*
X100633334Y-148742857D01*
X100633334Y-148885714D01*
X100585715Y-148980952D01*
X100538096Y-149028571D01*
X100442858Y-149076190D01*
X100061905Y-149076190D01*
X101490477Y-148885714D02*
X101490477Y-149552381D01*
X101252381Y-148504762D02*
X101014286Y-149219048D01*
X101633334Y-149219048D01*
X100633334Y-161552381D02*
X100300000Y-161076190D01*
X100061905Y-161552381D02*
X100061905Y-160552381D01*
X100442858Y-160552381D01*
X100538096Y-160600000D01*
X100585715Y-160647619D01*
X100633334Y-160742857D01*
X100633334Y-160885714D01*
X100585715Y-160980952D01*
X100538096Y-161028571D01*
X100442858Y-161076190D01*
X100061905Y-161076190D01*
X101538096Y-160552381D02*
X101061905Y-160552381D01*
X101014286Y-161028571D01*
X101061905Y-160980952D01*
X101157143Y-160933333D01*
X101395239Y-160933333D01*
X101490477Y-160980952D01*
X101538096Y-161028571D01*
X101585715Y-161123810D01*
X101585715Y-161361905D01*
X101538096Y-161457143D01*
X101490477Y-161504762D01*
X101395239Y-161552381D01*
X101157143Y-161552381D01*
X101061905Y-161504762D01*
X101014286Y-161457143D01*
X50733334Y-126952381D02*
X50400000Y-126476190D01*
X50161905Y-126952381D02*
X50161905Y-125952381D01*
X50542858Y-125952381D01*
X50638096Y-126000000D01*
X50685715Y-126047619D01*
X50733334Y-126142857D01*
X50733334Y-126285714D01*
X50685715Y-126380952D01*
X50638096Y-126428571D01*
X50542858Y-126476190D01*
X50161905Y-126476190D01*
X51590477Y-125952381D02*
X51400000Y-125952381D01*
X51304762Y-126000000D01*
X51257143Y-126047619D01*
X51161905Y-126190476D01*
X51114286Y-126380952D01*
X51114286Y-126761905D01*
X51161905Y-126857143D01*
X51209524Y-126904762D01*
X51304762Y-126952381D01*
X51495239Y-126952381D01*
X51590477Y-126904762D01*
X51638096Y-126857143D01*
X51685715Y-126761905D01*
X51685715Y-126523810D01*
X51638096Y-126428571D01*
X51590477Y-126380952D01*
X51495239Y-126333333D01*
X51304762Y-126333333D01*
X51209524Y-126380952D01*
X51161905Y-126428571D01*
X51114286Y-126523810D01*
X100633334Y-155552381D02*
X100300000Y-155076190D01*
X100061905Y-155552381D02*
X100061905Y-154552381D01*
X100442858Y-154552381D01*
X100538096Y-154600000D01*
X100585715Y-154647619D01*
X100633334Y-154742857D01*
X100633334Y-154885714D01*
X100585715Y-154980952D01*
X100538096Y-155028571D01*
X100442858Y-155076190D01*
X100061905Y-155076190D01*
X100966667Y-154552381D02*
X101633334Y-154552381D01*
X101204762Y-155552381D01*
X100633334Y-143552381D02*
X100300000Y-143076190D01*
X100061905Y-143552381D02*
X100061905Y-142552381D01*
X100442858Y-142552381D01*
X100538096Y-142600000D01*
X100585715Y-142647619D01*
X100633334Y-142742857D01*
X100633334Y-142885714D01*
X100585715Y-142980952D01*
X100538096Y-143028571D01*
X100442858Y-143076190D01*
X100061905Y-143076190D01*
X101204762Y-142980952D02*
X101109524Y-142933333D01*
X101061905Y-142885714D01*
X101014286Y-142790476D01*
X101014286Y-142742857D01*
X101061905Y-142647619D01*
X101109524Y-142600000D01*
X101204762Y-142552381D01*
X101395239Y-142552381D01*
X101490477Y-142600000D01*
X101538096Y-142647619D01*
X101585715Y-142742857D01*
X101585715Y-142790476D01*
X101538096Y-142885714D01*
X101490477Y-142933333D01*
X101395239Y-142980952D01*
X101204762Y-142980952D01*
X101109524Y-143028571D01*
X101061905Y-143076190D01*
X101014286Y-143171429D01*
X101014286Y-143361905D01*
X101061905Y-143457143D01*
X101109524Y-143504762D01*
X101204762Y-143552381D01*
X101395239Y-143552381D01*
X101490477Y-143504762D01*
X101538096Y-143457143D01*
X101585715Y-143361905D01*
X101585715Y-143171429D01*
X101538096Y-143076190D01*
X101490477Y-143028571D01*
X101395239Y-142980952D01*
X42233334Y-121952381D02*
X41900000Y-121476190D01*
X41661905Y-121952381D02*
X41661905Y-120952381D01*
X42042858Y-120952381D01*
X42138096Y-121000000D01*
X42185715Y-121047619D01*
X42233334Y-121142857D01*
X42233334Y-121285714D01*
X42185715Y-121380952D01*
X42138096Y-121428571D01*
X42042858Y-121476190D01*
X41661905Y-121476190D01*
X42709524Y-121952381D02*
X42900000Y-121952381D01*
X42995239Y-121904762D01*
X43042858Y-121857143D01*
X43138096Y-121714286D01*
X43185715Y-121523810D01*
X43185715Y-121142857D01*
X43138096Y-121047619D01*
X43090477Y-121000000D01*
X42995239Y-120952381D01*
X42804762Y-120952381D01*
X42709524Y-121000000D01*
X42661905Y-121047619D01*
X42614286Y-121142857D01*
X42614286Y-121380952D01*
X42661905Y-121476190D01*
X42709524Y-121523810D01*
X42804762Y-121571429D01*
X42995239Y-121571429D01*
X43090477Y-121523810D01*
X43138096Y-121476190D01*
X43185715Y-121380952D01*
X48257143Y-121952381D02*
X47923809Y-121476190D01*
X47685714Y-121952381D02*
X47685714Y-120952381D01*
X48066667Y-120952381D01*
X48161905Y-121000000D01*
X48209524Y-121047619D01*
X48257143Y-121142857D01*
X48257143Y-121285714D01*
X48209524Y-121380952D01*
X48161905Y-121428571D01*
X48066667Y-121476190D01*
X47685714Y-121476190D01*
X49209524Y-121952381D02*
X48638095Y-121952381D01*
X48923809Y-121952381D02*
X48923809Y-120952381D01*
X48828571Y-121095238D01*
X48733333Y-121190476D01*
X48638095Y-121238095D01*
X49828571Y-120952381D02*
X49923810Y-120952381D01*
X50019048Y-121000000D01*
X50066667Y-121047619D01*
X50114286Y-121142857D01*
X50161905Y-121333333D01*
X50161905Y-121571429D01*
X50114286Y-121761905D01*
X50066667Y-121857143D01*
X50019048Y-121904762D01*
X49923810Y-121952381D01*
X49828571Y-121952381D01*
X49733333Y-121904762D01*
X49685714Y-121857143D01*
X49638095Y-121761905D01*
X49590476Y-121571429D01*
X49590476Y-121333333D01*
X49638095Y-121142857D01*
X49685714Y-121047619D01*
X49733333Y-121000000D01*
X49828571Y-120952381D01*
X51257143Y-100852381D02*
X50923809Y-100376190D01*
X50685714Y-100852381D02*
X50685714Y-99852381D01*
X51066667Y-99852381D01*
X51161905Y-99900000D01*
X51209524Y-99947619D01*
X51257143Y-100042857D01*
X51257143Y-100185714D01*
X51209524Y-100280952D01*
X51161905Y-100328571D01*
X51066667Y-100376190D01*
X50685714Y-100376190D01*
X52209524Y-100852381D02*
X51638095Y-100852381D01*
X51923809Y-100852381D02*
X51923809Y-99852381D01*
X51828571Y-99995238D01*
X51733333Y-100090476D01*
X51638095Y-100138095D01*
X53161905Y-100852381D02*
X52590476Y-100852381D01*
X52876190Y-100852381D02*
X52876190Y-99852381D01*
X52780952Y-99995238D01*
X52685714Y-100090476D01*
X52590476Y-100138095D01*
X51257143Y-103952381D02*
X50923809Y-103476190D01*
X50685714Y-103952381D02*
X50685714Y-102952381D01*
X51066667Y-102952381D01*
X51161905Y-103000000D01*
X51209524Y-103047619D01*
X51257143Y-103142857D01*
X51257143Y-103285714D01*
X51209524Y-103380952D01*
X51161905Y-103428571D01*
X51066667Y-103476190D01*
X50685714Y-103476190D01*
X52209524Y-103952381D02*
X51638095Y-103952381D01*
X51923809Y-103952381D02*
X51923809Y-102952381D01*
X51828571Y-103095238D01*
X51733333Y-103190476D01*
X51638095Y-103238095D01*
X52590476Y-103047619D02*
X52638095Y-103000000D01*
X52733333Y-102952381D01*
X52971429Y-102952381D01*
X53066667Y-103000000D01*
X53114286Y-103047619D01*
X53161905Y-103142857D01*
X53161905Y-103238095D01*
X53114286Y-103380952D01*
X52542857Y-103952381D01*
X53161905Y-103952381D01*
X42257143Y-103952381D02*
X41923809Y-103476190D01*
X41685714Y-103952381D02*
X41685714Y-102952381D01*
X42066667Y-102952381D01*
X42161905Y-103000000D01*
X42209524Y-103047619D01*
X42257143Y-103142857D01*
X42257143Y-103285714D01*
X42209524Y-103380952D01*
X42161905Y-103428571D01*
X42066667Y-103476190D01*
X41685714Y-103476190D01*
X43209524Y-103952381D02*
X42638095Y-103952381D01*
X42923809Y-103952381D02*
X42923809Y-102952381D01*
X42828571Y-103095238D01*
X42733333Y-103190476D01*
X42638095Y-103238095D01*
X43542857Y-102952381D02*
X44161905Y-102952381D01*
X43828571Y-103333333D01*
X43971429Y-103333333D01*
X44066667Y-103380952D01*
X44114286Y-103428571D01*
X44161905Y-103523810D01*
X44161905Y-103761905D01*
X44114286Y-103857143D01*
X44066667Y-103904762D01*
X43971429Y-103952381D01*
X43685714Y-103952381D01*
X43590476Y-103904762D01*
X43542857Y-103857143D01*
X100257143Y-71452381D02*
X99923809Y-70976190D01*
X99685714Y-71452381D02*
X99685714Y-70452381D01*
X100066667Y-70452381D01*
X100161905Y-70500000D01*
X100209524Y-70547619D01*
X100257143Y-70642857D01*
X100257143Y-70785714D01*
X100209524Y-70880952D01*
X100161905Y-70928571D01*
X100066667Y-70976190D01*
X99685714Y-70976190D01*
X101209524Y-71452381D02*
X100638095Y-71452381D01*
X100923809Y-71452381D02*
X100923809Y-70452381D01*
X100828571Y-70595238D01*
X100733333Y-70690476D01*
X100638095Y-70738095D01*
X102066667Y-70452381D02*
X101876190Y-70452381D01*
X101780952Y-70500000D01*
X101733333Y-70547619D01*
X101638095Y-70690476D01*
X101590476Y-70880952D01*
X101590476Y-71261905D01*
X101638095Y-71357143D01*
X101685714Y-71404762D01*
X101780952Y-71452381D01*
X101971429Y-71452381D01*
X102066667Y-71404762D01*
X102114286Y-71357143D01*
X102161905Y-71261905D01*
X102161905Y-71023810D01*
X102114286Y-70928571D01*
X102066667Y-70880952D01*
X101971429Y-70833333D01*
X101780952Y-70833333D01*
X101685714Y-70880952D01*
X101638095Y-70928571D01*
X101590476Y-71023810D01*
X102657143Y-58552381D02*
X102323809Y-58076190D01*
X102085714Y-58552381D02*
X102085714Y-57552381D01*
X102466667Y-57552381D01*
X102561905Y-57600000D01*
X102609524Y-57647619D01*
X102657143Y-57742857D01*
X102657143Y-57885714D01*
X102609524Y-57980952D01*
X102561905Y-58028571D01*
X102466667Y-58076190D01*
X102085714Y-58076190D01*
X103609524Y-58552381D02*
X103038095Y-58552381D01*
X103323809Y-58552381D02*
X103323809Y-57552381D01*
X103228571Y-57695238D01*
X103133333Y-57790476D01*
X103038095Y-57838095D01*
X103942857Y-57552381D02*
X104609524Y-57552381D01*
X104180952Y-58552381D01*
X89257143Y-109952381D02*
X88923809Y-109476190D01*
X88685714Y-109952381D02*
X88685714Y-108952381D01*
X89066667Y-108952381D01*
X89161905Y-109000000D01*
X89209524Y-109047619D01*
X89257143Y-109142857D01*
X89257143Y-109285714D01*
X89209524Y-109380952D01*
X89161905Y-109428571D01*
X89066667Y-109476190D01*
X88685714Y-109476190D01*
X90209524Y-109952381D02*
X89638095Y-109952381D01*
X89923809Y-109952381D02*
X89923809Y-108952381D01*
X89828571Y-109095238D01*
X89733333Y-109190476D01*
X89638095Y-109238095D01*
X90780952Y-109380952D02*
X90685714Y-109333333D01*
X90638095Y-109285714D01*
X90590476Y-109190476D01*
X90590476Y-109142857D01*
X90638095Y-109047619D01*
X90685714Y-109000000D01*
X90780952Y-108952381D01*
X90971429Y-108952381D01*
X91066667Y-109000000D01*
X91114286Y-109047619D01*
X91161905Y-109142857D01*
X91161905Y-109190476D01*
X91114286Y-109285714D01*
X91066667Y-109333333D01*
X90971429Y-109380952D01*
X90780952Y-109380952D01*
X90685714Y-109428571D01*
X90638095Y-109476190D01*
X90590476Y-109571429D01*
X90590476Y-109761905D01*
X90638095Y-109857143D01*
X90685714Y-109904762D01*
X90780952Y-109952381D01*
X90971429Y-109952381D01*
X91066667Y-109904762D01*
X91114286Y-109857143D01*
X91161905Y-109761905D01*
X91161905Y-109571429D01*
X91114286Y-109476190D01*
X91066667Y-109428571D01*
X90971429Y-109380952D01*
X100257143Y-109952381D02*
X99923809Y-109476190D01*
X99685714Y-109952381D02*
X99685714Y-108952381D01*
X100066667Y-108952381D01*
X100161905Y-109000000D01*
X100209524Y-109047619D01*
X100257143Y-109142857D01*
X100257143Y-109285714D01*
X100209524Y-109380952D01*
X100161905Y-109428571D01*
X100066667Y-109476190D01*
X99685714Y-109476190D01*
X101209524Y-109952381D02*
X100638095Y-109952381D01*
X100923809Y-109952381D02*
X100923809Y-108952381D01*
X100828571Y-109095238D01*
X100733333Y-109190476D01*
X100638095Y-109238095D01*
X101685714Y-109952381D02*
X101876190Y-109952381D01*
X101971429Y-109904762D01*
X102019048Y-109857143D01*
X102114286Y-109714286D01*
X102161905Y-109523810D01*
X102161905Y-109142857D01*
X102114286Y-109047619D01*
X102066667Y-109000000D01*
X101971429Y-108952381D01*
X101780952Y-108952381D01*
X101685714Y-109000000D01*
X101638095Y-109047619D01*
X101590476Y-109142857D01*
X101590476Y-109380952D01*
X101638095Y-109476190D01*
X101685714Y-109523810D01*
X101780952Y-109571429D01*
X101971429Y-109571429D01*
X102066667Y-109523810D01*
X102114286Y-109476190D01*
X102161905Y-109380952D01*
X106590476Y-51952381D02*
X107257143Y-52952381D01*
X107257143Y-51952381D02*
X106590476Y-52952381D01*
X108161905Y-52952381D02*
X107590476Y-52952381D01*
X107876190Y-52952381D02*
X107876190Y-51952381D01*
X107780952Y-52095238D01*
X107685714Y-52190476D01*
X107590476Y-52238095D01*
X41333334Y-146957143D02*
X41285715Y-147004762D01*
X41142858Y-147052381D01*
X41047620Y-147052381D01*
X40904762Y-147004762D01*
X40809524Y-146909524D01*
X40761905Y-146814286D01*
X40714286Y-146623810D01*
X40714286Y-146480952D01*
X40761905Y-146290476D01*
X40809524Y-146195238D01*
X40904762Y-146100000D01*
X41047620Y-146052381D01*
X41142858Y-146052381D01*
X41285715Y-146100000D01*
X41333334Y-146147619D01*
X41714286Y-146147619D02*
X41761905Y-146100000D01*
X41857143Y-146052381D01*
X42095239Y-146052381D01*
X42190477Y-146100000D01*
X42238096Y-146147619D01*
X42285715Y-146242857D01*
X42285715Y-146338095D01*
X42238096Y-146480952D01*
X41666667Y-147052381D01*
X42285715Y-147052381D01*
X48757143Y-141057143D02*
X48709524Y-141104762D01*
X48566667Y-141152381D01*
X48471429Y-141152381D01*
X48328571Y-141104762D01*
X48233333Y-141009524D01*
X48185714Y-140914286D01*
X48138095Y-140723810D01*
X48138095Y-140580952D01*
X48185714Y-140390476D01*
X48233333Y-140295238D01*
X48328571Y-140200000D01*
X48471429Y-140152381D01*
X48566667Y-140152381D01*
X48709524Y-140200000D01*
X48757143Y-140247619D01*
X49709524Y-141152381D02*
X49138095Y-141152381D01*
X49423809Y-141152381D02*
X49423809Y-140152381D01*
X49328571Y-140295238D01*
X49233333Y-140390476D01*
X49138095Y-140438095D01*
X50661905Y-141152381D02*
X50090476Y-141152381D01*
X50376190Y-141152381D02*
X50376190Y-140152381D01*
X50280952Y-140295238D01*
X50185714Y-140390476D01*
X50090476Y-140438095D01*
X72057143Y-74057143D02*
X72009524Y-74104762D01*
X71866667Y-74152381D01*
X71771429Y-74152381D01*
X71628571Y-74104762D01*
X71533333Y-74009524D01*
X71485714Y-73914286D01*
X71438095Y-73723810D01*
X71438095Y-73580952D01*
X71485714Y-73390476D01*
X71533333Y-73295238D01*
X71628571Y-73200000D01*
X71771429Y-73152381D01*
X71866667Y-73152381D01*
X72009524Y-73200000D01*
X72057143Y-73247619D01*
X73009524Y-74152381D02*
X72438095Y-74152381D01*
X72723809Y-74152381D02*
X72723809Y-73152381D01*
X72628571Y-73295238D01*
X72533333Y-73390476D01*
X72438095Y-73438095D01*
X73342857Y-73152381D02*
X73961905Y-73152381D01*
X73628571Y-73533333D01*
X73771429Y-73533333D01*
X73866667Y-73580952D01*
X73914286Y-73628571D01*
X73961905Y-73723810D01*
X73961905Y-73961905D01*
X73914286Y-74057143D01*
X73866667Y-74104762D01*
X73771429Y-74152381D01*
X73485714Y-74152381D01*
X73390476Y-74104762D01*
X73342857Y-74057143D01*
X78757143Y-56257143D02*
X78709524Y-56304762D01*
X78566667Y-56352381D01*
X78471429Y-56352381D01*
X78328571Y-56304762D01*
X78233333Y-56209524D01*
X78185714Y-56114286D01*
X78138095Y-55923810D01*
X78138095Y-55780952D01*
X78185714Y-55590476D01*
X78233333Y-55495238D01*
X78328571Y-55400000D01*
X78471429Y-55352381D01*
X78566667Y-55352381D01*
X78709524Y-55400000D01*
X78757143Y-55447619D01*
X79709524Y-56352381D02*
X79138095Y-56352381D01*
X79423809Y-56352381D02*
X79423809Y-55352381D01*
X79328571Y-55495238D01*
X79233333Y-55590476D01*
X79138095Y-55638095D01*
X80614286Y-55352381D02*
X80138095Y-55352381D01*
X80090476Y-55828571D01*
X80138095Y-55780952D01*
X80233333Y-55733333D01*
X80471429Y-55733333D01*
X80566667Y-55780952D01*
X80614286Y-55828571D01*
X80661905Y-55923810D01*
X80661905Y-56161905D01*
X80614286Y-56257143D01*
X80566667Y-56304762D01*
X80471429Y-56352381D01*
X80233333Y-56352381D01*
X80138095Y-56304762D01*
X80090476Y-56257143D01*
X47557143Y-97457143D02*
X47509524Y-97504762D01*
X47366667Y-97552381D01*
X47271429Y-97552381D01*
X47128571Y-97504762D01*
X47033333Y-97409524D01*
X46985714Y-97314286D01*
X46938095Y-97123810D01*
X46938095Y-96980952D01*
X46985714Y-96790476D01*
X47033333Y-96695238D01*
X47128571Y-96600000D01*
X47271429Y-96552381D01*
X47366667Y-96552381D01*
X47509524Y-96600000D01*
X47557143Y-96647619D01*
X48509524Y-97552381D02*
X47938095Y-97552381D01*
X48223809Y-97552381D02*
X48223809Y-96552381D01*
X48128571Y-96695238D01*
X48033333Y-96790476D01*
X47938095Y-96838095D01*
X49080952Y-96980952D02*
X48985714Y-96933333D01*
X48938095Y-96885714D01*
X48890476Y-96790476D01*
X48890476Y-96742857D01*
X48938095Y-96647619D01*
X48985714Y-96600000D01*
X49080952Y-96552381D01*
X49271429Y-96552381D01*
X49366667Y-96600000D01*
X49414286Y-96647619D01*
X49461905Y-96742857D01*
X49461905Y-96790476D01*
X49414286Y-96885714D01*
X49366667Y-96933333D01*
X49271429Y-96980952D01*
X49080952Y-96980952D01*
X48985714Y-97028571D01*
X48938095Y-97076190D01*
X48890476Y-97171429D01*
X48890476Y-97361905D01*
X48938095Y-97457143D01*
X48985714Y-97504762D01*
X49080952Y-97552381D01*
X49271429Y-97552381D01*
X49366667Y-97504762D01*
X49414286Y-97457143D01*
X49461905Y-97361905D01*
X49461905Y-97171429D01*
X49414286Y-97076190D01*
X49366667Y-97028571D01*
X49271429Y-96980952D01*
X47638095Y-149652381D02*
X47638095Y-150461905D01*
X47685714Y-150557143D01*
X47733333Y-150604762D01*
X47828571Y-150652381D01*
X48019048Y-150652381D01*
X48114286Y-150604762D01*
X48161905Y-150557143D01*
X48209524Y-150461905D01*
X48209524Y-149652381D01*
X49209524Y-150652381D02*
X48638095Y-150652381D01*
X48923809Y-150652381D02*
X48923809Y-149652381D01*
X48828571Y-149795238D01*
X48733333Y-149890476D01*
X48638095Y-149938095D01*
X52261905Y-49352381D02*
X52261905Y-48352381D01*
X52642858Y-48352381D01*
X52738096Y-48400000D01*
X52785715Y-48447619D01*
X52833334Y-48542857D01*
X52833334Y-48685714D01*
X52785715Y-48780952D01*
X52738096Y-48828571D01*
X52642858Y-48876190D01*
X52261905Y-48876190D01*
X53690477Y-48352381D02*
X53500000Y-48352381D01*
X53404762Y-48400000D01*
X53357143Y-48447619D01*
X53261905Y-48590476D01*
X53214286Y-48780952D01*
X53214286Y-49161905D01*
X53261905Y-49257143D01*
X53309524Y-49304762D01*
X53404762Y-49352381D01*
X53595239Y-49352381D01*
X53690477Y-49304762D01*
X53738096Y-49257143D01*
X53785715Y-49161905D01*
X53785715Y-48923810D01*
X53738096Y-48828571D01*
X53690477Y-48780952D01*
X53595239Y-48733333D01*
X53404762Y-48733333D01*
X53309524Y-48780952D01*
X53261905Y-48828571D01*
X53214286Y-48923810D01*
X100466667Y-81804762D02*
X100609524Y-81852381D01*
X100847620Y-81852381D01*
X100942858Y-81804762D01*
X100990477Y-81757143D01*
X101038096Y-81661905D01*
X101038096Y-81566667D01*
X100990477Y-81471429D01*
X100942858Y-81423810D01*
X100847620Y-81376190D01*
X100657143Y-81328571D01*
X100561905Y-81280952D01*
X100514286Y-81233333D01*
X100466667Y-81138095D01*
X100466667Y-81042857D01*
X100514286Y-80947619D01*
X100561905Y-80900000D01*
X100657143Y-80852381D01*
X100895239Y-80852381D01*
X101038096Y-80900000D01*
X101371429Y-80852381D02*
X101609524Y-81852381D01*
X101800001Y-81138095D01*
X101990477Y-81852381D01*
X102228572Y-80852381D01*
X103085715Y-80852381D02*
X102609524Y-80852381D01*
X102561905Y-81328571D01*
X102609524Y-81280952D01*
X102704762Y-81233333D01*
X102942858Y-81233333D01*
X103038096Y-81280952D01*
X103085715Y-81328571D01*
X103133334Y-81423810D01*
X103133334Y-81661905D01*
X103085715Y-81757143D01*
X103038096Y-81804762D01*
X102942858Y-81852381D01*
X102704762Y-81852381D01*
X102609524Y-81804762D01*
X102561905Y-81757143D01*
X44438095Y-77652381D02*
X44438095Y-78461905D01*
X44485714Y-78557143D01*
X44533333Y-78604762D01*
X44628571Y-78652381D01*
X44819048Y-78652381D01*
X44914286Y-78604762D01*
X44961905Y-78557143D01*
X45009524Y-78461905D01*
X45009524Y-77652381D01*
X45914286Y-77652381D02*
X45723809Y-77652381D01*
X45628571Y-77700000D01*
X45580952Y-77747619D01*
X45485714Y-77890476D01*
X45438095Y-78080952D01*
X45438095Y-78461905D01*
X45485714Y-78557143D01*
X45533333Y-78604762D01*
X45628571Y-78652381D01*
X45819048Y-78652381D01*
X45914286Y-78604762D01*
X45961905Y-78557143D01*
X46009524Y-78461905D01*
X46009524Y-78223810D01*
X45961905Y-78128571D01*
X45914286Y-78080952D01*
X45819048Y-78033333D01*
X45628571Y-78033333D01*
X45533333Y-78080952D01*
X45485714Y-78128571D01*
X45438095Y-78223810D01*
X44038095Y-60652381D02*
X44038095Y-61461905D01*
X44085714Y-61557143D01*
X44133333Y-61604762D01*
X44228571Y-61652381D01*
X44419048Y-61652381D01*
X44514286Y-61604762D01*
X44561905Y-61557143D01*
X44609524Y-61461905D01*
X44609524Y-60652381D01*
X44990476Y-60652381D02*
X45657143Y-60652381D01*
X45228571Y-61652381D01*
X85157143Y-94557143D02*
X85109524Y-94604762D01*
X84966667Y-94652381D01*
X84871429Y-94652381D01*
X84728571Y-94604762D01*
X84633333Y-94509524D01*
X84585714Y-94414286D01*
X84538095Y-94223810D01*
X84538095Y-94080952D01*
X84585714Y-93890476D01*
X84633333Y-93795238D01*
X84728571Y-93700000D01*
X84871429Y-93652381D01*
X84966667Y-93652381D01*
X85109524Y-93700000D01*
X85157143Y-93747619D01*
X85490476Y-93652381D02*
X86109524Y-93652381D01*
X85776190Y-94033333D01*
X85919048Y-94033333D01*
X86014286Y-94080952D01*
X86061905Y-94128571D01*
X86109524Y-94223810D01*
X86109524Y-94461905D01*
X86061905Y-94557143D01*
X86014286Y-94604762D01*
X85919048Y-94652381D01*
X85633333Y-94652381D01*
X85538095Y-94604762D01*
X85490476Y-94557143D01*
X86442857Y-93652381D02*
X87061905Y-93652381D01*
X86728571Y-94033333D01*
X86871429Y-94033333D01*
X86966667Y-94080952D01*
X87014286Y-94128571D01*
X87061905Y-94223810D01*
X87061905Y-94461905D01*
X87014286Y-94557143D01*
X86966667Y-94604762D01*
X86871429Y-94652381D01*
X86585714Y-94652381D01*
X86490476Y-94604762D01*
X86442857Y-94557143D01*
X41457143Y-72557143D02*
X41409524Y-72604762D01*
X41266667Y-72652381D01*
X41171429Y-72652381D01*
X41028571Y-72604762D01*
X40933333Y-72509524D01*
X40885714Y-72414286D01*
X40838095Y-72223810D01*
X40838095Y-72080952D01*
X40885714Y-71890476D01*
X40933333Y-71795238D01*
X41028571Y-71700000D01*
X41171429Y-71652381D01*
X41266667Y-71652381D01*
X41409524Y-71700000D01*
X41457143Y-71747619D01*
X41790476Y-71652381D02*
X42409524Y-71652381D01*
X42076190Y-72033333D01*
X42219048Y-72033333D01*
X42314286Y-72080952D01*
X42361905Y-72128571D01*
X42409524Y-72223810D01*
X42409524Y-72461905D01*
X42361905Y-72557143D01*
X42314286Y-72604762D01*
X42219048Y-72652381D01*
X41933333Y-72652381D01*
X41838095Y-72604762D01*
X41790476Y-72557143D01*
X43266667Y-71985714D02*
X43266667Y-72652381D01*
X43028571Y-71604762D02*
X42790476Y-72319048D01*
X43409524Y-72319048D01*
X37975000Y-50389286D02*
X37975000Y-50925000D01*
X37939286Y-51032143D01*
X37867857Y-51103571D01*
X37760714Y-51139286D01*
X37689286Y-51139286D01*
X38332143Y-51139286D02*
X38332143Y-50389286D01*
X38617858Y-50389286D01*
X38689286Y-50425000D01*
X38725001Y-50460714D01*
X38760715Y-50532143D01*
X38760715Y-50639286D01*
X38725001Y-50710714D01*
X38689286Y-50746429D01*
X38617858Y-50782143D01*
X38332143Y-50782143D01*
X39475001Y-51139286D02*
X39046429Y-51139286D01*
X39260715Y-51139286D02*
X39260715Y-50389286D01*
X39189286Y-50496429D01*
X39117858Y-50567857D01*
X39046429Y-50603571D01*
X52466667Y-145752381D02*
X52466667Y-146466667D01*
X52419047Y-146609524D01*
X52323809Y-146704762D01*
X52180952Y-146752381D01*
X52085714Y-146752381D01*
X52942857Y-146752381D02*
X52942857Y-145752381D01*
X53323810Y-145752381D01*
X53419048Y-145800000D01*
X53466667Y-145847619D01*
X53514286Y-145942857D01*
X53514286Y-146085714D01*
X53466667Y-146180952D01*
X53419048Y-146228571D01*
X53323810Y-146276190D01*
X52942857Y-146276190D01*
X53895238Y-145847619D02*
X53942857Y-145800000D01*
X54038095Y-145752381D01*
X54276191Y-145752381D01*
X54371429Y-145800000D01*
X54419048Y-145847619D01*
X54466667Y-145942857D01*
X54466667Y-146038095D01*
X54419048Y-146180952D01*
X53847619Y-146752381D01*
X54466667Y-146752381D01*
X53361905Y-155452381D02*
X53361905Y-154452381D01*
X53742858Y-154452381D01*
X53838096Y-154500000D01*
X53885715Y-154547619D01*
X53933334Y-154642857D01*
X53933334Y-154785714D01*
X53885715Y-154880952D01*
X53838096Y-154928571D01*
X53742858Y-154976190D01*
X53361905Y-154976190D01*
X54838096Y-154452381D02*
X54361905Y-154452381D01*
X54314286Y-154928571D01*
X54361905Y-154880952D01*
X54457143Y-154833333D01*
X54695239Y-154833333D01*
X54790477Y-154880952D01*
X54838096Y-154928571D01*
X54885715Y-155023810D01*
X54885715Y-155261905D01*
X54838096Y-155357143D01*
X54790477Y-155404762D01*
X54695239Y-155452381D01*
X54457143Y-155452381D01*
X54361905Y-155404762D01*
X54314286Y-155357143D01*
X46829881Y-46698524D02*
X45829881Y-46698524D01*
X46544167Y-46365190D01*
X45829881Y-46031857D01*
X46829881Y-46031857D01*
X46829881Y-45031857D02*
X46829881Y-45603286D01*
X46829881Y-45317572D02*
X45829881Y-45317572D01*
X45972738Y-45412810D01*
X46067976Y-45508048D01*
X46115595Y-45603286D01*
X103952381Y-41652381D02*
X103952381Y-40652381D01*
X103952381Y-41128571D02*
X104523810Y-41128571D01*
X104523810Y-41652381D02*
X104523810Y-40652381D01*
X105142857Y-40652381D02*
X105142857Y-40890476D01*
X104904762Y-40795238D02*
X105142857Y-40890476D01*
X105380953Y-40795238D01*
X105000000Y-41080952D02*
X105142857Y-40890476D01*
X105285715Y-41080952D01*
X105904762Y-40652381D02*
X105904762Y-40890476D01*
X105666667Y-40795238D02*
X105904762Y-40890476D01*
X106142858Y-40795238D01*
X105761905Y-41080952D02*
X105904762Y-40890476D01*
X106047620Y-41080952D01*
X106452381Y-72652381D02*
X106452381Y-71652381D01*
X106452381Y-72128571D02*
X107023810Y-72128571D01*
X107023810Y-72652381D02*
X107023810Y-71652381D01*
X107642857Y-71652381D02*
X107642857Y-71890476D01*
X107404762Y-71795238D02*
X107642857Y-71890476D01*
X107880953Y-71795238D01*
X107500000Y-72080952D02*
X107642857Y-71890476D01*
X107785715Y-72080952D01*
X108404762Y-71652381D02*
X108404762Y-71890476D01*
X108166667Y-71795238D02*
X108404762Y-71890476D01*
X108642858Y-71795238D01*
X108261905Y-72080952D02*
X108404762Y-71890476D01*
X108547620Y-72080952D01*
M02*
