G04 #@! TF.FileFunction,Soldermask,Bot*
%FSLAX46Y46*%
G04 Gerber Fmt 4.6, Leading zero omitted, Abs format (unit mm)*
G04 Created by KiCad (PCBNEW 4.0.2-stable) date Sat 27 Feb 2016 06:16:26 AM EST*
%MOMM*%
G01*
G04 APERTURE LIST*
%ADD10C,0.100000*%
%ADD11C,2.600000*%
%ADD12R,2.127200X2.432000*%
%ADD13O,2.127200X2.432000*%
%ADD14R,2.432000X2.127200*%
%ADD15O,2.432000X2.127200*%
%ADD16O,3.850000X3.850000*%
%ADD17O,2.790000X2.790000*%
%ADD18R,1.700000X1.700000*%
%ADD19C,1.700000*%
%ADD20O,1.350000X1.650000*%
%ADD21O,1.950000X1.400000*%
%ADD22C,1.797000*%
%ADD23R,1.650000X1.900000*%
%ADD24R,1.700000X1.900000*%
%ADD25R,1.900000X1.650000*%
%ADD26R,2.432000X2.432000*%
%ADD27O,2.432000X2.432000*%
%ADD28R,1.900000X1.700000*%
%ADD29O,3.702000X3.702000*%
%ADD30C,3.600000*%
G04 APERTURE END LIST*
D10*
D11*
X40300000Y-172000000D03*
D12*
X83000000Y-145000000D03*
D13*
X85540000Y-145000000D03*
X88080000Y-145000000D03*
D14*
X86150000Y-84820000D03*
D15*
X86150000Y-82280000D03*
X86150000Y-79740000D03*
X86150000Y-77200000D03*
D16*
X61000000Y-102130000D03*
D17*
X61000000Y-165660000D03*
D16*
X77000000Y-157330000D03*
D14*
X81000000Y-123000000D03*
D15*
X81000000Y-125540000D03*
X81000000Y-128080000D03*
X81000000Y-130620000D03*
X81000000Y-133160000D03*
D18*
X50350000Y-157350000D03*
D19*
X47850000Y-157350000D03*
D18*
X49000000Y-167000000D03*
D19*
X49000000Y-164500000D03*
D18*
X56500000Y-66000000D03*
D19*
X56500000Y-68500000D03*
D18*
X57000000Y-169000000D03*
D19*
X57000000Y-171500000D03*
D18*
X62500000Y-76500000D03*
D19*
X65000000Y-76500000D03*
D18*
X64500000Y-53500000D03*
D19*
X62000000Y-53500000D03*
D20*
X43662540Y-161999100D03*
X43662540Y-166999100D03*
D21*
X40962540Y-160999100D03*
X40962540Y-167999100D03*
D22*
X47810000Y-131460000D03*
X47810000Y-136540000D03*
X40190000Y-131460000D03*
X40190000Y-136540000D03*
X109540000Y-172810000D03*
X104460000Y-172810000D03*
X109540000Y-165190000D03*
X104460000Y-165190000D03*
X92460000Y-165190000D03*
X97540000Y-165190000D03*
X92460000Y-172810000D03*
X97540000Y-172810000D03*
X109540000Y-151810000D03*
X104460000Y-151810000D03*
X109540000Y-144190000D03*
X104460000Y-144190000D03*
X109540000Y-162310000D03*
X104460000Y-162310000D03*
X109540000Y-154690000D03*
X104460000Y-154690000D03*
X57810000Y-131460000D03*
X57810000Y-136540000D03*
X50190000Y-131460000D03*
X50190000Y-136540000D03*
X92460000Y-154690000D03*
X97540000Y-154690000D03*
X92460000Y-162310000D03*
X97540000Y-162310000D03*
X92460000Y-144190000D03*
X97540000Y-144190000D03*
X92460000Y-151810000D03*
X97540000Y-151810000D03*
D14*
X45720000Y-59690000D03*
D15*
X45720000Y-57150000D03*
X45720000Y-54610000D03*
X45720000Y-52070000D03*
D23*
X93500000Y-60250000D03*
X93500000Y-57750000D03*
X101000000Y-63750000D03*
X101000000Y-66250000D03*
D14*
X91230000Y-84820000D03*
D15*
X91230000Y-82280000D03*
X91230000Y-79740000D03*
X91230000Y-77200000D03*
D14*
X88690000Y-84820000D03*
D15*
X88690000Y-82280000D03*
X88690000Y-79740000D03*
X88690000Y-77200000D03*
D24*
X101000000Y-72350000D03*
X101000000Y-69650000D03*
X101000000Y-57650000D03*
X101000000Y-60350000D03*
D23*
X59000000Y-66250000D03*
X59000000Y-68750000D03*
D25*
X62750000Y-74000000D03*
X65250000Y-74000000D03*
D18*
X48100000Y-144000000D03*
D19*
X50600000Y-144000000D03*
D25*
X71750000Y-74500000D03*
X74250000Y-74500000D03*
D18*
X71500000Y-77000000D03*
D19*
X74000000Y-77000000D03*
D23*
X77000000Y-60750000D03*
X77000000Y-58250000D03*
D18*
X79500000Y-60500000D03*
D19*
X79500000Y-58000000D03*
D25*
X64250000Y-56000000D03*
X61750000Y-56000000D03*
D18*
X45000000Y-99000000D03*
D19*
X45000000Y-101500000D03*
D23*
X108000000Y-89050000D03*
X108000000Y-86550000D03*
D26*
X53900000Y-51200000D03*
D27*
X56440000Y-51200000D03*
D28*
X103350000Y-86600000D03*
X100650000Y-86600000D03*
D22*
X99460000Y-81990000D03*
X104540000Y-81990000D03*
X99460000Y-89610000D03*
X104540000Y-89610000D03*
D26*
X45720000Y-82550000D03*
D27*
X45720000Y-80010000D03*
D14*
X45720000Y-63500000D03*
D15*
X45720000Y-66040000D03*
X45720000Y-68580000D03*
X45720000Y-71120000D03*
X45720000Y-73660000D03*
X45720000Y-76200000D03*
D23*
X77000000Y-130500000D03*
X77000000Y-128000000D03*
D26*
X39370000Y-52070000D03*
D27*
X41910000Y-52070000D03*
D26*
X53800000Y-148600000D03*
D27*
X56340000Y-148600000D03*
D26*
X55000000Y-157300000D03*
D27*
X55000000Y-159840000D03*
D29*
X96225000Y-45000000D03*
X51775000Y-45000000D03*
D30*
X107000000Y-45000000D03*
D11*
X108500000Y-75000000D03*
M02*
