%
M48
M72
T01C0.0079
T02C0.0100
T03C0.0240
T04C0.0320
T05C0.0360
T06C0.0400
T07C0.0560
T08C0.0590
%
T01
X20563Y23732
X20956Y23732
X20956Y24126
X20956Y24519
X20563Y24519
X20563Y24126
T02
X18920Y34466
X18920Y34786
X18600Y34786
X18600Y34466
T03
X10145Y6385
X10539Y7133
X10382Y7763
X11681Y7527
X14870Y6385
X15421Y8866
X18334Y10677
X18256Y13708
X19122Y13905
X25697Y17685
X28413Y19693
X28807Y21267
X27665Y21267
X25224Y22173
X23689Y21385
X23059Y21346
X22823Y22488
X22389Y22921
X21956Y23354
X22586Y23905
X21956Y24456
X22193Y25047
X19476Y25441
X19397Y24220
X20067Y23039
X24122Y23354
X25618Y24102
X32350Y21228
X34161Y21149
X36641Y22606
X37429Y22409
X37429Y23039
X38846Y24102
X39634Y24417
X40382Y25126
X41011Y23905
X42941Y24338
X42547Y25126
X43925Y25126
X44122Y24338
X43925Y22921
X40342Y21740
X39634Y22527
X38767Y22133
X37429Y21228
X37429Y20047
X38767Y20165
X40027Y19771
X40500Y18984
X39594Y18433
X40145Y18118
X38413Y17291
X40185Y16425
X40697Y16779
X41760Y16070
X43334Y16149
X44515Y16504
X43925Y15086
X43137Y15086
X42350Y14693
X40854Y14299
X40224Y15795
X37862Y15362
X37153Y15834
X33649Y16425
X32193Y16425
X27901Y14259
X33767Y12055
X35933Y12173
X31956Y10244
X37508Y7763
X38807Y8748
X35775Y6661
X32704Y3905
X30027Y1700
X29004Y2960
X28295Y3078
X27823Y3472
X29043Y3905
X28256Y4496
X27114Y5126
X26641Y4732
X18177Y1307
X11523Y10165
X10972Y11700
X10775Y14220
X9476Y16464
X13728Y23118
X10972Y27606
X19122Y32763
X18452Y33315
X17823Y33944
X17193Y33984
X17350Y34732
X18059Y35322
X19358Y35637
X18689Y36346
X19515Y37606
X22980Y36858
X22074Y33984
X22626Y33669
X21051Y33984
X20263Y32842
X22901Y30677
X23846Y32448
X26799Y30795
X37193Y27252
X38374Y25480
X37350Y25047
X39791Y26464
X40775Y26464
X43137Y26464
X44161Y27330
X45815Y26464
X46445Y26425
X46878Y25795
X48452Y25204
X47114Y24220
X48807Y27724
X49909Y28157
X44791Y28551
X41996Y28905
X40342Y29338
X39594Y29417
X38413Y30519
X37468Y31110
X38295Y34693
X40224Y35126
X46996Y33315
X47901Y33590
X49319Y31976
X54437Y30559
X60893Y29299
X59515Y25716
X57586Y24850
X61996Y21346
X57941Y20126
X57508Y18472
X56720Y17724
X55421Y17015
X54476Y17606
X56523Y15874
X56326Y15007
X55539Y14496
X56563Y14063
X58059Y14929
X60893Y13630
X63059Y15204
X68964Y14141
X67260Y10626
X67260Y8626
X62232Y9771
X61641Y10362
X61563Y11819
X59437Y11582
X59043Y10362
X58137Y9456
X55382Y8708
X53964Y7645
X49712Y7645
X49240Y8708
X56563Y11819
X56248Y12724
X54476Y13315
X50893Y12724
X50657Y13315
X49122Y12724
X43334Y12330
X42114Y13236
X46130Y17448
X44988Y18157
X45775Y18787
X47114Y18472
X47586Y18866
X48059Y19259
X48807Y18472
X48413Y18000
X51051Y19693
X47114Y20834
X44437Y19850
X43098Y19102
X41917Y18393
X42901Y18118
X43531Y18118
X37429Y18984
X34397Y19181
X34200Y23078
X33334Y24102
X24634Y20086
X21956Y18984
X13767Y32960
X14161Y34574
X14791Y34614
X15460Y35795
X16208Y35952
X13334Y35952
X11090Y35795
X10460Y35795
X10736Y34338
T04
X12260Y21626
X13260Y21626
X14760Y21626
X15760Y21626
X17760Y21626
X18760Y21626
X16260Y19126
X16260Y18126
X16260Y17126
X16260Y16126
X16260Y15126
X13260Y15126
X13260Y16126
X13260Y17126
X13260Y18126
X13260Y19126
X22760Y16126
X22760Y15126
X22760Y14126
X22760Y13126
X22760Y12126
X25760Y12126
X25760Y13126
X25760Y14126
X25760Y15126
X25760Y16126
X40810Y9626
X42710Y9626
X24260Y6126
X24260Y5126
X24260Y4126
X24260Y3126
X24260Y2126
X68760Y17126
X68760Y18126
X68760Y19126
X68760Y20126
X68760Y21126
X54260Y38126
X53260Y38126
X52260Y38126
X51260Y38126
X50260Y38126
X49260Y38126
X46760Y38126
X45760Y38126
X44760Y38126
X43760Y38126
X42760Y38126
X41760Y38126
X38760Y38126
X37760Y38126
X36760Y38126
X35760Y38126
X34760Y38126
X34760Y30626
X36760Y30626
T05
X32393Y29582
X32393Y28582
X26760Y33126
X26760Y34126
X13760Y30626
X13760Y29626
X29260Y17626
X29260Y16626
X18760Y8126
X18760Y7126
X67760Y23126
X68760Y23126
X68760Y24126
X67760Y24126
X67760Y25126
X68760Y25126
X68760Y26126
X67760Y26126
X67760Y27126
X68760Y27126
X68760Y28126
X67760Y28126
X67760Y29126
X68760Y29126
X68760Y30126
X68760Y31126
X67760Y31126
X67760Y30126
T06
X58760Y32626
X58760Y33626
X58760Y34626
X58760Y35626
X58760Y36626
X58760Y37626
X58760Y38626
X43760Y2126
X42760Y2126
X41760Y2126
T07
X8193Y28937
X8193Y30315
X8193Y36937
X8193Y38315
X28571Y29559
X29948Y29559
T08
X21417Y28047
X15417Y28047
M30
