G04 #@! TF.FileFunction,Copper,L2,Inr,Plane*
%FSLAX46Y46*%
G04 Gerber Fmt 4.6, Leading zero omitted, Abs format (unit mm)*
G04 Created by KiCad (PCBNEW 4.0.2-stable) date Sat 27 Feb 2016 06:16:26 AM EST*
%MOMM*%
G01*
G04 APERTURE LIST*
%ADD10C,0.100000*%
%ADD11R,1.727200X2.032000*%
%ADD12O,1.727200X2.032000*%
%ADD13R,2.032000X1.727200*%
%ADD14O,2.032000X1.727200*%
%ADD15R,1.300000X1.300000*%
%ADD16C,1.300000*%
%ADD17O,0.950000X1.250000*%
%ADD18O,1.550000X1.000000*%
%ADD19C,1.397000*%
%ADD20R,2.032000X2.032000*%
%ADD21O,2.032000X2.032000*%
%ADD22C,0.600000*%
%ADD23C,0.250000*%
%ADD24C,0.254000*%
G04 APERTURE END LIST*
D10*
D11*
X83000000Y-145000000D03*
D12*
X85540000Y-145000000D03*
X88080000Y-145000000D03*
D13*
X86150000Y-84820000D03*
D14*
X86150000Y-82280000D03*
X86150000Y-79740000D03*
X86150000Y-77200000D03*
D13*
X81000000Y-123000000D03*
D14*
X81000000Y-125540000D03*
X81000000Y-128080000D03*
X81000000Y-130620000D03*
X81000000Y-133160000D03*
D15*
X50350000Y-157350000D03*
D16*
X47850000Y-157350000D03*
D15*
X49000000Y-167000000D03*
D16*
X49000000Y-164500000D03*
D15*
X56500000Y-66000000D03*
D16*
X56500000Y-68500000D03*
D15*
X57000000Y-169000000D03*
D16*
X57000000Y-171500000D03*
D15*
X62500000Y-76500000D03*
D16*
X65000000Y-76500000D03*
D15*
X64500000Y-53500000D03*
D16*
X62000000Y-53500000D03*
D17*
X43662540Y-161999100D03*
X43662540Y-166999100D03*
D18*
X40962540Y-160999100D03*
X40962540Y-167999100D03*
D19*
X47810000Y-131460000D03*
X47810000Y-136540000D03*
X40190000Y-131460000D03*
X40190000Y-136540000D03*
X109540000Y-172810000D03*
X104460000Y-172810000D03*
X109540000Y-165190000D03*
X104460000Y-165190000D03*
X92460000Y-165190000D03*
X97540000Y-165190000D03*
X92460000Y-172810000D03*
X97540000Y-172810000D03*
X109540000Y-151810000D03*
X104460000Y-151810000D03*
X109540000Y-144190000D03*
X104460000Y-144190000D03*
X109540000Y-162310000D03*
X104460000Y-162310000D03*
X109540000Y-154690000D03*
X104460000Y-154690000D03*
X57810000Y-131460000D03*
X57810000Y-136540000D03*
X50190000Y-131460000D03*
X50190000Y-136540000D03*
X92460000Y-154690000D03*
X97540000Y-154690000D03*
X92460000Y-162310000D03*
X97540000Y-162310000D03*
X92460000Y-144190000D03*
X97540000Y-144190000D03*
X92460000Y-151810000D03*
X97540000Y-151810000D03*
D13*
X45720000Y-59690000D03*
D14*
X45720000Y-57150000D03*
X45720000Y-54610000D03*
X45720000Y-52070000D03*
D13*
X91230000Y-84820000D03*
D14*
X91230000Y-82280000D03*
X91230000Y-79740000D03*
X91230000Y-77200000D03*
D13*
X88690000Y-84820000D03*
D14*
X88690000Y-82280000D03*
X88690000Y-79740000D03*
X88690000Y-77200000D03*
D15*
X48100000Y-144000000D03*
D16*
X50600000Y-144000000D03*
D15*
X71500000Y-77000000D03*
D16*
X74000000Y-77000000D03*
D15*
X79500000Y-60500000D03*
D16*
X79500000Y-58000000D03*
D15*
X45000000Y-99000000D03*
D16*
X45000000Y-101500000D03*
D20*
X53900000Y-51200000D03*
D21*
X56440000Y-51200000D03*
D19*
X99460000Y-81990000D03*
X104540000Y-81990000D03*
X99460000Y-89610000D03*
X104540000Y-89610000D03*
D20*
X45720000Y-82550000D03*
D21*
X45720000Y-80010000D03*
D13*
X45720000Y-63500000D03*
D14*
X45720000Y-66040000D03*
X45720000Y-68580000D03*
X45720000Y-71120000D03*
X45720000Y-73660000D03*
X45720000Y-76200000D03*
D20*
X39370000Y-52070000D03*
D21*
X41910000Y-52070000D03*
D20*
X53800000Y-148600000D03*
D21*
X56340000Y-148600000D03*
D20*
X55000000Y-157300000D03*
D21*
X55000000Y-159840000D03*
D22*
X104200000Y-108587400D03*
X45300000Y-165149100D03*
X75300000Y-128000000D03*
X65000000Y-90500000D03*
X72695000Y-90864700D03*
X86340300Y-124270000D03*
X87400000Y-157600000D03*
X44250000Y-146400000D03*
X42400000Y-150150000D03*
X47250000Y-152350000D03*
X101000000Y-55868700D03*
X101000000Y-158078100D03*
X102151000Y-162260200D03*
X101000000Y-149365000D03*
X101000000Y-170091400D03*
X47850000Y-126823800D03*
X98031600Y-56561300D03*
X98032200Y-59435600D03*
X40856300Y-76443400D03*
X106846300Y-88581600D03*
X104000000Y-79923300D03*
X99400600Y-79908800D03*
X109700000Y-104927800D03*
X110200000Y-108552800D03*
X110200000Y-91460300D03*
X87694100Y-106299200D03*
X56114600Y-118300000D03*
X98014100Y-54003800D03*
X41250700Y-45915000D03*
X83181400Y-53762000D03*
X83993200Y-66223300D03*
X89000000Y-93693400D03*
X40357400Y-145135900D03*
X102184200Y-147177600D03*
X104710200Y-67819200D03*
X85204700Y-94481300D03*
X101294700Y-53123200D03*
X63707600Y-72327500D03*
X75326000Y-61264200D03*
X60231500Y-68067100D03*
X55484800Y-60689900D03*
X62296000Y-59033900D03*
X53250000Y-84011700D03*
X55013800Y-75509100D03*
X47904700Y-97490800D03*
X49244000Y-86095400D03*
X92746200Y-70864000D03*
X40964000Y-114199100D03*
X81865100Y-131902900D03*
X72580000Y-72847400D03*
X73500000Y-169500000D03*
X100650000Y-109900000D03*
X46400000Y-122000000D03*
X52500000Y-123000000D03*
X102200000Y-87900000D03*
X86340300Y-132134300D03*
X46750000Y-103750000D03*
X88100000Y-93000000D03*
X54533800Y-103159100D03*
X98032100Y-66985000D03*
X40874700Y-73697600D03*
X84974700Y-50479600D03*
X61335900Y-57588200D03*
X54250000Y-84014400D03*
X98013500Y-58313200D03*
X93610600Y-111058400D03*
X106940700Y-85490700D03*
X74391300Y-73357800D03*
X55625200Y-105104600D03*
X46864600Y-101064900D03*
X40968900Y-111024900D03*
X60674800Y-67264200D03*
X75305600Y-60381700D03*
X84353600Y-97917300D03*
X84661900Y-70013400D03*
X51000000Y-73828400D03*
X60698700Y-61048100D03*
X75848500Y-58304800D03*
X83993900Y-60360600D03*
X97766700Y-70941400D03*
X101716800Y-74100400D03*
X43709400Y-103468200D03*
X43984400Y-85601000D03*
X49637000Y-100758400D03*
X47861400Y-85785800D03*
X75362500Y-86120500D03*
X40959800Y-115425700D03*
X76349600Y-87087100D03*
X42650000Y-121845600D03*
X76279100Y-62104800D03*
X55700000Y-67250000D03*
X54615200Y-72424900D03*
X57592300Y-78530200D03*
X66957700Y-83595100D03*
X77702400Y-88407100D03*
X54916000Y-64251600D03*
X58641400Y-70026300D03*
X78237500Y-61370300D03*
X60672800Y-64991400D03*
X51023300Y-69109800D03*
X59170200Y-70651600D03*
X54250000Y-77975200D03*
X59945100Y-75851300D03*
X60688000Y-71397400D03*
X61421300Y-70770500D03*
X62260700Y-70858500D03*
X60533500Y-72796000D03*
X65900000Y-75300000D03*
X80870200Y-70548000D03*
X66229000Y-72707400D03*
X66531100Y-76792600D03*
X92865500Y-91487500D03*
X80244900Y-72570200D03*
X67162100Y-73820800D03*
X67750000Y-78920700D03*
X89480700Y-92374200D03*
X68399200Y-77751100D03*
X90592600Y-91487400D03*
X70275000Y-78525000D03*
X91771600Y-91495400D03*
X72750000Y-78950000D03*
X100018900Y-83450800D03*
X56201500Y-77978300D03*
X70293500Y-72436100D03*
X44362700Y-44305600D03*
X60535500Y-57719000D03*
X57028000Y-82515200D03*
X72114000Y-82559400D03*
X74163100Y-70726800D03*
X55655400Y-76189400D03*
X98036500Y-55263600D03*
X75441900Y-68154500D03*
X54897600Y-77337300D03*
X75601500Y-70885700D03*
X96194200Y-50470300D03*
X75545100Y-66786800D03*
X77501200Y-89501100D03*
X75327500Y-62290400D03*
X73701300Y-59290500D03*
X68725400Y-57689400D03*
X88319300Y-71474800D03*
X67333100Y-57676600D03*
X52951300Y-73661100D03*
X81468700Y-71504700D03*
X98041800Y-64453600D03*
X92358300Y-86208500D03*
X87693100Y-103311600D03*
X98025800Y-65640400D03*
X74837100Y-78950900D03*
X92838200Y-88302300D03*
X68051200Y-57130800D03*
X66476200Y-57080800D03*
X75449300Y-103200000D03*
X75449300Y-88073700D03*
D23*
X47810000Y-131460000D02*
X40190000Y-131460000D01*
D24*
G36*
X111290000Y-174290000D02*
X42877000Y-174290000D01*
X42877000Y-173074086D01*
X91126269Y-173074086D01*
X91328854Y-173564380D01*
X91703647Y-173939827D01*
X92193587Y-174143268D01*
X92724086Y-174143731D01*
X93214380Y-173941146D01*
X93589827Y-173566353D01*
X93793268Y-173076413D01*
X93793270Y-173074086D01*
X96206269Y-173074086D01*
X96408854Y-173564380D01*
X96783647Y-173939827D01*
X97273587Y-174143268D01*
X97804086Y-174143731D01*
X98294380Y-173941146D01*
X98669827Y-173566353D01*
X98873268Y-173076413D01*
X98873270Y-173074086D01*
X103126269Y-173074086D01*
X103328854Y-173564380D01*
X103703647Y-173939827D01*
X104193587Y-174143268D01*
X104724086Y-174143731D01*
X105214380Y-173941146D01*
X105589827Y-173566353D01*
X105793268Y-173076413D01*
X105793270Y-173074086D01*
X108206269Y-173074086D01*
X108408854Y-173564380D01*
X108783647Y-173939827D01*
X109273587Y-174143268D01*
X109804086Y-174143731D01*
X110294380Y-173941146D01*
X110669827Y-173566353D01*
X110873268Y-173076413D01*
X110873731Y-172545914D01*
X110671146Y-172055620D01*
X110296353Y-171680173D01*
X109806413Y-171476732D01*
X109275914Y-171476269D01*
X108785620Y-171678854D01*
X108410173Y-172053647D01*
X108206732Y-172543587D01*
X108206269Y-173074086D01*
X105793270Y-173074086D01*
X105793731Y-172545914D01*
X105591146Y-172055620D01*
X105216353Y-171680173D01*
X104726413Y-171476732D01*
X104195914Y-171476269D01*
X103705620Y-171678854D01*
X103330173Y-172053647D01*
X103126732Y-172543587D01*
X103126269Y-173074086D01*
X98873270Y-173074086D01*
X98873731Y-172545914D01*
X98671146Y-172055620D01*
X98296353Y-171680173D01*
X97806413Y-171476732D01*
X97275914Y-171476269D01*
X96785620Y-171678854D01*
X96410173Y-172053647D01*
X96206732Y-172543587D01*
X96206269Y-173074086D01*
X93793270Y-173074086D01*
X93793731Y-172545914D01*
X93591146Y-172055620D01*
X93216353Y-171680173D01*
X92726413Y-171476732D01*
X92195914Y-171476269D01*
X91705620Y-171678854D01*
X91330173Y-172053647D01*
X91126732Y-172543587D01*
X91126269Y-173074086D01*
X42877000Y-173074086D01*
X42877000Y-172399016D01*
X56280590Y-172399016D01*
X56336271Y-172629611D01*
X56819078Y-172797622D01*
X57329428Y-172768083D01*
X57663729Y-172629611D01*
X57719410Y-172399016D01*
X57000000Y-171679605D01*
X56280590Y-172399016D01*
X42877000Y-172399016D01*
X42877000Y-171319078D01*
X55702378Y-171319078D01*
X55731917Y-171829428D01*
X55870389Y-172163729D01*
X56100984Y-172219410D01*
X56820395Y-171500000D01*
X57179605Y-171500000D01*
X57899016Y-172219410D01*
X58129611Y-172163729D01*
X58297622Y-171680922D01*
X58268083Y-171170572D01*
X58129611Y-170836271D01*
X57899016Y-170780590D01*
X57179605Y-171500000D01*
X56820395Y-171500000D01*
X56100984Y-170780590D01*
X55870389Y-170836271D01*
X55702378Y-171319078D01*
X42877000Y-171319078D01*
X42877000Y-169500000D01*
X42868315Y-169453841D01*
X42841035Y-169411447D01*
X42799410Y-169383006D01*
X42750000Y-169373000D01*
X37750000Y-169373000D01*
X37710000Y-169380526D01*
X37710000Y-167999100D01*
X39524916Y-167999100D01*
X39611313Y-168433446D01*
X39857350Y-168801666D01*
X40225570Y-169047703D01*
X40659916Y-169134100D01*
X41265164Y-169134100D01*
X41699510Y-169047703D01*
X42067730Y-168801666D01*
X42313767Y-168433446D01*
X42330365Y-168350000D01*
X55702560Y-168350000D01*
X55702560Y-169650000D01*
X55746838Y-169885317D01*
X55885910Y-170101441D01*
X56098110Y-170246431D01*
X56350000Y-170297440D01*
X56512385Y-170297440D01*
X56336271Y-170370389D01*
X56280590Y-170600984D01*
X57000000Y-171320395D01*
X57719410Y-170600984D01*
X57663729Y-170370389D01*
X57454098Y-170297440D01*
X57650000Y-170297440D01*
X57885317Y-170253162D01*
X58101441Y-170114090D01*
X58246431Y-169901890D01*
X58290318Y-169685167D01*
X72564838Y-169685167D01*
X72706883Y-170028943D01*
X72969673Y-170292192D01*
X73313201Y-170434838D01*
X73685167Y-170435162D01*
X74028943Y-170293117D01*
X74292192Y-170030327D01*
X74434838Y-169686799D01*
X74435162Y-169314833D01*
X74293117Y-168971057D01*
X74030327Y-168707808D01*
X73686799Y-168565162D01*
X73314833Y-168564838D01*
X72971057Y-168706883D01*
X72707808Y-168969673D01*
X72565162Y-169313201D01*
X72564838Y-169685167D01*
X58290318Y-169685167D01*
X58297440Y-169650000D01*
X58297440Y-168350000D01*
X58253162Y-168114683D01*
X58114090Y-167898559D01*
X57901890Y-167753569D01*
X57650000Y-167702560D01*
X56350000Y-167702560D01*
X56114683Y-167746838D01*
X55898559Y-167885910D01*
X55753569Y-168098110D01*
X55702560Y-168350000D01*
X42330365Y-168350000D01*
X42400164Y-167999100D01*
X42313767Y-167564754D01*
X42067730Y-167196534D01*
X41699510Y-166950497D01*
X41265164Y-166864100D01*
X40659916Y-166864100D01*
X40225570Y-166950497D01*
X39857350Y-167196534D01*
X39611313Y-167564754D01*
X39524916Y-167999100D01*
X37710000Y-167999100D01*
X37710000Y-166824415D01*
X42552540Y-166824415D01*
X42552540Y-167173785D01*
X42637034Y-167598564D01*
X42877651Y-167958674D01*
X43237761Y-168199291D01*
X43662540Y-168283785D01*
X44087319Y-168199291D01*
X44447429Y-167958674D01*
X44688046Y-167598564D01*
X44750268Y-167285750D01*
X47715000Y-167285750D01*
X47715000Y-167776309D01*
X47811673Y-168009698D01*
X47990301Y-168188327D01*
X48223690Y-168285000D01*
X48714250Y-168285000D01*
X48873000Y-168126250D01*
X48873000Y-167127000D01*
X49127000Y-167127000D01*
X49127000Y-168126250D01*
X49285750Y-168285000D01*
X49776310Y-168285000D01*
X50009699Y-168188327D01*
X50188327Y-168009698D01*
X50285000Y-167776309D01*
X50285000Y-167285750D01*
X50126250Y-167127000D01*
X49127000Y-167127000D01*
X48873000Y-167127000D01*
X47873750Y-167127000D01*
X47715000Y-167285750D01*
X44750268Y-167285750D01*
X44772540Y-167173785D01*
X44772540Y-166824415D01*
X44688046Y-166399636D01*
X44447429Y-166039526D01*
X44087319Y-165798909D01*
X43662540Y-165714415D01*
X43237761Y-165798909D01*
X42877651Y-166039526D01*
X42637034Y-166399636D01*
X42552540Y-166824415D01*
X37710000Y-166824415D01*
X37710000Y-164754481D01*
X47714777Y-164754481D01*
X47909995Y-165226943D01*
X48271155Y-165588735D01*
X48575235Y-165715000D01*
X48223690Y-165715000D01*
X47990301Y-165811673D01*
X47811673Y-165990302D01*
X47715000Y-166223691D01*
X47715000Y-166714250D01*
X47873750Y-166873000D01*
X48873000Y-166873000D01*
X48873000Y-166853000D01*
X49127000Y-166853000D01*
X49127000Y-166873000D01*
X50126250Y-166873000D01*
X50285000Y-166714250D01*
X50285000Y-166223691D01*
X50188327Y-165990302D01*
X50009699Y-165811673D01*
X49776310Y-165715000D01*
X49424433Y-165715000D01*
X49644310Y-165624148D01*
X59170000Y-165624148D01*
X59170000Y-165695852D01*
X59309300Y-166396163D01*
X59705995Y-166989857D01*
X60299689Y-167386552D01*
X61000000Y-167525852D01*
X61700311Y-167386552D01*
X62294005Y-166989857D01*
X62690700Y-166396163D01*
X62830000Y-165695852D01*
X62830000Y-165624148D01*
X62796173Y-165454086D01*
X91126269Y-165454086D01*
X91328854Y-165944380D01*
X91703647Y-166319827D01*
X92193587Y-166523268D01*
X92724086Y-166523731D01*
X93214380Y-166321146D01*
X93589827Y-165946353D01*
X93793268Y-165456413D01*
X93793270Y-165454086D01*
X96206269Y-165454086D01*
X96408854Y-165944380D01*
X96783647Y-166319827D01*
X97273587Y-166523268D01*
X97804086Y-166523731D01*
X98294380Y-166321146D01*
X98669827Y-165946353D01*
X98873268Y-165456413D01*
X98873270Y-165454086D01*
X103126269Y-165454086D01*
X103328854Y-165944380D01*
X103703647Y-166319827D01*
X104193587Y-166523268D01*
X104724086Y-166523731D01*
X105214380Y-166321146D01*
X105589827Y-165946353D01*
X105793268Y-165456413D01*
X105793270Y-165454086D01*
X108206269Y-165454086D01*
X108408854Y-165944380D01*
X108783647Y-166319827D01*
X109273587Y-166523268D01*
X109804086Y-166523731D01*
X110294380Y-166321146D01*
X110669827Y-165946353D01*
X110873268Y-165456413D01*
X110873731Y-164925914D01*
X110671146Y-164435620D01*
X110296353Y-164060173D01*
X109806413Y-163856732D01*
X109275914Y-163856269D01*
X108785620Y-164058854D01*
X108410173Y-164433647D01*
X108206732Y-164923587D01*
X108206269Y-165454086D01*
X105793270Y-165454086D01*
X105793731Y-164925914D01*
X105591146Y-164435620D01*
X105216353Y-164060173D01*
X104726413Y-163856732D01*
X104195914Y-163856269D01*
X103705620Y-164058854D01*
X103330173Y-164433647D01*
X103126732Y-164923587D01*
X103126269Y-165454086D01*
X98873270Y-165454086D01*
X98873731Y-164925914D01*
X98671146Y-164435620D01*
X98296353Y-164060173D01*
X97806413Y-163856732D01*
X97275914Y-163856269D01*
X96785620Y-164058854D01*
X96410173Y-164433647D01*
X96206732Y-164923587D01*
X96206269Y-165454086D01*
X93793270Y-165454086D01*
X93793731Y-164925914D01*
X93591146Y-164435620D01*
X93216353Y-164060173D01*
X92726413Y-163856732D01*
X92195914Y-163856269D01*
X91705620Y-164058854D01*
X91330173Y-164433647D01*
X91126732Y-164923587D01*
X91126269Y-165454086D01*
X62796173Y-165454086D01*
X62690700Y-164923837D01*
X62294005Y-164330143D01*
X61700311Y-163933448D01*
X61000000Y-163794148D01*
X60299689Y-163933448D01*
X59705995Y-164330143D01*
X59309300Y-164923837D01*
X59170000Y-165624148D01*
X49644310Y-165624148D01*
X49726943Y-165590005D01*
X50088735Y-165228845D01*
X50284777Y-164756724D01*
X50285223Y-164245519D01*
X50090005Y-163773057D01*
X49728845Y-163411265D01*
X49256724Y-163215223D01*
X48745519Y-163214777D01*
X48273057Y-163409995D01*
X47911265Y-163771155D01*
X47715223Y-164243276D01*
X47714777Y-164754481D01*
X37710000Y-164754481D01*
X37710000Y-160999100D01*
X39524916Y-160999100D01*
X39611313Y-161433446D01*
X39857350Y-161801666D01*
X40225570Y-162047703D01*
X40659916Y-162134100D01*
X41265164Y-162134100D01*
X41699510Y-162047703D01*
X42033683Y-161824415D01*
X42552540Y-161824415D01*
X42552540Y-162173785D01*
X42637034Y-162598564D01*
X42877651Y-162958674D01*
X43237761Y-163199291D01*
X43662540Y-163283785D01*
X44087319Y-163199291D01*
X44447429Y-162958674D01*
X44688046Y-162598564D01*
X44692914Y-162574086D01*
X91126269Y-162574086D01*
X91328854Y-163064380D01*
X91703647Y-163439827D01*
X92193587Y-163643268D01*
X92724086Y-163643731D01*
X93214380Y-163441146D01*
X93589827Y-163066353D01*
X93793268Y-162576413D01*
X93793270Y-162574086D01*
X96206269Y-162574086D01*
X96408854Y-163064380D01*
X96783647Y-163439827D01*
X97273587Y-163643268D01*
X97804086Y-163643731D01*
X98294380Y-163441146D01*
X98669827Y-163066353D01*
X98873268Y-162576413D01*
X98873270Y-162574086D01*
X103126269Y-162574086D01*
X103328854Y-163064380D01*
X103703647Y-163439827D01*
X104193587Y-163643268D01*
X104724086Y-163643731D01*
X105214380Y-163441146D01*
X105589827Y-163066353D01*
X105793268Y-162576413D01*
X105793270Y-162574086D01*
X108206269Y-162574086D01*
X108408854Y-163064380D01*
X108783647Y-163439827D01*
X109273587Y-163643268D01*
X109804086Y-163643731D01*
X110294380Y-163441146D01*
X110669827Y-163066353D01*
X110873268Y-162576413D01*
X110873731Y-162045914D01*
X110671146Y-161555620D01*
X110296353Y-161180173D01*
X109806413Y-160976732D01*
X109275914Y-160976269D01*
X108785620Y-161178854D01*
X108410173Y-161553647D01*
X108206732Y-162043587D01*
X108206269Y-162574086D01*
X105793270Y-162574086D01*
X105793731Y-162045914D01*
X105591146Y-161555620D01*
X105216353Y-161180173D01*
X104726413Y-160976732D01*
X104195914Y-160976269D01*
X103705620Y-161178854D01*
X103330173Y-161553647D01*
X103126732Y-162043587D01*
X103126269Y-162574086D01*
X98873270Y-162574086D01*
X98873731Y-162045914D01*
X98671146Y-161555620D01*
X98296353Y-161180173D01*
X97806413Y-160976732D01*
X97275914Y-160976269D01*
X96785620Y-161178854D01*
X96410173Y-161553647D01*
X96206732Y-162043587D01*
X96206269Y-162574086D01*
X93793270Y-162574086D01*
X93793731Y-162045914D01*
X93591146Y-161555620D01*
X93216353Y-161180173D01*
X92726413Y-160976732D01*
X92195914Y-160976269D01*
X91705620Y-161178854D01*
X91330173Y-161553647D01*
X91126732Y-162043587D01*
X91126269Y-162574086D01*
X44692914Y-162574086D01*
X44772540Y-162173785D01*
X44772540Y-161824415D01*
X44688046Y-161399636D01*
X44447429Y-161039526D01*
X44087319Y-160798909D01*
X43662540Y-160714415D01*
X43237761Y-160798909D01*
X42877651Y-161039526D01*
X42637034Y-161399636D01*
X42552540Y-161824415D01*
X42033683Y-161824415D01*
X42067730Y-161801666D01*
X42313767Y-161433446D01*
X42400164Y-160999100D01*
X42313767Y-160564754D01*
X42067730Y-160196534D01*
X41699510Y-159950497D01*
X41265164Y-159864100D01*
X40659916Y-159864100D01*
X40225570Y-159950497D01*
X39857350Y-160196534D01*
X39611313Y-160564754D01*
X39524916Y-160999100D01*
X37710000Y-160999100D01*
X37710000Y-159840000D01*
X53316655Y-159840000D01*
X53442330Y-160471810D01*
X53800222Y-161007433D01*
X54335845Y-161365325D01*
X54967655Y-161491000D01*
X55032345Y-161491000D01*
X55664155Y-161365325D01*
X56199778Y-161007433D01*
X56557670Y-160471810D01*
X56683345Y-159840000D01*
X56557670Y-159208190D01*
X56330501Y-158868208D01*
X56467441Y-158780090D01*
X56612431Y-158567890D01*
X56663440Y-158316000D01*
X56663440Y-157283765D01*
X74640000Y-157283765D01*
X74640000Y-157376235D01*
X74819644Y-158279368D01*
X75331228Y-159045007D01*
X76096867Y-159556591D01*
X77000000Y-159736235D01*
X77903133Y-159556591D01*
X78668772Y-159045007D01*
X79180356Y-158279368D01*
X79360000Y-157376235D01*
X79360000Y-157283765D01*
X79180356Y-156380632D01*
X78668772Y-155614993D01*
X77903133Y-155103409D01*
X77152435Y-154954086D01*
X91126269Y-154954086D01*
X91328854Y-155444380D01*
X91703647Y-155819827D01*
X92193587Y-156023268D01*
X92724086Y-156023731D01*
X93214380Y-155821146D01*
X93589827Y-155446353D01*
X93793268Y-154956413D01*
X93793270Y-154954086D01*
X96206269Y-154954086D01*
X96408854Y-155444380D01*
X96783647Y-155819827D01*
X97273587Y-156023268D01*
X97804086Y-156023731D01*
X98294380Y-155821146D01*
X98669827Y-155446353D01*
X98873268Y-154956413D01*
X98873270Y-154954086D01*
X103126269Y-154954086D01*
X103328854Y-155444380D01*
X103703647Y-155819827D01*
X104193587Y-156023268D01*
X104724086Y-156023731D01*
X105214380Y-155821146D01*
X105589827Y-155446353D01*
X105793268Y-154956413D01*
X105793270Y-154954086D01*
X108206269Y-154954086D01*
X108408854Y-155444380D01*
X108783647Y-155819827D01*
X109273587Y-156023268D01*
X109804086Y-156023731D01*
X110294380Y-155821146D01*
X110669827Y-155446353D01*
X110873268Y-154956413D01*
X110873731Y-154425914D01*
X110671146Y-153935620D01*
X110296353Y-153560173D01*
X109806413Y-153356732D01*
X109275914Y-153356269D01*
X108785620Y-153558854D01*
X108410173Y-153933647D01*
X108206732Y-154423587D01*
X108206269Y-154954086D01*
X105793270Y-154954086D01*
X105793731Y-154425914D01*
X105591146Y-153935620D01*
X105216353Y-153560173D01*
X104726413Y-153356732D01*
X104195914Y-153356269D01*
X103705620Y-153558854D01*
X103330173Y-153933647D01*
X103126732Y-154423587D01*
X103126269Y-154954086D01*
X98873270Y-154954086D01*
X98873731Y-154425914D01*
X98671146Y-153935620D01*
X98296353Y-153560173D01*
X97806413Y-153356732D01*
X97275914Y-153356269D01*
X96785620Y-153558854D01*
X96410173Y-153933647D01*
X96206732Y-154423587D01*
X96206269Y-154954086D01*
X93793270Y-154954086D01*
X93793731Y-154425914D01*
X93591146Y-153935620D01*
X93216353Y-153560173D01*
X92726413Y-153356732D01*
X92195914Y-153356269D01*
X91705620Y-153558854D01*
X91330173Y-153933647D01*
X91126732Y-154423587D01*
X91126269Y-154954086D01*
X77152435Y-154954086D01*
X77000000Y-154923765D01*
X76096867Y-155103409D01*
X75331228Y-155614993D01*
X74819644Y-156380632D01*
X74640000Y-157283765D01*
X56663440Y-157283765D01*
X56663440Y-156284000D01*
X56619162Y-156048683D01*
X56480090Y-155832559D01*
X56267890Y-155687569D01*
X56016000Y-155636560D01*
X53984000Y-155636560D01*
X53748683Y-155680838D01*
X53532559Y-155819910D01*
X53387569Y-156032110D01*
X53336560Y-156284000D01*
X53336560Y-158316000D01*
X53380838Y-158551317D01*
X53519910Y-158767441D01*
X53668837Y-158869198D01*
X53442330Y-159208190D01*
X53316655Y-159840000D01*
X37710000Y-159840000D01*
X37710000Y-158249016D01*
X47130590Y-158249016D01*
X47186271Y-158479611D01*
X47669078Y-158647622D01*
X48179428Y-158618083D01*
X48513729Y-158479611D01*
X48569410Y-158249016D01*
X47850000Y-157529605D01*
X47130590Y-158249016D01*
X37710000Y-158249016D01*
X37710000Y-157169078D01*
X46552378Y-157169078D01*
X46581917Y-157679428D01*
X46720389Y-158013729D01*
X46950984Y-158069410D01*
X47670395Y-157350000D01*
X48029605Y-157350000D01*
X48749016Y-158069410D01*
X48979611Y-158013729D01*
X49052560Y-157804098D01*
X49052560Y-158000000D01*
X49096838Y-158235317D01*
X49235910Y-158451441D01*
X49448110Y-158596431D01*
X49700000Y-158647440D01*
X51000000Y-158647440D01*
X51235317Y-158603162D01*
X51451441Y-158464090D01*
X51596431Y-158251890D01*
X51647440Y-158000000D01*
X51647440Y-156700000D01*
X51603162Y-156464683D01*
X51464090Y-156248559D01*
X51251890Y-156103569D01*
X51000000Y-156052560D01*
X49700000Y-156052560D01*
X49464683Y-156096838D01*
X49248559Y-156235910D01*
X49103569Y-156448110D01*
X49052560Y-156700000D01*
X49052560Y-156862385D01*
X48979611Y-156686271D01*
X48749016Y-156630590D01*
X48029605Y-157350000D01*
X47670395Y-157350000D01*
X46950984Y-156630590D01*
X46720389Y-156686271D01*
X46552378Y-157169078D01*
X37710000Y-157169078D01*
X37710000Y-156450984D01*
X47130590Y-156450984D01*
X47850000Y-157170395D01*
X48569410Y-156450984D01*
X48513729Y-156220389D01*
X48030922Y-156052378D01*
X47520572Y-156081917D01*
X47186271Y-156220389D01*
X47130590Y-156450984D01*
X37710000Y-156450984D01*
X37710000Y-152074086D01*
X91126269Y-152074086D01*
X91328854Y-152564380D01*
X91703647Y-152939827D01*
X92193587Y-153143268D01*
X92724086Y-153143731D01*
X93214380Y-152941146D01*
X93589827Y-152566353D01*
X93793268Y-152076413D01*
X93793270Y-152074086D01*
X96206269Y-152074086D01*
X96408854Y-152564380D01*
X96783647Y-152939827D01*
X97273587Y-153143268D01*
X97804086Y-153143731D01*
X98294380Y-152941146D01*
X98669827Y-152566353D01*
X98873268Y-152076413D01*
X98873270Y-152074086D01*
X103126269Y-152074086D01*
X103328854Y-152564380D01*
X103703647Y-152939827D01*
X104193587Y-153143268D01*
X104724086Y-153143731D01*
X105214380Y-152941146D01*
X105589827Y-152566353D01*
X105793268Y-152076413D01*
X105793270Y-152074086D01*
X108206269Y-152074086D01*
X108408854Y-152564380D01*
X108783647Y-152939827D01*
X109273587Y-153143268D01*
X109804086Y-153143731D01*
X110294380Y-152941146D01*
X110669827Y-152566353D01*
X110873268Y-152076413D01*
X110873731Y-151545914D01*
X110671146Y-151055620D01*
X110296353Y-150680173D01*
X109806413Y-150476732D01*
X109275914Y-150476269D01*
X108785620Y-150678854D01*
X108410173Y-151053647D01*
X108206732Y-151543587D01*
X108206269Y-152074086D01*
X105793270Y-152074086D01*
X105793731Y-151545914D01*
X105591146Y-151055620D01*
X105216353Y-150680173D01*
X104726413Y-150476732D01*
X104195914Y-150476269D01*
X103705620Y-150678854D01*
X103330173Y-151053647D01*
X103126732Y-151543587D01*
X103126269Y-152074086D01*
X98873270Y-152074086D01*
X98873731Y-151545914D01*
X98671146Y-151055620D01*
X98296353Y-150680173D01*
X97806413Y-150476732D01*
X97275914Y-150476269D01*
X96785620Y-150678854D01*
X96410173Y-151053647D01*
X96206732Y-151543587D01*
X96206269Y-152074086D01*
X93793270Y-152074086D01*
X93793731Y-151545914D01*
X93591146Y-151055620D01*
X93216353Y-150680173D01*
X92726413Y-150476732D01*
X92195914Y-150476269D01*
X91705620Y-150678854D01*
X91330173Y-151053647D01*
X91126732Y-151543587D01*
X91126269Y-152074086D01*
X37710000Y-152074086D01*
X37710000Y-147584000D01*
X52136560Y-147584000D01*
X52136560Y-149616000D01*
X52180838Y-149851317D01*
X52319910Y-150067441D01*
X52532110Y-150212431D01*
X52784000Y-150263440D01*
X54816000Y-150263440D01*
X55051317Y-150219162D01*
X55267441Y-150080090D01*
X55369198Y-149931163D01*
X55708190Y-150157670D01*
X56340000Y-150283345D01*
X56971810Y-150157670D01*
X57507433Y-149799778D01*
X57865325Y-149264155D01*
X57991000Y-148632345D01*
X57991000Y-148567655D01*
X57865325Y-147935845D01*
X57507433Y-147400222D01*
X56971810Y-147042330D01*
X56340000Y-146916655D01*
X55708190Y-147042330D01*
X55368208Y-147269499D01*
X55280090Y-147132559D01*
X55067890Y-146987569D01*
X54816000Y-146936560D01*
X52784000Y-146936560D01*
X52548683Y-146980838D01*
X52332559Y-147119910D01*
X52187569Y-147332110D01*
X52136560Y-147584000D01*
X37710000Y-147584000D01*
X37710000Y-144285750D01*
X46815000Y-144285750D01*
X46815000Y-144776310D01*
X46911673Y-145009699D01*
X47090302Y-145188327D01*
X47323691Y-145285000D01*
X47814250Y-145285000D01*
X47973000Y-145126250D01*
X47973000Y-144127000D01*
X46973750Y-144127000D01*
X46815000Y-144285750D01*
X37710000Y-144285750D01*
X37710000Y-143223690D01*
X46815000Y-143223690D01*
X46815000Y-143714250D01*
X46973750Y-143873000D01*
X47973000Y-143873000D01*
X47973000Y-142873750D01*
X48227000Y-142873750D01*
X48227000Y-143873000D01*
X48247000Y-143873000D01*
X48247000Y-144127000D01*
X48227000Y-144127000D01*
X48227000Y-145126250D01*
X48385750Y-145285000D01*
X48876309Y-145285000D01*
X49109698Y-145188327D01*
X49288327Y-145009699D01*
X49385000Y-144776310D01*
X49385000Y-144424433D01*
X49509995Y-144726943D01*
X49871155Y-145088735D01*
X50343276Y-145284777D01*
X50854481Y-145285223D01*
X51326943Y-145090005D01*
X51688735Y-144728845D01*
X51884777Y-144256724D01*
X51885014Y-143984000D01*
X81488960Y-143984000D01*
X81488960Y-146016000D01*
X81533238Y-146251317D01*
X81672310Y-146467441D01*
X81884510Y-146612431D01*
X82136400Y-146663440D01*
X83863600Y-146663440D01*
X84098917Y-146619162D01*
X84315041Y-146480090D01*
X84460031Y-146267890D01*
X84479232Y-146173073D01*
X84637964Y-146350732D01*
X85165209Y-146604709D01*
X85180974Y-146607358D01*
X85413000Y-146486217D01*
X85413000Y-145127000D01*
X85393000Y-145127000D01*
X85393000Y-144873000D01*
X85413000Y-144873000D01*
X85413000Y-143513783D01*
X85667000Y-143513783D01*
X85667000Y-144873000D01*
X85687000Y-144873000D01*
X85687000Y-145127000D01*
X85667000Y-145127000D01*
X85667000Y-146486217D01*
X85899026Y-146607358D01*
X85914791Y-146604709D01*
X86442036Y-146350732D01*
X86813539Y-145934931D01*
X87020330Y-146244415D01*
X87506511Y-146569271D01*
X88080000Y-146683345D01*
X88653489Y-146569271D01*
X89139670Y-146244415D01*
X89464526Y-145758234D01*
X89578600Y-145184745D01*
X89578600Y-144815255D01*
X89506760Y-144454086D01*
X91126269Y-144454086D01*
X91328854Y-144944380D01*
X91703647Y-145319827D01*
X92193587Y-145523268D01*
X92724086Y-145523731D01*
X93214380Y-145321146D01*
X93589827Y-144946353D01*
X93793268Y-144456413D01*
X93793270Y-144454086D01*
X96206269Y-144454086D01*
X96408854Y-144944380D01*
X96783647Y-145319827D01*
X97273587Y-145523268D01*
X97804086Y-145523731D01*
X98294380Y-145321146D01*
X98669827Y-144946353D01*
X98873268Y-144456413D01*
X98873270Y-144454086D01*
X103126269Y-144454086D01*
X103328854Y-144944380D01*
X103703647Y-145319827D01*
X104193587Y-145523268D01*
X104724086Y-145523731D01*
X105214380Y-145321146D01*
X105589827Y-144946353D01*
X105793268Y-144456413D01*
X105793270Y-144454086D01*
X108206269Y-144454086D01*
X108408854Y-144944380D01*
X108783647Y-145319827D01*
X109273587Y-145523268D01*
X109804086Y-145523731D01*
X110294380Y-145321146D01*
X110669827Y-144946353D01*
X110873268Y-144456413D01*
X110873731Y-143925914D01*
X110671146Y-143435620D01*
X110296353Y-143060173D01*
X109806413Y-142856732D01*
X109275914Y-142856269D01*
X108785620Y-143058854D01*
X108410173Y-143433647D01*
X108206732Y-143923587D01*
X108206269Y-144454086D01*
X105793270Y-144454086D01*
X105793731Y-143925914D01*
X105591146Y-143435620D01*
X105216353Y-143060173D01*
X104726413Y-142856732D01*
X104195914Y-142856269D01*
X103705620Y-143058854D01*
X103330173Y-143433647D01*
X103126732Y-143923587D01*
X103126269Y-144454086D01*
X98873270Y-144454086D01*
X98873731Y-143925914D01*
X98671146Y-143435620D01*
X98296353Y-143060173D01*
X97806413Y-142856732D01*
X97275914Y-142856269D01*
X96785620Y-143058854D01*
X96410173Y-143433647D01*
X96206732Y-143923587D01*
X96206269Y-144454086D01*
X93793270Y-144454086D01*
X93793731Y-143925914D01*
X93591146Y-143435620D01*
X93216353Y-143060173D01*
X92726413Y-142856732D01*
X92195914Y-142856269D01*
X91705620Y-143058854D01*
X91330173Y-143433647D01*
X91126732Y-143923587D01*
X91126269Y-144454086D01*
X89506760Y-144454086D01*
X89464526Y-144241766D01*
X89139670Y-143755585D01*
X88653489Y-143430729D01*
X88080000Y-143316655D01*
X87506511Y-143430729D01*
X87020330Y-143755585D01*
X86813539Y-144065069D01*
X86442036Y-143649268D01*
X85914791Y-143395291D01*
X85899026Y-143392642D01*
X85667000Y-143513783D01*
X85413000Y-143513783D01*
X85180974Y-143392642D01*
X85165209Y-143395291D01*
X84637964Y-143649268D01*
X84481093Y-143824845D01*
X84466762Y-143748683D01*
X84327690Y-143532559D01*
X84115490Y-143387569D01*
X83863600Y-143336560D01*
X82136400Y-143336560D01*
X81901083Y-143380838D01*
X81684959Y-143519910D01*
X81539969Y-143732110D01*
X81488960Y-143984000D01*
X51885014Y-143984000D01*
X51885223Y-143745519D01*
X51690005Y-143273057D01*
X51328845Y-142911265D01*
X50856724Y-142715223D01*
X50345519Y-142714777D01*
X49873057Y-142909995D01*
X49511265Y-143271155D01*
X49385000Y-143575235D01*
X49385000Y-143223690D01*
X49288327Y-142990301D01*
X49109698Y-142811673D01*
X48876309Y-142715000D01*
X48385750Y-142715000D01*
X48227000Y-142873750D01*
X47973000Y-142873750D01*
X47814250Y-142715000D01*
X47323691Y-142715000D01*
X47090302Y-142811673D01*
X46911673Y-142990301D01*
X46815000Y-143223690D01*
X37710000Y-143223690D01*
X37710000Y-136804086D01*
X38856269Y-136804086D01*
X39058854Y-137294380D01*
X39433647Y-137669827D01*
X39923587Y-137873268D01*
X40454086Y-137873731D01*
X40944380Y-137671146D01*
X41319827Y-137296353D01*
X41523268Y-136806413D01*
X41523270Y-136804086D01*
X46476269Y-136804086D01*
X46678854Y-137294380D01*
X47053647Y-137669827D01*
X47543587Y-137873268D01*
X48074086Y-137873731D01*
X48564380Y-137671146D01*
X48939827Y-137296353D01*
X48999896Y-137151691D01*
X49058854Y-137294380D01*
X49433647Y-137669827D01*
X49923587Y-137873268D01*
X50454086Y-137873731D01*
X50944380Y-137671146D01*
X51319827Y-137296353D01*
X51523268Y-136806413D01*
X51523270Y-136804086D01*
X56476269Y-136804086D01*
X56678854Y-137294380D01*
X57053647Y-137669827D01*
X57543587Y-137873268D01*
X58074086Y-137873731D01*
X58564380Y-137671146D01*
X58939827Y-137296353D01*
X59143268Y-136806413D01*
X59143731Y-136275914D01*
X58941146Y-135785620D01*
X58566353Y-135410173D01*
X58076413Y-135206732D01*
X57545914Y-135206269D01*
X57055620Y-135408854D01*
X56680173Y-135783647D01*
X56476732Y-136273587D01*
X56476269Y-136804086D01*
X51523270Y-136804086D01*
X51523731Y-136275914D01*
X51321146Y-135785620D01*
X50946353Y-135410173D01*
X50456413Y-135206732D01*
X49925914Y-135206269D01*
X49435620Y-135408854D01*
X49060173Y-135783647D01*
X49000104Y-135928309D01*
X48941146Y-135785620D01*
X48566353Y-135410173D01*
X48076413Y-135206732D01*
X47545914Y-135206269D01*
X47055620Y-135408854D01*
X46680173Y-135783647D01*
X46476732Y-136273587D01*
X46476269Y-136804086D01*
X41523270Y-136804086D01*
X41523731Y-136275914D01*
X41321146Y-135785620D01*
X40946353Y-135410173D01*
X40456413Y-135206732D01*
X39925914Y-135206269D01*
X39435620Y-135408854D01*
X39060173Y-135783647D01*
X38856732Y-136273587D01*
X38856269Y-136804086D01*
X37710000Y-136804086D01*
X37710000Y-131724086D01*
X38856269Y-131724086D01*
X39058854Y-132214380D01*
X39433647Y-132589827D01*
X39923587Y-132793268D01*
X40454086Y-132793731D01*
X40944380Y-132591146D01*
X41316174Y-132220000D01*
X46684464Y-132220000D01*
X47053647Y-132589827D01*
X47543587Y-132793268D01*
X48074086Y-132793731D01*
X48564380Y-132591146D01*
X48939827Y-132216353D01*
X48999896Y-132071691D01*
X49058854Y-132214380D01*
X49433647Y-132589827D01*
X49923587Y-132793268D01*
X50454086Y-132793731D01*
X50944380Y-132591146D01*
X51319827Y-132216353D01*
X51523268Y-131726413D01*
X51523270Y-131724086D01*
X56476269Y-131724086D01*
X56678854Y-132214380D01*
X57053647Y-132589827D01*
X57543587Y-132793268D01*
X58074086Y-132793731D01*
X58564380Y-132591146D01*
X58939827Y-132216353D01*
X59143268Y-131726413D01*
X59143731Y-131195914D01*
X58941146Y-130705620D01*
X58566353Y-130330173D01*
X58076413Y-130126732D01*
X57545914Y-130126269D01*
X57055620Y-130328854D01*
X56680173Y-130703647D01*
X56476732Y-131193587D01*
X56476269Y-131724086D01*
X51523270Y-131724086D01*
X51523731Y-131195914D01*
X51321146Y-130705620D01*
X50946353Y-130330173D01*
X50456413Y-130126732D01*
X49925914Y-130126269D01*
X49435620Y-130328854D01*
X49060173Y-130703647D01*
X49000104Y-130848309D01*
X48941146Y-130705620D01*
X48566353Y-130330173D01*
X48076413Y-130126732D01*
X47545914Y-130126269D01*
X47055620Y-130328854D01*
X46683826Y-130700000D01*
X41315536Y-130700000D01*
X40946353Y-130330173D01*
X40456413Y-130126732D01*
X39925914Y-130126269D01*
X39435620Y-130328854D01*
X39060173Y-130703647D01*
X38856732Y-131193587D01*
X38856269Y-131724086D01*
X37710000Y-131724086D01*
X37710000Y-128080000D01*
X79316655Y-128080000D01*
X79430729Y-128653489D01*
X79755585Y-129139670D01*
X80070366Y-129350000D01*
X79755585Y-129560330D01*
X79430729Y-130046511D01*
X79316655Y-130620000D01*
X79430729Y-131193489D01*
X79755585Y-131679670D01*
X80070366Y-131890000D01*
X79755585Y-132100330D01*
X79430729Y-132586511D01*
X79316655Y-133160000D01*
X79430729Y-133733489D01*
X79755585Y-134219670D01*
X80241766Y-134544526D01*
X80815255Y-134658600D01*
X81184745Y-134658600D01*
X81758234Y-134544526D01*
X82244415Y-134219670D01*
X82569271Y-133733489D01*
X82683345Y-133160000D01*
X82569271Y-132586511D01*
X82390838Y-132319467D01*
X85405138Y-132319467D01*
X85547183Y-132663243D01*
X85809973Y-132926492D01*
X86153501Y-133069138D01*
X86525467Y-133069462D01*
X86869243Y-132927417D01*
X87132492Y-132664627D01*
X87275138Y-132321099D01*
X87275462Y-131949133D01*
X87133417Y-131605357D01*
X86870627Y-131342108D01*
X86527099Y-131199462D01*
X86155133Y-131199138D01*
X85811357Y-131341183D01*
X85548108Y-131603973D01*
X85405462Y-131947501D01*
X85405138Y-132319467D01*
X82390838Y-132319467D01*
X82244415Y-132100330D01*
X81929634Y-131890000D01*
X82244415Y-131679670D01*
X82569271Y-131193489D01*
X82683345Y-130620000D01*
X82569271Y-130046511D01*
X82244415Y-129560330D01*
X81929634Y-129350000D01*
X82244415Y-129139670D01*
X82569271Y-128653489D01*
X82683345Y-128080000D01*
X82569271Y-127506511D01*
X82244415Y-127020330D01*
X81934931Y-126813539D01*
X82350732Y-126442036D01*
X82604709Y-125914791D01*
X82607358Y-125899026D01*
X82486217Y-125667000D01*
X81127000Y-125667000D01*
X81127000Y-125687000D01*
X80873000Y-125687000D01*
X80873000Y-125667000D01*
X79513783Y-125667000D01*
X79392642Y-125899026D01*
X79395291Y-125914791D01*
X79649268Y-126442036D01*
X80065069Y-126813539D01*
X79755585Y-127020330D01*
X79430729Y-127506511D01*
X79316655Y-128080000D01*
X37710000Y-128080000D01*
X37710000Y-123185167D01*
X51564838Y-123185167D01*
X51706883Y-123528943D01*
X51969673Y-123792192D01*
X52313201Y-123934838D01*
X52685167Y-123935162D01*
X53028943Y-123793117D01*
X53292192Y-123530327D01*
X53393749Y-123285750D01*
X79349000Y-123285750D01*
X79349000Y-123989910D01*
X79445673Y-124223299D01*
X79624302Y-124401927D01*
X79821861Y-124483759D01*
X79649268Y-124637964D01*
X79395291Y-125165209D01*
X79392642Y-125180974D01*
X79513783Y-125413000D01*
X80873000Y-125413000D01*
X80873000Y-123127000D01*
X81127000Y-123127000D01*
X81127000Y-125413000D01*
X82486217Y-125413000D01*
X82607358Y-125180974D01*
X82604709Y-125165209D01*
X82350732Y-124637964D01*
X82178139Y-124483759D01*
X82375698Y-124401927D01*
X82554327Y-124223299D01*
X82651000Y-123989910D01*
X82651000Y-123285750D01*
X82492250Y-123127000D01*
X81127000Y-123127000D01*
X80873000Y-123127000D01*
X79507750Y-123127000D01*
X79349000Y-123285750D01*
X53393749Y-123285750D01*
X53434838Y-123186799D01*
X53435162Y-122814833D01*
X53293117Y-122471057D01*
X53030327Y-122207808D01*
X52686799Y-122065162D01*
X52314833Y-122064838D01*
X51971057Y-122206883D01*
X51707808Y-122469673D01*
X51565162Y-122813201D01*
X51564838Y-123185167D01*
X37710000Y-123185167D01*
X37710000Y-122030767D01*
X41714838Y-122030767D01*
X41856883Y-122374543D01*
X42119673Y-122637792D01*
X42463201Y-122780438D01*
X42835167Y-122780762D01*
X43178943Y-122638717D01*
X43442192Y-122375927D01*
X43521402Y-122185167D01*
X45464838Y-122185167D01*
X45606883Y-122528943D01*
X45869673Y-122792192D01*
X46213201Y-122934838D01*
X46585167Y-122935162D01*
X46928943Y-122793117D01*
X47192192Y-122530327D01*
X47334838Y-122186799D01*
X47334991Y-122010090D01*
X79349000Y-122010090D01*
X79349000Y-122714250D01*
X79507750Y-122873000D01*
X80873000Y-122873000D01*
X80873000Y-121660150D01*
X81127000Y-121660150D01*
X81127000Y-122873000D01*
X82492250Y-122873000D01*
X82651000Y-122714250D01*
X82651000Y-122010090D01*
X82554327Y-121776701D01*
X82375698Y-121598073D01*
X82142309Y-121501400D01*
X81285750Y-121501400D01*
X81127000Y-121660150D01*
X80873000Y-121660150D01*
X80714250Y-121501400D01*
X79857691Y-121501400D01*
X79624302Y-121598073D01*
X79445673Y-121776701D01*
X79349000Y-122010090D01*
X47334991Y-122010090D01*
X47335162Y-121814833D01*
X47193117Y-121471057D01*
X46930327Y-121207808D01*
X46586799Y-121065162D01*
X46214833Y-121064838D01*
X45871057Y-121206883D01*
X45607808Y-121469673D01*
X45465162Y-121813201D01*
X45464838Y-122185167D01*
X43521402Y-122185167D01*
X43584838Y-122032399D01*
X43585162Y-121660433D01*
X43443117Y-121316657D01*
X43180327Y-121053408D01*
X42836799Y-120910762D01*
X42464833Y-120910438D01*
X42121057Y-121052483D01*
X41857808Y-121315273D01*
X41715162Y-121658801D01*
X41714838Y-122030767D01*
X37710000Y-122030767D01*
X37710000Y-115610867D01*
X40024638Y-115610867D01*
X40166683Y-115954643D01*
X40429473Y-116217892D01*
X40773001Y-116360538D01*
X41144967Y-116360862D01*
X41488743Y-116218817D01*
X41751992Y-115956027D01*
X41894638Y-115612499D01*
X41894962Y-115240533D01*
X41752917Y-114896757D01*
X41490127Y-114633508D01*
X41146599Y-114490862D01*
X40774633Y-114490538D01*
X40430857Y-114632583D01*
X40167608Y-114895373D01*
X40024962Y-115238901D01*
X40024638Y-115610867D01*
X37710000Y-115610867D01*
X37710000Y-111210067D01*
X40033738Y-111210067D01*
X40175783Y-111553843D01*
X40438573Y-111817092D01*
X40782101Y-111959738D01*
X41154067Y-111960062D01*
X41497843Y-111818017D01*
X41761092Y-111555227D01*
X41890505Y-111243567D01*
X92675438Y-111243567D01*
X92817483Y-111587343D01*
X93080273Y-111850592D01*
X93423801Y-111993238D01*
X93795767Y-111993562D01*
X94139543Y-111851517D01*
X94402792Y-111588727D01*
X94545438Y-111245199D01*
X94545762Y-110873233D01*
X94403717Y-110529457D01*
X94140927Y-110266208D01*
X93797399Y-110123562D01*
X93425433Y-110123238D01*
X93081657Y-110265283D01*
X92818408Y-110528073D01*
X92675762Y-110871601D01*
X92675438Y-111243567D01*
X41890505Y-111243567D01*
X41903738Y-111211699D01*
X41904062Y-110839733D01*
X41762017Y-110495957D01*
X41499227Y-110232708D01*
X41155699Y-110090062D01*
X40783733Y-110089738D01*
X40439957Y-110231783D01*
X40176708Y-110494573D01*
X40034062Y-110838101D01*
X40033738Y-111210067D01*
X37710000Y-111210067D01*
X37710000Y-110085167D01*
X99714838Y-110085167D01*
X99856883Y-110428943D01*
X100119673Y-110692192D01*
X100463201Y-110834838D01*
X100835167Y-110835162D01*
X101178943Y-110693117D01*
X101442192Y-110430327D01*
X101584838Y-110086799D01*
X101585162Y-109714833D01*
X101443117Y-109371057D01*
X101180327Y-109107808D01*
X100836799Y-108965162D01*
X100464833Y-108964838D01*
X100121057Y-109106883D01*
X99857808Y-109369673D01*
X99715162Y-109713201D01*
X99714838Y-110085167D01*
X37710000Y-110085167D01*
X37710000Y-108772567D01*
X103264838Y-108772567D01*
X103406883Y-109116343D01*
X103669673Y-109379592D01*
X104013201Y-109522238D01*
X104385167Y-109522562D01*
X104728943Y-109380517D01*
X104992192Y-109117727D01*
X105134838Y-108774199D01*
X105135162Y-108402233D01*
X104993117Y-108058457D01*
X104730327Y-107795208D01*
X104386799Y-107652562D01*
X104014833Y-107652238D01*
X103671057Y-107794283D01*
X103407808Y-108057073D01*
X103265162Y-108400601D01*
X103264838Y-108772567D01*
X37710000Y-108772567D01*
X37710000Y-105289767D01*
X54690038Y-105289767D01*
X54832083Y-105633543D01*
X55094873Y-105896792D01*
X55438401Y-106039438D01*
X55810367Y-106039762D01*
X56154143Y-105897717D01*
X56417392Y-105634927D01*
X56560038Y-105291399D01*
X56560362Y-104919433D01*
X56418317Y-104575657D01*
X56155527Y-104312408D01*
X55811999Y-104169762D01*
X55440033Y-104169438D01*
X55096257Y-104311483D01*
X54833008Y-104574273D01*
X54690362Y-104917801D01*
X54690038Y-105289767D01*
X37710000Y-105289767D01*
X37710000Y-103653367D01*
X42774238Y-103653367D01*
X42916283Y-103997143D01*
X43179073Y-104260392D01*
X43522601Y-104403038D01*
X43894567Y-104403362D01*
X44238343Y-104261317D01*
X44501592Y-103998527D01*
X44527901Y-103935167D01*
X45814838Y-103935167D01*
X45956883Y-104278943D01*
X46219673Y-104542192D01*
X46563201Y-104684838D01*
X46935167Y-104685162D01*
X47278943Y-104543117D01*
X47542192Y-104280327D01*
X47684838Y-103936799D01*
X47685162Y-103564833D01*
X47594027Y-103344267D01*
X53598638Y-103344267D01*
X53740683Y-103688043D01*
X54003473Y-103951292D01*
X54347001Y-104093938D01*
X54718967Y-104094262D01*
X55062743Y-103952217D01*
X55325992Y-103689427D01*
X55468638Y-103345899D01*
X55468962Y-102973933D01*
X55326917Y-102630157D01*
X55064127Y-102366908D01*
X54720599Y-102224262D01*
X54348633Y-102223938D01*
X54004857Y-102365983D01*
X53741608Y-102628773D01*
X53598962Y-102972301D01*
X53598638Y-103344267D01*
X47594027Y-103344267D01*
X47543117Y-103221057D01*
X47280327Y-102957808D01*
X46936799Y-102815162D01*
X46564833Y-102814838D01*
X46221057Y-102956883D01*
X45957808Y-103219673D01*
X45815162Y-103563201D01*
X45814838Y-103935167D01*
X44527901Y-103935167D01*
X44644238Y-103654999D01*
X44644562Y-103283033D01*
X44502517Y-102939257D01*
X44239727Y-102676008D01*
X43896199Y-102533362D01*
X43524233Y-102533038D01*
X43180457Y-102675083D01*
X42917208Y-102937873D01*
X42774562Y-103281401D01*
X42774238Y-103653367D01*
X37710000Y-103653367D01*
X37710000Y-101754481D01*
X43714777Y-101754481D01*
X43909995Y-102226943D01*
X44271155Y-102588735D01*
X44743276Y-102784777D01*
X45254481Y-102785223D01*
X45726943Y-102590005D01*
X46088735Y-102228845D01*
X46148977Y-102083765D01*
X58640000Y-102083765D01*
X58640000Y-102176235D01*
X58819644Y-103079368D01*
X59331228Y-103845007D01*
X60096867Y-104356591D01*
X61000000Y-104536235D01*
X61903133Y-104356591D01*
X62668772Y-103845007D01*
X62976027Y-103385167D01*
X74514138Y-103385167D01*
X74656183Y-103728943D01*
X74918973Y-103992192D01*
X75262501Y-104134838D01*
X75634467Y-104135162D01*
X75978243Y-103993117D01*
X76241492Y-103730327D01*
X76338475Y-103496767D01*
X86757938Y-103496767D01*
X86899983Y-103840543D01*
X87162773Y-104103792D01*
X87506301Y-104246438D01*
X87878267Y-104246762D01*
X88222043Y-104104717D01*
X88485292Y-103841927D01*
X88627938Y-103498399D01*
X88628262Y-103126433D01*
X88486217Y-102782657D01*
X88223427Y-102519408D01*
X87879899Y-102376762D01*
X87507933Y-102376438D01*
X87164157Y-102518483D01*
X86900908Y-102781273D01*
X86758262Y-103124801D01*
X86757938Y-103496767D01*
X76338475Y-103496767D01*
X76384138Y-103386799D01*
X76384462Y-103014833D01*
X76242417Y-102671057D01*
X75979627Y-102407808D01*
X75636099Y-102265162D01*
X75264133Y-102264838D01*
X74920357Y-102406883D01*
X74657108Y-102669673D01*
X74514462Y-103013201D01*
X74514138Y-103385167D01*
X62976027Y-103385167D01*
X63180356Y-103079368D01*
X63360000Y-102176235D01*
X63360000Y-102083765D01*
X63180356Y-101180632D01*
X62668772Y-100414993D01*
X61903133Y-99903409D01*
X61000000Y-99723765D01*
X60096867Y-99903409D01*
X59331228Y-100414993D01*
X58819644Y-101180632D01*
X58640000Y-102083765D01*
X46148977Y-102083765D01*
X46269884Y-101792590D01*
X46334273Y-101857092D01*
X46677801Y-101999738D01*
X47049767Y-102000062D01*
X47393543Y-101858017D01*
X47656792Y-101595227D01*
X47799438Y-101251699D01*
X47799706Y-100943567D01*
X48701838Y-100943567D01*
X48843883Y-101287343D01*
X49106673Y-101550592D01*
X49450201Y-101693238D01*
X49822167Y-101693562D01*
X50165943Y-101551517D01*
X50429192Y-101288727D01*
X50571838Y-100945199D01*
X50572162Y-100573233D01*
X50430117Y-100229457D01*
X50167327Y-99966208D01*
X49823799Y-99823562D01*
X49451833Y-99823238D01*
X49108057Y-99965283D01*
X48844808Y-100228073D01*
X48702162Y-100571601D01*
X48701838Y-100943567D01*
X47799706Y-100943567D01*
X47799762Y-100879733D01*
X47657717Y-100535957D01*
X47394927Y-100272708D01*
X47051399Y-100130062D01*
X46679433Y-100129738D01*
X46335657Y-100271783D01*
X46072408Y-100534573D01*
X46007641Y-100690549D01*
X45728845Y-100411265D01*
X45424765Y-100285000D01*
X45776310Y-100285000D01*
X46009699Y-100188327D01*
X46188327Y-100009698D01*
X46285000Y-99776309D01*
X46285000Y-99285750D01*
X46126250Y-99127000D01*
X45127000Y-99127000D01*
X45127000Y-99147000D01*
X44873000Y-99147000D01*
X44873000Y-99127000D01*
X43873750Y-99127000D01*
X43715000Y-99285750D01*
X43715000Y-99776309D01*
X43811673Y-100009698D01*
X43990301Y-100188327D01*
X44223690Y-100285000D01*
X44575567Y-100285000D01*
X44273057Y-100409995D01*
X43911265Y-100771155D01*
X43715223Y-101243276D01*
X43714777Y-101754481D01*
X37710000Y-101754481D01*
X37710000Y-98223691D01*
X43715000Y-98223691D01*
X43715000Y-98714250D01*
X43873750Y-98873000D01*
X44873000Y-98873000D01*
X44873000Y-97873750D01*
X45127000Y-97873750D01*
X45127000Y-98873000D01*
X46126250Y-98873000D01*
X46285000Y-98714250D01*
X46285000Y-98223691D01*
X46234788Y-98102467D01*
X83418438Y-98102467D01*
X83560483Y-98446243D01*
X83823273Y-98709492D01*
X84166801Y-98852138D01*
X84538767Y-98852462D01*
X84882543Y-98710417D01*
X85145792Y-98447627D01*
X85288438Y-98104099D01*
X85288762Y-97732133D01*
X85146717Y-97388357D01*
X84883927Y-97125108D01*
X84540399Y-96982462D01*
X84168433Y-96982138D01*
X83824657Y-97124183D01*
X83561408Y-97386973D01*
X83418762Y-97730501D01*
X83418438Y-98102467D01*
X46234788Y-98102467D01*
X46188327Y-97990302D01*
X46009699Y-97811673D01*
X45776310Y-97715000D01*
X45285750Y-97715000D01*
X45127000Y-97873750D01*
X44873000Y-97873750D01*
X44714250Y-97715000D01*
X44223690Y-97715000D01*
X43990301Y-97811673D01*
X43811673Y-97990302D01*
X43715000Y-98223691D01*
X37710000Y-98223691D01*
X37710000Y-93185167D01*
X87164838Y-93185167D01*
X87306883Y-93528943D01*
X87569673Y-93792192D01*
X87913201Y-93934838D01*
X88285167Y-93935162D01*
X88628943Y-93793117D01*
X88892192Y-93530327D01*
X89029644Y-93199308D01*
X89293901Y-93309038D01*
X89665867Y-93309362D01*
X90009643Y-93167317D01*
X90272892Y-92904527D01*
X90415538Y-92560999D01*
X90415659Y-92422247D01*
X90777767Y-92422562D01*
X91121543Y-92280517D01*
X91177975Y-92224183D01*
X91241273Y-92287592D01*
X91584801Y-92430238D01*
X91956767Y-92430562D01*
X92300543Y-92288517D01*
X92322301Y-92266797D01*
X92335173Y-92279692D01*
X92678701Y-92422338D01*
X93050667Y-92422662D01*
X93394443Y-92280617D01*
X93657692Y-92017827D01*
X93800338Y-91674299D01*
X93800662Y-91302333D01*
X93658617Y-90958557D01*
X93395827Y-90695308D01*
X93052299Y-90552662D01*
X92680333Y-90552338D01*
X92336557Y-90694383D01*
X92314799Y-90716103D01*
X92301927Y-90703208D01*
X91958399Y-90560562D01*
X91586433Y-90560238D01*
X91242657Y-90702283D01*
X91186225Y-90758617D01*
X91122927Y-90695208D01*
X90779399Y-90552562D01*
X90407433Y-90552238D01*
X90063657Y-90694283D01*
X89800408Y-90957073D01*
X89657762Y-91300601D01*
X89657641Y-91439353D01*
X89295533Y-91439038D01*
X88951757Y-91581083D01*
X88688508Y-91843873D01*
X88551056Y-92174892D01*
X88286799Y-92065162D01*
X87914833Y-92064838D01*
X87571057Y-92206883D01*
X87307808Y-92469673D01*
X87165162Y-92813201D01*
X87164838Y-93185167D01*
X37710000Y-93185167D01*
X37710000Y-89000000D01*
X52873000Y-89000000D01*
X52873000Y-93000000D01*
X52881685Y-93046159D01*
X52908965Y-93088553D01*
X52950590Y-93116994D01*
X53000000Y-93127000D01*
X57000000Y-93127000D01*
X57046159Y-93118315D01*
X57088553Y-93091035D01*
X57116994Y-93049410D01*
X57127000Y-93000000D01*
X57127000Y-89686267D01*
X76566038Y-89686267D01*
X76708083Y-90030043D01*
X76970873Y-90293292D01*
X77314401Y-90435938D01*
X77686367Y-90436262D01*
X78030143Y-90294217D01*
X78293392Y-90031427D01*
X78358726Y-89874086D01*
X98126269Y-89874086D01*
X98328854Y-90364380D01*
X98703647Y-90739827D01*
X99193587Y-90943268D01*
X99724086Y-90943731D01*
X100214380Y-90741146D01*
X100411681Y-90544188D01*
X103785417Y-90544188D01*
X103847071Y-90779800D01*
X104347480Y-90955927D01*
X104877199Y-90927148D01*
X105232929Y-90779800D01*
X105294583Y-90544188D01*
X104540000Y-89789605D01*
X103785417Y-90544188D01*
X100411681Y-90544188D01*
X100589827Y-90366353D01*
X100793268Y-89876413D01*
X100793668Y-89417480D01*
X103194073Y-89417480D01*
X103222852Y-89947199D01*
X103370200Y-90302929D01*
X103605812Y-90364583D01*
X104360395Y-89610000D01*
X104719605Y-89610000D01*
X105474188Y-90364583D01*
X105709800Y-90302929D01*
X105885927Y-89802520D01*
X105857148Y-89272801D01*
X105709800Y-88917071D01*
X105474188Y-88855417D01*
X104719605Y-89610000D01*
X104360395Y-89610000D01*
X103605812Y-88855417D01*
X103370200Y-88917071D01*
X103194073Y-89417480D01*
X100793668Y-89417480D01*
X100793731Y-89345914D01*
X100591146Y-88855620D01*
X100216353Y-88480173D01*
X99726413Y-88276732D01*
X99195914Y-88276269D01*
X98705620Y-88478854D01*
X98330173Y-88853647D01*
X98126732Y-89343587D01*
X98126269Y-89874086D01*
X78358726Y-89874086D01*
X78436038Y-89687899D01*
X78436362Y-89315933D01*
X78342642Y-89089112D01*
X78494592Y-88937427D01*
X78637238Y-88593899D01*
X78637330Y-88487467D01*
X91903038Y-88487467D01*
X92045083Y-88831243D01*
X92307873Y-89094492D01*
X92651401Y-89237138D01*
X93023367Y-89237462D01*
X93367143Y-89095417D01*
X93630392Y-88832627D01*
X93773038Y-88489099D01*
X93773362Y-88117133D01*
X93760154Y-88085167D01*
X101264838Y-88085167D01*
X101406883Y-88428943D01*
X101669673Y-88692192D01*
X102013201Y-88834838D01*
X102385167Y-88835162D01*
X102728943Y-88693117D01*
X102746278Y-88675812D01*
X103785417Y-88675812D01*
X104540000Y-89430395D01*
X105294583Y-88675812D01*
X105232929Y-88440200D01*
X104732520Y-88264073D01*
X104202801Y-88292852D01*
X103847071Y-88440200D01*
X103785417Y-88675812D01*
X102746278Y-88675812D01*
X102992192Y-88430327D01*
X103134838Y-88086799D01*
X103135162Y-87714833D01*
X102993117Y-87371057D01*
X102730327Y-87107808D01*
X102386799Y-86965162D01*
X102014833Y-86964838D01*
X101671057Y-87106883D01*
X101407808Y-87369673D01*
X101265162Y-87713201D01*
X101264838Y-88085167D01*
X93760154Y-88085167D01*
X93631317Y-87773357D01*
X93368527Y-87510108D01*
X93024999Y-87367462D01*
X92653033Y-87367138D01*
X92309257Y-87509183D01*
X92046008Y-87771973D01*
X91903362Y-88115501D01*
X91903038Y-88487467D01*
X78637330Y-88487467D01*
X78637562Y-88221933D01*
X78495517Y-87878157D01*
X78232727Y-87614908D01*
X77889199Y-87472262D01*
X77517233Y-87471938D01*
X77173457Y-87613983D01*
X76910208Y-87876773D01*
X76767562Y-88220301D01*
X76767238Y-88592267D01*
X76860958Y-88819088D01*
X76709008Y-88970773D01*
X76566362Y-89314301D01*
X76566038Y-89686267D01*
X57127000Y-89686267D01*
X57127000Y-89000000D01*
X57118315Y-88953841D01*
X57091035Y-88911447D01*
X57049410Y-88883006D01*
X57000000Y-88873000D01*
X53000000Y-88873000D01*
X52953841Y-88881685D01*
X52911447Y-88908965D01*
X52883006Y-88950590D01*
X52873000Y-89000000D01*
X37710000Y-89000000D01*
X37710000Y-85786167D01*
X43049238Y-85786167D01*
X43191283Y-86129943D01*
X43454073Y-86393192D01*
X43797601Y-86535838D01*
X44169567Y-86536162D01*
X44513343Y-86394117D01*
X44776592Y-86131327D01*
X44843179Y-85970967D01*
X46926238Y-85970967D01*
X47068283Y-86314743D01*
X47331073Y-86577992D01*
X47674601Y-86720638D01*
X48046567Y-86720962D01*
X48390343Y-86578917D01*
X48653592Y-86316127D01*
X48657935Y-86305667D01*
X74427338Y-86305667D01*
X74569383Y-86649443D01*
X74832173Y-86912692D01*
X75175701Y-87055338D01*
X75414627Y-87055546D01*
X75414554Y-87138669D01*
X75264133Y-87138538D01*
X74920357Y-87280583D01*
X74657108Y-87543373D01*
X74514462Y-87886901D01*
X74514138Y-88258867D01*
X74656183Y-88602643D01*
X74918973Y-88865892D01*
X75262501Y-89008538D01*
X75634467Y-89008862D01*
X75978243Y-88866817D01*
X76241492Y-88604027D01*
X76384138Y-88260499D01*
X76384346Y-88022131D01*
X76534767Y-88022262D01*
X76878543Y-87880217D01*
X77141792Y-87617427D01*
X77284438Y-87273899D01*
X77284762Y-86901933D01*
X77142717Y-86558157D01*
X76879927Y-86294908D01*
X76536399Y-86152262D01*
X76297473Y-86152054D01*
X76297662Y-85935333D01*
X76155617Y-85591557D01*
X75892827Y-85328308D01*
X75549299Y-85185662D01*
X75177333Y-85185338D01*
X74833557Y-85327383D01*
X74570308Y-85590173D01*
X74427662Y-85933701D01*
X74427338Y-86305667D01*
X48657935Y-86305667D01*
X48796238Y-85972599D01*
X48796562Y-85600633D01*
X48654517Y-85256857D01*
X48391727Y-84993608D01*
X48048199Y-84850962D01*
X47676233Y-84850638D01*
X47332457Y-84992683D01*
X47069208Y-85255473D01*
X46926562Y-85599001D01*
X46926238Y-85970967D01*
X44843179Y-85970967D01*
X44919238Y-85787799D01*
X44919562Y-85415833D01*
X44777517Y-85072057D01*
X44514727Y-84808808D01*
X44171199Y-84666162D01*
X43799233Y-84665838D01*
X43455457Y-84807883D01*
X43192208Y-85070673D01*
X43049562Y-85414201D01*
X43049238Y-85786167D01*
X37710000Y-85786167D01*
X37710000Y-81534000D01*
X44056560Y-81534000D01*
X44056560Y-83566000D01*
X44100838Y-83801317D01*
X44239910Y-84017441D01*
X44452110Y-84162431D01*
X44704000Y-84213440D01*
X46736000Y-84213440D01*
X46809728Y-84199567D01*
X53314838Y-84199567D01*
X53456883Y-84543343D01*
X53719673Y-84806592D01*
X54063201Y-84949238D01*
X54435167Y-84949562D01*
X54778943Y-84807517D01*
X55042192Y-84544727D01*
X55184838Y-84201199D01*
X55185162Y-83829233D01*
X55164930Y-83780267D01*
X66022538Y-83780267D01*
X66164583Y-84124043D01*
X66427373Y-84387292D01*
X66770901Y-84529938D01*
X67142867Y-84530262D01*
X67486643Y-84388217D01*
X67749892Y-84125427D01*
X67892538Y-83781899D01*
X67892862Y-83409933D01*
X67750817Y-83066157D01*
X67488027Y-82802908D01*
X67347527Y-82744567D01*
X71178838Y-82744567D01*
X71320883Y-83088343D01*
X71583673Y-83351592D01*
X71927201Y-83494238D01*
X72299167Y-83494562D01*
X72642943Y-83352517D01*
X72906192Y-83089727D01*
X73048838Y-82746199D01*
X73049162Y-82374233D01*
X72907117Y-82030457D01*
X72644327Y-81767208D01*
X72300799Y-81624562D01*
X71928833Y-81624238D01*
X71585057Y-81766283D01*
X71321808Y-82029073D01*
X71179162Y-82372601D01*
X71178838Y-82744567D01*
X67347527Y-82744567D01*
X67144499Y-82660262D01*
X66772533Y-82659938D01*
X66428757Y-82801983D01*
X66165508Y-83064773D01*
X66022862Y-83408301D01*
X66022538Y-83780267D01*
X55164930Y-83780267D01*
X55043117Y-83485457D01*
X54780327Y-83222208D01*
X54436799Y-83079562D01*
X54064833Y-83079238D01*
X53721057Y-83221283D01*
X53457808Y-83484073D01*
X53315162Y-83827601D01*
X53314838Y-84199567D01*
X46809728Y-84199567D01*
X46971317Y-84169162D01*
X47187441Y-84030090D01*
X47332431Y-83817890D01*
X47383440Y-83566000D01*
X47383440Y-82700367D01*
X56092838Y-82700367D01*
X56234883Y-83044143D01*
X56497673Y-83307392D01*
X56841201Y-83450038D01*
X57213167Y-83450362D01*
X57556943Y-83308317D01*
X57820192Y-83045527D01*
X57962838Y-82701999D01*
X57963162Y-82330033D01*
X57821117Y-81986257D01*
X57558327Y-81723008D01*
X57214799Y-81580362D01*
X56842833Y-81580038D01*
X56499057Y-81722083D01*
X56235808Y-81984873D01*
X56093162Y-82328401D01*
X56092838Y-82700367D01*
X47383440Y-82700367D01*
X47383440Y-81534000D01*
X47339162Y-81298683D01*
X47200090Y-81082559D01*
X47043794Y-80975767D01*
X47245325Y-80674155D01*
X47371000Y-80042345D01*
X47371000Y-79977655D01*
X47245325Y-79345845D01*
X46887433Y-78810222D01*
X46351810Y-78452330D01*
X45720000Y-78326655D01*
X45088190Y-78452330D01*
X44552567Y-78810222D01*
X44194675Y-79345845D01*
X44069000Y-79977655D01*
X44069000Y-80042345D01*
X44194675Y-80674155D01*
X44397004Y-80976962D01*
X44252559Y-81069910D01*
X44107569Y-81282110D01*
X44056560Y-81534000D01*
X37710000Y-81534000D01*
X37710000Y-78160367D01*
X53314838Y-78160367D01*
X53456883Y-78504143D01*
X53719673Y-78767392D01*
X54063201Y-78910038D01*
X54435167Y-78910362D01*
X54778943Y-78768317D01*
X55042192Y-78505527D01*
X55150609Y-78244430D01*
X55278036Y-78191779D01*
X55408383Y-78507243D01*
X55671173Y-78770492D01*
X56014701Y-78913138D01*
X56386667Y-78913462D01*
X56687610Y-78789115D01*
X56799183Y-79059143D01*
X57061973Y-79322392D01*
X57405501Y-79465038D01*
X57777467Y-79465362D01*
X58121243Y-79323317D01*
X58339072Y-79105867D01*
X66814838Y-79105867D01*
X66956883Y-79449643D01*
X67219673Y-79712892D01*
X67563201Y-79855538D01*
X67935167Y-79855862D01*
X68278943Y-79713817D01*
X68542192Y-79451027D01*
X68684838Y-79107499D01*
X68685162Y-78735533D01*
X68674682Y-78710167D01*
X69339838Y-78710167D01*
X69481883Y-79053943D01*
X69744673Y-79317192D01*
X70088201Y-79459838D01*
X70460167Y-79460162D01*
X70803943Y-79318117D01*
X71067192Y-79055327D01*
X71209838Y-78711799D01*
X71210162Y-78339833D01*
X71187506Y-78285000D01*
X71214250Y-78285000D01*
X71373000Y-78126250D01*
X71373000Y-77127000D01*
X70373750Y-77127000D01*
X70215000Y-77285750D01*
X70215000Y-77589947D01*
X70089833Y-77589838D01*
X69746057Y-77731883D01*
X69482808Y-77994673D01*
X69340162Y-78338201D01*
X69339838Y-78710167D01*
X68674682Y-78710167D01*
X68653074Y-78657873D01*
X68928143Y-78544217D01*
X69191392Y-78281427D01*
X69334038Y-77937899D01*
X69334362Y-77565933D01*
X69192317Y-77222157D01*
X68929527Y-76958908D01*
X68585999Y-76816262D01*
X68214033Y-76815938D01*
X67870257Y-76957983D01*
X67607008Y-77220773D01*
X67464362Y-77564301D01*
X67464038Y-77936267D01*
X67496126Y-78013927D01*
X67221057Y-78127583D01*
X66957808Y-78390373D01*
X66815162Y-78733901D01*
X66814838Y-79105867D01*
X58339072Y-79105867D01*
X58384492Y-79060527D01*
X58527138Y-78716999D01*
X58527462Y-78345033D01*
X58385417Y-78001257D01*
X58122627Y-77738008D01*
X57779099Y-77595362D01*
X57407133Y-77595038D01*
X57106190Y-77719385D01*
X56994617Y-77449357D01*
X56731827Y-77186108D01*
X56388299Y-77043462D01*
X56037584Y-77043157D01*
X56184343Y-76982517D01*
X56447592Y-76719727D01*
X56590238Y-76376199D01*
X56590533Y-76036467D01*
X59009938Y-76036467D01*
X59151983Y-76380243D01*
X59414773Y-76643492D01*
X59758301Y-76786138D01*
X60130267Y-76786462D01*
X60131990Y-76785750D01*
X61215000Y-76785750D01*
X61215000Y-77276310D01*
X61311673Y-77509699D01*
X61490302Y-77688327D01*
X61723691Y-77785000D01*
X62214250Y-77785000D01*
X62373000Y-77626250D01*
X62373000Y-76627000D01*
X61373750Y-76627000D01*
X61215000Y-76785750D01*
X60131990Y-76785750D01*
X60474043Y-76644417D01*
X60737292Y-76381627D01*
X60879938Y-76038099D01*
X60880211Y-75723690D01*
X61215000Y-75723690D01*
X61215000Y-76214250D01*
X61373750Y-76373000D01*
X62373000Y-76373000D01*
X62373000Y-75373750D01*
X62627000Y-75373750D01*
X62627000Y-76373000D01*
X62647000Y-76373000D01*
X62647000Y-76627000D01*
X62627000Y-76627000D01*
X62627000Y-77626250D01*
X62785750Y-77785000D01*
X63276309Y-77785000D01*
X63509698Y-77688327D01*
X63688327Y-77509699D01*
X63785000Y-77276310D01*
X63785000Y-76924433D01*
X63909995Y-77226943D01*
X64271155Y-77588735D01*
X64743276Y-77784777D01*
X65254481Y-77785223D01*
X65726943Y-77590005D01*
X65866704Y-77450488D01*
X66000773Y-77584792D01*
X66344301Y-77727438D01*
X66716267Y-77727762D01*
X67060043Y-77585717D01*
X67323292Y-77322927D01*
X67465938Y-76979399D01*
X67466262Y-76607433D01*
X67324217Y-76263657D01*
X67284320Y-76223690D01*
X70215000Y-76223690D01*
X70215000Y-76714250D01*
X70373750Y-76873000D01*
X71373000Y-76873000D01*
X71373000Y-75873750D01*
X71627000Y-75873750D01*
X71627000Y-76873000D01*
X71647000Y-76873000D01*
X71647000Y-77127000D01*
X71627000Y-77127000D01*
X71627000Y-78126250D01*
X71785750Y-78285000D01*
X72092716Y-78285000D01*
X71957808Y-78419673D01*
X71815162Y-78763201D01*
X71814838Y-79135167D01*
X71956883Y-79478943D01*
X72219673Y-79742192D01*
X72563201Y-79884838D01*
X72935167Y-79885162D01*
X73278943Y-79743117D01*
X73542192Y-79480327D01*
X73684838Y-79136799D01*
X73685162Y-78764833D01*
X73543117Y-78421057D01*
X73280327Y-78157808D01*
X72936799Y-78015162D01*
X72683085Y-78014941D01*
X72688327Y-78009699D01*
X72785000Y-77776310D01*
X72785000Y-77424433D01*
X72909995Y-77726943D01*
X73271155Y-78088735D01*
X73743276Y-78284777D01*
X74180559Y-78285159D01*
X74044908Y-78420573D01*
X73902262Y-78764101D01*
X73901938Y-79136067D01*
X74043983Y-79479843D01*
X74306773Y-79743092D01*
X74650301Y-79885738D01*
X75022267Y-79886062D01*
X75366043Y-79744017D01*
X75629292Y-79481227D01*
X75771938Y-79137699D01*
X75772262Y-78765733D01*
X75630217Y-78421957D01*
X75367427Y-78158708D01*
X75023899Y-78016062D01*
X74801210Y-78015868D01*
X75088735Y-77728845D01*
X75284777Y-77256724D01*
X75284826Y-77200000D01*
X84466655Y-77200000D01*
X84580729Y-77773489D01*
X84905585Y-78259670D01*
X85220366Y-78470000D01*
X84905585Y-78680330D01*
X84580729Y-79166511D01*
X84466655Y-79740000D01*
X84580729Y-80313489D01*
X84905585Y-80799670D01*
X85220366Y-81010000D01*
X84905585Y-81220330D01*
X84580729Y-81706511D01*
X84466655Y-82280000D01*
X84580729Y-82853489D01*
X84905585Y-83339670D01*
X84919913Y-83349243D01*
X84898683Y-83353238D01*
X84682559Y-83492310D01*
X84537569Y-83704510D01*
X84486560Y-83956400D01*
X84486560Y-85683600D01*
X84530838Y-85918917D01*
X84669910Y-86135041D01*
X84882110Y-86280031D01*
X85134000Y-86331040D01*
X87166000Y-86331040D01*
X87401317Y-86286762D01*
X87417099Y-86276607D01*
X87422110Y-86280031D01*
X87674000Y-86331040D01*
X89706000Y-86331040D01*
X89941317Y-86286762D01*
X89957099Y-86276607D01*
X89962110Y-86280031D01*
X90214000Y-86331040D01*
X91423193Y-86331040D01*
X91423138Y-86393667D01*
X91565183Y-86737443D01*
X91827973Y-87000692D01*
X92171501Y-87143338D01*
X92543467Y-87143662D01*
X92887243Y-87001617D01*
X93150492Y-86738827D01*
X93293138Y-86395299D01*
X93293462Y-86023333D01*
X93151417Y-85679557D01*
X93147734Y-85675867D01*
X106005538Y-85675867D01*
X106147583Y-86019643D01*
X106410373Y-86282892D01*
X106753901Y-86425538D01*
X107125867Y-86425862D01*
X107469643Y-86283817D01*
X107732892Y-86021027D01*
X107875538Y-85677499D01*
X107875862Y-85305533D01*
X107733817Y-84961757D01*
X107471027Y-84698508D01*
X107127499Y-84555862D01*
X106755533Y-84555538D01*
X106411757Y-84697583D01*
X106148508Y-84960373D01*
X106005862Y-85303901D01*
X106005538Y-85675867D01*
X93147734Y-85675867D01*
X92893440Y-85421129D01*
X92893440Y-83956400D01*
X92849162Y-83721083D01*
X92710090Y-83504959D01*
X92497890Y-83359969D01*
X92456561Y-83351600D01*
X92474415Y-83339670D01*
X92799271Y-82853489D01*
X92913345Y-82280000D01*
X92908191Y-82254086D01*
X98126269Y-82254086D01*
X98328854Y-82744380D01*
X98703647Y-83119827D01*
X99084050Y-83277784D01*
X99083738Y-83635967D01*
X99225783Y-83979743D01*
X99488573Y-84242992D01*
X99832101Y-84385638D01*
X100204067Y-84385962D01*
X100547843Y-84243917D01*
X100811092Y-83981127D01*
X100953738Y-83637599D01*
X100954062Y-83265633D01*
X100812981Y-82924188D01*
X103785417Y-82924188D01*
X103847071Y-83159800D01*
X104347480Y-83335927D01*
X104877199Y-83307148D01*
X105232929Y-83159800D01*
X105294583Y-82924188D01*
X104540000Y-82169605D01*
X103785417Y-82924188D01*
X100812981Y-82924188D01*
X100812017Y-82921857D01*
X100603632Y-82713108D01*
X100793268Y-82256413D01*
X100793668Y-81797480D01*
X103194073Y-81797480D01*
X103222852Y-82327199D01*
X103370200Y-82682929D01*
X103605812Y-82744583D01*
X104360395Y-81990000D01*
X104719605Y-81990000D01*
X105474188Y-82744583D01*
X105709800Y-82682929D01*
X105885927Y-82182520D01*
X105857148Y-81652801D01*
X105709800Y-81297071D01*
X105474188Y-81235417D01*
X104719605Y-81990000D01*
X104360395Y-81990000D01*
X103605812Y-81235417D01*
X103370200Y-81297071D01*
X103194073Y-81797480D01*
X100793668Y-81797480D01*
X100793731Y-81725914D01*
X100591146Y-81235620D01*
X100411652Y-81055812D01*
X103785417Y-81055812D01*
X104540000Y-81810395D01*
X105294583Y-81055812D01*
X105232929Y-80820200D01*
X104732520Y-80644073D01*
X104202801Y-80672852D01*
X103847071Y-80820200D01*
X103785417Y-81055812D01*
X100411652Y-81055812D01*
X100216353Y-80860173D01*
X99726413Y-80656732D01*
X99195914Y-80656269D01*
X98705620Y-80858854D01*
X98330173Y-81233647D01*
X98126732Y-81723587D01*
X98126269Y-82254086D01*
X92908191Y-82254086D01*
X92799271Y-81706511D01*
X92474415Y-81220330D01*
X92159634Y-81010000D01*
X92474415Y-80799670D01*
X92799271Y-80313489D01*
X92913345Y-79740000D01*
X92799271Y-79166511D01*
X92474415Y-78680330D01*
X92159634Y-78470000D01*
X92474415Y-78259670D01*
X92799271Y-77773489D01*
X92913345Y-77200000D01*
X92799271Y-76626511D01*
X92474415Y-76140330D01*
X91988234Y-75815474D01*
X91414745Y-75701400D01*
X91045255Y-75701400D01*
X90471766Y-75815474D01*
X89985585Y-76140330D01*
X89960000Y-76178621D01*
X89934415Y-76140330D01*
X89448234Y-75815474D01*
X88874745Y-75701400D01*
X88505255Y-75701400D01*
X87931766Y-75815474D01*
X87445585Y-76140330D01*
X87420000Y-76178621D01*
X87394415Y-76140330D01*
X86908234Y-75815474D01*
X86334745Y-75701400D01*
X85965255Y-75701400D01*
X85391766Y-75815474D01*
X84905585Y-76140330D01*
X84580729Y-76626511D01*
X84466655Y-77200000D01*
X75284826Y-77200000D01*
X75285223Y-76745519D01*
X75090005Y-76273057D01*
X74728845Y-75911265D01*
X74256724Y-75715223D01*
X73745519Y-75714777D01*
X73273057Y-75909995D01*
X72911265Y-76271155D01*
X72785000Y-76575235D01*
X72785000Y-76223690D01*
X72688327Y-75990301D01*
X72509698Y-75811673D01*
X72276309Y-75715000D01*
X71785750Y-75715000D01*
X71627000Y-75873750D01*
X71373000Y-75873750D01*
X71214250Y-75715000D01*
X70723691Y-75715000D01*
X70490302Y-75811673D01*
X70311673Y-75990301D01*
X70215000Y-76223690D01*
X67284320Y-76223690D01*
X67061427Y-76000408D01*
X66717899Y-75857762D01*
X66664755Y-75857716D01*
X66692192Y-75830327D01*
X66834838Y-75486799D01*
X66835162Y-75114833D01*
X66693117Y-74771057D01*
X66430327Y-74507808D01*
X66086799Y-74365162D01*
X65714833Y-74364838D01*
X65371057Y-74506883D01*
X65107808Y-74769673D01*
X64965162Y-75113201D01*
X64965073Y-75214969D01*
X64745519Y-75214777D01*
X64273057Y-75409995D01*
X63911265Y-75771155D01*
X63785000Y-76075235D01*
X63785000Y-75723690D01*
X63688327Y-75490301D01*
X63509698Y-75311673D01*
X63276309Y-75215000D01*
X62785750Y-75215000D01*
X62627000Y-75373750D01*
X62373000Y-75373750D01*
X62214250Y-75215000D01*
X61723691Y-75215000D01*
X61490302Y-75311673D01*
X61311673Y-75490301D01*
X61215000Y-75723690D01*
X60880211Y-75723690D01*
X60880262Y-75666133D01*
X60738217Y-75322357D01*
X60475427Y-75059108D01*
X60131899Y-74916462D01*
X59759933Y-74916138D01*
X59416157Y-75058183D01*
X59152908Y-75320973D01*
X59010262Y-75664501D01*
X59009938Y-76036467D01*
X56590533Y-76036467D01*
X56590562Y-76004233D01*
X56448517Y-75660457D01*
X56185727Y-75397208D01*
X55842199Y-75254562D01*
X55470233Y-75254238D01*
X55126457Y-75396283D01*
X54863208Y-75659073D01*
X54720562Y-76002601D01*
X54720238Y-76374567D01*
X54731637Y-76402155D01*
X54712433Y-76402138D01*
X54368657Y-76544183D01*
X54105408Y-76806973D01*
X53996991Y-77068070D01*
X53721057Y-77182083D01*
X53457808Y-77444873D01*
X53315162Y-77788401D01*
X53314838Y-78160367D01*
X37710000Y-78160367D01*
X37710000Y-76559026D01*
X44112642Y-76559026D01*
X44115291Y-76574791D01*
X44369268Y-77102036D01*
X44805680Y-77491954D01*
X45358087Y-77685184D01*
X45593000Y-77540924D01*
X45593000Y-76327000D01*
X45847000Y-76327000D01*
X45847000Y-77540924D01*
X46081913Y-77685184D01*
X46634320Y-77491954D01*
X47070732Y-77102036D01*
X47324709Y-76574791D01*
X47327358Y-76559026D01*
X47206217Y-76327000D01*
X45847000Y-76327000D01*
X45593000Y-76327000D01*
X44233783Y-76327000D01*
X44112642Y-76559026D01*
X37710000Y-76559026D01*
X37710000Y-73882767D01*
X39939538Y-73882767D01*
X40081583Y-74226543D01*
X40344373Y-74489792D01*
X40687901Y-74632438D01*
X41059867Y-74632762D01*
X41403643Y-74490717D01*
X41666892Y-74227927D01*
X41809538Y-73884399D01*
X41809862Y-73512433D01*
X41667817Y-73168657D01*
X41405027Y-72905408D01*
X41061499Y-72762762D01*
X40689533Y-72762438D01*
X40345757Y-72904483D01*
X40082508Y-73167273D01*
X39939862Y-73510801D01*
X39939538Y-73882767D01*
X37710000Y-73882767D01*
X37710000Y-66040000D01*
X44036655Y-66040000D01*
X44150729Y-66613489D01*
X44475585Y-67099670D01*
X44790366Y-67310000D01*
X44475585Y-67520330D01*
X44150729Y-68006511D01*
X44036655Y-68580000D01*
X44150729Y-69153489D01*
X44475585Y-69639670D01*
X44790366Y-69850000D01*
X44475585Y-70060330D01*
X44150729Y-70546511D01*
X44036655Y-71120000D01*
X44150729Y-71693489D01*
X44475585Y-72179670D01*
X44790366Y-72390000D01*
X44475585Y-72600330D01*
X44150729Y-73086511D01*
X44036655Y-73660000D01*
X44150729Y-74233489D01*
X44475585Y-74719670D01*
X44785069Y-74926461D01*
X44369268Y-75297964D01*
X44115291Y-75825209D01*
X44112642Y-75840974D01*
X44233783Y-76073000D01*
X45593000Y-76073000D01*
X45593000Y-76053000D01*
X45847000Y-76053000D01*
X45847000Y-76073000D01*
X47206217Y-76073000D01*
X47327358Y-75840974D01*
X47324709Y-75825209D01*
X47070732Y-75297964D01*
X46654931Y-74926461D01*
X46964415Y-74719670D01*
X47289271Y-74233489D01*
X47333016Y-74013567D01*
X50064838Y-74013567D01*
X50206883Y-74357343D01*
X50469673Y-74620592D01*
X50813201Y-74763238D01*
X51185167Y-74763562D01*
X51528943Y-74621517D01*
X51792192Y-74358727D01*
X51934838Y-74015199D01*
X51934985Y-73846267D01*
X52016138Y-73846267D01*
X52158183Y-74190043D01*
X52420973Y-74453292D01*
X52764501Y-74595938D01*
X53136467Y-74596262D01*
X53480243Y-74454217D01*
X53743492Y-74191427D01*
X53886138Y-73847899D01*
X53886462Y-73475933D01*
X53744417Y-73132157D01*
X53481627Y-72868908D01*
X53138099Y-72726262D01*
X52766133Y-72725938D01*
X52422357Y-72867983D01*
X52159108Y-73130773D01*
X52016462Y-73474301D01*
X52016138Y-73846267D01*
X51934985Y-73846267D01*
X51935162Y-73643233D01*
X51793117Y-73299457D01*
X51530327Y-73036208D01*
X51186799Y-72893562D01*
X50814833Y-72893238D01*
X50471057Y-73035283D01*
X50207808Y-73298073D01*
X50065162Y-73641601D01*
X50064838Y-74013567D01*
X47333016Y-74013567D01*
X47403345Y-73660000D01*
X47289271Y-73086511D01*
X46970922Y-72610067D01*
X53680038Y-72610067D01*
X53822083Y-72953843D01*
X54084873Y-73217092D01*
X54428401Y-73359738D01*
X54800367Y-73360062D01*
X55144143Y-73218017D01*
X55407392Y-72955227D01*
X55550038Y-72611699D01*
X55550362Y-72239733D01*
X55408317Y-71895957D01*
X55145527Y-71632708D01*
X54801999Y-71490062D01*
X54430033Y-71489738D01*
X54086257Y-71631783D01*
X53823008Y-71894573D01*
X53680362Y-72238101D01*
X53680038Y-72610067D01*
X46970922Y-72610067D01*
X46964415Y-72600330D01*
X46649634Y-72390000D01*
X46964415Y-72179670D01*
X47289271Y-71693489D01*
X47403345Y-71120000D01*
X47289271Y-70546511D01*
X47065402Y-70211467D01*
X57706238Y-70211467D01*
X57848283Y-70555243D01*
X58111073Y-70818492D01*
X58251597Y-70876843D01*
X58377083Y-71180543D01*
X58639873Y-71443792D01*
X58983401Y-71586438D01*
X59355367Y-71586762D01*
X59699143Y-71444717D01*
X59753005Y-71390949D01*
X59752838Y-71582567D01*
X59894883Y-71926343D01*
X59987894Y-72019517D01*
X59741308Y-72265673D01*
X59598662Y-72609201D01*
X59598338Y-72981167D01*
X59740383Y-73324943D01*
X60003173Y-73588192D01*
X60346701Y-73730838D01*
X60718667Y-73731162D01*
X61062443Y-73589117D01*
X61325692Y-73326327D01*
X61468338Y-72982799D01*
X61468416Y-72892567D01*
X65293838Y-72892567D01*
X65435883Y-73236343D01*
X65698673Y-73499592D01*
X66042201Y-73642238D01*
X66227255Y-73642399D01*
X66226938Y-74005967D01*
X66368983Y-74349743D01*
X66631773Y-74612992D01*
X66975301Y-74755638D01*
X67347267Y-74755962D01*
X67691043Y-74613917D01*
X67954292Y-74351127D01*
X68096938Y-74007599D01*
X68097262Y-73635633D01*
X68058974Y-73542967D01*
X73456138Y-73542967D01*
X73598183Y-73886743D01*
X73860973Y-74149992D01*
X74204501Y-74292638D01*
X74576467Y-74292962D01*
X74594364Y-74285567D01*
X100781638Y-74285567D01*
X100923683Y-74629343D01*
X101186473Y-74892592D01*
X101530001Y-75035238D01*
X101901967Y-75035562D01*
X102245743Y-74893517D01*
X102508992Y-74630727D01*
X102651638Y-74287199D01*
X102651962Y-73915233D01*
X102509917Y-73571457D01*
X102247127Y-73308208D01*
X101903599Y-73165562D01*
X101531633Y-73165238D01*
X101187857Y-73307283D01*
X100924608Y-73570073D01*
X100781962Y-73913601D01*
X100781638Y-74285567D01*
X74594364Y-74285567D01*
X74920243Y-74150917D01*
X75183492Y-73888127D01*
X75326138Y-73544599D01*
X75326462Y-73172633D01*
X75184417Y-72828857D01*
X75111056Y-72755367D01*
X79309738Y-72755367D01*
X79451783Y-73099143D01*
X79714573Y-73362392D01*
X80058101Y-73505038D01*
X80430067Y-73505362D01*
X80773843Y-73363317D01*
X81037092Y-73100527D01*
X81179738Y-72756999D01*
X81179961Y-72500000D01*
X105873000Y-72500000D01*
X105873000Y-77500000D01*
X105881685Y-77546159D01*
X105908965Y-77588553D01*
X105950590Y-77616994D01*
X106000000Y-77627000D01*
X111000000Y-77627000D01*
X111046159Y-77618315D01*
X111088553Y-77591035D01*
X111116994Y-77549410D01*
X111127000Y-77500000D01*
X111127000Y-72500000D01*
X111118315Y-72453841D01*
X111091035Y-72411447D01*
X111049410Y-72383006D01*
X111000000Y-72373000D01*
X106000000Y-72373000D01*
X105953841Y-72381685D01*
X105911447Y-72408965D01*
X105883006Y-72450590D01*
X105873000Y-72500000D01*
X81179961Y-72500000D01*
X81180051Y-72397246D01*
X81281901Y-72439538D01*
X81653867Y-72439862D01*
X81997643Y-72297817D01*
X82260892Y-72035027D01*
X82403538Y-71691499D01*
X82403565Y-71659967D01*
X87384138Y-71659967D01*
X87526183Y-72003743D01*
X87788973Y-72266992D01*
X88132501Y-72409638D01*
X88504467Y-72409962D01*
X88848243Y-72267917D01*
X89111492Y-72005127D01*
X89254138Y-71661599D01*
X89254462Y-71289633D01*
X89187085Y-71126567D01*
X96831538Y-71126567D01*
X96973583Y-71470343D01*
X97236373Y-71733592D01*
X97579901Y-71876238D01*
X97951867Y-71876562D01*
X98295643Y-71734517D01*
X98558892Y-71471727D01*
X98701538Y-71128199D01*
X98701862Y-70756233D01*
X98559817Y-70412457D01*
X98297027Y-70149208D01*
X97953499Y-70006562D01*
X97581533Y-70006238D01*
X97237757Y-70148283D01*
X96974508Y-70411073D01*
X96831862Y-70754601D01*
X96831538Y-71126567D01*
X89187085Y-71126567D01*
X89112417Y-70945857D01*
X88849627Y-70682608D01*
X88506099Y-70539962D01*
X88134133Y-70539638D01*
X87790357Y-70681683D01*
X87527108Y-70944473D01*
X87384462Y-71288001D01*
X87384138Y-71659967D01*
X82403565Y-71659967D01*
X82403862Y-71319533D01*
X82261817Y-70975757D01*
X81999027Y-70712508D01*
X81805128Y-70631994D01*
X81805362Y-70362833D01*
X81737489Y-70198567D01*
X83726738Y-70198567D01*
X83868783Y-70542343D01*
X84131573Y-70805592D01*
X84475101Y-70948238D01*
X84847067Y-70948562D01*
X85190843Y-70806517D01*
X85454092Y-70543727D01*
X85596738Y-70200199D01*
X85597062Y-69828233D01*
X85455017Y-69484457D01*
X85192227Y-69221208D01*
X84848699Y-69078562D01*
X84476733Y-69078238D01*
X84132957Y-69220283D01*
X83869708Y-69483073D01*
X83727062Y-69826601D01*
X83726738Y-70198567D01*
X81737489Y-70198567D01*
X81663317Y-70019057D01*
X81400527Y-69755808D01*
X81056999Y-69613162D01*
X80685033Y-69612838D01*
X80341257Y-69754883D01*
X80078008Y-70017673D01*
X79935362Y-70361201D01*
X79935038Y-70733167D01*
X80077083Y-71076943D01*
X80339873Y-71340192D01*
X80533772Y-71420706D01*
X80533549Y-71677654D01*
X80431699Y-71635362D01*
X80059733Y-71635038D01*
X79715957Y-71777083D01*
X79452708Y-72039873D01*
X79310062Y-72383401D01*
X79309738Y-72755367D01*
X75111056Y-72755367D01*
X74921627Y-72565608D01*
X74578099Y-72422962D01*
X74206133Y-72422638D01*
X73862357Y-72564683D01*
X73599108Y-72827473D01*
X73456462Y-73171001D01*
X73456138Y-73542967D01*
X68058974Y-73542967D01*
X67955217Y-73291857D01*
X67692427Y-73028608D01*
X67348899Y-72885962D01*
X67163845Y-72885801D01*
X67164075Y-72621267D01*
X69358338Y-72621267D01*
X69500383Y-72965043D01*
X69763173Y-73228292D01*
X70106701Y-73370938D01*
X70478667Y-73371262D01*
X70822443Y-73229217D01*
X71085692Y-72966427D01*
X71228338Y-72622899D01*
X71228662Y-72250933D01*
X71086617Y-71907157D01*
X70823827Y-71643908D01*
X70480299Y-71501262D01*
X70108333Y-71500938D01*
X69764557Y-71642983D01*
X69501308Y-71905773D01*
X69358662Y-72249301D01*
X69358338Y-72621267D01*
X67164075Y-72621267D01*
X67164162Y-72522233D01*
X67022117Y-72178457D01*
X66759327Y-71915208D01*
X66415799Y-71772562D01*
X66043833Y-71772238D01*
X65700057Y-71914283D01*
X65436808Y-72177073D01*
X65294162Y-72520601D01*
X65293838Y-72892567D01*
X61468416Y-72892567D01*
X61468662Y-72610833D01*
X61326617Y-72267057D01*
X61233606Y-72173883D01*
X61480192Y-71927727D01*
X61572414Y-71705632D01*
X61606467Y-71705662D01*
X61734928Y-71652583D01*
X62073901Y-71793338D01*
X62445867Y-71793662D01*
X62789643Y-71651617D01*
X63052892Y-71388827D01*
X63195538Y-71045299D01*
X63195654Y-70911967D01*
X73227938Y-70911967D01*
X73369983Y-71255743D01*
X73632773Y-71518992D01*
X73976301Y-71661638D01*
X74348267Y-71661962D01*
X74692043Y-71519917D01*
X74805205Y-71406952D01*
X74808383Y-71414643D01*
X75071173Y-71677892D01*
X75414701Y-71820538D01*
X75786667Y-71820862D01*
X76130443Y-71678817D01*
X76393692Y-71416027D01*
X76536338Y-71072499D01*
X76536662Y-70700533D01*
X76394617Y-70356757D01*
X76131827Y-70093508D01*
X75788299Y-69950862D01*
X75416333Y-69950538D01*
X75072557Y-70092583D01*
X74959395Y-70205548D01*
X74956217Y-70197857D01*
X74693427Y-69934608D01*
X74349899Y-69791962D01*
X73977933Y-69791638D01*
X73634157Y-69933683D01*
X73370908Y-70196473D01*
X73228262Y-70540001D01*
X73227938Y-70911967D01*
X63195654Y-70911967D01*
X63195862Y-70673333D01*
X63053817Y-70329557D01*
X62791027Y-70066308D01*
X62447499Y-69923662D01*
X62075533Y-69923338D01*
X61947072Y-69976417D01*
X61608099Y-69835662D01*
X61236133Y-69835338D01*
X60892357Y-69977383D01*
X60629108Y-70240173D01*
X60536886Y-70462268D01*
X60502833Y-70462238D01*
X60159057Y-70604283D01*
X60105195Y-70658051D01*
X60105362Y-70466433D01*
X59963317Y-70122657D01*
X59700527Y-69859408D01*
X59560003Y-69801057D01*
X59434517Y-69497357D01*
X59171727Y-69234108D01*
X58828199Y-69091462D01*
X58456233Y-69091138D01*
X58112457Y-69233183D01*
X57849208Y-69495973D01*
X57706562Y-69839501D01*
X57706238Y-70211467D01*
X47065402Y-70211467D01*
X46964415Y-70060330D01*
X46649634Y-69850000D01*
X46964415Y-69639670D01*
X47194738Y-69294967D01*
X50088138Y-69294967D01*
X50230183Y-69638743D01*
X50492973Y-69901992D01*
X50836501Y-70044638D01*
X51208467Y-70044962D01*
X51552243Y-69902917D01*
X51815492Y-69640127D01*
X51958138Y-69296599D01*
X51958462Y-68924633D01*
X51816417Y-68580857D01*
X51553627Y-68317608D01*
X51210099Y-68174962D01*
X50838133Y-68174638D01*
X50494357Y-68316683D01*
X50231108Y-68579473D01*
X50088462Y-68923001D01*
X50088138Y-69294967D01*
X47194738Y-69294967D01*
X47289271Y-69153489D01*
X47403345Y-68580000D01*
X47289271Y-68006511D01*
X46964415Y-67520330D01*
X46836960Y-67435167D01*
X54764838Y-67435167D01*
X54906883Y-67778943D01*
X55169673Y-68042192D01*
X55279742Y-68087897D01*
X55215223Y-68243276D01*
X55214777Y-68754481D01*
X55409995Y-69226943D01*
X55771155Y-69588735D01*
X56243276Y-69784777D01*
X56754481Y-69785223D01*
X57226943Y-69590005D01*
X57588735Y-69228845D01*
X57784777Y-68756724D01*
X57785140Y-68339667D01*
X74506738Y-68339667D01*
X74648783Y-68683443D01*
X74911573Y-68946692D01*
X75255101Y-69089338D01*
X75627067Y-69089662D01*
X75970843Y-68947617D01*
X76234092Y-68684827D01*
X76376738Y-68341299D01*
X76377062Y-67969333D01*
X76235017Y-67625557D01*
X76131850Y-67522210D01*
X76337292Y-67317127D01*
X76479938Y-66973599D01*
X76480262Y-66601633D01*
X76338217Y-66257857D01*
X76075427Y-65994608D01*
X75731899Y-65851962D01*
X75359933Y-65851638D01*
X75016157Y-65993683D01*
X74752908Y-66256473D01*
X74610262Y-66600001D01*
X74609938Y-66971967D01*
X74751983Y-67315743D01*
X74855150Y-67419090D01*
X74649708Y-67624173D01*
X74507062Y-67967701D01*
X74506738Y-68339667D01*
X57785140Y-68339667D01*
X57785223Y-68245519D01*
X57590005Y-67773057D01*
X57266881Y-67449367D01*
X59739638Y-67449367D01*
X59881683Y-67793143D01*
X60144473Y-68056392D01*
X60488001Y-68199038D01*
X60859967Y-68199362D01*
X61203743Y-68057317D01*
X61466992Y-67794527D01*
X61609638Y-67450999D01*
X61609962Y-67079033D01*
X61467917Y-66735257D01*
X61205127Y-66472008D01*
X60861599Y-66329362D01*
X60489633Y-66329038D01*
X60145857Y-66471083D01*
X59882608Y-66733873D01*
X59739962Y-67077401D01*
X59739638Y-67449367D01*
X57266881Y-67449367D01*
X57228845Y-67411265D01*
X56924765Y-67285000D01*
X57276310Y-67285000D01*
X57509699Y-67188327D01*
X57688327Y-67009698D01*
X57785000Y-66776309D01*
X57785000Y-66285750D01*
X57626250Y-66127000D01*
X56627000Y-66127000D01*
X56627000Y-66147000D01*
X56373000Y-66147000D01*
X56373000Y-66127000D01*
X55373750Y-66127000D01*
X55215000Y-66285750D01*
X55215000Y-66438726D01*
X55171057Y-66456883D01*
X54907808Y-66719673D01*
X54765162Y-67063201D01*
X54764838Y-67435167D01*
X46836960Y-67435167D01*
X46649634Y-67310000D01*
X46964415Y-67099670D01*
X47289271Y-66613489D01*
X47403345Y-66040000D01*
X47289271Y-65466511D01*
X46964415Y-64980330D01*
X46950087Y-64970757D01*
X46971317Y-64966762D01*
X47187441Y-64827690D01*
X47332431Y-64615490D01*
X47368623Y-64436767D01*
X53980838Y-64436767D01*
X54122883Y-64780543D01*
X54385673Y-65043792D01*
X54729201Y-65186438D01*
X55101167Y-65186762D01*
X55256960Y-65122390D01*
X55215000Y-65223691D01*
X55215000Y-65714250D01*
X55373750Y-65873000D01*
X56373000Y-65873000D01*
X56373000Y-64873750D01*
X56627000Y-64873750D01*
X56627000Y-65873000D01*
X57626250Y-65873000D01*
X57785000Y-65714250D01*
X57785000Y-65223691D01*
X57765481Y-65176567D01*
X59737638Y-65176567D01*
X59879683Y-65520343D01*
X60142473Y-65783592D01*
X60486001Y-65926238D01*
X60857967Y-65926562D01*
X61102394Y-65825567D01*
X97090638Y-65825567D01*
X97232683Y-66169343D01*
X97378954Y-66315869D01*
X97239908Y-66454673D01*
X97097262Y-66798201D01*
X97096938Y-67170167D01*
X97238983Y-67513943D01*
X97501773Y-67777192D01*
X97845301Y-67919838D01*
X98217267Y-67920162D01*
X98561043Y-67778117D01*
X98824292Y-67515327D01*
X98966938Y-67171799D01*
X98967262Y-66799833D01*
X98825217Y-66456057D01*
X98678946Y-66309531D01*
X98817992Y-66170727D01*
X98960638Y-65827199D01*
X98960962Y-65455233D01*
X98818917Y-65111457D01*
X98762676Y-65055118D01*
X98833992Y-64983927D01*
X98976638Y-64640399D01*
X98976962Y-64268433D01*
X98834917Y-63924657D01*
X98572127Y-63661408D01*
X98228599Y-63518762D01*
X97856633Y-63518438D01*
X97512857Y-63660483D01*
X97249608Y-63923273D01*
X97106962Y-64266801D01*
X97106638Y-64638767D01*
X97248683Y-64982543D01*
X97304924Y-65038882D01*
X97233608Y-65110073D01*
X97090962Y-65453601D01*
X97090638Y-65825567D01*
X61102394Y-65825567D01*
X61201743Y-65784517D01*
X61464992Y-65521727D01*
X61607638Y-65178199D01*
X61607962Y-64806233D01*
X61465917Y-64462457D01*
X61203127Y-64199208D01*
X60859599Y-64056562D01*
X60487633Y-64056238D01*
X60143857Y-64198283D01*
X59880608Y-64461073D01*
X59737962Y-64804601D01*
X59737638Y-65176567D01*
X57765481Y-65176567D01*
X57688327Y-64990302D01*
X57509699Y-64811673D01*
X57276310Y-64715000D01*
X56785750Y-64715000D01*
X56627000Y-64873750D01*
X56373000Y-64873750D01*
X56214250Y-64715000D01*
X55735983Y-64715000D01*
X55850838Y-64438399D01*
X55851162Y-64066433D01*
X55709117Y-63722657D01*
X55446327Y-63459408D01*
X55102799Y-63316762D01*
X54730833Y-63316438D01*
X54387057Y-63458483D01*
X54123808Y-63721273D01*
X53981162Y-64064801D01*
X53980838Y-64436767D01*
X47368623Y-64436767D01*
X47383440Y-64363600D01*
X47383440Y-62636400D01*
X47353178Y-62475567D01*
X74392338Y-62475567D01*
X74534383Y-62819343D01*
X74797173Y-63082592D01*
X75140701Y-63225238D01*
X75512667Y-63225562D01*
X75856443Y-63083517D01*
X75956773Y-62983362D01*
X76092301Y-63039638D01*
X76464267Y-63039962D01*
X76808043Y-62897917D01*
X77071292Y-62635127D01*
X77213938Y-62291599D01*
X77214262Y-61919633D01*
X77072217Y-61575857D01*
X77051863Y-61555467D01*
X77302338Y-61555467D01*
X77444383Y-61899243D01*
X77707173Y-62162492D01*
X78050701Y-62305138D01*
X78422667Y-62305462D01*
X78766443Y-62163417D01*
X79029692Y-61900627D01*
X79077705Y-61785000D01*
X79214250Y-61785000D01*
X79373000Y-61626250D01*
X79373000Y-60627000D01*
X79627000Y-60627000D01*
X79627000Y-61626250D01*
X79785750Y-61785000D01*
X80276310Y-61785000D01*
X80509699Y-61688327D01*
X80688327Y-61509698D01*
X80785000Y-61276309D01*
X80785000Y-60785750D01*
X80626250Y-60627000D01*
X79627000Y-60627000D01*
X79373000Y-60627000D01*
X79353000Y-60627000D01*
X79353000Y-60545767D01*
X83058738Y-60545767D01*
X83200783Y-60889543D01*
X83463573Y-61152792D01*
X83807101Y-61295438D01*
X84179067Y-61295762D01*
X84522843Y-61153717D01*
X84786092Y-60890927D01*
X84928738Y-60547399D01*
X84929062Y-60175433D01*
X84787017Y-59831657D01*
X84524227Y-59568408D01*
X84180699Y-59425762D01*
X83808733Y-59425438D01*
X83464957Y-59567483D01*
X83201708Y-59830273D01*
X83059062Y-60173801D01*
X83058738Y-60545767D01*
X79353000Y-60545767D01*
X79353000Y-60373000D01*
X79373000Y-60373000D01*
X79373000Y-60353000D01*
X79627000Y-60353000D01*
X79627000Y-60373000D01*
X80626250Y-60373000D01*
X80785000Y-60214250D01*
X80785000Y-59723691D01*
X80688327Y-59490302D01*
X80509699Y-59311673D01*
X80276310Y-59215000D01*
X79924433Y-59215000D01*
X80226943Y-59090005D01*
X80588735Y-58728845D01*
X80684437Y-58498367D01*
X97078338Y-58498367D01*
X97220383Y-58842143D01*
X97483173Y-59105392D01*
X97826701Y-59248038D01*
X98198667Y-59248362D01*
X98542443Y-59106317D01*
X98805692Y-58843527D01*
X98948338Y-58499999D01*
X98948662Y-58128033D01*
X98806617Y-57784257D01*
X98543827Y-57521008D01*
X98200299Y-57378362D01*
X97828333Y-57378038D01*
X97484557Y-57520083D01*
X97221308Y-57782873D01*
X97078662Y-58126401D01*
X97078338Y-58498367D01*
X80684437Y-58498367D01*
X80784777Y-58256724D01*
X80785223Y-57745519D01*
X80590005Y-57273057D01*
X80228845Y-56911265D01*
X79756724Y-56715223D01*
X79245519Y-56714777D01*
X78773057Y-56909995D01*
X78411265Y-57271155D01*
X78215223Y-57743276D01*
X78214777Y-58254481D01*
X78409995Y-58726943D01*
X78771155Y-59088735D01*
X79075235Y-59215000D01*
X78723690Y-59215000D01*
X78490301Y-59311673D01*
X78311673Y-59490302D01*
X78215000Y-59723691D01*
X78215000Y-60214250D01*
X78373748Y-60372998D01*
X78215000Y-60372998D01*
X78215000Y-60435280D01*
X78052333Y-60435138D01*
X77708557Y-60577183D01*
X77445308Y-60839973D01*
X77302662Y-61183501D01*
X77302338Y-61555467D01*
X77051863Y-61555467D01*
X76809427Y-61312608D01*
X76465899Y-61169962D01*
X76093933Y-61169638D01*
X75750157Y-61311683D01*
X75649827Y-61411838D01*
X75514299Y-61355562D01*
X75142333Y-61355238D01*
X74798557Y-61497283D01*
X74535308Y-61760073D01*
X74392662Y-62103601D01*
X74392338Y-62475567D01*
X47353178Y-62475567D01*
X47339162Y-62401083D01*
X47200090Y-62184959D01*
X46987890Y-62039969D01*
X46736000Y-61988960D01*
X44704000Y-61988960D01*
X44468683Y-62033238D01*
X44252559Y-62172310D01*
X44107569Y-62384510D01*
X44056560Y-62636400D01*
X44056560Y-64363600D01*
X44100838Y-64598917D01*
X44239910Y-64815041D01*
X44452110Y-64960031D01*
X44493439Y-64968400D01*
X44475585Y-64980330D01*
X44150729Y-65466511D01*
X44036655Y-66040000D01*
X37710000Y-66040000D01*
X37710000Y-61233267D01*
X59763538Y-61233267D01*
X59905583Y-61577043D01*
X60168373Y-61840292D01*
X60511901Y-61982938D01*
X60883867Y-61983262D01*
X61227643Y-61841217D01*
X61490892Y-61578427D01*
X61633538Y-61234899D01*
X61633862Y-60862933D01*
X61511531Y-60566867D01*
X74370438Y-60566867D01*
X74512483Y-60910643D01*
X74775273Y-61173892D01*
X75118801Y-61316538D01*
X75490767Y-61316862D01*
X75834543Y-61174817D01*
X76097792Y-60912027D01*
X76240438Y-60568499D01*
X76240762Y-60196533D01*
X76098717Y-59852757D01*
X75835927Y-59589508D01*
X75492399Y-59446862D01*
X75120433Y-59446538D01*
X74776657Y-59588583D01*
X74513408Y-59851373D01*
X74370762Y-60194901D01*
X74370438Y-60566867D01*
X61511531Y-60566867D01*
X61491817Y-60519157D01*
X61229027Y-60255908D01*
X60885499Y-60113262D01*
X60513533Y-60112938D01*
X60169757Y-60254983D01*
X59906508Y-60517773D01*
X59763862Y-60861301D01*
X59763538Y-61233267D01*
X37710000Y-61233267D01*
X37710000Y-57150000D01*
X44036655Y-57150000D01*
X44150729Y-57723489D01*
X44475585Y-58209670D01*
X44489913Y-58219243D01*
X44468683Y-58223238D01*
X44252559Y-58362310D01*
X44107569Y-58574510D01*
X44056560Y-58826400D01*
X44056560Y-60553600D01*
X44100838Y-60788917D01*
X44239910Y-61005041D01*
X44452110Y-61150031D01*
X44704000Y-61201040D01*
X46736000Y-61201040D01*
X46971317Y-61156762D01*
X47187441Y-61017690D01*
X47332431Y-60805490D01*
X47383440Y-60553600D01*
X47383440Y-59475667D01*
X72766138Y-59475667D01*
X72908183Y-59819443D01*
X73170973Y-60082692D01*
X73514501Y-60225338D01*
X73886467Y-60225662D01*
X74230243Y-60083617D01*
X74493492Y-59820827D01*
X74636138Y-59477299D01*
X74636462Y-59105333D01*
X74494417Y-58761557D01*
X74231627Y-58498308D01*
X74211540Y-58489967D01*
X74913338Y-58489967D01*
X75055383Y-58833743D01*
X75318173Y-59096992D01*
X75661701Y-59239638D01*
X76033667Y-59239962D01*
X76377443Y-59097917D01*
X76640692Y-58835127D01*
X76783338Y-58491599D01*
X76783662Y-58119633D01*
X76641617Y-57775857D01*
X76378827Y-57512608D01*
X76035299Y-57369962D01*
X75663333Y-57369638D01*
X75319557Y-57511683D01*
X75056308Y-57774473D01*
X74913662Y-58118001D01*
X74913338Y-58489967D01*
X74211540Y-58489967D01*
X73888099Y-58355662D01*
X73516133Y-58355338D01*
X73172357Y-58497383D01*
X72909108Y-58760173D01*
X72766462Y-59103701D01*
X72766138Y-59475667D01*
X47383440Y-59475667D01*
X47383440Y-58826400D01*
X47339162Y-58591083D01*
X47200090Y-58374959D01*
X46987890Y-58229969D01*
X46946561Y-58221600D01*
X46964415Y-58209670D01*
X47168545Y-57904167D01*
X59600338Y-57904167D01*
X59742383Y-58247943D01*
X60005173Y-58511192D01*
X60348701Y-58653838D01*
X60720667Y-58654162D01*
X61064443Y-58512117D01*
X61081587Y-58495003D01*
X61149101Y-58523038D01*
X61521067Y-58523362D01*
X61864843Y-58381317D01*
X62128092Y-58118527D01*
X62270738Y-57774999D01*
X62271062Y-57403033D01*
X62214428Y-57265967D01*
X65541038Y-57265967D01*
X65683083Y-57609743D01*
X65945873Y-57872992D01*
X66289401Y-58015638D01*
X66461578Y-58015788D01*
X66539983Y-58205543D01*
X66802773Y-58468792D01*
X67146301Y-58611438D01*
X67518267Y-58611762D01*
X67862043Y-58469717D01*
X68022911Y-58309129D01*
X68195073Y-58481592D01*
X68538601Y-58624238D01*
X68910567Y-58624562D01*
X69254343Y-58482517D01*
X69517592Y-58219727D01*
X69660238Y-57876199D01*
X69660562Y-57504233D01*
X69518517Y-57160457D01*
X69255727Y-56897208D01*
X68912199Y-56754562D01*
X68907412Y-56754558D01*
X68844317Y-56601857D01*
X68581527Y-56338608D01*
X68237999Y-56195962D01*
X67866033Y-56195638D01*
X67522257Y-56337683D01*
X67280528Y-56578990D01*
X67269317Y-56551857D01*
X67006527Y-56288608D01*
X66662999Y-56145962D01*
X66291033Y-56145638D01*
X65947257Y-56287683D01*
X65684008Y-56550473D01*
X65541362Y-56894001D01*
X65541038Y-57265967D01*
X62214428Y-57265967D01*
X62129017Y-57059257D01*
X61866227Y-56796008D01*
X61522699Y-56653362D01*
X61150733Y-56653038D01*
X60806957Y-56795083D01*
X60789813Y-56812197D01*
X60722299Y-56784162D01*
X60350333Y-56783838D01*
X60006557Y-56925883D01*
X59743308Y-57188673D01*
X59600662Y-57532201D01*
X59600338Y-57904167D01*
X47168545Y-57904167D01*
X47289271Y-57723489D01*
X47403345Y-57150000D01*
X47289271Y-56576511D01*
X46964415Y-56090330D01*
X46654931Y-55883539D01*
X47070732Y-55512036D01*
X47101209Y-55448767D01*
X97101338Y-55448767D01*
X97243383Y-55792543D01*
X97506173Y-56055792D01*
X97849701Y-56198438D01*
X98221667Y-56198762D01*
X98565443Y-56056717D01*
X98828692Y-55793927D01*
X98971338Y-55450399D01*
X98971662Y-55078433D01*
X98829617Y-54734657D01*
X98566827Y-54471408D01*
X98223299Y-54328762D01*
X97851333Y-54328438D01*
X97507557Y-54470483D01*
X97244308Y-54733273D01*
X97101662Y-55076801D01*
X97101338Y-55448767D01*
X47101209Y-55448767D01*
X47324709Y-54984791D01*
X47327358Y-54969026D01*
X47206217Y-54737000D01*
X45847000Y-54737000D01*
X45847000Y-54757000D01*
X45593000Y-54757000D01*
X45593000Y-54737000D01*
X44233783Y-54737000D01*
X44112642Y-54969026D01*
X44115291Y-54984791D01*
X44369268Y-55512036D01*
X44785069Y-55883539D01*
X44475585Y-56090330D01*
X44150729Y-56576511D01*
X44036655Y-57150000D01*
X37710000Y-57150000D01*
X37710000Y-53104282D01*
X37750838Y-53321317D01*
X37873000Y-53511162D01*
X37873000Y-54000000D01*
X37881685Y-54046159D01*
X37908965Y-54088553D01*
X37950590Y-54116994D01*
X38000000Y-54127000D01*
X43000000Y-54127000D01*
X43046159Y-54118315D01*
X43088553Y-54091035D01*
X43116994Y-54049410D01*
X43127000Y-54000000D01*
X43127000Y-53195596D01*
X43435325Y-52734155D01*
X43561000Y-52102345D01*
X43561000Y-52070000D01*
X44036655Y-52070000D01*
X44150729Y-52643489D01*
X44475585Y-53129670D01*
X44785069Y-53336461D01*
X44369268Y-53707964D01*
X44115291Y-54235209D01*
X44112642Y-54250974D01*
X44233783Y-54483000D01*
X45593000Y-54483000D01*
X45593000Y-54463000D01*
X45847000Y-54463000D01*
X45847000Y-54483000D01*
X47206217Y-54483000D01*
X47327358Y-54250974D01*
X47324709Y-54235209D01*
X47093140Y-53754481D01*
X60714777Y-53754481D01*
X60909995Y-54226943D01*
X61271155Y-54588735D01*
X61743276Y-54784777D01*
X62254481Y-54785223D01*
X62726943Y-54590005D01*
X63088735Y-54228845D01*
X63215000Y-53924765D01*
X63215000Y-54276310D01*
X63311673Y-54509699D01*
X63490302Y-54688327D01*
X63723691Y-54785000D01*
X64214250Y-54785000D01*
X64373000Y-54626250D01*
X64373000Y-53627000D01*
X64627000Y-53627000D01*
X64627000Y-54626250D01*
X64785750Y-54785000D01*
X65276309Y-54785000D01*
X65509698Y-54688327D01*
X65688327Y-54509699D01*
X65785000Y-54276310D01*
X65785000Y-53785750D01*
X65626250Y-53627000D01*
X64627000Y-53627000D01*
X64373000Y-53627000D01*
X64353000Y-53627000D01*
X64353000Y-53373000D01*
X64373000Y-53373000D01*
X64373000Y-52373750D01*
X64627000Y-52373750D01*
X64627000Y-53373000D01*
X65626250Y-53373000D01*
X65785000Y-53214250D01*
X65785000Y-52723690D01*
X65688327Y-52490301D01*
X65509698Y-52311673D01*
X65276309Y-52215000D01*
X64785750Y-52215000D01*
X64627000Y-52373750D01*
X64373000Y-52373750D01*
X64214250Y-52215000D01*
X63723691Y-52215000D01*
X63490302Y-52311673D01*
X63311673Y-52490301D01*
X63215000Y-52723690D01*
X63215000Y-53075567D01*
X63090005Y-52773057D01*
X62728845Y-52411265D01*
X62256724Y-52215223D01*
X61745519Y-52214777D01*
X61273057Y-52409995D01*
X60911265Y-52771155D01*
X60715223Y-53243276D01*
X60714777Y-53754481D01*
X47093140Y-53754481D01*
X47070732Y-53707964D01*
X46654931Y-53336461D01*
X46964415Y-53129670D01*
X47289271Y-52643489D01*
X47403345Y-52070000D01*
X47289271Y-51496511D01*
X46964415Y-51010330D01*
X46478234Y-50685474D01*
X45904745Y-50571400D01*
X45535255Y-50571400D01*
X44961766Y-50685474D01*
X44475585Y-51010330D01*
X44150729Y-51496511D01*
X44036655Y-52070000D01*
X43561000Y-52070000D01*
X43561000Y-52037655D01*
X43435325Y-51405845D01*
X43127000Y-50944404D01*
X43127000Y-50184000D01*
X52236560Y-50184000D01*
X52236560Y-52216000D01*
X52280838Y-52451317D01*
X52419910Y-52667441D01*
X52632110Y-52812431D01*
X52884000Y-52863440D01*
X54916000Y-52863440D01*
X55151317Y-52819162D01*
X55367441Y-52680090D01*
X55474233Y-52523794D01*
X55775845Y-52725325D01*
X56407655Y-52851000D01*
X56472345Y-52851000D01*
X57104155Y-52725325D01*
X57639778Y-52367433D01*
X57997670Y-51831810D01*
X58123345Y-51200000D01*
X58016881Y-50664767D01*
X84039538Y-50664767D01*
X84181583Y-51008543D01*
X84444373Y-51271792D01*
X84787901Y-51414438D01*
X85159867Y-51414762D01*
X85503643Y-51272717D01*
X85766892Y-51009927D01*
X85909538Y-50666399D01*
X85909547Y-50655467D01*
X95259038Y-50655467D01*
X95401083Y-50999243D01*
X95663873Y-51262492D01*
X96007401Y-51405138D01*
X96379367Y-51405462D01*
X96723143Y-51263417D01*
X96986392Y-51000627D01*
X97129038Y-50657099D01*
X97129362Y-50285133D01*
X96987317Y-49941357D01*
X96724527Y-49678108D01*
X96380999Y-49535462D01*
X96009033Y-49535138D01*
X95665257Y-49677183D01*
X95402008Y-49939973D01*
X95259362Y-50283501D01*
X95259038Y-50655467D01*
X85909547Y-50655467D01*
X85909862Y-50294433D01*
X85767817Y-49950657D01*
X85505027Y-49687408D01*
X85161499Y-49544762D01*
X84789533Y-49544438D01*
X84445757Y-49686483D01*
X84182508Y-49949273D01*
X84039862Y-50292801D01*
X84039538Y-50664767D01*
X58016881Y-50664767D01*
X57997670Y-50568190D01*
X57639778Y-50032567D01*
X57104155Y-49674675D01*
X56472345Y-49549000D01*
X56407655Y-49549000D01*
X55775845Y-49674675D01*
X55473038Y-49877004D01*
X55380090Y-49732559D01*
X55167890Y-49587569D01*
X54916000Y-49536560D01*
X52884000Y-49536560D01*
X52648683Y-49580838D01*
X52432559Y-49719910D01*
X52287569Y-49932110D01*
X52236560Y-50184000D01*
X43127000Y-50184000D01*
X43127000Y-47000000D01*
X43118315Y-46953841D01*
X43091035Y-46911447D01*
X43049410Y-46883006D01*
X43000000Y-46873000D01*
X38000000Y-46873000D01*
X37953841Y-46881685D01*
X37911447Y-46908965D01*
X37883006Y-46950590D01*
X37873000Y-47000000D01*
X37873000Y-50633171D01*
X37757569Y-50802110D01*
X37710000Y-51037013D01*
X37710000Y-44490767D01*
X43427538Y-44490767D01*
X43569583Y-44834543D01*
X43832373Y-45097792D01*
X44175901Y-45240438D01*
X44547867Y-45240762D01*
X44891643Y-45098717D01*
X45154892Y-44835927D01*
X45297538Y-44492399D01*
X45297862Y-44120433D01*
X45155817Y-43776657D01*
X44893027Y-43513408D01*
X44549499Y-43370762D01*
X44177533Y-43370438D01*
X43833757Y-43512483D01*
X43570508Y-43775273D01*
X43427862Y-44118801D01*
X43427538Y-44490767D01*
X37710000Y-44490767D01*
X37710000Y-41500000D01*
X47873000Y-41500000D01*
X47873000Y-48500000D01*
X47881685Y-48546159D01*
X47908965Y-48588553D01*
X47950590Y-48616994D01*
X48000000Y-48627000D01*
X55500000Y-48627000D01*
X55546159Y-48618315D01*
X55588553Y-48591035D01*
X55616994Y-48549410D01*
X55627000Y-48500000D01*
X55627000Y-41500000D01*
X92373000Y-41500000D01*
X92373000Y-48500000D01*
X92381685Y-48546159D01*
X92408965Y-48588553D01*
X92450590Y-48616994D01*
X92500000Y-48627000D01*
X100000000Y-48627000D01*
X100046159Y-48618315D01*
X100088553Y-48591035D01*
X100116994Y-48549410D01*
X100127000Y-48500000D01*
X100127000Y-41500000D01*
X100118315Y-41453841D01*
X100091035Y-41411447D01*
X100049410Y-41383006D01*
X100000000Y-41373000D01*
X92500000Y-41373000D01*
X92453841Y-41381685D01*
X92411447Y-41408965D01*
X92383006Y-41450590D01*
X92373000Y-41500000D01*
X55627000Y-41500000D01*
X55618315Y-41453841D01*
X55591035Y-41411447D01*
X55549410Y-41383006D01*
X55500000Y-41373000D01*
X48000000Y-41373000D01*
X47953841Y-41381685D01*
X47911447Y-41408965D01*
X47883006Y-41450590D01*
X47873000Y-41500000D01*
X37710000Y-41500000D01*
X37710000Y-41000000D01*
X102873000Y-41000000D01*
X102873000Y-49000000D01*
X102881685Y-49046159D01*
X102908965Y-49088553D01*
X102950590Y-49116994D01*
X103000000Y-49127000D01*
X111000000Y-49127000D01*
X111046159Y-49118315D01*
X111088553Y-49091035D01*
X111116994Y-49049410D01*
X111127000Y-49000000D01*
X111127000Y-41000000D01*
X111118315Y-40953841D01*
X111091035Y-40911447D01*
X111049410Y-40883006D01*
X111000000Y-40873000D01*
X103000000Y-40873000D01*
X102953841Y-40881685D01*
X102911447Y-40908965D01*
X102883006Y-40950590D01*
X102873000Y-41000000D01*
X37710000Y-41000000D01*
X37710000Y-40710000D01*
X111290000Y-40710000D01*
X111290000Y-174290000D01*
X111290000Y-174290000D01*
G37*
X111290000Y-174290000D02*
X42877000Y-174290000D01*
X42877000Y-173074086D01*
X91126269Y-173074086D01*
X91328854Y-173564380D01*
X91703647Y-173939827D01*
X92193587Y-174143268D01*
X92724086Y-174143731D01*
X93214380Y-173941146D01*
X93589827Y-173566353D01*
X93793268Y-173076413D01*
X93793270Y-173074086D01*
X96206269Y-173074086D01*
X96408854Y-173564380D01*
X96783647Y-173939827D01*
X97273587Y-174143268D01*
X97804086Y-174143731D01*
X98294380Y-173941146D01*
X98669827Y-173566353D01*
X98873268Y-173076413D01*
X98873270Y-173074086D01*
X103126269Y-173074086D01*
X103328854Y-173564380D01*
X103703647Y-173939827D01*
X104193587Y-174143268D01*
X104724086Y-174143731D01*
X105214380Y-173941146D01*
X105589827Y-173566353D01*
X105793268Y-173076413D01*
X105793270Y-173074086D01*
X108206269Y-173074086D01*
X108408854Y-173564380D01*
X108783647Y-173939827D01*
X109273587Y-174143268D01*
X109804086Y-174143731D01*
X110294380Y-173941146D01*
X110669827Y-173566353D01*
X110873268Y-173076413D01*
X110873731Y-172545914D01*
X110671146Y-172055620D01*
X110296353Y-171680173D01*
X109806413Y-171476732D01*
X109275914Y-171476269D01*
X108785620Y-171678854D01*
X108410173Y-172053647D01*
X108206732Y-172543587D01*
X108206269Y-173074086D01*
X105793270Y-173074086D01*
X105793731Y-172545914D01*
X105591146Y-172055620D01*
X105216353Y-171680173D01*
X104726413Y-171476732D01*
X104195914Y-171476269D01*
X103705620Y-171678854D01*
X103330173Y-172053647D01*
X103126732Y-172543587D01*
X103126269Y-173074086D01*
X98873270Y-173074086D01*
X98873731Y-172545914D01*
X98671146Y-172055620D01*
X98296353Y-171680173D01*
X97806413Y-171476732D01*
X97275914Y-171476269D01*
X96785620Y-171678854D01*
X96410173Y-172053647D01*
X96206732Y-172543587D01*
X96206269Y-173074086D01*
X93793270Y-173074086D01*
X93793731Y-172545914D01*
X93591146Y-172055620D01*
X93216353Y-171680173D01*
X92726413Y-171476732D01*
X92195914Y-171476269D01*
X91705620Y-171678854D01*
X91330173Y-172053647D01*
X91126732Y-172543587D01*
X91126269Y-173074086D01*
X42877000Y-173074086D01*
X42877000Y-172399016D01*
X56280590Y-172399016D01*
X56336271Y-172629611D01*
X56819078Y-172797622D01*
X57329428Y-172768083D01*
X57663729Y-172629611D01*
X57719410Y-172399016D01*
X57000000Y-171679605D01*
X56280590Y-172399016D01*
X42877000Y-172399016D01*
X42877000Y-171319078D01*
X55702378Y-171319078D01*
X55731917Y-171829428D01*
X55870389Y-172163729D01*
X56100984Y-172219410D01*
X56820395Y-171500000D01*
X57179605Y-171500000D01*
X57899016Y-172219410D01*
X58129611Y-172163729D01*
X58297622Y-171680922D01*
X58268083Y-171170572D01*
X58129611Y-170836271D01*
X57899016Y-170780590D01*
X57179605Y-171500000D01*
X56820395Y-171500000D01*
X56100984Y-170780590D01*
X55870389Y-170836271D01*
X55702378Y-171319078D01*
X42877000Y-171319078D01*
X42877000Y-169500000D01*
X42868315Y-169453841D01*
X42841035Y-169411447D01*
X42799410Y-169383006D01*
X42750000Y-169373000D01*
X37750000Y-169373000D01*
X37710000Y-169380526D01*
X37710000Y-167999100D01*
X39524916Y-167999100D01*
X39611313Y-168433446D01*
X39857350Y-168801666D01*
X40225570Y-169047703D01*
X40659916Y-169134100D01*
X41265164Y-169134100D01*
X41699510Y-169047703D01*
X42067730Y-168801666D01*
X42313767Y-168433446D01*
X42330365Y-168350000D01*
X55702560Y-168350000D01*
X55702560Y-169650000D01*
X55746838Y-169885317D01*
X55885910Y-170101441D01*
X56098110Y-170246431D01*
X56350000Y-170297440D01*
X56512385Y-170297440D01*
X56336271Y-170370389D01*
X56280590Y-170600984D01*
X57000000Y-171320395D01*
X57719410Y-170600984D01*
X57663729Y-170370389D01*
X57454098Y-170297440D01*
X57650000Y-170297440D01*
X57885317Y-170253162D01*
X58101441Y-170114090D01*
X58246431Y-169901890D01*
X58290318Y-169685167D01*
X72564838Y-169685167D01*
X72706883Y-170028943D01*
X72969673Y-170292192D01*
X73313201Y-170434838D01*
X73685167Y-170435162D01*
X74028943Y-170293117D01*
X74292192Y-170030327D01*
X74434838Y-169686799D01*
X74435162Y-169314833D01*
X74293117Y-168971057D01*
X74030327Y-168707808D01*
X73686799Y-168565162D01*
X73314833Y-168564838D01*
X72971057Y-168706883D01*
X72707808Y-168969673D01*
X72565162Y-169313201D01*
X72564838Y-169685167D01*
X58290318Y-169685167D01*
X58297440Y-169650000D01*
X58297440Y-168350000D01*
X58253162Y-168114683D01*
X58114090Y-167898559D01*
X57901890Y-167753569D01*
X57650000Y-167702560D01*
X56350000Y-167702560D01*
X56114683Y-167746838D01*
X55898559Y-167885910D01*
X55753569Y-168098110D01*
X55702560Y-168350000D01*
X42330365Y-168350000D01*
X42400164Y-167999100D01*
X42313767Y-167564754D01*
X42067730Y-167196534D01*
X41699510Y-166950497D01*
X41265164Y-166864100D01*
X40659916Y-166864100D01*
X40225570Y-166950497D01*
X39857350Y-167196534D01*
X39611313Y-167564754D01*
X39524916Y-167999100D01*
X37710000Y-167999100D01*
X37710000Y-166824415D01*
X42552540Y-166824415D01*
X42552540Y-167173785D01*
X42637034Y-167598564D01*
X42877651Y-167958674D01*
X43237761Y-168199291D01*
X43662540Y-168283785D01*
X44087319Y-168199291D01*
X44447429Y-167958674D01*
X44688046Y-167598564D01*
X44750268Y-167285750D01*
X47715000Y-167285750D01*
X47715000Y-167776309D01*
X47811673Y-168009698D01*
X47990301Y-168188327D01*
X48223690Y-168285000D01*
X48714250Y-168285000D01*
X48873000Y-168126250D01*
X48873000Y-167127000D01*
X49127000Y-167127000D01*
X49127000Y-168126250D01*
X49285750Y-168285000D01*
X49776310Y-168285000D01*
X50009699Y-168188327D01*
X50188327Y-168009698D01*
X50285000Y-167776309D01*
X50285000Y-167285750D01*
X50126250Y-167127000D01*
X49127000Y-167127000D01*
X48873000Y-167127000D01*
X47873750Y-167127000D01*
X47715000Y-167285750D01*
X44750268Y-167285750D01*
X44772540Y-167173785D01*
X44772540Y-166824415D01*
X44688046Y-166399636D01*
X44447429Y-166039526D01*
X44087319Y-165798909D01*
X43662540Y-165714415D01*
X43237761Y-165798909D01*
X42877651Y-166039526D01*
X42637034Y-166399636D01*
X42552540Y-166824415D01*
X37710000Y-166824415D01*
X37710000Y-164754481D01*
X47714777Y-164754481D01*
X47909995Y-165226943D01*
X48271155Y-165588735D01*
X48575235Y-165715000D01*
X48223690Y-165715000D01*
X47990301Y-165811673D01*
X47811673Y-165990302D01*
X47715000Y-166223691D01*
X47715000Y-166714250D01*
X47873750Y-166873000D01*
X48873000Y-166873000D01*
X48873000Y-166853000D01*
X49127000Y-166853000D01*
X49127000Y-166873000D01*
X50126250Y-166873000D01*
X50285000Y-166714250D01*
X50285000Y-166223691D01*
X50188327Y-165990302D01*
X50009699Y-165811673D01*
X49776310Y-165715000D01*
X49424433Y-165715000D01*
X49644310Y-165624148D01*
X59170000Y-165624148D01*
X59170000Y-165695852D01*
X59309300Y-166396163D01*
X59705995Y-166989857D01*
X60299689Y-167386552D01*
X61000000Y-167525852D01*
X61700311Y-167386552D01*
X62294005Y-166989857D01*
X62690700Y-166396163D01*
X62830000Y-165695852D01*
X62830000Y-165624148D01*
X62796173Y-165454086D01*
X91126269Y-165454086D01*
X91328854Y-165944380D01*
X91703647Y-166319827D01*
X92193587Y-166523268D01*
X92724086Y-166523731D01*
X93214380Y-166321146D01*
X93589827Y-165946353D01*
X93793268Y-165456413D01*
X93793270Y-165454086D01*
X96206269Y-165454086D01*
X96408854Y-165944380D01*
X96783647Y-166319827D01*
X97273587Y-166523268D01*
X97804086Y-166523731D01*
X98294380Y-166321146D01*
X98669827Y-165946353D01*
X98873268Y-165456413D01*
X98873270Y-165454086D01*
X103126269Y-165454086D01*
X103328854Y-165944380D01*
X103703647Y-166319827D01*
X104193587Y-166523268D01*
X104724086Y-166523731D01*
X105214380Y-166321146D01*
X105589827Y-165946353D01*
X105793268Y-165456413D01*
X105793270Y-165454086D01*
X108206269Y-165454086D01*
X108408854Y-165944380D01*
X108783647Y-166319827D01*
X109273587Y-166523268D01*
X109804086Y-166523731D01*
X110294380Y-166321146D01*
X110669827Y-165946353D01*
X110873268Y-165456413D01*
X110873731Y-164925914D01*
X110671146Y-164435620D01*
X110296353Y-164060173D01*
X109806413Y-163856732D01*
X109275914Y-163856269D01*
X108785620Y-164058854D01*
X108410173Y-164433647D01*
X108206732Y-164923587D01*
X108206269Y-165454086D01*
X105793270Y-165454086D01*
X105793731Y-164925914D01*
X105591146Y-164435620D01*
X105216353Y-164060173D01*
X104726413Y-163856732D01*
X104195914Y-163856269D01*
X103705620Y-164058854D01*
X103330173Y-164433647D01*
X103126732Y-164923587D01*
X103126269Y-165454086D01*
X98873270Y-165454086D01*
X98873731Y-164925914D01*
X98671146Y-164435620D01*
X98296353Y-164060173D01*
X97806413Y-163856732D01*
X97275914Y-163856269D01*
X96785620Y-164058854D01*
X96410173Y-164433647D01*
X96206732Y-164923587D01*
X96206269Y-165454086D01*
X93793270Y-165454086D01*
X93793731Y-164925914D01*
X93591146Y-164435620D01*
X93216353Y-164060173D01*
X92726413Y-163856732D01*
X92195914Y-163856269D01*
X91705620Y-164058854D01*
X91330173Y-164433647D01*
X91126732Y-164923587D01*
X91126269Y-165454086D01*
X62796173Y-165454086D01*
X62690700Y-164923837D01*
X62294005Y-164330143D01*
X61700311Y-163933448D01*
X61000000Y-163794148D01*
X60299689Y-163933448D01*
X59705995Y-164330143D01*
X59309300Y-164923837D01*
X59170000Y-165624148D01*
X49644310Y-165624148D01*
X49726943Y-165590005D01*
X50088735Y-165228845D01*
X50284777Y-164756724D01*
X50285223Y-164245519D01*
X50090005Y-163773057D01*
X49728845Y-163411265D01*
X49256724Y-163215223D01*
X48745519Y-163214777D01*
X48273057Y-163409995D01*
X47911265Y-163771155D01*
X47715223Y-164243276D01*
X47714777Y-164754481D01*
X37710000Y-164754481D01*
X37710000Y-160999100D01*
X39524916Y-160999100D01*
X39611313Y-161433446D01*
X39857350Y-161801666D01*
X40225570Y-162047703D01*
X40659916Y-162134100D01*
X41265164Y-162134100D01*
X41699510Y-162047703D01*
X42033683Y-161824415D01*
X42552540Y-161824415D01*
X42552540Y-162173785D01*
X42637034Y-162598564D01*
X42877651Y-162958674D01*
X43237761Y-163199291D01*
X43662540Y-163283785D01*
X44087319Y-163199291D01*
X44447429Y-162958674D01*
X44688046Y-162598564D01*
X44692914Y-162574086D01*
X91126269Y-162574086D01*
X91328854Y-163064380D01*
X91703647Y-163439827D01*
X92193587Y-163643268D01*
X92724086Y-163643731D01*
X93214380Y-163441146D01*
X93589827Y-163066353D01*
X93793268Y-162576413D01*
X93793270Y-162574086D01*
X96206269Y-162574086D01*
X96408854Y-163064380D01*
X96783647Y-163439827D01*
X97273587Y-163643268D01*
X97804086Y-163643731D01*
X98294380Y-163441146D01*
X98669827Y-163066353D01*
X98873268Y-162576413D01*
X98873270Y-162574086D01*
X103126269Y-162574086D01*
X103328854Y-163064380D01*
X103703647Y-163439827D01*
X104193587Y-163643268D01*
X104724086Y-163643731D01*
X105214380Y-163441146D01*
X105589827Y-163066353D01*
X105793268Y-162576413D01*
X105793270Y-162574086D01*
X108206269Y-162574086D01*
X108408854Y-163064380D01*
X108783647Y-163439827D01*
X109273587Y-163643268D01*
X109804086Y-163643731D01*
X110294380Y-163441146D01*
X110669827Y-163066353D01*
X110873268Y-162576413D01*
X110873731Y-162045914D01*
X110671146Y-161555620D01*
X110296353Y-161180173D01*
X109806413Y-160976732D01*
X109275914Y-160976269D01*
X108785620Y-161178854D01*
X108410173Y-161553647D01*
X108206732Y-162043587D01*
X108206269Y-162574086D01*
X105793270Y-162574086D01*
X105793731Y-162045914D01*
X105591146Y-161555620D01*
X105216353Y-161180173D01*
X104726413Y-160976732D01*
X104195914Y-160976269D01*
X103705620Y-161178854D01*
X103330173Y-161553647D01*
X103126732Y-162043587D01*
X103126269Y-162574086D01*
X98873270Y-162574086D01*
X98873731Y-162045914D01*
X98671146Y-161555620D01*
X98296353Y-161180173D01*
X97806413Y-160976732D01*
X97275914Y-160976269D01*
X96785620Y-161178854D01*
X96410173Y-161553647D01*
X96206732Y-162043587D01*
X96206269Y-162574086D01*
X93793270Y-162574086D01*
X93793731Y-162045914D01*
X93591146Y-161555620D01*
X93216353Y-161180173D01*
X92726413Y-160976732D01*
X92195914Y-160976269D01*
X91705620Y-161178854D01*
X91330173Y-161553647D01*
X91126732Y-162043587D01*
X91126269Y-162574086D01*
X44692914Y-162574086D01*
X44772540Y-162173785D01*
X44772540Y-161824415D01*
X44688046Y-161399636D01*
X44447429Y-161039526D01*
X44087319Y-160798909D01*
X43662540Y-160714415D01*
X43237761Y-160798909D01*
X42877651Y-161039526D01*
X42637034Y-161399636D01*
X42552540Y-161824415D01*
X42033683Y-161824415D01*
X42067730Y-161801666D01*
X42313767Y-161433446D01*
X42400164Y-160999100D01*
X42313767Y-160564754D01*
X42067730Y-160196534D01*
X41699510Y-159950497D01*
X41265164Y-159864100D01*
X40659916Y-159864100D01*
X40225570Y-159950497D01*
X39857350Y-160196534D01*
X39611313Y-160564754D01*
X39524916Y-160999100D01*
X37710000Y-160999100D01*
X37710000Y-159840000D01*
X53316655Y-159840000D01*
X53442330Y-160471810D01*
X53800222Y-161007433D01*
X54335845Y-161365325D01*
X54967655Y-161491000D01*
X55032345Y-161491000D01*
X55664155Y-161365325D01*
X56199778Y-161007433D01*
X56557670Y-160471810D01*
X56683345Y-159840000D01*
X56557670Y-159208190D01*
X56330501Y-158868208D01*
X56467441Y-158780090D01*
X56612431Y-158567890D01*
X56663440Y-158316000D01*
X56663440Y-157283765D01*
X74640000Y-157283765D01*
X74640000Y-157376235D01*
X74819644Y-158279368D01*
X75331228Y-159045007D01*
X76096867Y-159556591D01*
X77000000Y-159736235D01*
X77903133Y-159556591D01*
X78668772Y-159045007D01*
X79180356Y-158279368D01*
X79360000Y-157376235D01*
X79360000Y-157283765D01*
X79180356Y-156380632D01*
X78668772Y-155614993D01*
X77903133Y-155103409D01*
X77152435Y-154954086D01*
X91126269Y-154954086D01*
X91328854Y-155444380D01*
X91703647Y-155819827D01*
X92193587Y-156023268D01*
X92724086Y-156023731D01*
X93214380Y-155821146D01*
X93589827Y-155446353D01*
X93793268Y-154956413D01*
X93793270Y-154954086D01*
X96206269Y-154954086D01*
X96408854Y-155444380D01*
X96783647Y-155819827D01*
X97273587Y-156023268D01*
X97804086Y-156023731D01*
X98294380Y-155821146D01*
X98669827Y-155446353D01*
X98873268Y-154956413D01*
X98873270Y-154954086D01*
X103126269Y-154954086D01*
X103328854Y-155444380D01*
X103703647Y-155819827D01*
X104193587Y-156023268D01*
X104724086Y-156023731D01*
X105214380Y-155821146D01*
X105589827Y-155446353D01*
X105793268Y-154956413D01*
X105793270Y-154954086D01*
X108206269Y-154954086D01*
X108408854Y-155444380D01*
X108783647Y-155819827D01*
X109273587Y-156023268D01*
X109804086Y-156023731D01*
X110294380Y-155821146D01*
X110669827Y-155446353D01*
X110873268Y-154956413D01*
X110873731Y-154425914D01*
X110671146Y-153935620D01*
X110296353Y-153560173D01*
X109806413Y-153356732D01*
X109275914Y-153356269D01*
X108785620Y-153558854D01*
X108410173Y-153933647D01*
X108206732Y-154423587D01*
X108206269Y-154954086D01*
X105793270Y-154954086D01*
X105793731Y-154425914D01*
X105591146Y-153935620D01*
X105216353Y-153560173D01*
X104726413Y-153356732D01*
X104195914Y-153356269D01*
X103705620Y-153558854D01*
X103330173Y-153933647D01*
X103126732Y-154423587D01*
X103126269Y-154954086D01*
X98873270Y-154954086D01*
X98873731Y-154425914D01*
X98671146Y-153935620D01*
X98296353Y-153560173D01*
X97806413Y-153356732D01*
X97275914Y-153356269D01*
X96785620Y-153558854D01*
X96410173Y-153933647D01*
X96206732Y-154423587D01*
X96206269Y-154954086D01*
X93793270Y-154954086D01*
X93793731Y-154425914D01*
X93591146Y-153935620D01*
X93216353Y-153560173D01*
X92726413Y-153356732D01*
X92195914Y-153356269D01*
X91705620Y-153558854D01*
X91330173Y-153933647D01*
X91126732Y-154423587D01*
X91126269Y-154954086D01*
X77152435Y-154954086D01*
X77000000Y-154923765D01*
X76096867Y-155103409D01*
X75331228Y-155614993D01*
X74819644Y-156380632D01*
X74640000Y-157283765D01*
X56663440Y-157283765D01*
X56663440Y-156284000D01*
X56619162Y-156048683D01*
X56480090Y-155832559D01*
X56267890Y-155687569D01*
X56016000Y-155636560D01*
X53984000Y-155636560D01*
X53748683Y-155680838D01*
X53532559Y-155819910D01*
X53387569Y-156032110D01*
X53336560Y-156284000D01*
X53336560Y-158316000D01*
X53380838Y-158551317D01*
X53519910Y-158767441D01*
X53668837Y-158869198D01*
X53442330Y-159208190D01*
X53316655Y-159840000D01*
X37710000Y-159840000D01*
X37710000Y-158249016D01*
X47130590Y-158249016D01*
X47186271Y-158479611D01*
X47669078Y-158647622D01*
X48179428Y-158618083D01*
X48513729Y-158479611D01*
X48569410Y-158249016D01*
X47850000Y-157529605D01*
X47130590Y-158249016D01*
X37710000Y-158249016D01*
X37710000Y-157169078D01*
X46552378Y-157169078D01*
X46581917Y-157679428D01*
X46720389Y-158013729D01*
X46950984Y-158069410D01*
X47670395Y-157350000D01*
X48029605Y-157350000D01*
X48749016Y-158069410D01*
X48979611Y-158013729D01*
X49052560Y-157804098D01*
X49052560Y-158000000D01*
X49096838Y-158235317D01*
X49235910Y-158451441D01*
X49448110Y-158596431D01*
X49700000Y-158647440D01*
X51000000Y-158647440D01*
X51235317Y-158603162D01*
X51451441Y-158464090D01*
X51596431Y-158251890D01*
X51647440Y-158000000D01*
X51647440Y-156700000D01*
X51603162Y-156464683D01*
X51464090Y-156248559D01*
X51251890Y-156103569D01*
X51000000Y-156052560D01*
X49700000Y-156052560D01*
X49464683Y-156096838D01*
X49248559Y-156235910D01*
X49103569Y-156448110D01*
X49052560Y-156700000D01*
X49052560Y-156862385D01*
X48979611Y-156686271D01*
X48749016Y-156630590D01*
X48029605Y-157350000D01*
X47670395Y-157350000D01*
X46950984Y-156630590D01*
X46720389Y-156686271D01*
X46552378Y-157169078D01*
X37710000Y-157169078D01*
X37710000Y-156450984D01*
X47130590Y-156450984D01*
X47850000Y-157170395D01*
X48569410Y-156450984D01*
X48513729Y-156220389D01*
X48030922Y-156052378D01*
X47520572Y-156081917D01*
X47186271Y-156220389D01*
X47130590Y-156450984D01*
X37710000Y-156450984D01*
X37710000Y-152074086D01*
X91126269Y-152074086D01*
X91328854Y-152564380D01*
X91703647Y-152939827D01*
X92193587Y-153143268D01*
X92724086Y-153143731D01*
X93214380Y-152941146D01*
X93589827Y-152566353D01*
X93793268Y-152076413D01*
X93793270Y-152074086D01*
X96206269Y-152074086D01*
X96408854Y-152564380D01*
X96783647Y-152939827D01*
X97273587Y-153143268D01*
X97804086Y-153143731D01*
X98294380Y-152941146D01*
X98669827Y-152566353D01*
X98873268Y-152076413D01*
X98873270Y-152074086D01*
X103126269Y-152074086D01*
X103328854Y-152564380D01*
X103703647Y-152939827D01*
X104193587Y-153143268D01*
X104724086Y-153143731D01*
X105214380Y-152941146D01*
X105589827Y-152566353D01*
X105793268Y-152076413D01*
X105793270Y-152074086D01*
X108206269Y-152074086D01*
X108408854Y-152564380D01*
X108783647Y-152939827D01*
X109273587Y-153143268D01*
X109804086Y-153143731D01*
X110294380Y-152941146D01*
X110669827Y-152566353D01*
X110873268Y-152076413D01*
X110873731Y-151545914D01*
X110671146Y-151055620D01*
X110296353Y-150680173D01*
X109806413Y-150476732D01*
X109275914Y-150476269D01*
X108785620Y-150678854D01*
X108410173Y-151053647D01*
X108206732Y-151543587D01*
X108206269Y-152074086D01*
X105793270Y-152074086D01*
X105793731Y-151545914D01*
X105591146Y-151055620D01*
X105216353Y-150680173D01*
X104726413Y-150476732D01*
X104195914Y-150476269D01*
X103705620Y-150678854D01*
X103330173Y-151053647D01*
X103126732Y-151543587D01*
X103126269Y-152074086D01*
X98873270Y-152074086D01*
X98873731Y-151545914D01*
X98671146Y-151055620D01*
X98296353Y-150680173D01*
X97806413Y-150476732D01*
X97275914Y-150476269D01*
X96785620Y-150678854D01*
X96410173Y-151053647D01*
X96206732Y-151543587D01*
X96206269Y-152074086D01*
X93793270Y-152074086D01*
X93793731Y-151545914D01*
X93591146Y-151055620D01*
X93216353Y-150680173D01*
X92726413Y-150476732D01*
X92195914Y-150476269D01*
X91705620Y-150678854D01*
X91330173Y-151053647D01*
X91126732Y-151543587D01*
X91126269Y-152074086D01*
X37710000Y-152074086D01*
X37710000Y-147584000D01*
X52136560Y-147584000D01*
X52136560Y-149616000D01*
X52180838Y-149851317D01*
X52319910Y-150067441D01*
X52532110Y-150212431D01*
X52784000Y-150263440D01*
X54816000Y-150263440D01*
X55051317Y-150219162D01*
X55267441Y-150080090D01*
X55369198Y-149931163D01*
X55708190Y-150157670D01*
X56340000Y-150283345D01*
X56971810Y-150157670D01*
X57507433Y-149799778D01*
X57865325Y-149264155D01*
X57991000Y-148632345D01*
X57991000Y-148567655D01*
X57865325Y-147935845D01*
X57507433Y-147400222D01*
X56971810Y-147042330D01*
X56340000Y-146916655D01*
X55708190Y-147042330D01*
X55368208Y-147269499D01*
X55280090Y-147132559D01*
X55067890Y-146987569D01*
X54816000Y-146936560D01*
X52784000Y-146936560D01*
X52548683Y-146980838D01*
X52332559Y-147119910D01*
X52187569Y-147332110D01*
X52136560Y-147584000D01*
X37710000Y-147584000D01*
X37710000Y-144285750D01*
X46815000Y-144285750D01*
X46815000Y-144776310D01*
X46911673Y-145009699D01*
X47090302Y-145188327D01*
X47323691Y-145285000D01*
X47814250Y-145285000D01*
X47973000Y-145126250D01*
X47973000Y-144127000D01*
X46973750Y-144127000D01*
X46815000Y-144285750D01*
X37710000Y-144285750D01*
X37710000Y-143223690D01*
X46815000Y-143223690D01*
X46815000Y-143714250D01*
X46973750Y-143873000D01*
X47973000Y-143873000D01*
X47973000Y-142873750D01*
X48227000Y-142873750D01*
X48227000Y-143873000D01*
X48247000Y-143873000D01*
X48247000Y-144127000D01*
X48227000Y-144127000D01*
X48227000Y-145126250D01*
X48385750Y-145285000D01*
X48876309Y-145285000D01*
X49109698Y-145188327D01*
X49288327Y-145009699D01*
X49385000Y-144776310D01*
X49385000Y-144424433D01*
X49509995Y-144726943D01*
X49871155Y-145088735D01*
X50343276Y-145284777D01*
X50854481Y-145285223D01*
X51326943Y-145090005D01*
X51688735Y-144728845D01*
X51884777Y-144256724D01*
X51885014Y-143984000D01*
X81488960Y-143984000D01*
X81488960Y-146016000D01*
X81533238Y-146251317D01*
X81672310Y-146467441D01*
X81884510Y-146612431D01*
X82136400Y-146663440D01*
X83863600Y-146663440D01*
X84098917Y-146619162D01*
X84315041Y-146480090D01*
X84460031Y-146267890D01*
X84479232Y-146173073D01*
X84637964Y-146350732D01*
X85165209Y-146604709D01*
X85180974Y-146607358D01*
X85413000Y-146486217D01*
X85413000Y-145127000D01*
X85393000Y-145127000D01*
X85393000Y-144873000D01*
X85413000Y-144873000D01*
X85413000Y-143513783D01*
X85667000Y-143513783D01*
X85667000Y-144873000D01*
X85687000Y-144873000D01*
X85687000Y-145127000D01*
X85667000Y-145127000D01*
X85667000Y-146486217D01*
X85899026Y-146607358D01*
X85914791Y-146604709D01*
X86442036Y-146350732D01*
X86813539Y-145934931D01*
X87020330Y-146244415D01*
X87506511Y-146569271D01*
X88080000Y-146683345D01*
X88653489Y-146569271D01*
X89139670Y-146244415D01*
X89464526Y-145758234D01*
X89578600Y-145184745D01*
X89578600Y-144815255D01*
X89506760Y-144454086D01*
X91126269Y-144454086D01*
X91328854Y-144944380D01*
X91703647Y-145319827D01*
X92193587Y-145523268D01*
X92724086Y-145523731D01*
X93214380Y-145321146D01*
X93589827Y-144946353D01*
X93793268Y-144456413D01*
X93793270Y-144454086D01*
X96206269Y-144454086D01*
X96408854Y-144944380D01*
X96783647Y-145319827D01*
X97273587Y-145523268D01*
X97804086Y-145523731D01*
X98294380Y-145321146D01*
X98669827Y-144946353D01*
X98873268Y-144456413D01*
X98873270Y-144454086D01*
X103126269Y-144454086D01*
X103328854Y-144944380D01*
X103703647Y-145319827D01*
X104193587Y-145523268D01*
X104724086Y-145523731D01*
X105214380Y-145321146D01*
X105589827Y-144946353D01*
X105793268Y-144456413D01*
X105793270Y-144454086D01*
X108206269Y-144454086D01*
X108408854Y-144944380D01*
X108783647Y-145319827D01*
X109273587Y-145523268D01*
X109804086Y-145523731D01*
X110294380Y-145321146D01*
X110669827Y-144946353D01*
X110873268Y-144456413D01*
X110873731Y-143925914D01*
X110671146Y-143435620D01*
X110296353Y-143060173D01*
X109806413Y-142856732D01*
X109275914Y-142856269D01*
X108785620Y-143058854D01*
X108410173Y-143433647D01*
X108206732Y-143923587D01*
X108206269Y-144454086D01*
X105793270Y-144454086D01*
X105793731Y-143925914D01*
X105591146Y-143435620D01*
X105216353Y-143060173D01*
X104726413Y-142856732D01*
X104195914Y-142856269D01*
X103705620Y-143058854D01*
X103330173Y-143433647D01*
X103126732Y-143923587D01*
X103126269Y-144454086D01*
X98873270Y-144454086D01*
X98873731Y-143925914D01*
X98671146Y-143435620D01*
X98296353Y-143060173D01*
X97806413Y-142856732D01*
X97275914Y-142856269D01*
X96785620Y-143058854D01*
X96410173Y-143433647D01*
X96206732Y-143923587D01*
X96206269Y-144454086D01*
X93793270Y-144454086D01*
X93793731Y-143925914D01*
X93591146Y-143435620D01*
X93216353Y-143060173D01*
X92726413Y-142856732D01*
X92195914Y-142856269D01*
X91705620Y-143058854D01*
X91330173Y-143433647D01*
X91126732Y-143923587D01*
X91126269Y-144454086D01*
X89506760Y-144454086D01*
X89464526Y-144241766D01*
X89139670Y-143755585D01*
X88653489Y-143430729D01*
X88080000Y-143316655D01*
X87506511Y-143430729D01*
X87020330Y-143755585D01*
X86813539Y-144065069D01*
X86442036Y-143649268D01*
X85914791Y-143395291D01*
X85899026Y-143392642D01*
X85667000Y-143513783D01*
X85413000Y-143513783D01*
X85180974Y-143392642D01*
X85165209Y-143395291D01*
X84637964Y-143649268D01*
X84481093Y-143824845D01*
X84466762Y-143748683D01*
X84327690Y-143532559D01*
X84115490Y-143387569D01*
X83863600Y-143336560D01*
X82136400Y-143336560D01*
X81901083Y-143380838D01*
X81684959Y-143519910D01*
X81539969Y-143732110D01*
X81488960Y-143984000D01*
X51885014Y-143984000D01*
X51885223Y-143745519D01*
X51690005Y-143273057D01*
X51328845Y-142911265D01*
X50856724Y-142715223D01*
X50345519Y-142714777D01*
X49873057Y-142909995D01*
X49511265Y-143271155D01*
X49385000Y-143575235D01*
X49385000Y-143223690D01*
X49288327Y-142990301D01*
X49109698Y-142811673D01*
X48876309Y-142715000D01*
X48385750Y-142715000D01*
X48227000Y-142873750D01*
X47973000Y-142873750D01*
X47814250Y-142715000D01*
X47323691Y-142715000D01*
X47090302Y-142811673D01*
X46911673Y-142990301D01*
X46815000Y-143223690D01*
X37710000Y-143223690D01*
X37710000Y-136804086D01*
X38856269Y-136804086D01*
X39058854Y-137294380D01*
X39433647Y-137669827D01*
X39923587Y-137873268D01*
X40454086Y-137873731D01*
X40944380Y-137671146D01*
X41319827Y-137296353D01*
X41523268Y-136806413D01*
X41523270Y-136804086D01*
X46476269Y-136804086D01*
X46678854Y-137294380D01*
X47053647Y-137669827D01*
X47543587Y-137873268D01*
X48074086Y-137873731D01*
X48564380Y-137671146D01*
X48939827Y-137296353D01*
X48999896Y-137151691D01*
X49058854Y-137294380D01*
X49433647Y-137669827D01*
X49923587Y-137873268D01*
X50454086Y-137873731D01*
X50944380Y-137671146D01*
X51319827Y-137296353D01*
X51523268Y-136806413D01*
X51523270Y-136804086D01*
X56476269Y-136804086D01*
X56678854Y-137294380D01*
X57053647Y-137669827D01*
X57543587Y-137873268D01*
X58074086Y-137873731D01*
X58564380Y-137671146D01*
X58939827Y-137296353D01*
X59143268Y-136806413D01*
X59143731Y-136275914D01*
X58941146Y-135785620D01*
X58566353Y-135410173D01*
X58076413Y-135206732D01*
X57545914Y-135206269D01*
X57055620Y-135408854D01*
X56680173Y-135783647D01*
X56476732Y-136273587D01*
X56476269Y-136804086D01*
X51523270Y-136804086D01*
X51523731Y-136275914D01*
X51321146Y-135785620D01*
X50946353Y-135410173D01*
X50456413Y-135206732D01*
X49925914Y-135206269D01*
X49435620Y-135408854D01*
X49060173Y-135783647D01*
X49000104Y-135928309D01*
X48941146Y-135785620D01*
X48566353Y-135410173D01*
X48076413Y-135206732D01*
X47545914Y-135206269D01*
X47055620Y-135408854D01*
X46680173Y-135783647D01*
X46476732Y-136273587D01*
X46476269Y-136804086D01*
X41523270Y-136804086D01*
X41523731Y-136275914D01*
X41321146Y-135785620D01*
X40946353Y-135410173D01*
X40456413Y-135206732D01*
X39925914Y-135206269D01*
X39435620Y-135408854D01*
X39060173Y-135783647D01*
X38856732Y-136273587D01*
X38856269Y-136804086D01*
X37710000Y-136804086D01*
X37710000Y-131724086D01*
X38856269Y-131724086D01*
X39058854Y-132214380D01*
X39433647Y-132589827D01*
X39923587Y-132793268D01*
X40454086Y-132793731D01*
X40944380Y-132591146D01*
X41316174Y-132220000D01*
X46684464Y-132220000D01*
X47053647Y-132589827D01*
X47543587Y-132793268D01*
X48074086Y-132793731D01*
X48564380Y-132591146D01*
X48939827Y-132216353D01*
X48999896Y-132071691D01*
X49058854Y-132214380D01*
X49433647Y-132589827D01*
X49923587Y-132793268D01*
X50454086Y-132793731D01*
X50944380Y-132591146D01*
X51319827Y-132216353D01*
X51523268Y-131726413D01*
X51523270Y-131724086D01*
X56476269Y-131724086D01*
X56678854Y-132214380D01*
X57053647Y-132589827D01*
X57543587Y-132793268D01*
X58074086Y-132793731D01*
X58564380Y-132591146D01*
X58939827Y-132216353D01*
X59143268Y-131726413D01*
X59143731Y-131195914D01*
X58941146Y-130705620D01*
X58566353Y-130330173D01*
X58076413Y-130126732D01*
X57545914Y-130126269D01*
X57055620Y-130328854D01*
X56680173Y-130703647D01*
X56476732Y-131193587D01*
X56476269Y-131724086D01*
X51523270Y-131724086D01*
X51523731Y-131195914D01*
X51321146Y-130705620D01*
X50946353Y-130330173D01*
X50456413Y-130126732D01*
X49925914Y-130126269D01*
X49435620Y-130328854D01*
X49060173Y-130703647D01*
X49000104Y-130848309D01*
X48941146Y-130705620D01*
X48566353Y-130330173D01*
X48076413Y-130126732D01*
X47545914Y-130126269D01*
X47055620Y-130328854D01*
X46683826Y-130700000D01*
X41315536Y-130700000D01*
X40946353Y-130330173D01*
X40456413Y-130126732D01*
X39925914Y-130126269D01*
X39435620Y-130328854D01*
X39060173Y-130703647D01*
X38856732Y-131193587D01*
X38856269Y-131724086D01*
X37710000Y-131724086D01*
X37710000Y-128080000D01*
X79316655Y-128080000D01*
X79430729Y-128653489D01*
X79755585Y-129139670D01*
X80070366Y-129350000D01*
X79755585Y-129560330D01*
X79430729Y-130046511D01*
X79316655Y-130620000D01*
X79430729Y-131193489D01*
X79755585Y-131679670D01*
X80070366Y-131890000D01*
X79755585Y-132100330D01*
X79430729Y-132586511D01*
X79316655Y-133160000D01*
X79430729Y-133733489D01*
X79755585Y-134219670D01*
X80241766Y-134544526D01*
X80815255Y-134658600D01*
X81184745Y-134658600D01*
X81758234Y-134544526D01*
X82244415Y-134219670D01*
X82569271Y-133733489D01*
X82683345Y-133160000D01*
X82569271Y-132586511D01*
X82390838Y-132319467D01*
X85405138Y-132319467D01*
X85547183Y-132663243D01*
X85809973Y-132926492D01*
X86153501Y-133069138D01*
X86525467Y-133069462D01*
X86869243Y-132927417D01*
X87132492Y-132664627D01*
X87275138Y-132321099D01*
X87275462Y-131949133D01*
X87133417Y-131605357D01*
X86870627Y-131342108D01*
X86527099Y-131199462D01*
X86155133Y-131199138D01*
X85811357Y-131341183D01*
X85548108Y-131603973D01*
X85405462Y-131947501D01*
X85405138Y-132319467D01*
X82390838Y-132319467D01*
X82244415Y-132100330D01*
X81929634Y-131890000D01*
X82244415Y-131679670D01*
X82569271Y-131193489D01*
X82683345Y-130620000D01*
X82569271Y-130046511D01*
X82244415Y-129560330D01*
X81929634Y-129350000D01*
X82244415Y-129139670D01*
X82569271Y-128653489D01*
X82683345Y-128080000D01*
X82569271Y-127506511D01*
X82244415Y-127020330D01*
X81934931Y-126813539D01*
X82350732Y-126442036D01*
X82604709Y-125914791D01*
X82607358Y-125899026D01*
X82486217Y-125667000D01*
X81127000Y-125667000D01*
X81127000Y-125687000D01*
X80873000Y-125687000D01*
X80873000Y-125667000D01*
X79513783Y-125667000D01*
X79392642Y-125899026D01*
X79395291Y-125914791D01*
X79649268Y-126442036D01*
X80065069Y-126813539D01*
X79755585Y-127020330D01*
X79430729Y-127506511D01*
X79316655Y-128080000D01*
X37710000Y-128080000D01*
X37710000Y-123185167D01*
X51564838Y-123185167D01*
X51706883Y-123528943D01*
X51969673Y-123792192D01*
X52313201Y-123934838D01*
X52685167Y-123935162D01*
X53028943Y-123793117D01*
X53292192Y-123530327D01*
X53393749Y-123285750D01*
X79349000Y-123285750D01*
X79349000Y-123989910D01*
X79445673Y-124223299D01*
X79624302Y-124401927D01*
X79821861Y-124483759D01*
X79649268Y-124637964D01*
X79395291Y-125165209D01*
X79392642Y-125180974D01*
X79513783Y-125413000D01*
X80873000Y-125413000D01*
X80873000Y-123127000D01*
X81127000Y-123127000D01*
X81127000Y-125413000D01*
X82486217Y-125413000D01*
X82607358Y-125180974D01*
X82604709Y-125165209D01*
X82350732Y-124637964D01*
X82178139Y-124483759D01*
X82375698Y-124401927D01*
X82554327Y-124223299D01*
X82651000Y-123989910D01*
X82651000Y-123285750D01*
X82492250Y-123127000D01*
X81127000Y-123127000D01*
X80873000Y-123127000D01*
X79507750Y-123127000D01*
X79349000Y-123285750D01*
X53393749Y-123285750D01*
X53434838Y-123186799D01*
X53435162Y-122814833D01*
X53293117Y-122471057D01*
X53030327Y-122207808D01*
X52686799Y-122065162D01*
X52314833Y-122064838D01*
X51971057Y-122206883D01*
X51707808Y-122469673D01*
X51565162Y-122813201D01*
X51564838Y-123185167D01*
X37710000Y-123185167D01*
X37710000Y-122030767D01*
X41714838Y-122030767D01*
X41856883Y-122374543D01*
X42119673Y-122637792D01*
X42463201Y-122780438D01*
X42835167Y-122780762D01*
X43178943Y-122638717D01*
X43442192Y-122375927D01*
X43521402Y-122185167D01*
X45464838Y-122185167D01*
X45606883Y-122528943D01*
X45869673Y-122792192D01*
X46213201Y-122934838D01*
X46585167Y-122935162D01*
X46928943Y-122793117D01*
X47192192Y-122530327D01*
X47334838Y-122186799D01*
X47334991Y-122010090D01*
X79349000Y-122010090D01*
X79349000Y-122714250D01*
X79507750Y-122873000D01*
X80873000Y-122873000D01*
X80873000Y-121660150D01*
X81127000Y-121660150D01*
X81127000Y-122873000D01*
X82492250Y-122873000D01*
X82651000Y-122714250D01*
X82651000Y-122010090D01*
X82554327Y-121776701D01*
X82375698Y-121598073D01*
X82142309Y-121501400D01*
X81285750Y-121501400D01*
X81127000Y-121660150D01*
X80873000Y-121660150D01*
X80714250Y-121501400D01*
X79857691Y-121501400D01*
X79624302Y-121598073D01*
X79445673Y-121776701D01*
X79349000Y-122010090D01*
X47334991Y-122010090D01*
X47335162Y-121814833D01*
X47193117Y-121471057D01*
X46930327Y-121207808D01*
X46586799Y-121065162D01*
X46214833Y-121064838D01*
X45871057Y-121206883D01*
X45607808Y-121469673D01*
X45465162Y-121813201D01*
X45464838Y-122185167D01*
X43521402Y-122185167D01*
X43584838Y-122032399D01*
X43585162Y-121660433D01*
X43443117Y-121316657D01*
X43180327Y-121053408D01*
X42836799Y-120910762D01*
X42464833Y-120910438D01*
X42121057Y-121052483D01*
X41857808Y-121315273D01*
X41715162Y-121658801D01*
X41714838Y-122030767D01*
X37710000Y-122030767D01*
X37710000Y-115610867D01*
X40024638Y-115610867D01*
X40166683Y-115954643D01*
X40429473Y-116217892D01*
X40773001Y-116360538D01*
X41144967Y-116360862D01*
X41488743Y-116218817D01*
X41751992Y-115956027D01*
X41894638Y-115612499D01*
X41894962Y-115240533D01*
X41752917Y-114896757D01*
X41490127Y-114633508D01*
X41146599Y-114490862D01*
X40774633Y-114490538D01*
X40430857Y-114632583D01*
X40167608Y-114895373D01*
X40024962Y-115238901D01*
X40024638Y-115610867D01*
X37710000Y-115610867D01*
X37710000Y-111210067D01*
X40033738Y-111210067D01*
X40175783Y-111553843D01*
X40438573Y-111817092D01*
X40782101Y-111959738D01*
X41154067Y-111960062D01*
X41497843Y-111818017D01*
X41761092Y-111555227D01*
X41890505Y-111243567D01*
X92675438Y-111243567D01*
X92817483Y-111587343D01*
X93080273Y-111850592D01*
X93423801Y-111993238D01*
X93795767Y-111993562D01*
X94139543Y-111851517D01*
X94402792Y-111588727D01*
X94545438Y-111245199D01*
X94545762Y-110873233D01*
X94403717Y-110529457D01*
X94140927Y-110266208D01*
X93797399Y-110123562D01*
X93425433Y-110123238D01*
X93081657Y-110265283D01*
X92818408Y-110528073D01*
X92675762Y-110871601D01*
X92675438Y-111243567D01*
X41890505Y-111243567D01*
X41903738Y-111211699D01*
X41904062Y-110839733D01*
X41762017Y-110495957D01*
X41499227Y-110232708D01*
X41155699Y-110090062D01*
X40783733Y-110089738D01*
X40439957Y-110231783D01*
X40176708Y-110494573D01*
X40034062Y-110838101D01*
X40033738Y-111210067D01*
X37710000Y-111210067D01*
X37710000Y-110085167D01*
X99714838Y-110085167D01*
X99856883Y-110428943D01*
X100119673Y-110692192D01*
X100463201Y-110834838D01*
X100835167Y-110835162D01*
X101178943Y-110693117D01*
X101442192Y-110430327D01*
X101584838Y-110086799D01*
X101585162Y-109714833D01*
X101443117Y-109371057D01*
X101180327Y-109107808D01*
X100836799Y-108965162D01*
X100464833Y-108964838D01*
X100121057Y-109106883D01*
X99857808Y-109369673D01*
X99715162Y-109713201D01*
X99714838Y-110085167D01*
X37710000Y-110085167D01*
X37710000Y-108772567D01*
X103264838Y-108772567D01*
X103406883Y-109116343D01*
X103669673Y-109379592D01*
X104013201Y-109522238D01*
X104385167Y-109522562D01*
X104728943Y-109380517D01*
X104992192Y-109117727D01*
X105134838Y-108774199D01*
X105135162Y-108402233D01*
X104993117Y-108058457D01*
X104730327Y-107795208D01*
X104386799Y-107652562D01*
X104014833Y-107652238D01*
X103671057Y-107794283D01*
X103407808Y-108057073D01*
X103265162Y-108400601D01*
X103264838Y-108772567D01*
X37710000Y-108772567D01*
X37710000Y-105289767D01*
X54690038Y-105289767D01*
X54832083Y-105633543D01*
X55094873Y-105896792D01*
X55438401Y-106039438D01*
X55810367Y-106039762D01*
X56154143Y-105897717D01*
X56417392Y-105634927D01*
X56560038Y-105291399D01*
X56560362Y-104919433D01*
X56418317Y-104575657D01*
X56155527Y-104312408D01*
X55811999Y-104169762D01*
X55440033Y-104169438D01*
X55096257Y-104311483D01*
X54833008Y-104574273D01*
X54690362Y-104917801D01*
X54690038Y-105289767D01*
X37710000Y-105289767D01*
X37710000Y-103653367D01*
X42774238Y-103653367D01*
X42916283Y-103997143D01*
X43179073Y-104260392D01*
X43522601Y-104403038D01*
X43894567Y-104403362D01*
X44238343Y-104261317D01*
X44501592Y-103998527D01*
X44527901Y-103935167D01*
X45814838Y-103935167D01*
X45956883Y-104278943D01*
X46219673Y-104542192D01*
X46563201Y-104684838D01*
X46935167Y-104685162D01*
X47278943Y-104543117D01*
X47542192Y-104280327D01*
X47684838Y-103936799D01*
X47685162Y-103564833D01*
X47594027Y-103344267D01*
X53598638Y-103344267D01*
X53740683Y-103688043D01*
X54003473Y-103951292D01*
X54347001Y-104093938D01*
X54718967Y-104094262D01*
X55062743Y-103952217D01*
X55325992Y-103689427D01*
X55468638Y-103345899D01*
X55468962Y-102973933D01*
X55326917Y-102630157D01*
X55064127Y-102366908D01*
X54720599Y-102224262D01*
X54348633Y-102223938D01*
X54004857Y-102365983D01*
X53741608Y-102628773D01*
X53598962Y-102972301D01*
X53598638Y-103344267D01*
X47594027Y-103344267D01*
X47543117Y-103221057D01*
X47280327Y-102957808D01*
X46936799Y-102815162D01*
X46564833Y-102814838D01*
X46221057Y-102956883D01*
X45957808Y-103219673D01*
X45815162Y-103563201D01*
X45814838Y-103935167D01*
X44527901Y-103935167D01*
X44644238Y-103654999D01*
X44644562Y-103283033D01*
X44502517Y-102939257D01*
X44239727Y-102676008D01*
X43896199Y-102533362D01*
X43524233Y-102533038D01*
X43180457Y-102675083D01*
X42917208Y-102937873D01*
X42774562Y-103281401D01*
X42774238Y-103653367D01*
X37710000Y-103653367D01*
X37710000Y-101754481D01*
X43714777Y-101754481D01*
X43909995Y-102226943D01*
X44271155Y-102588735D01*
X44743276Y-102784777D01*
X45254481Y-102785223D01*
X45726943Y-102590005D01*
X46088735Y-102228845D01*
X46148977Y-102083765D01*
X58640000Y-102083765D01*
X58640000Y-102176235D01*
X58819644Y-103079368D01*
X59331228Y-103845007D01*
X60096867Y-104356591D01*
X61000000Y-104536235D01*
X61903133Y-104356591D01*
X62668772Y-103845007D01*
X62976027Y-103385167D01*
X74514138Y-103385167D01*
X74656183Y-103728943D01*
X74918973Y-103992192D01*
X75262501Y-104134838D01*
X75634467Y-104135162D01*
X75978243Y-103993117D01*
X76241492Y-103730327D01*
X76338475Y-103496767D01*
X86757938Y-103496767D01*
X86899983Y-103840543D01*
X87162773Y-104103792D01*
X87506301Y-104246438D01*
X87878267Y-104246762D01*
X88222043Y-104104717D01*
X88485292Y-103841927D01*
X88627938Y-103498399D01*
X88628262Y-103126433D01*
X88486217Y-102782657D01*
X88223427Y-102519408D01*
X87879899Y-102376762D01*
X87507933Y-102376438D01*
X87164157Y-102518483D01*
X86900908Y-102781273D01*
X86758262Y-103124801D01*
X86757938Y-103496767D01*
X76338475Y-103496767D01*
X76384138Y-103386799D01*
X76384462Y-103014833D01*
X76242417Y-102671057D01*
X75979627Y-102407808D01*
X75636099Y-102265162D01*
X75264133Y-102264838D01*
X74920357Y-102406883D01*
X74657108Y-102669673D01*
X74514462Y-103013201D01*
X74514138Y-103385167D01*
X62976027Y-103385167D01*
X63180356Y-103079368D01*
X63360000Y-102176235D01*
X63360000Y-102083765D01*
X63180356Y-101180632D01*
X62668772Y-100414993D01*
X61903133Y-99903409D01*
X61000000Y-99723765D01*
X60096867Y-99903409D01*
X59331228Y-100414993D01*
X58819644Y-101180632D01*
X58640000Y-102083765D01*
X46148977Y-102083765D01*
X46269884Y-101792590D01*
X46334273Y-101857092D01*
X46677801Y-101999738D01*
X47049767Y-102000062D01*
X47393543Y-101858017D01*
X47656792Y-101595227D01*
X47799438Y-101251699D01*
X47799706Y-100943567D01*
X48701838Y-100943567D01*
X48843883Y-101287343D01*
X49106673Y-101550592D01*
X49450201Y-101693238D01*
X49822167Y-101693562D01*
X50165943Y-101551517D01*
X50429192Y-101288727D01*
X50571838Y-100945199D01*
X50572162Y-100573233D01*
X50430117Y-100229457D01*
X50167327Y-99966208D01*
X49823799Y-99823562D01*
X49451833Y-99823238D01*
X49108057Y-99965283D01*
X48844808Y-100228073D01*
X48702162Y-100571601D01*
X48701838Y-100943567D01*
X47799706Y-100943567D01*
X47799762Y-100879733D01*
X47657717Y-100535957D01*
X47394927Y-100272708D01*
X47051399Y-100130062D01*
X46679433Y-100129738D01*
X46335657Y-100271783D01*
X46072408Y-100534573D01*
X46007641Y-100690549D01*
X45728845Y-100411265D01*
X45424765Y-100285000D01*
X45776310Y-100285000D01*
X46009699Y-100188327D01*
X46188327Y-100009698D01*
X46285000Y-99776309D01*
X46285000Y-99285750D01*
X46126250Y-99127000D01*
X45127000Y-99127000D01*
X45127000Y-99147000D01*
X44873000Y-99147000D01*
X44873000Y-99127000D01*
X43873750Y-99127000D01*
X43715000Y-99285750D01*
X43715000Y-99776309D01*
X43811673Y-100009698D01*
X43990301Y-100188327D01*
X44223690Y-100285000D01*
X44575567Y-100285000D01*
X44273057Y-100409995D01*
X43911265Y-100771155D01*
X43715223Y-101243276D01*
X43714777Y-101754481D01*
X37710000Y-101754481D01*
X37710000Y-98223691D01*
X43715000Y-98223691D01*
X43715000Y-98714250D01*
X43873750Y-98873000D01*
X44873000Y-98873000D01*
X44873000Y-97873750D01*
X45127000Y-97873750D01*
X45127000Y-98873000D01*
X46126250Y-98873000D01*
X46285000Y-98714250D01*
X46285000Y-98223691D01*
X46234788Y-98102467D01*
X83418438Y-98102467D01*
X83560483Y-98446243D01*
X83823273Y-98709492D01*
X84166801Y-98852138D01*
X84538767Y-98852462D01*
X84882543Y-98710417D01*
X85145792Y-98447627D01*
X85288438Y-98104099D01*
X85288762Y-97732133D01*
X85146717Y-97388357D01*
X84883927Y-97125108D01*
X84540399Y-96982462D01*
X84168433Y-96982138D01*
X83824657Y-97124183D01*
X83561408Y-97386973D01*
X83418762Y-97730501D01*
X83418438Y-98102467D01*
X46234788Y-98102467D01*
X46188327Y-97990302D01*
X46009699Y-97811673D01*
X45776310Y-97715000D01*
X45285750Y-97715000D01*
X45127000Y-97873750D01*
X44873000Y-97873750D01*
X44714250Y-97715000D01*
X44223690Y-97715000D01*
X43990301Y-97811673D01*
X43811673Y-97990302D01*
X43715000Y-98223691D01*
X37710000Y-98223691D01*
X37710000Y-93185167D01*
X87164838Y-93185167D01*
X87306883Y-93528943D01*
X87569673Y-93792192D01*
X87913201Y-93934838D01*
X88285167Y-93935162D01*
X88628943Y-93793117D01*
X88892192Y-93530327D01*
X89029644Y-93199308D01*
X89293901Y-93309038D01*
X89665867Y-93309362D01*
X90009643Y-93167317D01*
X90272892Y-92904527D01*
X90415538Y-92560999D01*
X90415659Y-92422247D01*
X90777767Y-92422562D01*
X91121543Y-92280517D01*
X91177975Y-92224183D01*
X91241273Y-92287592D01*
X91584801Y-92430238D01*
X91956767Y-92430562D01*
X92300543Y-92288517D01*
X92322301Y-92266797D01*
X92335173Y-92279692D01*
X92678701Y-92422338D01*
X93050667Y-92422662D01*
X93394443Y-92280617D01*
X93657692Y-92017827D01*
X93800338Y-91674299D01*
X93800662Y-91302333D01*
X93658617Y-90958557D01*
X93395827Y-90695308D01*
X93052299Y-90552662D01*
X92680333Y-90552338D01*
X92336557Y-90694383D01*
X92314799Y-90716103D01*
X92301927Y-90703208D01*
X91958399Y-90560562D01*
X91586433Y-90560238D01*
X91242657Y-90702283D01*
X91186225Y-90758617D01*
X91122927Y-90695208D01*
X90779399Y-90552562D01*
X90407433Y-90552238D01*
X90063657Y-90694283D01*
X89800408Y-90957073D01*
X89657762Y-91300601D01*
X89657641Y-91439353D01*
X89295533Y-91439038D01*
X88951757Y-91581083D01*
X88688508Y-91843873D01*
X88551056Y-92174892D01*
X88286799Y-92065162D01*
X87914833Y-92064838D01*
X87571057Y-92206883D01*
X87307808Y-92469673D01*
X87165162Y-92813201D01*
X87164838Y-93185167D01*
X37710000Y-93185167D01*
X37710000Y-89000000D01*
X52873000Y-89000000D01*
X52873000Y-93000000D01*
X52881685Y-93046159D01*
X52908965Y-93088553D01*
X52950590Y-93116994D01*
X53000000Y-93127000D01*
X57000000Y-93127000D01*
X57046159Y-93118315D01*
X57088553Y-93091035D01*
X57116994Y-93049410D01*
X57127000Y-93000000D01*
X57127000Y-89686267D01*
X76566038Y-89686267D01*
X76708083Y-90030043D01*
X76970873Y-90293292D01*
X77314401Y-90435938D01*
X77686367Y-90436262D01*
X78030143Y-90294217D01*
X78293392Y-90031427D01*
X78358726Y-89874086D01*
X98126269Y-89874086D01*
X98328854Y-90364380D01*
X98703647Y-90739827D01*
X99193587Y-90943268D01*
X99724086Y-90943731D01*
X100214380Y-90741146D01*
X100411681Y-90544188D01*
X103785417Y-90544188D01*
X103847071Y-90779800D01*
X104347480Y-90955927D01*
X104877199Y-90927148D01*
X105232929Y-90779800D01*
X105294583Y-90544188D01*
X104540000Y-89789605D01*
X103785417Y-90544188D01*
X100411681Y-90544188D01*
X100589827Y-90366353D01*
X100793268Y-89876413D01*
X100793668Y-89417480D01*
X103194073Y-89417480D01*
X103222852Y-89947199D01*
X103370200Y-90302929D01*
X103605812Y-90364583D01*
X104360395Y-89610000D01*
X104719605Y-89610000D01*
X105474188Y-90364583D01*
X105709800Y-90302929D01*
X105885927Y-89802520D01*
X105857148Y-89272801D01*
X105709800Y-88917071D01*
X105474188Y-88855417D01*
X104719605Y-89610000D01*
X104360395Y-89610000D01*
X103605812Y-88855417D01*
X103370200Y-88917071D01*
X103194073Y-89417480D01*
X100793668Y-89417480D01*
X100793731Y-89345914D01*
X100591146Y-88855620D01*
X100216353Y-88480173D01*
X99726413Y-88276732D01*
X99195914Y-88276269D01*
X98705620Y-88478854D01*
X98330173Y-88853647D01*
X98126732Y-89343587D01*
X98126269Y-89874086D01*
X78358726Y-89874086D01*
X78436038Y-89687899D01*
X78436362Y-89315933D01*
X78342642Y-89089112D01*
X78494592Y-88937427D01*
X78637238Y-88593899D01*
X78637330Y-88487467D01*
X91903038Y-88487467D01*
X92045083Y-88831243D01*
X92307873Y-89094492D01*
X92651401Y-89237138D01*
X93023367Y-89237462D01*
X93367143Y-89095417D01*
X93630392Y-88832627D01*
X93773038Y-88489099D01*
X93773362Y-88117133D01*
X93760154Y-88085167D01*
X101264838Y-88085167D01*
X101406883Y-88428943D01*
X101669673Y-88692192D01*
X102013201Y-88834838D01*
X102385167Y-88835162D01*
X102728943Y-88693117D01*
X102746278Y-88675812D01*
X103785417Y-88675812D01*
X104540000Y-89430395D01*
X105294583Y-88675812D01*
X105232929Y-88440200D01*
X104732520Y-88264073D01*
X104202801Y-88292852D01*
X103847071Y-88440200D01*
X103785417Y-88675812D01*
X102746278Y-88675812D01*
X102992192Y-88430327D01*
X103134838Y-88086799D01*
X103135162Y-87714833D01*
X102993117Y-87371057D01*
X102730327Y-87107808D01*
X102386799Y-86965162D01*
X102014833Y-86964838D01*
X101671057Y-87106883D01*
X101407808Y-87369673D01*
X101265162Y-87713201D01*
X101264838Y-88085167D01*
X93760154Y-88085167D01*
X93631317Y-87773357D01*
X93368527Y-87510108D01*
X93024999Y-87367462D01*
X92653033Y-87367138D01*
X92309257Y-87509183D01*
X92046008Y-87771973D01*
X91903362Y-88115501D01*
X91903038Y-88487467D01*
X78637330Y-88487467D01*
X78637562Y-88221933D01*
X78495517Y-87878157D01*
X78232727Y-87614908D01*
X77889199Y-87472262D01*
X77517233Y-87471938D01*
X77173457Y-87613983D01*
X76910208Y-87876773D01*
X76767562Y-88220301D01*
X76767238Y-88592267D01*
X76860958Y-88819088D01*
X76709008Y-88970773D01*
X76566362Y-89314301D01*
X76566038Y-89686267D01*
X57127000Y-89686267D01*
X57127000Y-89000000D01*
X57118315Y-88953841D01*
X57091035Y-88911447D01*
X57049410Y-88883006D01*
X57000000Y-88873000D01*
X53000000Y-88873000D01*
X52953841Y-88881685D01*
X52911447Y-88908965D01*
X52883006Y-88950590D01*
X52873000Y-89000000D01*
X37710000Y-89000000D01*
X37710000Y-85786167D01*
X43049238Y-85786167D01*
X43191283Y-86129943D01*
X43454073Y-86393192D01*
X43797601Y-86535838D01*
X44169567Y-86536162D01*
X44513343Y-86394117D01*
X44776592Y-86131327D01*
X44843179Y-85970967D01*
X46926238Y-85970967D01*
X47068283Y-86314743D01*
X47331073Y-86577992D01*
X47674601Y-86720638D01*
X48046567Y-86720962D01*
X48390343Y-86578917D01*
X48653592Y-86316127D01*
X48657935Y-86305667D01*
X74427338Y-86305667D01*
X74569383Y-86649443D01*
X74832173Y-86912692D01*
X75175701Y-87055338D01*
X75414627Y-87055546D01*
X75414554Y-87138669D01*
X75264133Y-87138538D01*
X74920357Y-87280583D01*
X74657108Y-87543373D01*
X74514462Y-87886901D01*
X74514138Y-88258867D01*
X74656183Y-88602643D01*
X74918973Y-88865892D01*
X75262501Y-89008538D01*
X75634467Y-89008862D01*
X75978243Y-88866817D01*
X76241492Y-88604027D01*
X76384138Y-88260499D01*
X76384346Y-88022131D01*
X76534767Y-88022262D01*
X76878543Y-87880217D01*
X77141792Y-87617427D01*
X77284438Y-87273899D01*
X77284762Y-86901933D01*
X77142717Y-86558157D01*
X76879927Y-86294908D01*
X76536399Y-86152262D01*
X76297473Y-86152054D01*
X76297662Y-85935333D01*
X76155617Y-85591557D01*
X75892827Y-85328308D01*
X75549299Y-85185662D01*
X75177333Y-85185338D01*
X74833557Y-85327383D01*
X74570308Y-85590173D01*
X74427662Y-85933701D01*
X74427338Y-86305667D01*
X48657935Y-86305667D01*
X48796238Y-85972599D01*
X48796562Y-85600633D01*
X48654517Y-85256857D01*
X48391727Y-84993608D01*
X48048199Y-84850962D01*
X47676233Y-84850638D01*
X47332457Y-84992683D01*
X47069208Y-85255473D01*
X46926562Y-85599001D01*
X46926238Y-85970967D01*
X44843179Y-85970967D01*
X44919238Y-85787799D01*
X44919562Y-85415833D01*
X44777517Y-85072057D01*
X44514727Y-84808808D01*
X44171199Y-84666162D01*
X43799233Y-84665838D01*
X43455457Y-84807883D01*
X43192208Y-85070673D01*
X43049562Y-85414201D01*
X43049238Y-85786167D01*
X37710000Y-85786167D01*
X37710000Y-81534000D01*
X44056560Y-81534000D01*
X44056560Y-83566000D01*
X44100838Y-83801317D01*
X44239910Y-84017441D01*
X44452110Y-84162431D01*
X44704000Y-84213440D01*
X46736000Y-84213440D01*
X46809728Y-84199567D01*
X53314838Y-84199567D01*
X53456883Y-84543343D01*
X53719673Y-84806592D01*
X54063201Y-84949238D01*
X54435167Y-84949562D01*
X54778943Y-84807517D01*
X55042192Y-84544727D01*
X55184838Y-84201199D01*
X55185162Y-83829233D01*
X55164930Y-83780267D01*
X66022538Y-83780267D01*
X66164583Y-84124043D01*
X66427373Y-84387292D01*
X66770901Y-84529938D01*
X67142867Y-84530262D01*
X67486643Y-84388217D01*
X67749892Y-84125427D01*
X67892538Y-83781899D01*
X67892862Y-83409933D01*
X67750817Y-83066157D01*
X67488027Y-82802908D01*
X67347527Y-82744567D01*
X71178838Y-82744567D01*
X71320883Y-83088343D01*
X71583673Y-83351592D01*
X71927201Y-83494238D01*
X72299167Y-83494562D01*
X72642943Y-83352517D01*
X72906192Y-83089727D01*
X73048838Y-82746199D01*
X73049162Y-82374233D01*
X72907117Y-82030457D01*
X72644327Y-81767208D01*
X72300799Y-81624562D01*
X71928833Y-81624238D01*
X71585057Y-81766283D01*
X71321808Y-82029073D01*
X71179162Y-82372601D01*
X71178838Y-82744567D01*
X67347527Y-82744567D01*
X67144499Y-82660262D01*
X66772533Y-82659938D01*
X66428757Y-82801983D01*
X66165508Y-83064773D01*
X66022862Y-83408301D01*
X66022538Y-83780267D01*
X55164930Y-83780267D01*
X55043117Y-83485457D01*
X54780327Y-83222208D01*
X54436799Y-83079562D01*
X54064833Y-83079238D01*
X53721057Y-83221283D01*
X53457808Y-83484073D01*
X53315162Y-83827601D01*
X53314838Y-84199567D01*
X46809728Y-84199567D01*
X46971317Y-84169162D01*
X47187441Y-84030090D01*
X47332431Y-83817890D01*
X47383440Y-83566000D01*
X47383440Y-82700367D01*
X56092838Y-82700367D01*
X56234883Y-83044143D01*
X56497673Y-83307392D01*
X56841201Y-83450038D01*
X57213167Y-83450362D01*
X57556943Y-83308317D01*
X57820192Y-83045527D01*
X57962838Y-82701999D01*
X57963162Y-82330033D01*
X57821117Y-81986257D01*
X57558327Y-81723008D01*
X57214799Y-81580362D01*
X56842833Y-81580038D01*
X56499057Y-81722083D01*
X56235808Y-81984873D01*
X56093162Y-82328401D01*
X56092838Y-82700367D01*
X47383440Y-82700367D01*
X47383440Y-81534000D01*
X47339162Y-81298683D01*
X47200090Y-81082559D01*
X47043794Y-80975767D01*
X47245325Y-80674155D01*
X47371000Y-80042345D01*
X47371000Y-79977655D01*
X47245325Y-79345845D01*
X46887433Y-78810222D01*
X46351810Y-78452330D01*
X45720000Y-78326655D01*
X45088190Y-78452330D01*
X44552567Y-78810222D01*
X44194675Y-79345845D01*
X44069000Y-79977655D01*
X44069000Y-80042345D01*
X44194675Y-80674155D01*
X44397004Y-80976962D01*
X44252559Y-81069910D01*
X44107569Y-81282110D01*
X44056560Y-81534000D01*
X37710000Y-81534000D01*
X37710000Y-78160367D01*
X53314838Y-78160367D01*
X53456883Y-78504143D01*
X53719673Y-78767392D01*
X54063201Y-78910038D01*
X54435167Y-78910362D01*
X54778943Y-78768317D01*
X55042192Y-78505527D01*
X55150609Y-78244430D01*
X55278036Y-78191779D01*
X55408383Y-78507243D01*
X55671173Y-78770492D01*
X56014701Y-78913138D01*
X56386667Y-78913462D01*
X56687610Y-78789115D01*
X56799183Y-79059143D01*
X57061973Y-79322392D01*
X57405501Y-79465038D01*
X57777467Y-79465362D01*
X58121243Y-79323317D01*
X58339072Y-79105867D01*
X66814838Y-79105867D01*
X66956883Y-79449643D01*
X67219673Y-79712892D01*
X67563201Y-79855538D01*
X67935167Y-79855862D01*
X68278943Y-79713817D01*
X68542192Y-79451027D01*
X68684838Y-79107499D01*
X68685162Y-78735533D01*
X68674682Y-78710167D01*
X69339838Y-78710167D01*
X69481883Y-79053943D01*
X69744673Y-79317192D01*
X70088201Y-79459838D01*
X70460167Y-79460162D01*
X70803943Y-79318117D01*
X71067192Y-79055327D01*
X71209838Y-78711799D01*
X71210162Y-78339833D01*
X71187506Y-78285000D01*
X71214250Y-78285000D01*
X71373000Y-78126250D01*
X71373000Y-77127000D01*
X70373750Y-77127000D01*
X70215000Y-77285750D01*
X70215000Y-77589947D01*
X70089833Y-77589838D01*
X69746057Y-77731883D01*
X69482808Y-77994673D01*
X69340162Y-78338201D01*
X69339838Y-78710167D01*
X68674682Y-78710167D01*
X68653074Y-78657873D01*
X68928143Y-78544217D01*
X69191392Y-78281427D01*
X69334038Y-77937899D01*
X69334362Y-77565933D01*
X69192317Y-77222157D01*
X68929527Y-76958908D01*
X68585999Y-76816262D01*
X68214033Y-76815938D01*
X67870257Y-76957983D01*
X67607008Y-77220773D01*
X67464362Y-77564301D01*
X67464038Y-77936267D01*
X67496126Y-78013927D01*
X67221057Y-78127583D01*
X66957808Y-78390373D01*
X66815162Y-78733901D01*
X66814838Y-79105867D01*
X58339072Y-79105867D01*
X58384492Y-79060527D01*
X58527138Y-78716999D01*
X58527462Y-78345033D01*
X58385417Y-78001257D01*
X58122627Y-77738008D01*
X57779099Y-77595362D01*
X57407133Y-77595038D01*
X57106190Y-77719385D01*
X56994617Y-77449357D01*
X56731827Y-77186108D01*
X56388299Y-77043462D01*
X56037584Y-77043157D01*
X56184343Y-76982517D01*
X56447592Y-76719727D01*
X56590238Y-76376199D01*
X56590533Y-76036467D01*
X59009938Y-76036467D01*
X59151983Y-76380243D01*
X59414773Y-76643492D01*
X59758301Y-76786138D01*
X60130267Y-76786462D01*
X60131990Y-76785750D01*
X61215000Y-76785750D01*
X61215000Y-77276310D01*
X61311673Y-77509699D01*
X61490302Y-77688327D01*
X61723691Y-77785000D01*
X62214250Y-77785000D01*
X62373000Y-77626250D01*
X62373000Y-76627000D01*
X61373750Y-76627000D01*
X61215000Y-76785750D01*
X60131990Y-76785750D01*
X60474043Y-76644417D01*
X60737292Y-76381627D01*
X60879938Y-76038099D01*
X60880211Y-75723690D01*
X61215000Y-75723690D01*
X61215000Y-76214250D01*
X61373750Y-76373000D01*
X62373000Y-76373000D01*
X62373000Y-75373750D01*
X62627000Y-75373750D01*
X62627000Y-76373000D01*
X62647000Y-76373000D01*
X62647000Y-76627000D01*
X62627000Y-76627000D01*
X62627000Y-77626250D01*
X62785750Y-77785000D01*
X63276309Y-77785000D01*
X63509698Y-77688327D01*
X63688327Y-77509699D01*
X63785000Y-77276310D01*
X63785000Y-76924433D01*
X63909995Y-77226943D01*
X64271155Y-77588735D01*
X64743276Y-77784777D01*
X65254481Y-77785223D01*
X65726943Y-77590005D01*
X65866704Y-77450488D01*
X66000773Y-77584792D01*
X66344301Y-77727438D01*
X66716267Y-77727762D01*
X67060043Y-77585717D01*
X67323292Y-77322927D01*
X67465938Y-76979399D01*
X67466262Y-76607433D01*
X67324217Y-76263657D01*
X67284320Y-76223690D01*
X70215000Y-76223690D01*
X70215000Y-76714250D01*
X70373750Y-76873000D01*
X71373000Y-76873000D01*
X71373000Y-75873750D01*
X71627000Y-75873750D01*
X71627000Y-76873000D01*
X71647000Y-76873000D01*
X71647000Y-77127000D01*
X71627000Y-77127000D01*
X71627000Y-78126250D01*
X71785750Y-78285000D01*
X72092716Y-78285000D01*
X71957808Y-78419673D01*
X71815162Y-78763201D01*
X71814838Y-79135167D01*
X71956883Y-79478943D01*
X72219673Y-79742192D01*
X72563201Y-79884838D01*
X72935167Y-79885162D01*
X73278943Y-79743117D01*
X73542192Y-79480327D01*
X73684838Y-79136799D01*
X73685162Y-78764833D01*
X73543117Y-78421057D01*
X73280327Y-78157808D01*
X72936799Y-78015162D01*
X72683085Y-78014941D01*
X72688327Y-78009699D01*
X72785000Y-77776310D01*
X72785000Y-77424433D01*
X72909995Y-77726943D01*
X73271155Y-78088735D01*
X73743276Y-78284777D01*
X74180559Y-78285159D01*
X74044908Y-78420573D01*
X73902262Y-78764101D01*
X73901938Y-79136067D01*
X74043983Y-79479843D01*
X74306773Y-79743092D01*
X74650301Y-79885738D01*
X75022267Y-79886062D01*
X75366043Y-79744017D01*
X75629292Y-79481227D01*
X75771938Y-79137699D01*
X75772262Y-78765733D01*
X75630217Y-78421957D01*
X75367427Y-78158708D01*
X75023899Y-78016062D01*
X74801210Y-78015868D01*
X75088735Y-77728845D01*
X75284777Y-77256724D01*
X75284826Y-77200000D01*
X84466655Y-77200000D01*
X84580729Y-77773489D01*
X84905585Y-78259670D01*
X85220366Y-78470000D01*
X84905585Y-78680330D01*
X84580729Y-79166511D01*
X84466655Y-79740000D01*
X84580729Y-80313489D01*
X84905585Y-80799670D01*
X85220366Y-81010000D01*
X84905585Y-81220330D01*
X84580729Y-81706511D01*
X84466655Y-82280000D01*
X84580729Y-82853489D01*
X84905585Y-83339670D01*
X84919913Y-83349243D01*
X84898683Y-83353238D01*
X84682559Y-83492310D01*
X84537569Y-83704510D01*
X84486560Y-83956400D01*
X84486560Y-85683600D01*
X84530838Y-85918917D01*
X84669910Y-86135041D01*
X84882110Y-86280031D01*
X85134000Y-86331040D01*
X87166000Y-86331040D01*
X87401317Y-86286762D01*
X87417099Y-86276607D01*
X87422110Y-86280031D01*
X87674000Y-86331040D01*
X89706000Y-86331040D01*
X89941317Y-86286762D01*
X89957099Y-86276607D01*
X89962110Y-86280031D01*
X90214000Y-86331040D01*
X91423193Y-86331040D01*
X91423138Y-86393667D01*
X91565183Y-86737443D01*
X91827973Y-87000692D01*
X92171501Y-87143338D01*
X92543467Y-87143662D01*
X92887243Y-87001617D01*
X93150492Y-86738827D01*
X93293138Y-86395299D01*
X93293462Y-86023333D01*
X93151417Y-85679557D01*
X93147734Y-85675867D01*
X106005538Y-85675867D01*
X106147583Y-86019643D01*
X106410373Y-86282892D01*
X106753901Y-86425538D01*
X107125867Y-86425862D01*
X107469643Y-86283817D01*
X107732892Y-86021027D01*
X107875538Y-85677499D01*
X107875862Y-85305533D01*
X107733817Y-84961757D01*
X107471027Y-84698508D01*
X107127499Y-84555862D01*
X106755533Y-84555538D01*
X106411757Y-84697583D01*
X106148508Y-84960373D01*
X106005862Y-85303901D01*
X106005538Y-85675867D01*
X93147734Y-85675867D01*
X92893440Y-85421129D01*
X92893440Y-83956400D01*
X92849162Y-83721083D01*
X92710090Y-83504959D01*
X92497890Y-83359969D01*
X92456561Y-83351600D01*
X92474415Y-83339670D01*
X92799271Y-82853489D01*
X92913345Y-82280000D01*
X92908191Y-82254086D01*
X98126269Y-82254086D01*
X98328854Y-82744380D01*
X98703647Y-83119827D01*
X99084050Y-83277784D01*
X99083738Y-83635967D01*
X99225783Y-83979743D01*
X99488573Y-84242992D01*
X99832101Y-84385638D01*
X100204067Y-84385962D01*
X100547843Y-84243917D01*
X100811092Y-83981127D01*
X100953738Y-83637599D01*
X100954062Y-83265633D01*
X100812981Y-82924188D01*
X103785417Y-82924188D01*
X103847071Y-83159800D01*
X104347480Y-83335927D01*
X104877199Y-83307148D01*
X105232929Y-83159800D01*
X105294583Y-82924188D01*
X104540000Y-82169605D01*
X103785417Y-82924188D01*
X100812981Y-82924188D01*
X100812017Y-82921857D01*
X100603632Y-82713108D01*
X100793268Y-82256413D01*
X100793668Y-81797480D01*
X103194073Y-81797480D01*
X103222852Y-82327199D01*
X103370200Y-82682929D01*
X103605812Y-82744583D01*
X104360395Y-81990000D01*
X104719605Y-81990000D01*
X105474188Y-82744583D01*
X105709800Y-82682929D01*
X105885927Y-82182520D01*
X105857148Y-81652801D01*
X105709800Y-81297071D01*
X105474188Y-81235417D01*
X104719605Y-81990000D01*
X104360395Y-81990000D01*
X103605812Y-81235417D01*
X103370200Y-81297071D01*
X103194073Y-81797480D01*
X100793668Y-81797480D01*
X100793731Y-81725914D01*
X100591146Y-81235620D01*
X100411652Y-81055812D01*
X103785417Y-81055812D01*
X104540000Y-81810395D01*
X105294583Y-81055812D01*
X105232929Y-80820200D01*
X104732520Y-80644073D01*
X104202801Y-80672852D01*
X103847071Y-80820200D01*
X103785417Y-81055812D01*
X100411652Y-81055812D01*
X100216353Y-80860173D01*
X99726413Y-80656732D01*
X99195914Y-80656269D01*
X98705620Y-80858854D01*
X98330173Y-81233647D01*
X98126732Y-81723587D01*
X98126269Y-82254086D01*
X92908191Y-82254086D01*
X92799271Y-81706511D01*
X92474415Y-81220330D01*
X92159634Y-81010000D01*
X92474415Y-80799670D01*
X92799271Y-80313489D01*
X92913345Y-79740000D01*
X92799271Y-79166511D01*
X92474415Y-78680330D01*
X92159634Y-78470000D01*
X92474415Y-78259670D01*
X92799271Y-77773489D01*
X92913345Y-77200000D01*
X92799271Y-76626511D01*
X92474415Y-76140330D01*
X91988234Y-75815474D01*
X91414745Y-75701400D01*
X91045255Y-75701400D01*
X90471766Y-75815474D01*
X89985585Y-76140330D01*
X89960000Y-76178621D01*
X89934415Y-76140330D01*
X89448234Y-75815474D01*
X88874745Y-75701400D01*
X88505255Y-75701400D01*
X87931766Y-75815474D01*
X87445585Y-76140330D01*
X87420000Y-76178621D01*
X87394415Y-76140330D01*
X86908234Y-75815474D01*
X86334745Y-75701400D01*
X85965255Y-75701400D01*
X85391766Y-75815474D01*
X84905585Y-76140330D01*
X84580729Y-76626511D01*
X84466655Y-77200000D01*
X75284826Y-77200000D01*
X75285223Y-76745519D01*
X75090005Y-76273057D01*
X74728845Y-75911265D01*
X74256724Y-75715223D01*
X73745519Y-75714777D01*
X73273057Y-75909995D01*
X72911265Y-76271155D01*
X72785000Y-76575235D01*
X72785000Y-76223690D01*
X72688327Y-75990301D01*
X72509698Y-75811673D01*
X72276309Y-75715000D01*
X71785750Y-75715000D01*
X71627000Y-75873750D01*
X71373000Y-75873750D01*
X71214250Y-75715000D01*
X70723691Y-75715000D01*
X70490302Y-75811673D01*
X70311673Y-75990301D01*
X70215000Y-76223690D01*
X67284320Y-76223690D01*
X67061427Y-76000408D01*
X66717899Y-75857762D01*
X66664755Y-75857716D01*
X66692192Y-75830327D01*
X66834838Y-75486799D01*
X66835162Y-75114833D01*
X66693117Y-74771057D01*
X66430327Y-74507808D01*
X66086799Y-74365162D01*
X65714833Y-74364838D01*
X65371057Y-74506883D01*
X65107808Y-74769673D01*
X64965162Y-75113201D01*
X64965073Y-75214969D01*
X64745519Y-75214777D01*
X64273057Y-75409995D01*
X63911265Y-75771155D01*
X63785000Y-76075235D01*
X63785000Y-75723690D01*
X63688327Y-75490301D01*
X63509698Y-75311673D01*
X63276309Y-75215000D01*
X62785750Y-75215000D01*
X62627000Y-75373750D01*
X62373000Y-75373750D01*
X62214250Y-75215000D01*
X61723691Y-75215000D01*
X61490302Y-75311673D01*
X61311673Y-75490301D01*
X61215000Y-75723690D01*
X60880211Y-75723690D01*
X60880262Y-75666133D01*
X60738217Y-75322357D01*
X60475427Y-75059108D01*
X60131899Y-74916462D01*
X59759933Y-74916138D01*
X59416157Y-75058183D01*
X59152908Y-75320973D01*
X59010262Y-75664501D01*
X59009938Y-76036467D01*
X56590533Y-76036467D01*
X56590562Y-76004233D01*
X56448517Y-75660457D01*
X56185727Y-75397208D01*
X55842199Y-75254562D01*
X55470233Y-75254238D01*
X55126457Y-75396283D01*
X54863208Y-75659073D01*
X54720562Y-76002601D01*
X54720238Y-76374567D01*
X54731637Y-76402155D01*
X54712433Y-76402138D01*
X54368657Y-76544183D01*
X54105408Y-76806973D01*
X53996991Y-77068070D01*
X53721057Y-77182083D01*
X53457808Y-77444873D01*
X53315162Y-77788401D01*
X53314838Y-78160367D01*
X37710000Y-78160367D01*
X37710000Y-76559026D01*
X44112642Y-76559026D01*
X44115291Y-76574791D01*
X44369268Y-77102036D01*
X44805680Y-77491954D01*
X45358087Y-77685184D01*
X45593000Y-77540924D01*
X45593000Y-76327000D01*
X45847000Y-76327000D01*
X45847000Y-77540924D01*
X46081913Y-77685184D01*
X46634320Y-77491954D01*
X47070732Y-77102036D01*
X47324709Y-76574791D01*
X47327358Y-76559026D01*
X47206217Y-76327000D01*
X45847000Y-76327000D01*
X45593000Y-76327000D01*
X44233783Y-76327000D01*
X44112642Y-76559026D01*
X37710000Y-76559026D01*
X37710000Y-73882767D01*
X39939538Y-73882767D01*
X40081583Y-74226543D01*
X40344373Y-74489792D01*
X40687901Y-74632438D01*
X41059867Y-74632762D01*
X41403643Y-74490717D01*
X41666892Y-74227927D01*
X41809538Y-73884399D01*
X41809862Y-73512433D01*
X41667817Y-73168657D01*
X41405027Y-72905408D01*
X41061499Y-72762762D01*
X40689533Y-72762438D01*
X40345757Y-72904483D01*
X40082508Y-73167273D01*
X39939862Y-73510801D01*
X39939538Y-73882767D01*
X37710000Y-73882767D01*
X37710000Y-66040000D01*
X44036655Y-66040000D01*
X44150729Y-66613489D01*
X44475585Y-67099670D01*
X44790366Y-67310000D01*
X44475585Y-67520330D01*
X44150729Y-68006511D01*
X44036655Y-68580000D01*
X44150729Y-69153489D01*
X44475585Y-69639670D01*
X44790366Y-69850000D01*
X44475585Y-70060330D01*
X44150729Y-70546511D01*
X44036655Y-71120000D01*
X44150729Y-71693489D01*
X44475585Y-72179670D01*
X44790366Y-72390000D01*
X44475585Y-72600330D01*
X44150729Y-73086511D01*
X44036655Y-73660000D01*
X44150729Y-74233489D01*
X44475585Y-74719670D01*
X44785069Y-74926461D01*
X44369268Y-75297964D01*
X44115291Y-75825209D01*
X44112642Y-75840974D01*
X44233783Y-76073000D01*
X45593000Y-76073000D01*
X45593000Y-76053000D01*
X45847000Y-76053000D01*
X45847000Y-76073000D01*
X47206217Y-76073000D01*
X47327358Y-75840974D01*
X47324709Y-75825209D01*
X47070732Y-75297964D01*
X46654931Y-74926461D01*
X46964415Y-74719670D01*
X47289271Y-74233489D01*
X47333016Y-74013567D01*
X50064838Y-74013567D01*
X50206883Y-74357343D01*
X50469673Y-74620592D01*
X50813201Y-74763238D01*
X51185167Y-74763562D01*
X51528943Y-74621517D01*
X51792192Y-74358727D01*
X51934838Y-74015199D01*
X51934985Y-73846267D01*
X52016138Y-73846267D01*
X52158183Y-74190043D01*
X52420973Y-74453292D01*
X52764501Y-74595938D01*
X53136467Y-74596262D01*
X53480243Y-74454217D01*
X53743492Y-74191427D01*
X53886138Y-73847899D01*
X53886462Y-73475933D01*
X53744417Y-73132157D01*
X53481627Y-72868908D01*
X53138099Y-72726262D01*
X52766133Y-72725938D01*
X52422357Y-72867983D01*
X52159108Y-73130773D01*
X52016462Y-73474301D01*
X52016138Y-73846267D01*
X51934985Y-73846267D01*
X51935162Y-73643233D01*
X51793117Y-73299457D01*
X51530327Y-73036208D01*
X51186799Y-72893562D01*
X50814833Y-72893238D01*
X50471057Y-73035283D01*
X50207808Y-73298073D01*
X50065162Y-73641601D01*
X50064838Y-74013567D01*
X47333016Y-74013567D01*
X47403345Y-73660000D01*
X47289271Y-73086511D01*
X46970922Y-72610067D01*
X53680038Y-72610067D01*
X53822083Y-72953843D01*
X54084873Y-73217092D01*
X54428401Y-73359738D01*
X54800367Y-73360062D01*
X55144143Y-73218017D01*
X55407392Y-72955227D01*
X55550038Y-72611699D01*
X55550362Y-72239733D01*
X55408317Y-71895957D01*
X55145527Y-71632708D01*
X54801999Y-71490062D01*
X54430033Y-71489738D01*
X54086257Y-71631783D01*
X53823008Y-71894573D01*
X53680362Y-72238101D01*
X53680038Y-72610067D01*
X46970922Y-72610067D01*
X46964415Y-72600330D01*
X46649634Y-72390000D01*
X46964415Y-72179670D01*
X47289271Y-71693489D01*
X47403345Y-71120000D01*
X47289271Y-70546511D01*
X47065402Y-70211467D01*
X57706238Y-70211467D01*
X57848283Y-70555243D01*
X58111073Y-70818492D01*
X58251597Y-70876843D01*
X58377083Y-71180543D01*
X58639873Y-71443792D01*
X58983401Y-71586438D01*
X59355367Y-71586762D01*
X59699143Y-71444717D01*
X59753005Y-71390949D01*
X59752838Y-71582567D01*
X59894883Y-71926343D01*
X59987894Y-72019517D01*
X59741308Y-72265673D01*
X59598662Y-72609201D01*
X59598338Y-72981167D01*
X59740383Y-73324943D01*
X60003173Y-73588192D01*
X60346701Y-73730838D01*
X60718667Y-73731162D01*
X61062443Y-73589117D01*
X61325692Y-73326327D01*
X61468338Y-72982799D01*
X61468416Y-72892567D01*
X65293838Y-72892567D01*
X65435883Y-73236343D01*
X65698673Y-73499592D01*
X66042201Y-73642238D01*
X66227255Y-73642399D01*
X66226938Y-74005967D01*
X66368983Y-74349743D01*
X66631773Y-74612992D01*
X66975301Y-74755638D01*
X67347267Y-74755962D01*
X67691043Y-74613917D01*
X67954292Y-74351127D01*
X68096938Y-74007599D01*
X68097262Y-73635633D01*
X68058974Y-73542967D01*
X73456138Y-73542967D01*
X73598183Y-73886743D01*
X73860973Y-74149992D01*
X74204501Y-74292638D01*
X74576467Y-74292962D01*
X74594364Y-74285567D01*
X100781638Y-74285567D01*
X100923683Y-74629343D01*
X101186473Y-74892592D01*
X101530001Y-75035238D01*
X101901967Y-75035562D01*
X102245743Y-74893517D01*
X102508992Y-74630727D01*
X102651638Y-74287199D01*
X102651962Y-73915233D01*
X102509917Y-73571457D01*
X102247127Y-73308208D01*
X101903599Y-73165562D01*
X101531633Y-73165238D01*
X101187857Y-73307283D01*
X100924608Y-73570073D01*
X100781962Y-73913601D01*
X100781638Y-74285567D01*
X74594364Y-74285567D01*
X74920243Y-74150917D01*
X75183492Y-73888127D01*
X75326138Y-73544599D01*
X75326462Y-73172633D01*
X75184417Y-72828857D01*
X75111056Y-72755367D01*
X79309738Y-72755367D01*
X79451783Y-73099143D01*
X79714573Y-73362392D01*
X80058101Y-73505038D01*
X80430067Y-73505362D01*
X80773843Y-73363317D01*
X81037092Y-73100527D01*
X81179738Y-72756999D01*
X81179961Y-72500000D01*
X105873000Y-72500000D01*
X105873000Y-77500000D01*
X105881685Y-77546159D01*
X105908965Y-77588553D01*
X105950590Y-77616994D01*
X106000000Y-77627000D01*
X111000000Y-77627000D01*
X111046159Y-77618315D01*
X111088553Y-77591035D01*
X111116994Y-77549410D01*
X111127000Y-77500000D01*
X111127000Y-72500000D01*
X111118315Y-72453841D01*
X111091035Y-72411447D01*
X111049410Y-72383006D01*
X111000000Y-72373000D01*
X106000000Y-72373000D01*
X105953841Y-72381685D01*
X105911447Y-72408965D01*
X105883006Y-72450590D01*
X105873000Y-72500000D01*
X81179961Y-72500000D01*
X81180051Y-72397246D01*
X81281901Y-72439538D01*
X81653867Y-72439862D01*
X81997643Y-72297817D01*
X82260892Y-72035027D01*
X82403538Y-71691499D01*
X82403565Y-71659967D01*
X87384138Y-71659967D01*
X87526183Y-72003743D01*
X87788973Y-72266992D01*
X88132501Y-72409638D01*
X88504467Y-72409962D01*
X88848243Y-72267917D01*
X89111492Y-72005127D01*
X89254138Y-71661599D01*
X89254462Y-71289633D01*
X89187085Y-71126567D01*
X96831538Y-71126567D01*
X96973583Y-71470343D01*
X97236373Y-71733592D01*
X97579901Y-71876238D01*
X97951867Y-71876562D01*
X98295643Y-71734517D01*
X98558892Y-71471727D01*
X98701538Y-71128199D01*
X98701862Y-70756233D01*
X98559817Y-70412457D01*
X98297027Y-70149208D01*
X97953499Y-70006562D01*
X97581533Y-70006238D01*
X97237757Y-70148283D01*
X96974508Y-70411073D01*
X96831862Y-70754601D01*
X96831538Y-71126567D01*
X89187085Y-71126567D01*
X89112417Y-70945857D01*
X88849627Y-70682608D01*
X88506099Y-70539962D01*
X88134133Y-70539638D01*
X87790357Y-70681683D01*
X87527108Y-70944473D01*
X87384462Y-71288001D01*
X87384138Y-71659967D01*
X82403565Y-71659967D01*
X82403862Y-71319533D01*
X82261817Y-70975757D01*
X81999027Y-70712508D01*
X81805128Y-70631994D01*
X81805362Y-70362833D01*
X81737489Y-70198567D01*
X83726738Y-70198567D01*
X83868783Y-70542343D01*
X84131573Y-70805592D01*
X84475101Y-70948238D01*
X84847067Y-70948562D01*
X85190843Y-70806517D01*
X85454092Y-70543727D01*
X85596738Y-70200199D01*
X85597062Y-69828233D01*
X85455017Y-69484457D01*
X85192227Y-69221208D01*
X84848699Y-69078562D01*
X84476733Y-69078238D01*
X84132957Y-69220283D01*
X83869708Y-69483073D01*
X83727062Y-69826601D01*
X83726738Y-70198567D01*
X81737489Y-70198567D01*
X81663317Y-70019057D01*
X81400527Y-69755808D01*
X81056999Y-69613162D01*
X80685033Y-69612838D01*
X80341257Y-69754883D01*
X80078008Y-70017673D01*
X79935362Y-70361201D01*
X79935038Y-70733167D01*
X80077083Y-71076943D01*
X80339873Y-71340192D01*
X80533772Y-71420706D01*
X80533549Y-71677654D01*
X80431699Y-71635362D01*
X80059733Y-71635038D01*
X79715957Y-71777083D01*
X79452708Y-72039873D01*
X79310062Y-72383401D01*
X79309738Y-72755367D01*
X75111056Y-72755367D01*
X74921627Y-72565608D01*
X74578099Y-72422962D01*
X74206133Y-72422638D01*
X73862357Y-72564683D01*
X73599108Y-72827473D01*
X73456462Y-73171001D01*
X73456138Y-73542967D01*
X68058974Y-73542967D01*
X67955217Y-73291857D01*
X67692427Y-73028608D01*
X67348899Y-72885962D01*
X67163845Y-72885801D01*
X67164075Y-72621267D01*
X69358338Y-72621267D01*
X69500383Y-72965043D01*
X69763173Y-73228292D01*
X70106701Y-73370938D01*
X70478667Y-73371262D01*
X70822443Y-73229217D01*
X71085692Y-72966427D01*
X71228338Y-72622899D01*
X71228662Y-72250933D01*
X71086617Y-71907157D01*
X70823827Y-71643908D01*
X70480299Y-71501262D01*
X70108333Y-71500938D01*
X69764557Y-71642983D01*
X69501308Y-71905773D01*
X69358662Y-72249301D01*
X69358338Y-72621267D01*
X67164075Y-72621267D01*
X67164162Y-72522233D01*
X67022117Y-72178457D01*
X66759327Y-71915208D01*
X66415799Y-71772562D01*
X66043833Y-71772238D01*
X65700057Y-71914283D01*
X65436808Y-72177073D01*
X65294162Y-72520601D01*
X65293838Y-72892567D01*
X61468416Y-72892567D01*
X61468662Y-72610833D01*
X61326617Y-72267057D01*
X61233606Y-72173883D01*
X61480192Y-71927727D01*
X61572414Y-71705632D01*
X61606467Y-71705662D01*
X61734928Y-71652583D01*
X62073901Y-71793338D01*
X62445867Y-71793662D01*
X62789643Y-71651617D01*
X63052892Y-71388827D01*
X63195538Y-71045299D01*
X63195654Y-70911967D01*
X73227938Y-70911967D01*
X73369983Y-71255743D01*
X73632773Y-71518992D01*
X73976301Y-71661638D01*
X74348267Y-71661962D01*
X74692043Y-71519917D01*
X74805205Y-71406952D01*
X74808383Y-71414643D01*
X75071173Y-71677892D01*
X75414701Y-71820538D01*
X75786667Y-71820862D01*
X76130443Y-71678817D01*
X76393692Y-71416027D01*
X76536338Y-71072499D01*
X76536662Y-70700533D01*
X76394617Y-70356757D01*
X76131827Y-70093508D01*
X75788299Y-69950862D01*
X75416333Y-69950538D01*
X75072557Y-70092583D01*
X74959395Y-70205548D01*
X74956217Y-70197857D01*
X74693427Y-69934608D01*
X74349899Y-69791962D01*
X73977933Y-69791638D01*
X73634157Y-69933683D01*
X73370908Y-70196473D01*
X73228262Y-70540001D01*
X73227938Y-70911967D01*
X63195654Y-70911967D01*
X63195862Y-70673333D01*
X63053817Y-70329557D01*
X62791027Y-70066308D01*
X62447499Y-69923662D01*
X62075533Y-69923338D01*
X61947072Y-69976417D01*
X61608099Y-69835662D01*
X61236133Y-69835338D01*
X60892357Y-69977383D01*
X60629108Y-70240173D01*
X60536886Y-70462268D01*
X60502833Y-70462238D01*
X60159057Y-70604283D01*
X60105195Y-70658051D01*
X60105362Y-70466433D01*
X59963317Y-70122657D01*
X59700527Y-69859408D01*
X59560003Y-69801057D01*
X59434517Y-69497357D01*
X59171727Y-69234108D01*
X58828199Y-69091462D01*
X58456233Y-69091138D01*
X58112457Y-69233183D01*
X57849208Y-69495973D01*
X57706562Y-69839501D01*
X57706238Y-70211467D01*
X47065402Y-70211467D01*
X46964415Y-70060330D01*
X46649634Y-69850000D01*
X46964415Y-69639670D01*
X47194738Y-69294967D01*
X50088138Y-69294967D01*
X50230183Y-69638743D01*
X50492973Y-69901992D01*
X50836501Y-70044638D01*
X51208467Y-70044962D01*
X51552243Y-69902917D01*
X51815492Y-69640127D01*
X51958138Y-69296599D01*
X51958462Y-68924633D01*
X51816417Y-68580857D01*
X51553627Y-68317608D01*
X51210099Y-68174962D01*
X50838133Y-68174638D01*
X50494357Y-68316683D01*
X50231108Y-68579473D01*
X50088462Y-68923001D01*
X50088138Y-69294967D01*
X47194738Y-69294967D01*
X47289271Y-69153489D01*
X47403345Y-68580000D01*
X47289271Y-68006511D01*
X46964415Y-67520330D01*
X46836960Y-67435167D01*
X54764838Y-67435167D01*
X54906883Y-67778943D01*
X55169673Y-68042192D01*
X55279742Y-68087897D01*
X55215223Y-68243276D01*
X55214777Y-68754481D01*
X55409995Y-69226943D01*
X55771155Y-69588735D01*
X56243276Y-69784777D01*
X56754481Y-69785223D01*
X57226943Y-69590005D01*
X57588735Y-69228845D01*
X57784777Y-68756724D01*
X57785140Y-68339667D01*
X74506738Y-68339667D01*
X74648783Y-68683443D01*
X74911573Y-68946692D01*
X75255101Y-69089338D01*
X75627067Y-69089662D01*
X75970843Y-68947617D01*
X76234092Y-68684827D01*
X76376738Y-68341299D01*
X76377062Y-67969333D01*
X76235017Y-67625557D01*
X76131850Y-67522210D01*
X76337292Y-67317127D01*
X76479938Y-66973599D01*
X76480262Y-66601633D01*
X76338217Y-66257857D01*
X76075427Y-65994608D01*
X75731899Y-65851962D01*
X75359933Y-65851638D01*
X75016157Y-65993683D01*
X74752908Y-66256473D01*
X74610262Y-66600001D01*
X74609938Y-66971967D01*
X74751983Y-67315743D01*
X74855150Y-67419090D01*
X74649708Y-67624173D01*
X74507062Y-67967701D01*
X74506738Y-68339667D01*
X57785140Y-68339667D01*
X57785223Y-68245519D01*
X57590005Y-67773057D01*
X57266881Y-67449367D01*
X59739638Y-67449367D01*
X59881683Y-67793143D01*
X60144473Y-68056392D01*
X60488001Y-68199038D01*
X60859967Y-68199362D01*
X61203743Y-68057317D01*
X61466992Y-67794527D01*
X61609638Y-67450999D01*
X61609962Y-67079033D01*
X61467917Y-66735257D01*
X61205127Y-66472008D01*
X60861599Y-66329362D01*
X60489633Y-66329038D01*
X60145857Y-66471083D01*
X59882608Y-66733873D01*
X59739962Y-67077401D01*
X59739638Y-67449367D01*
X57266881Y-67449367D01*
X57228845Y-67411265D01*
X56924765Y-67285000D01*
X57276310Y-67285000D01*
X57509699Y-67188327D01*
X57688327Y-67009698D01*
X57785000Y-66776309D01*
X57785000Y-66285750D01*
X57626250Y-66127000D01*
X56627000Y-66127000D01*
X56627000Y-66147000D01*
X56373000Y-66147000D01*
X56373000Y-66127000D01*
X55373750Y-66127000D01*
X55215000Y-66285750D01*
X55215000Y-66438726D01*
X55171057Y-66456883D01*
X54907808Y-66719673D01*
X54765162Y-67063201D01*
X54764838Y-67435167D01*
X46836960Y-67435167D01*
X46649634Y-67310000D01*
X46964415Y-67099670D01*
X47289271Y-66613489D01*
X47403345Y-66040000D01*
X47289271Y-65466511D01*
X46964415Y-64980330D01*
X46950087Y-64970757D01*
X46971317Y-64966762D01*
X47187441Y-64827690D01*
X47332431Y-64615490D01*
X47368623Y-64436767D01*
X53980838Y-64436767D01*
X54122883Y-64780543D01*
X54385673Y-65043792D01*
X54729201Y-65186438D01*
X55101167Y-65186762D01*
X55256960Y-65122390D01*
X55215000Y-65223691D01*
X55215000Y-65714250D01*
X55373750Y-65873000D01*
X56373000Y-65873000D01*
X56373000Y-64873750D01*
X56627000Y-64873750D01*
X56627000Y-65873000D01*
X57626250Y-65873000D01*
X57785000Y-65714250D01*
X57785000Y-65223691D01*
X57765481Y-65176567D01*
X59737638Y-65176567D01*
X59879683Y-65520343D01*
X60142473Y-65783592D01*
X60486001Y-65926238D01*
X60857967Y-65926562D01*
X61102394Y-65825567D01*
X97090638Y-65825567D01*
X97232683Y-66169343D01*
X97378954Y-66315869D01*
X97239908Y-66454673D01*
X97097262Y-66798201D01*
X97096938Y-67170167D01*
X97238983Y-67513943D01*
X97501773Y-67777192D01*
X97845301Y-67919838D01*
X98217267Y-67920162D01*
X98561043Y-67778117D01*
X98824292Y-67515327D01*
X98966938Y-67171799D01*
X98967262Y-66799833D01*
X98825217Y-66456057D01*
X98678946Y-66309531D01*
X98817992Y-66170727D01*
X98960638Y-65827199D01*
X98960962Y-65455233D01*
X98818917Y-65111457D01*
X98762676Y-65055118D01*
X98833992Y-64983927D01*
X98976638Y-64640399D01*
X98976962Y-64268433D01*
X98834917Y-63924657D01*
X98572127Y-63661408D01*
X98228599Y-63518762D01*
X97856633Y-63518438D01*
X97512857Y-63660483D01*
X97249608Y-63923273D01*
X97106962Y-64266801D01*
X97106638Y-64638767D01*
X97248683Y-64982543D01*
X97304924Y-65038882D01*
X97233608Y-65110073D01*
X97090962Y-65453601D01*
X97090638Y-65825567D01*
X61102394Y-65825567D01*
X61201743Y-65784517D01*
X61464992Y-65521727D01*
X61607638Y-65178199D01*
X61607962Y-64806233D01*
X61465917Y-64462457D01*
X61203127Y-64199208D01*
X60859599Y-64056562D01*
X60487633Y-64056238D01*
X60143857Y-64198283D01*
X59880608Y-64461073D01*
X59737962Y-64804601D01*
X59737638Y-65176567D01*
X57765481Y-65176567D01*
X57688327Y-64990302D01*
X57509699Y-64811673D01*
X57276310Y-64715000D01*
X56785750Y-64715000D01*
X56627000Y-64873750D01*
X56373000Y-64873750D01*
X56214250Y-64715000D01*
X55735983Y-64715000D01*
X55850838Y-64438399D01*
X55851162Y-64066433D01*
X55709117Y-63722657D01*
X55446327Y-63459408D01*
X55102799Y-63316762D01*
X54730833Y-63316438D01*
X54387057Y-63458483D01*
X54123808Y-63721273D01*
X53981162Y-64064801D01*
X53980838Y-64436767D01*
X47368623Y-64436767D01*
X47383440Y-64363600D01*
X47383440Y-62636400D01*
X47353178Y-62475567D01*
X74392338Y-62475567D01*
X74534383Y-62819343D01*
X74797173Y-63082592D01*
X75140701Y-63225238D01*
X75512667Y-63225562D01*
X75856443Y-63083517D01*
X75956773Y-62983362D01*
X76092301Y-63039638D01*
X76464267Y-63039962D01*
X76808043Y-62897917D01*
X77071292Y-62635127D01*
X77213938Y-62291599D01*
X77214262Y-61919633D01*
X77072217Y-61575857D01*
X77051863Y-61555467D01*
X77302338Y-61555467D01*
X77444383Y-61899243D01*
X77707173Y-62162492D01*
X78050701Y-62305138D01*
X78422667Y-62305462D01*
X78766443Y-62163417D01*
X79029692Y-61900627D01*
X79077705Y-61785000D01*
X79214250Y-61785000D01*
X79373000Y-61626250D01*
X79373000Y-60627000D01*
X79627000Y-60627000D01*
X79627000Y-61626250D01*
X79785750Y-61785000D01*
X80276310Y-61785000D01*
X80509699Y-61688327D01*
X80688327Y-61509698D01*
X80785000Y-61276309D01*
X80785000Y-60785750D01*
X80626250Y-60627000D01*
X79627000Y-60627000D01*
X79373000Y-60627000D01*
X79353000Y-60627000D01*
X79353000Y-60545767D01*
X83058738Y-60545767D01*
X83200783Y-60889543D01*
X83463573Y-61152792D01*
X83807101Y-61295438D01*
X84179067Y-61295762D01*
X84522843Y-61153717D01*
X84786092Y-60890927D01*
X84928738Y-60547399D01*
X84929062Y-60175433D01*
X84787017Y-59831657D01*
X84524227Y-59568408D01*
X84180699Y-59425762D01*
X83808733Y-59425438D01*
X83464957Y-59567483D01*
X83201708Y-59830273D01*
X83059062Y-60173801D01*
X83058738Y-60545767D01*
X79353000Y-60545767D01*
X79353000Y-60373000D01*
X79373000Y-60373000D01*
X79373000Y-60353000D01*
X79627000Y-60353000D01*
X79627000Y-60373000D01*
X80626250Y-60373000D01*
X80785000Y-60214250D01*
X80785000Y-59723691D01*
X80688327Y-59490302D01*
X80509699Y-59311673D01*
X80276310Y-59215000D01*
X79924433Y-59215000D01*
X80226943Y-59090005D01*
X80588735Y-58728845D01*
X80684437Y-58498367D01*
X97078338Y-58498367D01*
X97220383Y-58842143D01*
X97483173Y-59105392D01*
X97826701Y-59248038D01*
X98198667Y-59248362D01*
X98542443Y-59106317D01*
X98805692Y-58843527D01*
X98948338Y-58499999D01*
X98948662Y-58128033D01*
X98806617Y-57784257D01*
X98543827Y-57521008D01*
X98200299Y-57378362D01*
X97828333Y-57378038D01*
X97484557Y-57520083D01*
X97221308Y-57782873D01*
X97078662Y-58126401D01*
X97078338Y-58498367D01*
X80684437Y-58498367D01*
X80784777Y-58256724D01*
X80785223Y-57745519D01*
X80590005Y-57273057D01*
X80228845Y-56911265D01*
X79756724Y-56715223D01*
X79245519Y-56714777D01*
X78773057Y-56909995D01*
X78411265Y-57271155D01*
X78215223Y-57743276D01*
X78214777Y-58254481D01*
X78409995Y-58726943D01*
X78771155Y-59088735D01*
X79075235Y-59215000D01*
X78723690Y-59215000D01*
X78490301Y-59311673D01*
X78311673Y-59490302D01*
X78215000Y-59723691D01*
X78215000Y-60214250D01*
X78373748Y-60372998D01*
X78215000Y-60372998D01*
X78215000Y-60435280D01*
X78052333Y-60435138D01*
X77708557Y-60577183D01*
X77445308Y-60839973D01*
X77302662Y-61183501D01*
X77302338Y-61555467D01*
X77051863Y-61555467D01*
X76809427Y-61312608D01*
X76465899Y-61169962D01*
X76093933Y-61169638D01*
X75750157Y-61311683D01*
X75649827Y-61411838D01*
X75514299Y-61355562D01*
X75142333Y-61355238D01*
X74798557Y-61497283D01*
X74535308Y-61760073D01*
X74392662Y-62103601D01*
X74392338Y-62475567D01*
X47353178Y-62475567D01*
X47339162Y-62401083D01*
X47200090Y-62184959D01*
X46987890Y-62039969D01*
X46736000Y-61988960D01*
X44704000Y-61988960D01*
X44468683Y-62033238D01*
X44252559Y-62172310D01*
X44107569Y-62384510D01*
X44056560Y-62636400D01*
X44056560Y-64363600D01*
X44100838Y-64598917D01*
X44239910Y-64815041D01*
X44452110Y-64960031D01*
X44493439Y-64968400D01*
X44475585Y-64980330D01*
X44150729Y-65466511D01*
X44036655Y-66040000D01*
X37710000Y-66040000D01*
X37710000Y-61233267D01*
X59763538Y-61233267D01*
X59905583Y-61577043D01*
X60168373Y-61840292D01*
X60511901Y-61982938D01*
X60883867Y-61983262D01*
X61227643Y-61841217D01*
X61490892Y-61578427D01*
X61633538Y-61234899D01*
X61633862Y-60862933D01*
X61511531Y-60566867D01*
X74370438Y-60566867D01*
X74512483Y-60910643D01*
X74775273Y-61173892D01*
X75118801Y-61316538D01*
X75490767Y-61316862D01*
X75834543Y-61174817D01*
X76097792Y-60912027D01*
X76240438Y-60568499D01*
X76240762Y-60196533D01*
X76098717Y-59852757D01*
X75835927Y-59589508D01*
X75492399Y-59446862D01*
X75120433Y-59446538D01*
X74776657Y-59588583D01*
X74513408Y-59851373D01*
X74370762Y-60194901D01*
X74370438Y-60566867D01*
X61511531Y-60566867D01*
X61491817Y-60519157D01*
X61229027Y-60255908D01*
X60885499Y-60113262D01*
X60513533Y-60112938D01*
X60169757Y-60254983D01*
X59906508Y-60517773D01*
X59763862Y-60861301D01*
X59763538Y-61233267D01*
X37710000Y-61233267D01*
X37710000Y-57150000D01*
X44036655Y-57150000D01*
X44150729Y-57723489D01*
X44475585Y-58209670D01*
X44489913Y-58219243D01*
X44468683Y-58223238D01*
X44252559Y-58362310D01*
X44107569Y-58574510D01*
X44056560Y-58826400D01*
X44056560Y-60553600D01*
X44100838Y-60788917D01*
X44239910Y-61005041D01*
X44452110Y-61150031D01*
X44704000Y-61201040D01*
X46736000Y-61201040D01*
X46971317Y-61156762D01*
X47187441Y-61017690D01*
X47332431Y-60805490D01*
X47383440Y-60553600D01*
X47383440Y-59475667D01*
X72766138Y-59475667D01*
X72908183Y-59819443D01*
X73170973Y-60082692D01*
X73514501Y-60225338D01*
X73886467Y-60225662D01*
X74230243Y-60083617D01*
X74493492Y-59820827D01*
X74636138Y-59477299D01*
X74636462Y-59105333D01*
X74494417Y-58761557D01*
X74231627Y-58498308D01*
X74211540Y-58489967D01*
X74913338Y-58489967D01*
X75055383Y-58833743D01*
X75318173Y-59096992D01*
X75661701Y-59239638D01*
X76033667Y-59239962D01*
X76377443Y-59097917D01*
X76640692Y-58835127D01*
X76783338Y-58491599D01*
X76783662Y-58119633D01*
X76641617Y-57775857D01*
X76378827Y-57512608D01*
X76035299Y-57369962D01*
X75663333Y-57369638D01*
X75319557Y-57511683D01*
X75056308Y-57774473D01*
X74913662Y-58118001D01*
X74913338Y-58489967D01*
X74211540Y-58489967D01*
X73888099Y-58355662D01*
X73516133Y-58355338D01*
X73172357Y-58497383D01*
X72909108Y-58760173D01*
X72766462Y-59103701D01*
X72766138Y-59475667D01*
X47383440Y-59475667D01*
X47383440Y-58826400D01*
X47339162Y-58591083D01*
X47200090Y-58374959D01*
X46987890Y-58229969D01*
X46946561Y-58221600D01*
X46964415Y-58209670D01*
X47168545Y-57904167D01*
X59600338Y-57904167D01*
X59742383Y-58247943D01*
X60005173Y-58511192D01*
X60348701Y-58653838D01*
X60720667Y-58654162D01*
X61064443Y-58512117D01*
X61081587Y-58495003D01*
X61149101Y-58523038D01*
X61521067Y-58523362D01*
X61864843Y-58381317D01*
X62128092Y-58118527D01*
X62270738Y-57774999D01*
X62271062Y-57403033D01*
X62214428Y-57265967D01*
X65541038Y-57265967D01*
X65683083Y-57609743D01*
X65945873Y-57872992D01*
X66289401Y-58015638D01*
X66461578Y-58015788D01*
X66539983Y-58205543D01*
X66802773Y-58468792D01*
X67146301Y-58611438D01*
X67518267Y-58611762D01*
X67862043Y-58469717D01*
X68022911Y-58309129D01*
X68195073Y-58481592D01*
X68538601Y-58624238D01*
X68910567Y-58624562D01*
X69254343Y-58482517D01*
X69517592Y-58219727D01*
X69660238Y-57876199D01*
X69660562Y-57504233D01*
X69518517Y-57160457D01*
X69255727Y-56897208D01*
X68912199Y-56754562D01*
X68907412Y-56754558D01*
X68844317Y-56601857D01*
X68581527Y-56338608D01*
X68237999Y-56195962D01*
X67866033Y-56195638D01*
X67522257Y-56337683D01*
X67280528Y-56578990D01*
X67269317Y-56551857D01*
X67006527Y-56288608D01*
X66662999Y-56145962D01*
X66291033Y-56145638D01*
X65947257Y-56287683D01*
X65684008Y-56550473D01*
X65541362Y-56894001D01*
X65541038Y-57265967D01*
X62214428Y-57265967D01*
X62129017Y-57059257D01*
X61866227Y-56796008D01*
X61522699Y-56653362D01*
X61150733Y-56653038D01*
X60806957Y-56795083D01*
X60789813Y-56812197D01*
X60722299Y-56784162D01*
X60350333Y-56783838D01*
X60006557Y-56925883D01*
X59743308Y-57188673D01*
X59600662Y-57532201D01*
X59600338Y-57904167D01*
X47168545Y-57904167D01*
X47289271Y-57723489D01*
X47403345Y-57150000D01*
X47289271Y-56576511D01*
X46964415Y-56090330D01*
X46654931Y-55883539D01*
X47070732Y-55512036D01*
X47101209Y-55448767D01*
X97101338Y-55448767D01*
X97243383Y-55792543D01*
X97506173Y-56055792D01*
X97849701Y-56198438D01*
X98221667Y-56198762D01*
X98565443Y-56056717D01*
X98828692Y-55793927D01*
X98971338Y-55450399D01*
X98971662Y-55078433D01*
X98829617Y-54734657D01*
X98566827Y-54471408D01*
X98223299Y-54328762D01*
X97851333Y-54328438D01*
X97507557Y-54470483D01*
X97244308Y-54733273D01*
X97101662Y-55076801D01*
X97101338Y-55448767D01*
X47101209Y-55448767D01*
X47324709Y-54984791D01*
X47327358Y-54969026D01*
X47206217Y-54737000D01*
X45847000Y-54737000D01*
X45847000Y-54757000D01*
X45593000Y-54757000D01*
X45593000Y-54737000D01*
X44233783Y-54737000D01*
X44112642Y-54969026D01*
X44115291Y-54984791D01*
X44369268Y-55512036D01*
X44785069Y-55883539D01*
X44475585Y-56090330D01*
X44150729Y-56576511D01*
X44036655Y-57150000D01*
X37710000Y-57150000D01*
X37710000Y-53104282D01*
X37750838Y-53321317D01*
X37873000Y-53511162D01*
X37873000Y-54000000D01*
X37881685Y-54046159D01*
X37908965Y-54088553D01*
X37950590Y-54116994D01*
X38000000Y-54127000D01*
X43000000Y-54127000D01*
X43046159Y-54118315D01*
X43088553Y-54091035D01*
X43116994Y-54049410D01*
X43127000Y-54000000D01*
X43127000Y-53195596D01*
X43435325Y-52734155D01*
X43561000Y-52102345D01*
X43561000Y-52070000D01*
X44036655Y-52070000D01*
X44150729Y-52643489D01*
X44475585Y-53129670D01*
X44785069Y-53336461D01*
X44369268Y-53707964D01*
X44115291Y-54235209D01*
X44112642Y-54250974D01*
X44233783Y-54483000D01*
X45593000Y-54483000D01*
X45593000Y-54463000D01*
X45847000Y-54463000D01*
X45847000Y-54483000D01*
X47206217Y-54483000D01*
X47327358Y-54250974D01*
X47324709Y-54235209D01*
X47093140Y-53754481D01*
X60714777Y-53754481D01*
X60909995Y-54226943D01*
X61271155Y-54588735D01*
X61743276Y-54784777D01*
X62254481Y-54785223D01*
X62726943Y-54590005D01*
X63088735Y-54228845D01*
X63215000Y-53924765D01*
X63215000Y-54276310D01*
X63311673Y-54509699D01*
X63490302Y-54688327D01*
X63723691Y-54785000D01*
X64214250Y-54785000D01*
X64373000Y-54626250D01*
X64373000Y-53627000D01*
X64627000Y-53627000D01*
X64627000Y-54626250D01*
X64785750Y-54785000D01*
X65276309Y-54785000D01*
X65509698Y-54688327D01*
X65688327Y-54509699D01*
X65785000Y-54276310D01*
X65785000Y-53785750D01*
X65626250Y-53627000D01*
X64627000Y-53627000D01*
X64373000Y-53627000D01*
X64353000Y-53627000D01*
X64353000Y-53373000D01*
X64373000Y-53373000D01*
X64373000Y-52373750D01*
X64627000Y-52373750D01*
X64627000Y-53373000D01*
X65626250Y-53373000D01*
X65785000Y-53214250D01*
X65785000Y-52723690D01*
X65688327Y-52490301D01*
X65509698Y-52311673D01*
X65276309Y-52215000D01*
X64785750Y-52215000D01*
X64627000Y-52373750D01*
X64373000Y-52373750D01*
X64214250Y-52215000D01*
X63723691Y-52215000D01*
X63490302Y-52311673D01*
X63311673Y-52490301D01*
X63215000Y-52723690D01*
X63215000Y-53075567D01*
X63090005Y-52773057D01*
X62728845Y-52411265D01*
X62256724Y-52215223D01*
X61745519Y-52214777D01*
X61273057Y-52409995D01*
X60911265Y-52771155D01*
X60715223Y-53243276D01*
X60714777Y-53754481D01*
X47093140Y-53754481D01*
X47070732Y-53707964D01*
X46654931Y-53336461D01*
X46964415Y-53129670D01*
X47289271Y-52643489D01*
X47403345Y-52070000D01*
X47289271Y-51496511D01*
X46964415Y-51010330D01*
X46478234Y-50685474D01*
X45904745Y-50571400D01*
X45535255Y-50571400D01*
X44961766Y-50685474D01*
X44475585Y-51010330D01*
X44150729Y-51496511D01*
X44036655Y-52070000D01*
X43561000Y-52070000D01*
X43561000Y-52037655D01*
X43435325Y-51405845D01*
X43127000Y-50944404D01*
X43127000Y-50184000D01*
X52236560Y-50184000D01*
X52236560Y-52216000D01*
X52280838Y-52451317D01*
X52419910Y-52667441D01*
X52632110Y-52812431D01*
X52884000Y-52863440D01*
X54916000Y-52863440D01*
X55151317Y-52819162D01*
X55367441Y-52680090D01*
X55474233Y-52523794D01*
X55775845Y-52725325D01*
X56407655Y-52851000D01*
X56472345Y-52851000D01*
X57104155Y-52725325D01*
X57639778Y-52367433D01*
X57997670Y-51831810D01*
X58123345Y-51200000D01*
X58016881Y-50664767D01*
X84039538Y-50664767D01*
X84181583Y-51008543D01*
X84444373Y-51271792D01*
X84787901Y-51414438D01*
X85159867Y-51414762D01*
X85503643Y-51272717D01*
X85766892Y-51009927D01*
X85909538Y-50666399D01*
X85909547Y-50655467D01*
X95259038Y-50655467D01*
X95401083Y-50999243D01*
X95663873Y-51262492D01*
X96007401Y-51405138D01*
X96379367Y-51405462D01*
X96723143Y-51263417D01*
X96986392Y-51000627D01*
X97129038Y-50657099D01*
X97129362Y-50285133D01*
X96987317Y-49941357D01*
X96724527Y-49678108D01*
X96380999Y-49535462D01*
X96009033Y-49535138D01*
X95665257Y-49677183D01*
X95402008Y-49939973D01*
X95259362Y-50283501D01*
X95259038Y-50655467D01*
X85909547Y-50655467D01*
X85909862Y-50294433D01*
X85767817Y-49950657D01*
X85505027Y-49687408D01*
X85161499Y-49544762D01*
X84789533Y-49544438D01*
X84445757Y-49686483D01*
X84182508Y-49949273D01*
X84039862Y-50292801D01*
X84039538Y-50664767D01*
X58016881Y-50664767D01*
X57997670Y-50568190D01*
X57639778Y-50032567D01*
X57104155Y-49674675D01*
X56472345Y-49549000D01*
X56407655Y-49549000D01*
X55775845Y-49674675D01*
X55473038Y-49877004D01*
X55380090Y-49732559D01*
X55167890Y-49587569D01*
X54916000Y-49536560D01*
X52884000Y-49536560D01*
X52648683Y-49580838D01*
X52432559Y-49719910D01*
X52287569Y-49932110D01*
X52236560Y-50184000D01*
X43127000Y-50184000D01*
X43127000Y-47000000D01*
X43118315Y-46953841D01*
X43091035Y-46911447D01*
X43049410Y-46883006D01*
X43000000Y-46873000D01*
X38000000Y-46873000D01*
X37953841Y-46881685D01*
X37911447Y-46908965D01*
X37883006Y-46950590D01*
X37873000Y-47000000D01*
X37873000Y-50633171D01*
X37757569Y-50802110D01*
X37710000Y-51037013D01*
X37710000Y-44490767D01*
X43427538Y-44490767D01*
X43569583Y-44834543D01*
X43832373Y-45097792D01*
X44175901Y-45240438D01*
X44547867Y-45240762D01*
X44891643Y-45098717D01*
X45154892Y-44835927D01*
X45297538Y-44492399D01*
X45297862Y-44120433D01*
X45155817Y-43776657D01*
X44893027Y-43513408D01*
X44549499Y-43370762D01*
X44177533Y-43370438D01*
X43833757Y-43512483D01*
X43570508Y-43775273D01*
X43427862Y-44118801D01*
X43427538Y-44490767D01*
X37710000Y-44490767D01*
X37710000Y-41500000D01*
X47873000Y-41500000D01*
X47873000Y-48500000D01*
X47881685Y-48546159D01*
X47908965Y-48588553D01*
X47950590Y-48616994D01*
X48000000Y-48627000D01*
X55500000Y-48627000D01*
X55546159Y-48618315D01*
X55588553Y-48591035D01*
X55616994Y-48549410D01*
X55627000Y-48500000D01*
X55627000Y-41500000D01*
X92373000Y-41500000D01*
X92373000Y-48500000D01*
X92381685Y-48546159D01*
X92408965Y-48588553D01*
X92450590Y-48616994D01*
X92500000Y-48627000D01*
X100000000Y-48627000D01*
X100046159Y-48618315D01*
X100088553Y-48591035D01*
X100116994Y-48549410D01*
X100127000Y-48500000D01*
X100127000Y-41500000D01*
X100118315Y-41453841D01*
X100091035Y-41411447D01*
X100049410Y-41383006D01*
X100000000Y-41373000D01*
X92500000Y-41373000D01*
X92453841Y-41381685D01*
X92411447Y-41408965D01*
X92383006Y-41450590D01*
X92373000Y-41500000D01*
X55627000Y-41500000D01*
X55618315Y-41453841D01*
X55591035Y-41411447D01*
X55549410Y-41383006D01*
X55500000Y-41373000D01*
X48000000Y-41373000D01*
X47953841Y-41381685D01*
X47911447Y-41408965D01*
X47883006Y-41450590D01*
X47873000Y-41500000D01*
X37710000Y-41500000D01*
X37710000Y-41000000D01*
X102873000Y-41000000D01*
X102873000Y-49000000D01*
X102881685Y-49046159D01*
X102908965Y-49088553D01*
X102950590Y-49116994D01*
X103000000Y-49127000D01*
X111000000Y-49127000D01*
X111046159Y-49118315D01*
X111088553Y-49091035D01*
X111116994Y-49049410D01*
X111127000Y-49000000D01*
X111127000Y-41000000D01*
X111118315Y-40953841D01*
X111091035Y-40911447D01*
X111049410Y-40883006D01*
X111000000Y-40873000D01*
X103000000Y-40873000D01*
X102953841Y-40881685D01*
X102911447Y-40908965D01*
X102883006Y-40950590D01*
X102873000Y-41000000D01*
X37710000Y-41000000D01*
X37710000Y-40710000D01*
X111290000Y-40710000D01*
X111290000Y-174290000D01*
M02*
